<svg width="51" height="51" viewBox="0 0 51 51" fill="none" xmlns="http://www.w3.org/2000/svg">
<g clip-path="url(#clip0_19_1605)">
<path d="M43.347 17.6017L43.2494 8.37259C43.2409 7.56365 42.5781 6.91476 41.7692 6.92331L32.5401 7.02089L26.0367 0.680204C25.459 0.117139 24.535 0.126908 23.9695 0.702059L17.6017 7.17882L8.37259 7.2764C7.56365 7.28495 6.91476 7.9477 6.92331 8.75664L7.02088 17.9857L0.6802 24.4891C0.117134 25.0667 0.126904 25.9908 0.702055 26.5563L7.17882 32.9241L7.27639 42.1532C7.28494 42.9622 7.9477 43.611 8.75664 43.6025L17.9857 43.5049L24.489 49.8456C24.7779 50.1271 25.1533 50.2655 25.5272 50.2615C25.9011 50.2576 26.2735 50.1113 26.5562 49.8237L32.9241 43.347L42.1532 43.2494C42.9621 43.2409 43.611 42.5781 43.6025 41.7692L43.5049 32.5401L49.8456 26.0368C50.4087 25.4592 50.3989 24.5351 49.8237 23.9696L43.347 17.6017ZM40.9849 30.928C40.7145 31.2055 40.5649 31.5786 40.569 31.966L40.6575 40.3354L32.2882 40.4239C31.9008 40.4279 31.5308 40.5854 31.2592 40.8616L25.4899 46.7296L19.5978 40.9849C19.3204 40.7145 18.9472 40.5649 18.5598 40.569L10.1904 40.6575L10.1019 32.2882C10.0979 31.9008 9.94041 31.5308 9.66419 31.2592L3.79623 25.4899L9.5409 19.5978C9.81132 19.3204 9.9609 18.9472 9.9568 18.5598L9.86832 10.1904L18.2376 10.102C18.625 10.0979 18.995 9.94042 19.2666 9.66419L25.0359 3.79623L30.9281 9.5409C31.2055 9.81132 31.5787 9.9609 31.9661 9.95681L40.3354 9.86832L40.4238 18.2376C40.4279 18.625 40.5854 18.995 40.8616 19.2666L46.7296 25.0359L40.9849 30.928Z" fill="black"/>
<path d="M20.02 30.54C21.7133 29.18 23.04 28.0667 24 27.2C24.96 26.32 25.7667 25.4067 26.42 24.46C27.0867 23.5 27.42 22.56 27.42 21.64C27.42 20.7733 27.2067 20.0933 26.78 19.6C26.3667 19.0933 25.6933 18.84 24.76 18.84C23.8533 18.84 23.1467 19.1267 22.64 19.7C22.1467 20.26 21.88 21.0133 21.84 21.96L20.08 21.96C20.1333 20.4667 20.5867 19.3133 21.44 18.5C22.2933 17.6867 23.3933 17.28 24.74 17.28C26.1133 17.28 27.2 17.66 28 18.42C28.8133 19.18 29.22 20.2267 29.22 21.56C29.22 22.6667 28.8867 23.7467 28.22 24.8C27.5667 25.84 26.82 26.76 25.98 27.56C25.14 28.3467 24.0667 29.2667 22.76 30.32L29.64 30.32L29.64 31.84L20.02 31.84L20.02 30.54Z" fill="black"/>
</g>
<defs>
<clipPath id="clip0_19_1605">
<rect width="50" height="50" fill="white" transform="translate(0 0.528595) rotate(-0.605732)"/>
</clipPath>
</defs>
</svg>
