<svg width="1273" height="68" viewBox="0 0 1273 68" fill="none" xmlns="http://www.w3.org/2000/svg">
<rect width="1273" height="68" rx="10" fill="#88ACBB"/>
<g clip-path="url(#clip0_165_56)">
<path d="M458.703 30.3519C458.022 32.9147 455.239 34.7565 450.358 35.8788L450.357 35.7312C452.971 34.825 454.536 33.8761 455.053 32.8898C452.604 33.0066 451.123 33.2648 450.602 33.663C450.941 32.4796 451.544 31.6376 452.417 31.1396C452.764 30.9387 454.859 30.6775 458.703 30.3519ZM585.636 37.1708C585.648 38.6466 585.134 39.928 584.094 41.0196C583.055 42.3059 581.488 42.9593 579.391 42.9758C577.99 42.9869 576.941 42.9439 576.244 42.8535C576.248 43.3446 576.252 43.8356 576.256 44.3293C576.271 46.2962 575.842 47.5287 574.974 48.0292C568.018 52.6086 561.483 54.9251 555.368 54.9734C552.747 54.9942 550.73 54.3205 549.323 52.9546C548.089 51.8803 547.469 50.6557 547.458 49.2795C547.441 47.0149 548.376 44.2036 550.275 40.8446C548.185 41.7463 544.702 43.5936 539.833 46.388C534.438 49.3825 530.522 51.4801 528.086 52.6797C523.555 54.6829 519.893 55.6963 517.1 55.7184C515.003 55.735 513.164 55.1824 511.582 54.0647C510 52.9452 509.204 51.6479 509.192 50.1721C509.178 48.4007 510.209 46.1281 512.284 43.3588C511.932 43.4582 511.499 43.5122 510.974 43.5164C509.749 43.526 508.701 43.483 507.828 43.394C507.831 43.8851 507.835 44.3762 507.839 44.8698C507.855 46.8367 507.512 48.0198 506.819 48.4201C498.638 53.0096 492.017 55.3263 486.95 55.3664C484.329 55.3871 482.313 54.8123 480.907 53.6423C479.498 52.4735 478.79 51.0515 478.776 49.379C478.772 48.7887 479.195 47.4803 480.056 45.4577C480.912 43.4326 481.337 41.684 481.325 40.2082C481.316 39.0275 481.045 37.8969 480.512 36.82C478.413 36.5414 476.309 35.7208 474.201 34.3608C472.093 32.9986 470.687 32.322 469.991 32.3275C469.115 32.3344 467.724 33.1808 465.816 34.8699C464.425 36.1583 463.215 37.4479 462.177 38.7357C466.204 39.8846 468.236 42.4259 468.267 46.3619L466.956 46.3723C465.027 45.8957 463.188 45.3708 461.438 44.7943C459.685 44.1189 458.803 43.0923 458.793 41.7161C454.779 42.8297 452.784 44.3214 452.799 46.1913C452.8 46.3872 454.522 48.6358 457.964 52.9393C461.406 57.2402 463.137 60.6702 463.157 63.2296L462.633 63.2338C462.268 61.6611 460.238 58.774 456.535 54.5733C453.182 50.6639 451.501 47.8247 451.487 46.0537C451.467 43.4939 454.155 41.1111 459.557 38.9055C460.243 37.6201 461.978 35.884 464.759 33.6986C467.884 31.114 470.405 29.8166 472.33 29.8014C473.027 29.7959 474.696 30.6683 477.332 32.4185C476.975 31.9276 476.8 31.4379 476.796 30.9468C476.786 29.6669 477.563 28.5793 479.129 27.6814C480.695 26.7834 482.612 26.3251 484.886 26.3072C486.631 26.2934 490.042 26.7328 495.12 27.6288C500.194 28.5222 504.653 28.9555 508.5 28.9251L505.377 31.9016C502.93 32.1169 499.005 33.0335 493.602 34.6513C488.895 36.0649 484.968 36.7859 481.823 36.8108C481.647 36.8121 481.299 36.8149 480.774 36.819C481.658 38.1887 482.108 39.6611 482.12 41.2362C482.13 42.5138 481.834 43.9438 481.236 45.5233C480.634 47.1017 480.338 47.9889 480.34 48.1874C480.365 51.335 482.646 52.8917 487.193 52.8558C490.511 52.8295 494.348 51.8148 498.703 49.8129C501.486 48.511 504.097 47.1627 506.536 45.7664C506.53 45.0768 505.821 44.0006 504.413 42.5358C503.705 41.6559 502.912 40.7766 502.033 39.8984L503.848 37.375C505.431 38.7391 506.573 39.664 507.278 40.1517C508.504 40.8294 509.817 41.1655 511.218 41.1544C512.963 41.1406 514.36 40.7355 515.403 39.9406C515.391 38.4648 515.203 37.0387 514.844 35.6645L510.265 20.0564C510.08 19.0753 509.727 18.3401 509.199 17.8509L510.493 15.7741L515.25 20.6066L515.257 21.4921L512.887 20.1825C512.712 20.3824 512.714 20.5783 512.892 20.7732L516.942 35.6476C517.116 36.0384 517.212 36.7276 517.22 37.712C517.243 40.6637 515.857 42.4941 513.069 43.2057C511.337 45.3827 510.48 47.3082 510.493 48.9822C510.5 49.8676 511.117 50.6978 512.348 51.4773C513.751 52.3514 515.414 52.7814 517.339 52.7661C520.485 52.7413 524.492 51.3813 529.366 48.6861C533.714 46.3869 538.066 44.0423 542.417 41.6461C545.723 40.0441 548.948 38.691 552.085 37.5843C551.206 37.3935 549.891 36.8637 548.14 35.9924C545.682 34.9278 544.452 33.7081 544.441 32.3318C544.423 30.0676 546.597 28.9202 550.967 28.8856C559.356 28.8193 568.447 29.5821 578.249 31.179L574.864 34.1576C571.724 34.7732 566.053 36.0954 557.856 38.1294C558.735 38.9092 559.712 40.7714 560.784 43.7148C556.066 43.7521 553.7 42.9815 553.688 41.4094C553.686 41.2113 553.769 40.8667 553.942 40.3743C554.11 39.8796 554.197 39.5347 554.196 39.3391C553.498 39.6398 552.453 40.0396 551.059 40.5439C549.335 43.7053 548.482 46.0742 548.494 47.6489C548.519 50.7965 550.891 52.3526 555.609 52.3153C560.675 52.2752 567.125 49.9115 574.952 45.2259C574.77 44.5377 574.062 43.4615 572.829 41.9953C571.947 41.2138 571.154 40.385 570.45 39.5051L572.002 36.8361C573.586 38.2995 574.814 39.2237 575.694 39.6108C576.748 40.2899 578.061 40.626 579.634 40.6136C581.379 40.5998 582.777 40.1946 583.819 39.3997C583.631 37.9253 583.358 36.4999 582.999 35.1257L578.682 19.6627C578.321 18.5841 577.967 17.8002 577.615 17.3101L578.909 15.2332L583.404 20.0682L583.411 20.9537L581.303 19.6416C581.129 19.9385 581.131 20.1854 581.309 20.3795L585.358 35.1067C585.533 35.4971 585.629 36.186 585.636 37.1708ZM468.36 24.9623C468.373 26.634 467.417 27.4792 465.496 27.4943C463.747 27.5082 462.87 26.9727 462.862 25.8917C462.856 25.2021 463.112 24.3654 463.628 23.3765C464.668 22.1876 465.186 21.4961 465.185 21.2976C465.539 22.084 465.63 22.6228 465.46 22.9189C467.385 23.4941 468.353 24.176 468.36 24.9623ZM467.578 25.5588C466.873 25.0711 465.823 24.7351 464.424 24.5506C463.727 24.9484 463.381 25.1972 463.381 25.2968C463.386 25.8871 463.999 26.1775 465.223 26.1678C466.096 26.1609 466.88 25.9562 467.578 25.5588ZM474.848 49.854L473.026 51.4911C471.979 51.6953 470.842 51.8526 469.622 51.9612C467.699 52.3686 466.745 52.8189 466.749 53.3126C467.637 55.2726 468.086 56.6461 468.092 57.4342C468.106 59.2055 468.024 60.2393 467.854 60.5351C467.846 59.4511 467.482 58.029 466.772 56.2635C466.058 54.4973 465.701 53.3685 465.697 52.8774C465.69 51.9923 466.25 51.3971 467.387 51.0929C468.519 50.7881 469.61 50.533 470.657 50.3291C469.955 50.0387 469.343 49.8967 468.819 49.9009L467.252 50.6512L467.246 49.9133C467.767 49.5148 468.198 49.1424 468.548 48.7961C468.893 48.4472 469.33 48.2737 469.855 48.2696C470.903 48.2616 472.566 48.7879 474.848 49.854ZM476.887 42.4583L474.808 44.8354L470.343 43.6907L471.899 41.6121L467.958 40.4622L469.774 38.0871L474.502 39.2305L472.683 41.3108L476.887 42.4583ZM499.078 30.9183C498.029 30.8269 495.577 30.5032 491.73 29.9429C488.58 29.3778 486.128 29.102 484.383 29.1158C480.361 29.1476 478.361 29.9984 478.374 31.6723C478.38 32.3593 478.82 33.0455 479.701 33.7281C480.401 34.1148 481.279 34.3064 482.327 34.2981C484.772 34.2787 487.567 33.8622 490.706 33.0511C495.762 31.7308 498.555 31.0191 499.078 30.9183ZM501.526 42.1159C498.934 45.8745 495.627 47.771 491.609 47.8027C488.636 47.8263 487.147 47.0495 487.134 45.4767C487.124 44.1968 489.034 42.8541 492.87 41.4467C492.167 41.1567 491.466 41.0147 490.769 41.0202C489.893 41.0271 489.022 41.2786 488.154 41.7788L488.149 41.1885C489.013 40.0976 490.233 39.5485 491.806 39.5361C494.427 39.5153 496.526 39.6947 498.102 40.0774L494.969 41.7246C493.746 41.9302 492.393 42.384 490.917 43.0857C489.435 43.7844 488.699 44.3806 488.702 44.8743C488.709 45.7598 490.109 46.1915 492.907 46.1694C494.828 46.1542 496.745 45.5486 498.66 44.3531C499.526 43.5567 500.483 42.8112 501.526 42.1159ZM506.086 22.0074C506.095 23.1877 505.399 23.7839 504.003 23.7949C503.302 23.8005 502.6 23.6101 501.901 23.2208C501.383 24.0142 500.599 24.4118 499.551 24.4201C498.326 24.4298 497.713 23.9919 497.706 23.1064C497.701 22.5157 497.696 21.9257 497.692 21.3354C497.341 21.5367 496.909 21.8349 496.388 22.2309L496.383 21.6406C496.727 21.1467 497.595 20.5008 498.989 19.7013C498.481 21.7716 498.838 22.8019 500.062 22.7922C500.935 22.7853 501.37 22.438 501.365 21.7484C501.363 21.4532 501.182 20.8647 500.827 19.9816L501.606 19.091C502.134 19.5801 502.489 20.3153 502.672 21.2964C502.677 21.986 503.115 22.326 503.991 22.3191C504.515 22.315 504.775 22.0683 504.771 21.575L503.97 19.6626L505.01 18.6213C505.717 19.8957 506.078 21.0252 506.086 22.0074ZM521.228 47.2734C521.062 48.651 520.196 49.3482 518.623 49.3607C517.05 49.3731 516.26 48.9362 516.253 48.0507C516.243 46.7708 517.452 45.2853 519.888 43.5942C518.676 45.1768 518.074 46.3135 518.08 47.0031C518.085 47.6897 518.522 48.0328 519.399 48.0258C520.271 48.0189 520.793 47.768 520.966 47.2755L521.228 47.2734ZM526.403 38.6722C526.419 40.738 525.993 42.3147 525.129 43.4052L524.605 43.4093C524.76 41.2426 524.57 38.9819 524.027 36.6251L519.177 19.9856C518.993 19.0044 518.639 18.2693 518.111 17.7801L519.405 15.7032L523.9 20.5382L523.907 21.4237L521.799 20.1117C521.625 20.3116 521.626 20.5075 521.804 20.7024L526.123 36.4605C526.299 36.9502 526.395 37.6874 526.403 38.6722ZM538.053 20.1311C538.056 20.5252 537.797 20.9707 537.277 21.4656C536.75 21.1746 536.311 21.0308 535.963 21.0336C535.087 21.0405 534.395 21.7356 533.882 23.1163C533.537 24.0046 533.282 24.9892 533.119 26.0742C532.589 25.2895 531.704 24.2633 530.473 22.9957C530.301 23.4911 529.778 23.7391 528.906 23.746C527.505 23.7571 526.806 23.3202 526.799 22.4344C526.79 21.3526 527.397 20.8061 528.621 20.7964C530.194 20.784 531.598 21.8064 532.839 23.8625C533.86 20.3123 535.157 18.5309 536.729 18.5185C537.602 18.5112 538.044 19.0497 538.053 20.1311ZM538.38 28.3937C537.701 31.0553 535.008 32.8964 530.297 33.9185L530.034 33.773C532.648 32.8671 534.214 31.9179 534.73 30.9316C532.282 31.048 530.801 31.3062 530.28 31.7047C530.619 30.5213 531.222 29.6793 532.095 29.1813C532.441 28.9804 534.537 28.7193 538.38 28.3937ZM538.191 37.5459L536.112 39.923L531.647 38.7783L533.725 36.4004L538.191 37.5459ZM543.034 53.2999C543.045 54.6764 542.173 55.3733 540.429 55.3871C538.856 55.3995 538.066 54.9634 538.059 54.0771C538.049 52.7972 539.257 51.3118 541.694 49.6207L541.956 49.6186C540.567 51.2025 539.88 52.3404 539.886 53.0296C539.891 53.7166 540.328 54.0592 541.205 54.0523C542.078 54.0454 542.599 53.7948 542.772 53.3019L543.034 53.2999ZM547.502 21.6799C547.512 22.8602 547.084 24.1923 546.223 25.675C546.389 24.8852 546.472 24.0012 546.464 23.0165C546.45 21.2455 545.477 19.8765 543.548 18.907L543.796 17.1339C545.02 17.5183 545.943 18.201 546.565 19.1783C547.183 20.1582 547.497 20.9926 547.502 21.6799ZM569.352 33.1669C564.448 32.025 558.762 31.4796 552.299 31.5307C549.153 31.5555 547.058 31.768 546.012 32.1707C546.014 32.3666 547.153 32.9229 549.434 33.8413C551.71 34.7569 553.642 35.653 555.222 36.5257C558.884 35.5119 563.594 34.3932 569.352 33.1669ZM574.987 16.4445C574.991 17.0352 574.689 17.7273 574.085 18.5183C573.477 19.3116 572.74 19.9075 571.871 20.3069C572.911 19.118 573.428 18.2793 573.424 17.7856C564.524 19.4311 556.419 22.1518 549.109 25.9478C549.277 25.4527 549.449 24.9603 549.622 24.4678C552.578 22.7726 556.542 21.1661 561.511 19.6509C566.48 18.1353 570.969 17.0667 574.987 16.4445ZM568.639 42.4708C568.993 43.2547 568.648 43.6998 567.601 43.8077C567.077 43.9089 566.289 43.7185 565.237 43.2357C564.542 43.9282 563.415 44.8729 561.851 46.0671C559.936 47.3596 557.411 48.1688 554.268 48.4881L551.911 48.8019C554.351 48.093 557.051 47.0872 560.014 45.786C562.45 44.6827 564.101 43.5882 564.969 42.4999C565.659 41.7055 566.27 41.2583 566.793 41.1564C567.665 41.0513 568.278 41.4889 568.639 42.4708ZM570.597 24.892C570.606 26.0726 569.91 26.6689 568.514 26.6799C567.813 26.6854 567.111 26.4441 566.411 25.9586C565.893 26.749 565.11 27.1492 564.061 27.1575C563.013 27.1658 562.395 26.777 562.217 25.9917C562.211 25.3022 562.206 24.6631 562.202 24.0732C561.852 24.3711 561.506 24.669 561.16 24.9666L561.157 24.5238C561.324 24.0292 562.106 23.3861 563.501 22.5866C562.992 24.558 563.348 25.5396 564.572 25.53C565.445 25.5231 565.881 25.2244 565.876 24.6341C565.874 24.3389 565.692 23.702 565.337 22.7197L566.379 21.9735C566.73 22.3651 566.998 23.0526 567.182 24.0338C567.188 24.7211 567.625 25.0634 568.501 25.0565C569.025 25.0524 569.286 24.8518 569.283 24.46C569.282 24.3603 569.015 23.7241 568.481 22.5476L569.52 21.3587C570.227 22.6327 570.588 23.8106 570.597 24.892ZM568.118 42.9177C567.413 42.3326 566.625 42.1916 565.755 42.4936C566.807 42.8772 567.594 43.0185 568.118 42.9177ZM592.02 48.78C592.027 49.7622 591.507 50.26 590.459 50.2683C589.758 50.2738 588.97 50.1328 588.096 49.8438C585.146 52.9167 579.653 54.4361 571.617 54.4018L571.354 54.4039L571.353 54.2567C579.209 53.1105 584.525 51.5443 587.307 49.5556C586.429 49.364 585.993 49.0723 585.99 48.6808C585.987 48.3849 586.247 48.0375 586.768 47.6408C587.289 47.243 587.721 47.0429 588.074 47.0401L587.807 46.4519L588.068 46.3022C588.416 46.2995 589.028 46.4906 589.907 46.878L589.909 47.0256C591.312 47.9001 592.017 48.4849 592.02 48.78ZM594.819 38.1313C594.835 40.1971 594.41 41.7738 593.546 42.8643L593.022 42.8684C593.176 40.7017 592.896 38.4417 592.181 36.0862L587.593 19.4447C587.233 18.4649 586.879 17.7298 586.527 17.2392L587.822 15.1623L592.316 19.9973L592.323 20.8828L590.216 19.5708C590.041 19.7707 589.957 19.9673 589.958 20.1636L594.54 35.9196C594.716 36.4094 594.811 37.1466 594.819 38.1313ZM589.13 48.0649C589.129 47.8664 588.952 47.7708 588.604 47.7735C587.904 47.7791 587.38 47.9308 587.035 48.2287C587.385 48.5211 587.911 48.7129 588.612 48.807C588.611 48.7073 588.696 48.5845 588.871 48.4359C589.042 48.287 589.131 48.1616 589.13 48.0649ZM824.219 40.7455C824.23 42.122 823.67 43.2592 822.541 44.1533C821.41 45.0471 820.148 45.5006 818.751 45.5116C816.13 45.5323 814.288 44.6104 813.224 42.7507C812.54 44.6242 811.06 45.5724 808.79 45.5904C806.693 45.6069 805.287 44.8288 804.579 43.2626C803.192 45.1417 800.755 46.097 797.261 46.1246C796.037 46.1343 795.031 45.8703 794.239 45.3372C793.45 44.8014 793.05 44.1883 793.045 43.5017C793.043 43.2062 793.041 42.9597 793.039 42.7638C768.433 47.2864 743.285 49.6515 717.596 49.8546C705.186 49.9527 693.037 49.4581 681.146 48.371C669.776 47.4764 661.291 46.2152 655.688 44.5876C655.699 45.9638 655.619 47.3415 655.458 48.7216L654.935 48.7258C652.832 47.9539 651.513 47.0304 650.981 45.9528C650.798 45.165 650.661 44.4281 650.57 43.7422C650.473 43.0533 649.381 42.7177 647.285 42.7343C645.36 42.7495 642.096 44.349 637.493 47.5353C632.885 50.7192 629.359 52.3226 626.914 52.3419C625.512 52.353 624.289 51.9937 623.235 51.2641C622.181 50.5344 621.648 49.5287 621.638 48.251C621.633 47.5615 621.888 46.7226 622.405 45.7359C621.53 45.9388 620.659 46.0449 619.786 46.0518C616.288 46.0795 614.008 44.7692 612.939 42.121C612.612 45.3706 610.004 47.0147 605.113 47.0534C603.016 47.0699 601.439 46.4411 600.38 45.1721C599.672 44.1929 599.401 43.063 599.567 41.7839C599.565 41.5858 599.731 40.8971 600.075 39.7136C600.239 38.7275 600.322 37.8413 600.316 37.0551C599.099 38.0473 598.237 39.3341 597.725 40.9122C597.381 41.9971 597.042 43.0809 596.702 44.168C596.015 45.9446 594.888 46.8383 593.315 46.8507C592.09 46.8604 591.037 46.302 590.156 45.1784C589.27 44.0534 588.827 42.8503 588.817 41.573C588.806 40.1942 588.966 38.6687 589.305 36.9938L589.83 37.1372C589.66 37.9249 589.581 38.7122 589.587 39.4999C589.613 42.8437 590.848 44.5088 593.297 44.4894C594.169 44.4825 594.949 43.7384 595.638 42.257C596.839 39.7868 597.528 38.3538 597.701 37.9602C598.909 36.2769 600.473 35.134 602.393 34.5289L602.408 36.4471C601.728 39.0102 601.392 40.588 601.397 41.1784C601.414 43.3408 602.819 44.4141 605.617 44.392C607.362 44.3782 608.89 43.9717 610.195 43.1751C611.499 42.3763 612.147 41.4373 612.138 40.3555L610.258 34.6146L611.552 32.5381C612.432 33.5138 612.963 34.2981 613.144 34.8866C613.681 36.5542 614.129 38.2735 614.495 40.0417C615.563 42.4917 617.494 43.7077 620.291 43.6856C622.036 43.6718 623.258 43.2685 623.952 42.4767C623.067 41.3996 622.186 40.3251 621.305 39.2499C620.066 37.4889 619.355 36.1157 619.175 35.1349L618.381 34.1076L619.413 32.0332L623.108 35.251L623.114 35.9889C622.588 35.7946 622.062 35.5545 621.536 35.2634C621.361 35.4607 621.362 35.56 621.538 35.5586C624.008 38.6868 625.25 40.8426 625.259 42.0236C625.273 43.7946 624.583 44.9808 623.19 45.5825C622.674 46.5688 622.417 47.3088 622.421 47.8025C622.432 49.1787 623.658 49.8593 626.107 49.84C628.376 49.822 631.772 48.1946 636.293 44.9627C640.809 41.7283 644.381 40.102 647.002 40.0813C647.874 40.0744 649.101 40.3599 650.679 40.9374L651.976 39.1557C654.436 41.1033 661.704 42.8649 673.776 44.4439C687.593 46.1054 703.418 46.8658 721.242 46.7249C733.299 46.6296 746.574 45.9343 761.073 44.6389C773.646 43.4555 784.993 42.0374 795.118 40.3848C794.769 40.6827 794.599 41.0269 794.602 41.422C794.607 42.0127 794.959 42.5494 795.663 43.0364C796.364 43.5223 797.152 43.7626 798.03 43.7556C799.774 43.7418 801.605 43.234 803.521 42.2363L806.914 40.2919L807.177 40.4374C807.179 40.6333 807.18 40.8296 807.182 41.0281C807.193 42.4039 808.071 43.0874 809.82 43.0735C810.692 43.0666 811.651 42.6167 812.691 41.7225C813.902 40.5322 814.774 39.8361 815.296 39.6353L815.558 39.6332C815.56 39.8291 815.562 40.0254 815.563 40.2239C815.569 41.0101 816.053 41.7192 817.022 42.3524C817.986 42.9831 818.906 43.2969 819.782 43.29C821.527 43.2762 822.4 42.8752 822.394 42.0882C822.387 41.2035 821.062 39.4428 818.42 36.8071C815.6 33.9746 814.1 32.2659 813.923 31.6769C813.745 31.4798 813.481 31.2118 813.13 30.8714C812.775 30.5281 812.601 30.3081 812.6 30.2115L813.369 27.9915L818.636 31.0489L818.641 31.6389L816.277 31.0668L816.279 31.3624C817.685 32.5316 819.091 33.7012 820.5 34.8712C822.967 37.3098 824.208 39.2696 824.219 40.7455ZM591.237 49.229C590.883 49.0336 590.356 48.6939 589.656 48.2083L589.137 48.9504C589.663 49.1422 590.188 49.2373 590.713 49.2331C590.885 49.2318 591.061 49.2304 591.237 49.229ZM622.159 14.5957C622.163 15.089 621.815 15.7308 621.125 16.5226C620.432 17.3166 619.736 17.9611 619.043 18.4577C620.083 17.2688 620.6 16.3788 620.595 15.7888C609.773 17.8436 600.621 20.8172 593.14 24.7137C593.136 24.2205 593.304 23.6793 593.652 23.0866C596.608 21.4906 601.138 19.7804 607.243 17.9606C612.996 16.2433 617.968 15.1222 622.159 14.5957ZM611.422 49.217C611.426 49.7081 611.077 50.2019 610.385 50.7011C610.03 50.408 609.595 50.2646 609.071 50.2687C608.195 50.2756 607.503 50.9195 606.989 52.2039C606.821 53.1874 606.567 54.1742 606.226 55.1617C605.868 54.4749 604.988 53.4488 603.58 52.0832C603.409 52.675 602.973 52.9736 602.277 52.9791C600.704 52.9915 599.914 52.5041 599.906 51.5219C599.898 50.5372 600.591 50.0406 601.991 50.0295C603.388 50.0185 604.792 51.0405 606.21 53.0952C607.054 49.546 608.351 47.7654 610.1 47.7515C610.972 47.7446 611.414 48.2323 611.422 49.217ZM611.774 27.3707C611.783 28.5513 611.001 29.1479 609.429 29.1603C608.904 29.1645 608.202 28.9232 607.326 28.439C606.979 29.228 606.196 29.6286 604.976 29.6383C603.927 29.6466 603.309 29.257 603.132 28.4721C603.126 27.7826 603.121 27.1439 603.116 26.5536C602.766 26.8515 602.42 27.1498 602.075 27.4473L602.07 26.857C602.415 26.4606 603.197 25.8637 604.415 25.0674C604.078 27.0371 604.439 28.019 605.487 28.0107C606.36 28.0038 606.795 27.6543 606.79 26.9673C606.788 26.7688 606.607 26.1799 606.251 25.2005L607.294 24.4543C607.821 24.8423 608.089 25.5294 608.097 26.5142C608.275 27.1998 608.802 27.5418 609.678 27.5348C610.202 27.5307 610.463 27.3309 610.46 26.9383C610.459 26.839 610.192 26.2024 609.658 25.0259L610.435 23.8391C611.317 25.1099 611.765 26.2867 611.774 27.3707ZM618.314 25.6955C618.323 26.8761 617.896 28.2078 617.035 29.6905C617.201 28.9007 617.284 28.0149 617.276 27.0324C617.262 25.261 616.289 23.8898 614.36 22.9228L614.607 21.0022C615.659 21.4872 616.538 22.2182 617.246 23.1952C617.95 24.1715 618.309 25.0059 618.314 25.6955ZM632.566 37.8329C632.582 39.8987 632.242 41.4747 631.555 42.5638L631.031 42.5679C631.185 40.4012 630.905 38.1412 630.191 35.7857L625.603 19.1442C625.242 18.1644 624.888 17.4293 624.536 16.9387L625.831 14.8619L630.326 19.6968L630.333 20.5823L628.225 19.2703C628.05 19.4702 627.966 19.6668 627.968 19.8631L632.549 35.6191C632.552 36.1102 632.558 36.8481 632.566 37.8329ZM649.423 47.8831C649.603 48.7672 649.258 49.2614 648.386 49.3672C647.862 49.3713 646.984 49.1805 645.76 48.7976C645.066 49.4905 644.024 50.3843 642.636 51.4789C640.549 52.7728 637.934 53.6303 634.792 54.05L632.696 54.2141C634.96 53.6055 637.574 52.6484 640.537 51.3475C643.149 50.1458 644.885 48.9997 645.753 47.9113C646.444 47.1174 646.964 46.6705 647.315 46.5707C648.188 46.5649 648.892 47.0021 649.423 47.8831ZM647.641 21.4786C647.645 21.8727 647.386 22.3182 646.866 22.8131C646.339 22.5221 645.899 22.3783 645.551 22.3811C644.675 22.388 643.984 23.034 643.469 24.3159C643.126 25.4008 642.871 26.3872 642.707 27.2737C642.35 26.5873 641.469 25.6098 640.062 24.3428C639.889 24.8356 639.368 25.0862 638.496 25.0931C637.095 25.1042 636.396 24.6673 636.389 23.7815C636.38 22.6997 636.986 22.1532 638.211 22.1436C639.783 22.1311 641.188 23.1535 642.429 25.2096C643.45 21.6594 644.746 19.878 646.319 19.8656C647.19 19.8587 647.633 20.3972 647.641 21.4786ZM648.492 29.5894L646.669 31.2274C645.622 31.4312 644.485 31.6368 643.266 31.8446C641.343 32.155 640.389 32.6053 640.394 33.1957C641.281 35.0568 641.73 36.3816 641.736 37.1704C641.75 38.9414 641.668 39.9752 641.499 40.2713C641.491 39.1873 641.128 37.7884 640.417 36.0739C639.704 34.3568 639.345 33.2527 639.341 32.7616C639.333 31.7768 639.894 31.1337 641.031 30.8295C642.163 30.5254 643.254 30.2699 644.301 30.0657C643.423 29.8741 642.727 29.783 642.202 29.7871C642.375 29.7858 641.852 29.9855 640.635 30.3899L640.89 29.6499C641.236 29.352 641.627 28.9799 642.062 28.5337C642.492 28.0875 642.973 27.8623 643.497 27.8582C644.545 27.8495 646.21 28.4268 648.492 29.5894ZM648.902 48.3303C648.198 47.7451 647.41 47.6042 646.54 47.9059C647.415 48.2912 648.203 48.4325 648.902 48.3303ZM654.376 44.3021C653.85 44.1081 653.06 43.6716 652.005 42.9925C652.008 43.4836 652.23 44.0464 652.673 44.6845C653.113 45.3197 653.598 45.6365 654.123 45.6324C654.296 45.6307 654.383 45.1876 654.376 44.3021ZM789.16 49.4353C788.284 49.4423 787.671 49.1516 787.318 48.5647C786.101 49.4595 784.97 49.9116 783.921 49.9199C783.569 49.9227 783.004 49.7796 782.214 49.491C781.425 49.2013 780.94 49.0576 780.769 49.0589C779.892 49.0658 778.235 49.3749 775.795 49.9838C772.654 50.7949 770.124 51.4053 768.206 51.8152C764.366 52.5323 760.174 52.9115 755.632 52.9474L755.369 52.6543C759.21 52.624 763.052 52.1504 766.892 51.2345C768.986 50.8235 771.949 50.0138 775.787 48.8031C778.573 47.8959 780.581 47.4365 781.804 47.4268C782.152 47.4241 782.679 47.6159 783.382 48.0051C784.081 48.3918 784.697 48.5854 785.221 48.5813C785.918 48.5758 786.7 48.0759 787.57 47.0868L788.353 46.7847C788.183 47.5731 788.624 47.9637 789.673 47.9554C790.198 47.9512 790.719 47.4534 791.234 46.4671L791.757 46.3158C791.773 48.3815 790.905 49.4215 789.16 49.4353ZM809.656 22.4116C809.659 22.8038 809.311 23.2999 808.618 23.8958C808.091 23.5055 807.651 23.3131 807.303 23.3158C806.427 23.3227 805.737 24.0149 805.222 25.3985C805.053 26.2854 804.799 27.2213 804.459 28.2088C803.928 27.5237 803.044 26.5463 801.815 25.2779C801.641 25.7707 801.12 26.0213 800.248 26.0282C798.847 26.0393 798.147 25.6024 798.14 24.7166C798.131 23.6326 798.739 23.0883 799.962 23.0787C801.535 23.0662 802.94 24.0886 804.181 26.1447C805.201 22.5945 806.498 20.8131 808.071 20.8007C809.119 20.7924 809.648 21.3302 809.656 22.4116ZM807.649 33.7921C807.663 35.563 806.707 36.4562 804.787 36.4713C803.038 36.4852 802.161 35.9501 802.152 34.8687C802.147 34.1794 802.488 33.3395 803.182 32.3515C804.222 31.1625 804.739 30.4692 804.738 30.2729C805.092 31.0564 805.183 31.5977 805.013 31.8938C806.762 32.4708 807.644 33.1025 807.649 33.7921ZM806.869 34.5362C806.165 34.0484 805.112 33.6649 803.714 33.3804C803.193 33.876 802.933 34.1732 802.934 34.2721C802.938 34.7632 803.551 35.0052 804.775 34.9955C805.647 34.9886 806.347 34.8355 806.869 34.5362ZM820.086 48.4529L818.27 50.8283L813.803 49.5346L815.619 47.1595L820.086 48.4529Z" fill="white"/>
</g>
<defs>
<clipPath id="clip0_165_56">
<rect width="373.812" height="47.3754" fill="white" transform="translate(450.2 15.9552) rotate(-0.45296)"/>
</clipPath>
</defs>
</svg>
