<svg width="1273" height="118" viewBox="0 0 1273 118" fill="none" xmlns="http://www.w3.org/2000/svg">
<rect width="1273" height="92" rx="10" fill="#BB88B9"/>
<path d="M133.35 28.45H126.075L124.825 32H121.85L128.075 14.6H131.375L137.6 32H134.6L133.35 28.45ZM132.55 26.125L129.725 18.05L126.875 26.125H132.55ZM143.157 13.5V32H140.307V13.5H143.157ZM157.473 21.75V24.15H147.198V21.75H157.473ZM170.867 29.7H176.742V32H168.017V14.625H170.867V29.7ZM178.175 25.05C178.175 23.6667 178.458 22.4417 179.025 21.375C179.608 20.3083 180.392 19.4833 181.375 18.9C182.375 18.3 183.475 18 184.675 18C185.758 18 186.7 18.2167 187.5 18.65C188.317 19.0667 188.967 19.5917 189.45 20.225V18.225H192.325V32H189.45V29.95C188.967 30.6 188.308 31.1417 187.475 31.575C186.642 32.0083 185.692 32.225 184.625 32.225C183.442 32.225 182.358 31.925 181.375 31.325C180.392 30.7083 179.608 29.8583 179.025 28.775C178.458 27.675 178.175 26.4333 178.175 25.05ZM189.45 25.1C189.45 24.15 189.25 23.325 188.85 22.625C188.467 21.925 187.958 21.3917 187.325 21.025C186.692 20.6583 186.008 20.475 185.275 20.475C184.542 20.475 183.858 20.6583 183.225 21.025C182.592 21.375 182.075 21.9 181.675 22.6C181.292 23.2833 181.1 24.1 181.1 25.05C181.1 26 181.292 26.8333 181.675 27.55C182.075 28.2667 182.592 28.8167 183.225 29.2C183.875 29.5667 184.558 29.75 185.275 29.75C186.008 29.75 186.692 29.5667 187.325 29.2C187.958 28.8333 188.467 28.3 188.85 27.6C189.25 26.8833 189.45 26.05 189.45 25.1ZM203.193 18C204.243 18 205.177 18.225 205.993 18.675C206.827 19.125 207.477 19.7917 207.943 20.675C208.427 21.5583 208.668 22.625 208.668 23.875V32H205.843V24.3C205.843 23.0667 205.535 22.125 204.918 21.475C204.302 20.8083 203.46 20.475 202.393 20.475C201.327 20.475 200.477 20.8083 199.843 21.475C199.227 22.125 198.918 23.0667 198.918 24.3V32H196.068V13.5H198.918V19.825C199.402 19.2417 200.01 18.7917 200.743 18.475C201.493 18.1583 202.31 18 203.193 18ZM211.354 25.05C211.354 23.6667 211.637 22.4417 212.204 21.375C212.787 20.3083 213.57 19.4833 214.554 18.9C215.554 18.3 216.654 18 217.854 18C218.937 18 219.879 18.2167 220.679 18.65C221.495 19.0667 222.145 19.5917 222.629 20.225V18.225H225.504V32H222.629V29.95C222.145 30.6 221.487 31.1417 220.654 31.575C219.82 32.0083 218.87 32.225 217.804 32.225C216.62 32.225 215.537 31.925 214.554 31.325C213.57 30.7083 212.787 29.8583 212.204 28.775C211.637 27.675 211.354 26.4333 211.354 25.05ZM222.629 25.1C222.629 24.15 222.429 23.325 222.029 22.625C221.645 21.925 221.137 21.3917 220.504 21.025C219.87 20.6583 219.187 20.475 218.454 20.475C217.72 20.475 217.037 20.6583 216.404 21.025C215.77 21.375 215.254 21.9 214.854 22.6C214.47 23.2833 214.279 24.1 214.279 25.05C214.279 26 214.47 26.8333 214.854 27.55C215.254 28.2667 215.77 28.8167 216.404 29.2C217.054 29.5667 217.737 29.75 218.454 29.75C219.187 29.75 219.87 29.5667 220.504 29.2C221.137 28.8333 221.645 28.3 222.029 27.6C222.429 26.8833 222.629 26.05 222.629 25.1ZM232.097 20.275C232.58 19.6083 233.239 19.0667 234.072 18.65C234.922 18.2167 235.864 18 236.897 18C238.114 18 239.214 18.2917 240.197 18.875C241.18 19.4583 241.955 20.2917 242.522 21.375C243.089 22.4417 243.372 23.6667 243.372 25.05C243.372 26.4333 243.089 27.675 242.522 28.775C241.955 29.8583 241.172 30.7083 240.172 31.325C239.189 31.925 238.097 32.225 236.897 32.225C235.83 32.225 234.88 32.0167 234.047 31.6C233.23 31.1833 232.58 30.65 232.097 30V32H229.247V13.5H232.097V20.275ZM240.472 25.05C240.472 24.1 240.272 23.2833 239.872 22.6C239.489 21.9 238.972 21.375 238.322 21.025C237.689 20.6583 237.005 20.475 236.272 20.475C235.555 20.475 234.872 20.6583 234.222 21.025C233.589 21.3917 233.072 21.925 232.672 22.625C232.289 23.325 232.097 24.15 232.097 25.1C232.097 26.05 232.289 26.8833 232.672 27.6C233.072 28.3 233.589 28.8333 234.222 29.2C234.872 29.5667 235.555 29.75 236.272 29.75C237.005 29.75 237.689 29.5667 238.322 29.2C238.972 28.8167 239.489 28.2667 239.872 27.55C240.272 26.8333 240.472 26 240.472 25.05Z" fill="black" fill-opacity="0.75"/>
<path d="M130.78 64.519H124.7L123.58 67.619H121.66L126.7 53.759H128.8L133.82 67.619H131.9L130.78 64.519ZM130.26 63.039L127.74 55.999L125.22 63.039H130.26ZM137.837 58.679C138.197 58.0524 138.73 57.5324 139.437 57.119C140.157 56.6924 140.99 56.479 141.937 56.479C142.91 56.479 143.79 56.7124 144.577 57.179C145.377 57.6457 146.003 58.3057 146.457 59.159C146.91 59.999 147.137 60.979 147.137 62.099C147.137 63.2057 146.91 64.1924 146.457 65.059C146.003 65.9257 145.377 66.599 144.577 67.079C143.79 67.559 142.91 67.799 141.937 67.799C141.003 67.799 140.177 67.5924 139.457 67.179C138.75 66.7524 138.21 66.2257 137.837 65.599V72.819H136.017V56.659H137.837V58.679ZM145.277 62.099C145.277 61.2724 145.11 60.5524 144.777 59.939C144.443 59.3257 143.99 58.859 143.417 58.539C142.857 58.219 142.237 58.059 141.557 58.059C140.89 58.059 140.27 58.2257 139.697 58.559C139.137 58.879 138.683 59.3524 138.337 59.979C138.003 60.5924 137.837 61.3057 137.837 62.119C137.837 62.9457 138.003 63.6724 138.337 64.299C138.683 64.9124 139.137 65.3857 139.697 65.719C140.27 66.039 140.89 66.199 141.557 66.199C142.237 66.199 142.857 66.039 143.417 65.719C143.99 65.3857 144.443 64.9124 144.777 64.299C145.11 63.6724 145.277 62.939 145.277 62.099ZM150.472 54.879C150.126 54.879 149.832 54.759 149.592 54.519C149.352 54.279 149.232 53.9857 149.232 53.639C149.232 53.2924 149.352 52.999 149.592 52.759C149.832 52.519 150.126 52.399 150.472 52.399C150.806 52.399 151.086 52.519 151.312 52.759C151.552 52.999 151.672 53.2924 151.672 53.639C151.672 53.9857 151.552 54.279 151.312 54.519C151.086 54.759 150.806 54.879 150.472 54.879ZM151.352 56.659V67.619H149.532V56.659H151.352ZM169.226 56.659L162.626 72.779H160.746L162.906 67.499L158.486 56.659H160.506L163.946 65.539L167.346 56.659H169.226ZM170.376 62.099C170.376 60.979 170.602 59.999 171.056 59.159C171.509 58.3057 172.129 57.6457 172.916 57.179C173.716 56.7124 174.602 56.479 175.576 56.479C176.536 56.479 177.369 56.6857 178.076 57.099C178.782 57.5124 179.309 58.0324 179.656 58.659V56.659H181.496V67.619H179.656V65.579C179.296 66.219 178.756 66.7524 178.036 67.179C177.329 67.5924 176.502 67.799 175.556 67.799C174.582 67.799 173.702 67.559 172.916 67.079C172.129 66.599 171.509 65.9257 171.056 65.059C170.602 64.1924 170.376 63.2057 170.376 62.099ZM179.656 62.119C179.656 61.2924 179.489 60.5724 179.156 59.959C178.822 59.3457 178.369 58.879 177.796 58.559C177.236 58.2257 176.616 58.059 175.936 58.059C175.256 58.059 174.636 58.219 174.076 58.539C173.516 58.859 173.069 59.3257 172.736 59.939C172.402 60.5524 172.236 61.2724 172.236 62.099C172.236 62.939 172.402 63.6724 172.736 64.299C173.069 64.9124 173.516 65.3857 174.076 65.719C174.636 66.039 175.256 66.199 175.936 66.199C176.616 66.199 177.236 66.039 177.796 65.719C178.369 65.3857 178.822 64.9124 179.156 64.299C179.489 63.6724 179.656 62.9457 179.656 62.119ZM189.911 56.459C191.245 56.459 192.325 56.8657 193.151 57.679C193.978 58.479 194.391 59.639 194.391 61.159V67.619H192.591V61.419C192.591 60.3257 192.318 59.4924 191.771 58.919C191.225 58.3324 190.478 58.039 189.531 58.039C188.571 58.039 187.805 58.339 187.231 58.939C186.671 59.539 186.391 60.4124 186.391 61.559V67.619H184.571V56.659H186.391V58.219C186.751 57.659 187.238 57.2257 187.851 56.919C188.478 56.6124 189.165 56.459 189.911 56.459ZM201.884 56.479C202.831 56.479 203.658 56.6857 204.364 57.099C205.084 57.5124 205.618 58.0324 205.964 58.659V56.659H207.804V67.859C207.804 68.859 207.591 69.7457 207.164 70.519C206.738 71.3057 206.124 71.919 205.324 72.359C204.538 72.799 203.618 73.019 202.564 73.019C201.124 73.019 199.924 72.679 198.964 71.999C198.004 71.319 197.438 70.3924 197.264 69.219H199.064C199.264 69.8857 199.678 70.419 200.304 70.819C200.931 71.2324 201.684 71.439 202.564 71.439C203.564 71.439 204.378 71.1257 205.004 70.499C205.644 69.8724 205.964 68.9924 205.964 67.859V65.559C205.604 66.199 205.071 66.7324 204.364 67.159C203.658 67.5857 202.831 67.799 201.884 67.799C200.911 67.799 200.024 67.559 199.224 67.079C198.438 66.599 197.818 65.9257 197.364 65.059C196.911 64.1924 196.684 63.2057 196.684 62.099C196.684 60.979 196.911 59.999 197.364 59.159C197.818 58.3057 198.438 57.6457 199.224 57.179C200.024 56.7124 200.911 56.479 201.884 56.479ZM205.964 62.119C205.964 61.2924 205.798 60.5724 205.464 59.959C205.131 59.3457 204.678 58.879 204.104 58.559C203.544 58.2257 202.924 58.059 202.244 58.059C201.564 58.059 200.944 58.219 200.384 58.539C199.824 58.859 199.378 59.3257 199.044 59.939C198.711 60.5524 198.544 61.2724 198.544 62.099C198.544 62.939 198.711 63.6724 199.044 64.299C199.378 64.9124 199.824 65.3857 200.384 65.719C200.944 66.039 201.564 66.199 202.244 66.199C202.924 66.199 203.544 66.039 204.104 65.719C204.678 65.3857 205.131 64.9124 205.464 64.299C205.798 63.6724 205.964 62.9457 205.964 62.119ZM218.032 58.699C218.405 58.0457 218.952 57.5124 219.672 57.099C220.392 56.6857 221.212 56.479 222.132 56.479C223.119 56.479 224.005 56.7124 224.792 57.179C225.579 57.6457 226.199 58.3057 226.652 59.159C227.105 59.999 227.332 60.979 227.332 62.099C227.332 63.2057 227.105 64.1924 226.652 65.059C226.199 65.9257 225.572 66.599 224.772 67.079C223.985 67.559 223.105 67.799 222.132 67.799C221.185 67.799 220.352 67.5924 219.632 67.179C218.925 66.7657 218.392 66.239 218.032 65.599V67.619H216.212V52.819H218.032V58.699ZM225.472 62.099C225.472 61.2724 225.305 60.5524 224.972 59.939C224.639 59.3257 224.185 58.859 223.612 58.539C223.052 58.219 222.432 58.059 221.752 58.059C221.085 58.059 220.465 58.2257 219.892 58.559C219.332 58.879 218.879 59.3524 218.532 59.979C218.199 60.5924 218.032 61.3057 218.032 62.119C218.032 62.9457 218.199 63.6724 218.532 64.299C218.879 64.9124 219.332 65.3857 219.892 65.719C220.465 66.039 221.085 66.199 221.752 66.199C222.432 66.199 223.052 66.039 223.612 65.719C224.185 65.3857 224.639 64.9124 224.972 64.299C225.305 63.6724 225.472 62.939 225.472 62.099ZM239.728 61.719C239.728 62.0657 239.708 62.4324 239.668 62.819H230.908C230.974 63.899 231.341 64.7457 232.008 65.359C232.688 65.959 233.508 66.259 234.468 66.259C235.254 66.259 235.908 66.079 236.428 65.719C236.961 65.3457 237.334 64.8524 237.548 64.239H239.508C239.214 65.2924 238.628 66.1524 237.748 66.819C236.868 67.4724 235.774 67.799 234.468 67.799C233.428 67.799 232.494 67.5657 231.668 67.099C230.854 66.6324 230.214 65.9724 229.748 65.119C229.281 64.2524 229.048 63.2524 229.048 62.119C229.048 60.9857 229.274 59.9924 229.728 59.139C230.181 58.2857 230.814 57.6324 231.628 57.179C232.454 56.7124 233.401 56.479 234.468 56.479C235.508 56.479 236.428 56.7057 237.228 57.159C238.028 57.6124 238.641 58.239 239.068 59.039C239.508 59.8257 239.728 60.719 239.728 61.719ZM237.848 61.339C237.848 60.6457 237.694 60.0524 237.388 59.559C237.081 59.0524 236.661 58.6724 236.128 58.419C235.608 58.1524 235.028 58.019 234.388 58.019C233.468 58.019 232.681 58.3124 232.028 58.899C231.388 59.4857 231.021 60.299 230.928 61.339H237.848ZM243.95 58.439C244.27 57.8124 244.723 57.3257 245.31 56.979C245.91 56.6324 246.637 56.459 247.49 56.459V58.339H247.01C244.97 58.339 243.95 59.4457 243.95 61.659V67.619H242.13V56.659H243.95V58.439ZM254.111 56.479C255.057 56.479 255.884 56.6857 256.591 57.099C257.311 57.5124 257.844 58.0324 258.191 58.659V56.659H260.031V67.859C260.031 68.859 259.817 69.7457 259.391 70.519C258.964 71.3057 258.351 71.919 257.551 72.359C256.764 72.799 255.844 73.019 254.791 73.019C253.351 73.019 252.151 72.679 251.191 71.999C250.231 71.319 249.664 70.3924 249.491 69.219H251.291C251.491 69.8857 251.904 70.419 252.531 70.819C253.157 71.2324 253.911 71.439 254.791 71.439C255.791 71.439 256.604 71.1257 257.231 70.499C257.871 69.8724 258.191 68.9924 258.191 67.859V65.559C257.831 66.199 257.297 66.7324 256.591 67.159C255.884 67.5857 255.057 67.799 254.111 67.799C253.137 67.799 252.251 67.559 251.451 67.079C250.664 66.599 250.044 65.9257 249.591 65.059C249.137 64.1924 248.911 63.2057 248.911 62.099C248.911 60.979 249.137 59.999 249.591 59.159C250.044 58.3057 250.664 57.6457 251.451 57.179C252.251 56.7124 253.137 56.479 254.111 56.479ZM258.191 62.119C258.191 61.2924 258.024 60.5724 257.691 59.959C257.357 59.3457 256.904 58.879 256.331 58.559C255.771 58.2257 255.151 58.059 254.471 58.059C253.791 58.059 253.171 58.219 252.611 58.539C252.051 58.859 251.604 59.3257 251.271 59.939C250.937 60.5524 250.771 61.2724 250.771 62.099C250.771 62.939 250.937 63.6724 251.271 64.299C251.604 64.9124 252.051 65.3857 252.611 65.719C253.171 66.039 253.791 66.199 254.471 66.199C255.151 66.199 255.771 66.039 256.331 65.719C256.904 65.3857 257.357 64.9124 257.691 64.299C258.024 63.6724 258.191 62.9457 258.191 62.119ZM273.106 61.719C273.106 62.0657 273.086 62.4324 273.046 62.819H264.286C264.353 63.899 264.72 64.7457 265.386 65.359C266.066 65.959 266.886 66.259 267.846 66.259C268.633 66.259 269.286 66.079 269.806 65.719C270.34 65.3457 270.713 64.8524 270.926 64.239H272.886C272.593 65.2924 272.006 66.1524 271.126 66.819C270.246 67.4724 269.153 67.799 267.846 67.799C266.806 67.799 265.873 67.5657 265.046 67.099C264.233 66.6324 263.593 65.9724 263.126 65.119C262.66 64.2524 262.426 63.2524 262.426 62.119C262.426 60.9857 262.653 59.9924 263.106 59.139C263.56 58.2857 264.193 57.6324 265.006 57.179C265.833 56.7124 266.78 56.479 267.846 56.479C268.886 56.479 269.806 56.7057 270.606 57.159C271.406 57.6124 272.02 58.239 272.446 59.039C272.886 59.8257 273.106 60.719 273.106 61.719ZM271.226 61.339C271.226 60.6457 271.073 60.0524 270.766 59.559C270.46 59.0524 270.04 58.6724 269.506 58.419C268.986 58.1524 268.406 58.019 267.766 58.019C266.846 58.019 266.06 58.3124 265.406 58.899C264.766 59.4857 264.4 60.299 264.306 61.339H271.226ZM276.489 54.879C276.142 54.879 275.849 54.759 275.609 54.519C275.382 54.279 275.269 53.9857 275.269 53.639C275.269 53.2924 275.382 52.999 275.609 52.759C275.849 52.519 276.142 52.399 276.489 52.399C276.835 52.399 277.122 52.519 277.349 52.759C277.589 52.999 277.709 53.2924 277.709 53.639C277.709 53.9857 277.589 54.279 277.349 54.519C277.122 54.759 276.835 54.879 276.489 54.879ZM277.389 69.999C277.389 70.9724 277.142 71.6857 276.649 72.139C276.155 72.5924 275.435 72.819 274.489 72.819H273.429V71.279H274.189C274.695 71.279 275.049 71.179 275.249 70.979C275.462 70.779 275.569 70.439 275.569 69.959V56.659H277.389V69.999ZM285.25 67.799C284.223 67.799 283.29 67.5657 282.45 67.099C281.623 66.6324 280.97 65.9724 280.49 65.119C280.023 64.2524 279.79 63.2524 279.79 62.119C279.79 60.999 280.03 60.0124 280.51 59.159C281.003 58.2924 281.67 57.6324 282.51 57.179C283.35 56.7124 284.29 56.479 285.33 56.479C286.37 56.479 287.31 56.7124 288.15 57.179C288.99 57.6324 289.65 58.2857 290.13 59.139C290.623 59.9924 290.87 60.9857 290.87 62.119C290.87 63.2524 290.616 64.2524 290.11 65.119C289.616 65.9724 288.943 66.6324 288.09 67.099C287.236 67.5657 286.29 67.799 285.25 67.799ZM285.25 66.199C285.903 66.199 286.516 66.0457 287.09 65.739C287.663 65.4324 288.123 64.9724 288.47 64.359C288.83 63.7457 289.01 62.999 289.01 62.119C289.01 61.239 288.836 60.4924 288.49 59.879C288.143 59.2657 287.69 58.8124 287.13 58.519C286.57 58.2124 285.963 58.059 285.31 58.059C284.643 58.059 284.03 58.2124 283.47 58.519C282.923 58.8124 282.483 59.2657 282.15 59.879C281.816 60.4924 281.65 61.239 281.65 62.119C281.65 63.0124 281.81 63.7657 282.13 64.379C282.463 64.9924 282.903 65.4524 283.45 65.759C283.996 66.0524 284.596 66.199 285.25 66.199ZM295.083 52.819V67.619H293.263V52.819H295.083ZM297.505 62.099C297.505 60.979 297.731 59.999 298.185 59.159C298.638 58.3057 299.258 57.6457 300.045 57.179C300.845 56.7124 301.731 56.479 302.705 56.479C303.665 56.479 304.498 56.6857 305.205 57.099C305.911 57.5124 306.438 58.0324 306.785 58.659V56.659H308.625V67.619H306.785V65.579C306.425 66.219 305.885 66.7524 305.165 67.179C304.458 67.5924 303.631 67.799 302.685 67.799C301.711 67.799 300.831 67.559 300.045 67.079C299.258 66.599 298.638 65.9257 298.185 65.059C297.731 64.1924 297.505 63.2057 297.505 62.099ZM306.785 62.119C306.785 61.2924 306.618 60.5724 306.285 59.959C305.951 59.3457 305.498 58.879 304.925 58.559C304.365 58.2257 303.745 58.059 303.065 58.059C302.385 58.059 301.765 58.219 301.205 58.539C300.645 58.859 300.198 59.3257 299.865 59.939C299.531 60.5524 299.365 61.2724 299.365 62.099C299.365 62.939 299.531 63.6724 299.865 64.299C300.198 64.9124 300.645 65.3857 301.205 65.719C301.765 66.039 302.385 66.199 303.065 66.199C303.745 66.199 304.365 66.039 304.925 65.719C305.498 65.3857 305.951 64.9124 306.285 64.299C306.618 63.6724 306.785 62.9457 306.785 62.119ZM317.82 67.619L313.52 62.779V67.619H311.7V52.819H313.52V61.519L317.74 56.659H320.28L315.12 62.119L320.3 67.619H317.82ZM332.005 71.339C330.725 70.0857 329.725 68.4924 329.005 66.559C328.298 64.6257 327.945 62.539 327.945 60.299C327.945 58.0057 328.318 55.8657 329.065 53.879C329.825 51.879 330.905 50.2324 332.305 48.939H334.205V49.119C332.712 50.519 331.585 52.2057 330.825 54.179C330.078 56.139 329.705 58.179 329.705 60.299C329.705 62.3657 330.058 64.339 330.765 66.219C331.485 68.099 332.532 69.7457 333.905 71.159V71.339H332.005ZM350.659 54.739H343.639V59.299C343.946 58.8724 344.399 58.5257 344.999 58.259C345.599 57.979 346.246 57.839 346.939 57.839C348.046 57.839 348.946 58.0724 349.639 58.539C350.333 58.9924 350.826 59.5857 351.119 60.319C351.426 61.039 351.579 61.8057 351.579 62.619C351.579 63.579 351.399 64.439 351.039 65.199C350.679 65.959 350.126 66.559 349.379 66.999C348.646 67.439 347.733 67.659 346.639 67.659C345.239 67.659 344.106 67.299 343.239 66.579C342.373 65.859 341.846 64.899 341.659 63.699H343.439C343.613 64.459 343.979 65.0524 344.539 65.479C345.099 65.9057 345.806 66.119 346.659 66.119C347.713 66.119 348.506 65.8057 349.039 65.179C349.573 64.539 349.839 63.699 349.839 62.659C349.839 61.619 349.573 60.819 349.039 60.259C348.506 59.6857 347.719 59.399 346.679 59.399C345.973 59.399 345.353 59.5724 344.819 59.919C344.299 60.2524 343.919 60.7124 343.679 61.299H341.959V53.139H350.659V54.739ZM359.05 71.339V71.159C360.423 69.7457 361.463 68.099 362.17 66.219C362.89 64.339 363.25 62.3657 363.25 60.299C363.25 58.179 362.87 56.139 362.11 54.179C361.363 52.2057 360.243 50.519 358.75 49.119V48.939H360.65C362.05 50.2324 363.123 51.879 363.87 53.879C364.63 55.8657 365.01 58.0057 365.01 60.299C365.01 62.539 364.65 64.6257 363.93 66.559C363.223 68.4924 362.23 70.0857 360.95 71.339H359.05Z" fill="black" fill-opacity="0.75"/>
<path d="M69.347 38.6016L69.2494 29.3726C69.2409 28.5636 68.5781 27.9147 67.7692 27.9233L58.5401 28.0209L52.0367 21.6802C51.459 21.1171 50.535 21.1269 49.9695 21.702L43.6017 28.1788L34.3726 28.2764C33.5636 28.2849 32.9148 28.9477 32.9233 29.7566L33.0209 38.9857L26.6802 45.4891C26.1171 46.0667 26.1269 46.9908 26.7021 47.5563L33.1788 53.9241L33.2764 63.1532C33.2849 63.9621 33.9477 64.611 34.7566 64.6025L43.9857 64.5049L50.489 70.8456C50.7779 71.1271 51.1533 71.2654 51.5272 71.2615C51.9011 71.2575 52.2735 71.1113 52.5562 70.8237L58.9241 64.347L68.1532 64.2494C68.9621 64.2408 69.611 63.5781 69.6025 62.7691L69.5049 53.5401L75.8456 47.0367C76.4087 46.4592 76.3989 45.5351 75.8237 44.9696L69.347 38.6016ZM66.9849 51.9279C66.7145 52.2054 66.5649 52.5786 66.569 52.966L66.6575 61.3353L58.2882 61.4238C57.9008 61.4279 57.5308 61.5854 57.2592 61.8616L51.4899 67.7295L45.5978 61.9849C45.3204 61.7144 44.9472 61.5649 44.5598 61.569L36.1904 61.6574L36.1019 53.2882C36.0979 52.9008 35.9404 52.5308 35.6642 52.2592L29.7962 46.4898L35.5409 40.5978C35.8113 40.3203 35.9609 39.9471 35.9568 39.5598L35.8683 31.1904L44.2376 31.1019C44.625 31.0978 44.995 30.9404 45.2666 30.6642L51.0359 24.7962L56.9281 30.5409C57.2055 30.8113 57.5787 30.9609 57.9661 30.9568L66.3354 30.8683L66.4238 39.2376C66.4279 39.6249 66.5854 39.995 66.8616 40.2666L72.7296 46.0359L66.9849 51.9279Z" fill="black"/>
<path d="M55.46 40.12L48.44 40.12L48.44 44.68C48.7467 44.2533 49.2 43.9067 49.8 43.64C50.4 43.36 51.0467 43.22 51.74 43.22C52.8467 43.22 53.7467 43.4533 54.44 43.92C55.1333 44.3733 55.6267 44.9667 55.92 45.7C56.2267 46.42 56.38 47.1867 56.38 48C56.38 48.96 56.2 49.82 55.84 50.58C55.48 51.34 54.9267 51.94 54.18 52.38C53.4467 52.82 52.5333 53.04 51.44 53.04C50.04 53.04 48.9067 52.68 48.04 51.96C47.1733 51.24 46.6467 50.28 46.46 49.08L48.24 49.08C48.4133 49.84 48.78 50.4333 49.34 50.86C49.9 51.2867 50.6067 51.5 51.46 51.5C52.5133 51.5 53.3067 51.1867 53.84 50.56C54.3733 49.92 54.64 49.08 54.64 48.04C54.64 47 54.3733 46.2 53.84 45.64C53.3067 45.0667 52.52 44.78 51.48 44.78C50.7733 44.78 50.1533 44.9533 49.62 45.3C49.1 45.6333 48.72 46.0933 48.48 46.68L46.76 46.68L46.76 38.52L55.46 38.52L55.46 40.12Z" fill="black"/>
<path d="M943.5 44.275V42.875L949.1 41.225V42.65L943.5 44.275ZM940.958 49.825C940.608 48.5417 940.308 47.2833 940.058 46.05C939.808 44.8333 939.616 43.7417 939.483 42.775C939.35 41.8083 939.283 41.0917 939.283 40.625C939.283 39.3917 939.483 38.2667 939.883 37.25C940.283 36.2333 940.8 35.3417 941.433 34.575C942.066 33.7917 942.75 33.1333 943.483 32.6C944.216 32.05 944.925 31.6417 945.608 31.375C946.308 31.0917 946.9 30.95 947.383 30.95C947.8 30.95 948.166 31.0417 948.483 31.225C948.8 31.4083 949.108 31.7667 949.408 32.3C949.708 32.8333 950.025 33.6167 950.358 34.65C950.675 35.6 950.975 36.325 951.258 36.825C951.541 37.3083 951.85 37.6417 952.183 37.825C952.516 37.9917 952.9 38.075 953.333 38.075C953.683 38.075 953.933 38.175 954.083 38.375C954.25 38.5583 954.333 38.7833 954.333 39.05C954.333 39.3167 954.216 39.5667 953.983 39.8C953.75 40.0167 953.45 40.125 953.083 40.125C952.433 40.125 951.875 40.0083 951.408 39.775C950.958 39.5417 950.566 39.225 950.233 38.825L950.808 38.35C950.608 38.8333 950.35 39.2333 950.033 39.55C949.733 39.85 949.391 40.075 949.008 40.225C948.641 40.375 948.25 40.45 947.833 40.45C947.35 40.45 946.85 40.3583 946.333 40.175C945.816 40.0083 945.308 39.7583 944.808 39.425C944.308 39.075 943.833 38.65 943.383 38.15C942.95 37.65 942.566 37.0833 942.233 36.45L942.483 36.5C942.016 37.15 941.708 37.8583 941.558 38.625C941.408 39.375 941.333 40.0417 941.333 40.625C941.333 41.0917 941.383 41.6833 941.483 42.4C941.583 43.1333 941.708 43.9083 941.858 44.725C942.025 45.5417 942.2 46.35 942.383 47.15C942.583 47.9667 942.766 48.7 942.933 49.35L940.958 49.825ZM948.033 38.4C948.333 38.4 948.575 38.3417 948.758 38.225C948.958 38.1083 949.091 37.9333 949.158 37.7C949.225 37.4667 949.2 37.175 949.083 36.825C948.883 36.225 948.7 35.7 948.533 35.25C948.366 34.7833 948.2 34.4 948.033 34.1C947.883 33.7833 947.725 33.55 947.558 33.4C947.391 33.25 947.216 33.175 947.033 33.175C946.85 33.175 946.616 33.2167 946.333 33.3C946.066 33.3833 945.775 33.5083 945.458 33.675C945.158 33.8417 944.85 34.05 944.533 34.3C944.216 34.55 943.916 34.8417 943.633 35.175L943.658 34.975C944.025 35.7417 944.466 36.3833 944.983 36.9C945.516 37.4167 946.05 37.8 946.583 38.05C947.133 38.2833 947.616 38.4 948.033 38.4ZM957.729 28.55C957.013 28.55 956.471 28.3333 956.104 27.9C955.754 27.4667 955.579 26.9583 955.579 26.375C955.579 25.8917 955.671 25.4583 955.854 25.075C956.054 24.675 956.329 24.3583 956.679 24.125C957.029 23.875 957.421 23.75 957.854 23.75C958.254 23.75 958.613 23.8667 958.929 24.1C959.246 24.3333 959.496 24.6417 959.679 25.025C959.863 25.4083 959.954 25.8167 959.954 26.25C959.954 26.9 959.746 27.45 959.329 27.9C958.913 28.3333 958.379 28.55 957.729 28.55ZM957.704 27.25C957.988 27.25 958.229 27.1583 958.429 26.975C958.646 26.7917 958.754 26.55 958.754 26.25C958.754 25.9333 958.646 25.675 958.429 25.475C958.213 25.2583 957.979 25.15 957.729 25.15C957.413 25.15 957.163 25.2583 956.979 25.475C956.813 25.6917 956.729 25.9417 956.729 26.225C956.729 26.525 956.821 26.775 957.004 26.975C957.188 27.1583 957.421 27.25 957.704 27.25ZM953.071 40.125L953.321 38.075C954.154 38.075 954.804 38.0167 955.271 37.9C955.738 37.7667 956.088 37.525 956.321 37.175C956.571 36.8083 956.771 36.2833 956.921 35.6C957.071 34.9167 957.254 34.025 957.471 32.925L959.421 33.3C959.354 33.6 959.279 33.9333 959.196 34.3C959.113 34.6667 959.038 35.0333 958.971 35.4C958.921 35.75 958.896 36.0583 958.896 36.325C958.896 36.575 958.913 36.8083 958.946 37.025C958.979 37.2417 959.104 37.425 959.321 37.575C959.538 37.725 959.904 37.85 960.421 37.95C960.938 38.0333 961.679 38.075 962.646 38.075C962.996 38.075 963.246 38.175 963.396 38.375C963.563 38.5583 963.646 38.7833 963.646 39.05C963.646 39.3167 963.529 39.5667 963.296 39.8C963.063 40.0167 962.763 40.125 962.396 40.125C961.379 40.125 960.571 40.075 959.971 39.975C959.371 39.8583 958.913 39.6917 958.596 39.475C958.296 39.2583 958.079 38.9917 957.946 38.675C957.829 38.3417 957.738 37.9583 957.671 37.525L958.421 37.575C958.154 38.1083 957.863 38.5417 957.546 38.875C957.246 39.2083 956.896 39.4667 956.496 39.65C956.096 39.8333 955.613 39.9583 955.046 40.025C954.496 40.0917 953.838 40.125 953.071 40.125ZM959.371 44.85C959.021 44.85 958.721 44.725 958.471 44.475C958.238 44.2417 958.121 43.9583 958.121 43.625C958.121 43.2917 958.238 43 958.471 42.75C958.721 42.5 959.021 42.375 959.371 42.375C959.704 42.375 959.988 42.5 960.221 42.75C960.471 43 960.596 43.2917 960.596 43.625C960.596 43.9583 960.471 44.2417 960.221 44.475C959.988 44.725 959.704 44.85 959.371 44.85ZM955.946 44.85C955.596 44.85 955.296 44.725 955.046 44.475C954.813 44.2417 954.696 43.9583 954.696 43.625C954.696 43.2917 954.813 43 955.046 42.75C955.296 42.5 955.596 42.375 955.946 42.375C956.279 42.375 956.563 42.5 956.796 42.75C957.046 43 957.171 43.2917 957.171 43.625C957.171 43.9583 957.046 44.2417 956.796 44.475C956.563 44.725 956.279 44.85 955.946 44.85ZM966.815 44.275V42.875L972.415 41.225V42.65L966.815 44.275ZM962.397 40.125L962.622 38.075C963.489 38.075 964.339 38.0083 965.172 37.875C966.006 37.7417 966.822 37.55 967.622 37.3C968.422 37.05 969.189 36.75 969.922 36.4C970.672 36.0333 971.381 35.6167 972.047 35.15C971.614 34.7667 971.114 34.4333 970.547 34.15C969.981 33.8667 969.356 33.65 968.672 33.5C968.006 33.3333 967.297 33.25 966.547 33.25C966.281 33.25 966.031 33.2583 965.797 33.275C965.564 33.2917 965.331 33.325 965.097 33.375C964.864 33.4083 964.597 33.4583 964.297 33.525L963.897 31.625C964.347 31.4917 964.797 31.3917 965.247 31.325C965.697 31.2417 966.131 31.2 966.547 31.2C967.414 31.2 968.197 31.3083 968.897 31.525C969.597 31.725 970.231 31.975 970.797 32.275C971.381 32.575 971.922 32.875 972.422 33.175C972.939 33.475 973.439 33.7333 973.922 33.95C974.406 34.15 974.906 34.25 975.422 34.25H975.947L976.122 36.05C975.406 36.05 974.747 36.15 974.147 36.35C973.547 36.55 972.956 36.8083 972.372 37.125C971.806 37.425 971.206 37.75 970.572 38.1C969.939 38.4333 969.239 38.7583 968.472 39.075C967.706 39.375 966.822 39.625 965.822 39.825C964.839 40.025 963.697 40.125 962.397 40.125ZM976.703 21.95V20.55L982.303 18.9V20.325L976.703 21.95ZM978.198 27.225C977.531 27.225 977.09 27.0083 976.873 26.575C976.656 26.125 976.548 25.65 976.548 25.15C976.548 24.9667 976.556 24.775 976.573 24.575C976.606 24.3583 976.648 24.1167 976.698 23.85L977.948 23.5C977.898 23.7833 977.856 24.05 977.823 24.3C977.806 24.5333 977.798 24.7417 977.798 24.925C977.798 25.2417 977.848 25.475 977.948 25.625C978.048 25.775 978.206 25.85 978.423 25.85C978.673 25.85 978.881 25.725 979.048 25.475C979.215 25.2083 979.306 24.6833 979.323 23.9V23.15L980.523 22.7V24.225C980.523 24.4583 980.565 24.6667 980.648 24.85C980.748 25.0167 980.948 25.1 981.248 25.1C981.548 25.1 981.748 25.0083 981.848 24.825C981.948 24.6417 981.998 24.4083 981.998 24.125C981.998 23.8417 981.965 23.5583 981.898 23.275C981.831 22.975 981.74 22.6833 981.623 22.4L982.748 22.05C982.915 22.3667 983.048 22.7333 983.148 23.15C983.265 23.55 983.323 23.9167 983.323 24.25C983.323 24.8 983.165 25.3 982.848 25.75C982.548 26.1833 982.073 26.4 981.423 26.4C980.906 26.4 980.481 26.2667 980.148 26C979.831 25.7167 979.673 25.3833 979.673 25L980.248 25.225C980.248 25.7917 980.048 26.2667 979.648 26.65C979.265 27.0333 978.781 27.225 978.198 27.225ZM976.218 45.8L975.493 43.9C976.71 43.5 977.718 43.0417 978.518 42.525C979.335 42.0083 979.976 41.4583 980.443 40.875C980.926 40.2917 981.268 39.7 981.468 39.1C981.668 38.4833 981.768 37.8917 981.768 37.325C981.768 36.5083 981.585 35.6833 981.218 34.85C980.868 34 980.476 33.2 980.043 32.45L981.868 31.525C982.185 32.1083 982.46 32.6833 982.693 33.25C982.943 33.8167 983.16 34.35 983.343 34.85C983.543 35.35 983.701 35.8083 983.818 36.225C984.051 36.9417 984.351 37.4333 984.718 37.7C985.101 37.95 985.618 38.075 986.268 38.075C986.618 38.075 986.868 38.175 987.018 38.375C987.185 38.5583 987.268 38.7833 987.268 39.05C987.268 39.3167 987.151 39.5667 986.918 39.8C986.685 40.0167 986.385 40.125 986.018 40.125C985.285 40.125 984.685 40 984.218 39.75C983.768 39.4833 983.426 39.1417 983.193 38.725C982.96 38.2917 982.801 37.8417 982.718 37.375L983.518 37.825C983.518 38.925 983.268 39.925 982.768 40.825C982.285 41.7417 981.66 42.5333 980.893 43.2C980.126 43.8833 979.326 44.4417 978.493 44.875C977.66 45.3083 976.901 45.6167 976.218 45.8ZM986.03 40.125L986.255 38.075C987.205 38.075 987.872 37.9833 988.255 37.8C988.638 37.6167 988.855 37.2917 988.905 36.825C988.972 36.3583 988.988 35.7083 988.955 34.875L988.48 22.15H990.505L991.005 34.65C991.038 35.5333 991.005 36.3167 990.905 37C990.822 37.6833 990.605 38.2583 990.255 38.725C989.922 39.1917 989.413 39.5417 988.73 39.775C988.063 40.0083 987.163 40.125 986.03 40.125ZM994.824 40L994.324 22.15H996.349L996.849 40H994.824ZM1010.25 50.275V48.875L1015.85 47.225V48.65L1010.25 50.275ZM1005.73 40.025C1005.73 39.425 1005.81 38.7583 1005.98 38.025C1006.14 37.2917 1006.41 36.4833 1006.78 35.6L1008.58 36.3C1008.31 37 1008.11 37.6417 1007.98 38.225C1007.84 38.8083 1007.78 39.35 1007.78 39.85C1007.78 40.7667 1008 41.5083 1008.45 42.075C1008.92 42.6583 1009.53 43.0833 1010.3 43.35C1011.08 43.6167 1011.94 43.75 1012.88 43.75C1014.01 43.75 1014.96 43.625 1015.73 43.375C1016.49 43.1417 1017.1 42.8167 1017.55 42.4C1018 41.9833 1018.32 41.5083 1018.5 40.975C1018.7 40.4583 1018.8 39.9167 1018.8 39.35C1018.8 38.6167 1018.74 37.925 1018.63 37.275C1018.53 36.625 1018.38 35.9917 1018.2 35.375C1018.03 34.7417 1017.85 34.1 1017.65 33.45L1019.68 32.9C1019.86 33.5333 1020 34.05 1020.1 34.45C1020.2 34.8333 1020.28 35.1417 1020.33 35.375C1020.39 35.6083 1020.45 35.8167 1020.5 36C1020.68 36.6167 1020.93 37.075 1021.23 37.375C1021.53 37.6583 1021.87 37.85 1022.25 37.95C1022.65 38.0333 1023.06 38.075 1023.48 38.075C1023.83 38.075 1024.08 38.175 1024.23 38.375C1024.39 38.5583 1024.48 38.7833 1024.48 39.05C1024.48 39.3167 1024.36 39.5667 1024.13 39.8C1023.89 40.0167 1023.59 40.125 1023.23 40.125C1022.53 40.125 1021.94 40.0083 1021.48 39.775C1021.01 39.525 1020.64 39.2167 1020.38 38.85C1020.13 38.4833 1019.96 38.1 1019.88 37.7L1020.9 38.975C1020.85 39.825 1020.68 40.65 1020.4 41.45C1020.13 42.2667 1019.7 43 1019.1 43.65C1018.5 44.3167 1017.68 44.8417 1016.65 45.225C1015.63 45.6083 1014.35 45.8 1012.8 45.8C1011.85 45.8 1010.95 45.6833 1010.1 45.45C1009.25 45.2167 1008.49 44.8583 1007.83 44.375C1007.18 43.9083 1006.66 43.3083 1006.28 42.575C1005.91 41.8583 1005.73 41.0083 1005.73 40.025ZM1013.28 30.05C1012.93 30.05 1012.63 29.9333 1012.38 29.7C1012.14 29.45 1012.03 29.1583 1012.03 28.825C1012.03 28.4917 1012.14 28.2 1012.38 27.95C1012.63 27.7 1012.93 27.575 1013.28 27.575C1013.61 27.575 1013.89 27.7 1014.13 27.95C1014.38 28.2 1014.5 28.4917 1014.5 28.825C1014.5 29.1583 1014.38 29.45 1014.13 29.7C1013.89 29.9333 1013.61 30.05 1013.28 30.05ZM1030.03 26.975L1029.88 22.65H1031.25L1031.4 26.975H1030.03ZM1023.24 40.125L1023.49 38.075C1023.95 38.075 1024.32 37.975 1024.59 37.775C1024.87 37.575 1025.14 37.2417 1025.39 36.775C1025.65 36.3083 1025.99 35.6833 1026.39 34.9C1026.79 34.1 1027.19 33.45 1027.59 32.95C1028 32.4333 1028.4 32.0333 1028.79 31.75C1029.19 31.45 1029.56 31.2417 1029.91 31.125C1030.26 31.0083 1030.59 30.95 1030.89 30.95C1031.44 30.95 1031.93 31.075 1032.36 31.325C1032.8 31.5583 1033.2 31.9667 1033.59 32.55C1033.97 33.1167 1034.36 33.9 1034.76 34.9C1035.15 35.8167 1035.49 36.5083 1035.79 36.975C1036.1 37.425 1036.43 37.725 1036.76 37.875C1037.11 38.0083 1037.5 38.075 1037.94 38.075C1038.29 38.075 1038.54 38.175 1038.69 38.375C1038.85 38.5583 1038.94 38.7833 1038.94 39.05C1038.94 39.3167 1038.82 39.5667 1038.59 39.8C1038.35 40.0167 1038.05 40.125 1037.69 40.125C1037.04 40.125 1036.44 40.0167 1035.89 39.8C1035.35 39.5833 1034.9 39.2417 1034.54 38.775L1034.89 38.25C1034.7 38.7667 1034.45 39.1917 1034.14 39.525C1033.84 39.8417 1033.5 40.075 1033.11 40.225C1032.73 40.3917 1032.32 40.475 1031.89 40.475C1031.34 40.475 1030.77 40.3583 1030.19 40.125C1029.62 39.8917 1029.07 39.5583 1028.54 39.125C1028 38.6917 1027.54 38.1833 1027.14 37.6C1026.7 38.3667 1026.29 38.9333 1025.89 39.3C1025.5 39.65 1025.1 39.875 1024.69 39.975C1024.27 40.075 1023.79 40.125 1023.24 40.125ZM1028.09 35.7C1028.37 36.1667 1028.67 36.575 1028.99 36.925C1029.32 37.275 1029.65 37.5667 1029.99 37.8C1030.32 38.0167 1030.65 38.1833 1030.96 38.3C1031.3 38.4 1031.6 38.45 1031.86 38.45C1032.45 38.45 1032.87 38.2417 1033.14 37.825C1033.42 37.4083 1033.41 36.825 1033.11 36.075C1032.96 35.6917 1032.8 35.3167 1032.64 34.95C1032.49 34.5833 1032.32 34.25 1032.14 33.95C1031.95 33.6333 1031.75 33.3917 1031.51 33.225C1031.28 33.0417 1031.02 32.95 1030.74 32.95C1030.49 32.95 1030.22 33.0333 1029.94 33.2C1029.67 33.3667 1029.38 33.65 1029.06 34.05C1028.76 34.45 1028.44 35 1028.09 35.7ZM1041.59 26.55C1040.88 26.55 1040.33 26.3333 1039.97 25.9C1039.62 25.4667 1039.44 24.9583 1039.44 24.375C1039.44 23.8917 1039.53 23.4583 1039.72 23.075C1039.92 22.675 1040.19 22.3583 1040.54 22.125C1040.89 21.875 1041.28 21.75 1041.72 21.75C1042.12 21.75 1042.48 21.8667 1042.79 22.1C1043.11 22.3333 1043.36 22.6417 1043.54 23.025C1043.73 23.4083 1043.82 23.8167 1043.82 24.25C1043.82 24.9 1043.61 25.45 1043.19 25.9C1042.78 26.3333 1042.24 26.55 1041.59 26.55ZM1041.57 25.25C1041.85 25.25 1042.09 25.1583 1042.29 24.975C1042.51 24.7917 1042.62 24.55 1042.62 24.25C1042.62 23.9333 1042.51 23.675 1042.29 23.475C1042.08 23.2583 1041.84 23.15 1041.59 23.15C1041.28 23.15 1041.03 23.2583 1040.84 23.475C1040.68 23.6917 1040.59 23.9417 1040.59 24.225C1040.59 24.525 1040.68 24.775 1040.87 24.975C1041.05 25.1583 1041.28 25.25 1041.57 25.25ZM1037.69 40.125L1037.92 38.075C1038.78 38.075 1039.63 38.0083 1040.47 37.875C1041.3 37.7417 1042.12 37.55 1042.92 37.3C1043.72 37.05 1044.48 36.75 1045.22 36.4C1045.97 36.0333 1046.67 35.6167 1047.34 35.15C1046.91 34.7667 1046.41 34.4333 1045.84 34.15C1045.27 33.8667 1044.65 33.65 1043.97 33.5C1043.3 33.3333 1042.59 33.25 1041.84 33.25C1041.57 33.25 1041.32 33.2583 1041.09 33.275C1040.86 33.2917 1040.62 33.325 1040.39 33.375C1040.16 33.4083 1039.89 33.4583 1039.59 33.525L1039.19 31.625C1039.64 31.4917 1040.09 31.3917 1040.54 31.325C1040.99 31.2417 1041.42 31.2 1041.84 31.2C1042.71 31.2 1043.49 31.3083 1044.19 31.525C1044.89 31.725 1045.52 31.975 1046.09 32.275C1046.67 32.575 1047.22 32.875 1047.72 33.175C1048.23 33.475 1048.73 33.7333 1049.22 33.95C1049.7 34.15 1050.2 34.25 1050.72 34.25H1051.24L1051.42 36.05C1050.7 36.05 1050.04 36.15 1049.44 36.35C1048.84 36.55 1048.25 36.8083 1047.67 37.125C1047.1 37.425 1046.5 37.75 1045.87 38.1C1045.23 38.4333 1044.53 38.7583 1043.77 39.075C1043 39.375 1042.12 39.625 1041.12 39.825C1040.13 40.025 1038.99 40.125 1037.69 40.125ZM1052 21.95V20.55L1057.6 18.9V20.325L1052 21.95ZM1053.49 27.225C1052.82 27.225 1052.38 27.0083 1052.17 26.575C1051.95 26.125 1051.84 25.65 1051.84 25.15C1051.84 24.9667 1051.85 24.775 1051.87 24.575C1051.9 24.3583 1051.94 24.1167 1051.99 23.85L1053.24 23.5C1053.19 23.7833 1053.15 24.05 1053.12 24.3C1053.1 24.5333 1053.09 24.7417 1053.09 24.925C1053.09 25.2417 1053.14 25.475 1053.24 25.625C1053.34 25.775 1053.5 25.85 1053.72 25.85C1053.97 25.85 1054.17 25.725 1054.34 25.475C1054.51 25.2083 1054.6 24.6833 1054.62 23.9V23.15L1055.82 22.7V24.225C1055.82 24.4583 1055.86 24.6667 1055.94 24.85C1056.04 25.0167 1056.24 25.1 1056.54 25.1C1056.84 25.1 1057.04 25.0083 1057.14 24.825C1057.24 24.6417 1057.29 24.4083 1057.29 24.125C1057.29 23.8417 1057.26 23.5583 1057.19 23.275C1057.12 22.975 1057.03 22.6833 1056.92 22.4L1058.04 22.05C1058.21 22.3667 1058.34 22.7333 1058.44 23.15C1058.56 23.55 1058.62 23.9167 1058.62 24.25C1058.62 24.8 1058.46 25.3 1058.14 25.75C1057.84 26.1833 1057.37 26.4 1056.72 26.4C1056.2 26.4 1055.77 26.2667 1055.44 26C1055.12 25.7167 1054.97 25.3833 1054.97 25L1055.54 25.225C1055.54 25.7917 1055.34 26.2667 1054.94 26.65C1054.56 27.0333 1054.07 27.225 1053.49 27.225ZM1051.51 45.8L1050.79 43.9C1052 43.5 1053.01 43.0417 1053.81 42.525C1054.63 42.0083 1055.27 41.4583 1055.74 40.875C1056.22 40.2917 1056.56 39.7 1056.76 39.1C1056.96 38.4833 1057.06 37.8917 1057.06 37.325C1057.06 36.5083 1056.88 35.6833 1056.51 34.85C1056.16 34 1055.77 33.2 1055.34 32.45L1057.16 31.525C1057.48 32.1083 1057.75 32.6833 1057.99 33.25C1058.24 33.8167 1058.45 34.35 1058.64 34.85C1058.84 35.35 1058.99 35.8083 1059.11 36.225C1059.34 36.9417 1059.64 37.4333 1060.01 37.7C1060.39 37.95 1060.91 38.075 1061.56 38.075C1061.91 38.075 1062.16 38.175 1062.31 38.375C1062.48 38.5583 1062.56 38.7833 1062.56 39.05C1062.56 39.3167 1062.44 39.5667 1062.21 39.8C1061.98 40.0167 1061.68 40.125 1061.31 40.125C1060.58 40.125 1059.98 40 1059.51 39.75C1059.06 39.4833 1058.72 39.1417 1058.49 38.725C1058.25 38.2917 1058.09 37.8417 1058.01 37.375L1058.81 37.825C1058.81 38.925 1058.56 39.925 1058.06 40.825C1057.58 41.7417 1056.95 42.5333 1056.19 43.2C1055.42 43.8833 1054.62 44.4417 1053.79 44.875C1052.95 45.3083 1052.19 45.6167 1051.51 45.8ZM1061.32 40.125L1061.55 38.075C1062.5 38.075 1063.16 37.9833 1063.55 37.8C1063.93 37.6167 1064.15 37.2917 1064.2 36.825C1064.26 36.3583 1064.28 35.7083 1064.25 34.875L1063.77 22.15H1065.8L1066.3 34.65C1066.33 35.5333 1066.3 36.3167 1066.2 37C1066.11 37.6833 1065.9 38.2583 1065.55 38.725C1065.21 39.1917 1064.71 39.5417 1064.02 39.775C1063.36 40.0083 1062.46 40.125 1061.32 40.125ZM1070.12 40L1069.62 22.15H1071.64L1072.14 40H1070.12ZM1084.05 44.275V42.875L1089.65 41.225V42.65L1084.05 44.275ZM1092.42 40.125C1091.52 40.125 1090.72 40 1090.02 39.75C1089.33 39.4833 1088.78 39.0417 1088.37 38.425C1087.97 37.7917 1087.74 36.9167 1087.69 35.8L1087.29 27.1H1089.32L1089.72 35.35C1089.77 36.1333 1089.91 36.725 1090.14 37.125C1090.38 37.5083 1090.7 37.7667 1091.12 37.9C1091.55 38.0167 1092.07 38.075 1092.67 38.075C1093.02 38.075 1093.27 38.175 1093.42 38.375C1093.58 38.5583 1093.67 38.7833 1093.67 39.05C1093.67 39.3167 1093.55 39.5667 1093.32 39.8C1093.08 40.0167 1092.78 40.125 1092.42 40.125ZM1088.64 37.375C1087.69 37.675 1086.77 37.825 1085.87 37.825C1084.97 37.825 1084.15 37.6917 1083.42 37.425C1082.68 37.1583 1082.1 36.775 1081.67 36.275C1081.23 35.7583 1081.02 35.1417 1081.02 34.425C1081.02 33.725 1081.19 33.0667 1081.54 32.45C1081.91 31.8333 1082.4 31.2833 1083.02 30.8C1083.65 30.3167 1084.38 29.9167 1085.19 29.6C1086.03 29.2667 1086.91 29.0417 1087.84 28.925L1088.19 31.025C1087.36 31.0583 1086.62 31.175 1085.97 31.375C1085.33 31.5583 1084.79 31.8 1084.34 32.1C1083.91 32.4 1083.58 32.725 1083.34 33.075C1083.11 33.425 1082.99 33.7667 1082.99 34.1C1082.99 34.4667 1083.13 34.7667 1083.39 35C1083.66 35.2333 1084 35.4167 1084.42 35.55C1084.83 35.6667 1085.29 35.7417 1085.79 35.775C1086.29 35.7917 1086.78 35.775 1087.24 35.725C1087.71 35.6583 1088.11 35.5667 1088.44 35.45L1088.64 37.375ZM1094.92 12.975L1094.77 8.65H1096.15L1096.3 12.975H1094.92ZM1094.04 18.225C1093.38 18.225 1092.93 18.0083 1092.72 17.575C1092.5 17.125 1092.39 16.65 1092.39 16.15C1092.39 15.9667 1092.4 15.775 1092.42 15.575C1092.45 15.3583 1092.49 15.1167 1092.54 14.85L1093.79 14.5C1093.74 14.7833 1093.7 15.05 1093.67 15.3C1093.65 15.5333 1093.64 15.7417 1093.64 15.925C1093.64 16.2417 1093.69 16.475 1093.79 16.625C1093.89 16.775 1094.05 16.85 1094.27 16.85C1094.52 16.85 1094.73 16.725 1094.89 16.475C1095.06 16.2083 1095.15 15.6833 1095.17 14.9V14.15L1096.37 13.7V15.225C1096.37 15.4583 1096.41 15.6667 1096.49 15.85C1096.59 16.0167 1096.79 16.1 1097.09 16.1C1097.39 16.1 1097.59 16.0083 1097.69 15.825C1097.79 15.6417 1097.84 15.4083 1097.84 15.125C1097.84 14.8417 1097.81 14.5583 1097.74 14.275C1097.68 13.975 1097.58 13.6833 1097.47 13.4L1098.59 13.05C1098.76 13.3667 1098.89 13.7333 1098.99 14.15C1099.11 14.55 1099.17 14.9167 1099.17 15.25C1099.17 15.8 1099.01 16.3 1098.69 16.75C1098.39 17.1833 1097.92 17.4 1097.27 17.4C1096.75 17.4 1096.33 17.2667 1095.99 17C1095.68 16.7167 1095.52 16.3833 1095.52 16L1096.09 16.225C1096.09 16.7917 1095.89 17.2667 1095.49 17.65C1095.11 18.0333 1094.63 18.225 1094.04 18.225ZM1092.43 40.125L1092.65 38.075C1093.6 38.075 1094.27 37.9833 1094.65 37.8C1095.03 37.6167 1095.25 37.2917 1095.3 36.825C1095.37 36.3583 1095.38 35.7083 1095.35 34.875L1094.93 22.15H1097L1097.4 34.825C1097.43 35.675 1097.57 36.3417 1097.8 36.825C1098.05 37.2917 1098.38 37.6167 1098.8 37.8C1099.22 37.9833 1099.68 38.075 1100.18 38.075C1100.53 38.075 1100.78 38.175 1100.93 38.375C1101.09 38.5583 1101.18 38.7833 1101.18 39.05C1101.18 39.3167 1101.06 39.5667 1100.83 39.8C1100.59 40.0167 1100.29 40.125 1099.93 40.125C1099.23 40.125 1098.64 40.0167 1098.18 39.8C1097.73 39.5667 1097.37 39.275 1097.1 38.925C1096.85 38.5583 1096.68 38.175 1096.6 37.775L1097.13 37.825C1096.96 38.325 1096.68 38.75 1096.3 39.1C1095.93 39.4333 1095.43 39.6917 1094.8 39.875C1094.17 40.0417 1093.38 40.125 1092.43 40.125ZM1099.92 40.125L1100.15 38.075C1101.1 38.075 1101.76 37.9833 1102.15 37.8C1102.53 37.6167 1102.75 37.2917 1102.8 36.825C1102.86 36.3583 1102.88 35.7083 1102.85 34.875L1102.37 22.15H1104.4L1104.9 34.65C1104.93 35.5333 1104.9 36.3167 1104.8 37C1104.71 37.6833 1104.5 38.2583 1104.15 38.725C1103.81 39.1917 1103.3 39.5417 1102.62 39.775C1101.95 40.0083 1101.05 40.125 1099.92 40.125ZM1108.72 40L1108.22 22.15H1110.24L1110.74 40H1108.72ZM1123.33 44.275V42.875L1128.93 41.225V42.65L1123.33 44.275ZM1120.79 49.825C1120.44 48.5417 1120.14 47.2833 1119.89 46.05C1119.64 44.8333 1119.45 43.7417 1119.32 42.775C1119.18 41.8083 1119.12 41.0917 1119.12 40.625C1119.12 39.3917 1119.32 38.2667 1119.72 37.25C1120.12 36.2333 1120.63 35.3417 1121.27 34.575C1121.9 33.7917 1122.58 33.1333 1123.32 32.6C1124.05 32.05 1124.76 31.6417 1125.44 31.375C1126.14 31.0917 1126.73 30.95 1127.22 30.95C1127.63 30.95 1128 31.0417 1128.32 31.225C1128.63 31.4083 1128.94 31.7667 1129.24 32.3C1129.54 32.8333 1129.86 33.6167 1130.19 34.65C1130.51 35.6 1130.81 36.325 1131.09 36.825C1131.38 37.3083 1131.68 37.6417 1132.02 37.825C1132.35 37.9917 1132.73 38.075 1133.17 38.075C1133.52 38.075 1133.77 38.175 1133.92 38.375C1134.08 38.5583 1134.17 38.7833 1134.17 39.05C1134.17 39.3167 1134.05 39.5667 1133.82 39.8C1133.58 40.0167 1133.28 40.125 1132.92 40.125C1132.27 40.125 1131.71 40.0083 1131.24 39.775C1130.79 39.5417 1130.4 39.225 1130.07 38.825L1130.64 38.35C1130.44 38.8333 1130.18 39.2333 1129.87 39.55C1129.57 39.85 1129.23 40.075 1128.84 40.225C1128.48 40.375 1128.08 40.45 1127.67 40.45C1127.18 40.45 1126.68 40.3583 1126.17 40.175C1125.65 40.0083 1125.14 39.7583 1124.64 39.425C1124.14 39.075 1123.67 38.65 1123.22 38.15C1122.78 37.65 1122.4 37.0833 1122.07 36.45L1122.32 36.5C1121.85 37.15 1121.54 37.8583 1121.39 38.625C1121.24 39.375 1121.17 40.0417 1121.17 40.625C1121.17 41.0917 1121.22 41.6833 1121.32 42.4C1121.42 43.1333 1121.54 43.9083 1121.69 44.725C1121.86 45.5417 1122.03 46.35 1122.22 47.15C1122.42 47.9667 1122.6 48.7 1122.77 49.35L1120.79 49.825ZM1127.87 38.4C1128.17 38.4 1128.41 38.3417 1128.59 38.225C1128.79 38.1083 1128.93 37.9333 1128.99 37.7C1129.06 37.4667 1129.03 37.175 1128.92 36.825C1128.72 36.225 1128.53 35.7 1128.37 35.25C1128.2 34.7833 1128.03 34.4 1127.87 34.1C1127.72 33.7833 1127.56 33.55 1127.39 33.4C1127.23 33.25 1127.05 33.175 1126.87 33.175C1126.68 33.175 1126.45 33.2167 1126.17 33.3C1125.9 33.3833 1125.61 33.5083 1125.29 33.675C1124.99 33.8417 1124.68 34.05 1124.37 34.3C1124.05 34.55 1123.75 34.8417 1123.47 35.175L1123.49 34.975C1123.86 35.7417 1124.3 36.3833 1124.82 36.9C1125.35 37.4167 1125.88 37.8 1126.42 38.05C1126.97 38.2833 1127.45 38.4 1127.87 38.4ZM1143.35 27.55C1142.63 27.55 1142.09 27.3333 1141.72 26.9C1141.37 26.4667 1141.2 25.9583 1141.2 25.375C1141.2 24.8917 1141.29 24.4583 1141.47 24.075C1141.67 23.675 1141.95 23.3583 1142.3 23.125C1142.65 22.875 1143.04 22.75 1143.47 22.75C1143.87 22.75 1144.23 22.8667 1144.55 23.1C1144.87 23.3333 1145.12 23.6417 1145.3 24.025C1145.48 24.4083 1145.57 24.8167 1145.57 25.25C1145.57 25.9 1145.37 26.45 1144.95 26.9C1144.53 27.3333 1144 27.55 1143.35 27.55ZM1143.32 26.25C1143.61 26.25 1143.85 26.1583 1144.05 25.975C1144.27 25.7917 1144.37 25.55 1144.37 25.25C1144.37 24.9333 1144.27 24.675 1144.05 24.475C1143.83 24.2583 1143.6 24.15 1143.35 24.15C1143.03 24.15 1142.78 24.2583 1142.6 24.475C1142.43 24.6917 1142.35 24.9417 1142.35 25.225C1142.35 25.525 1142.44 25.775 1142.62 25.975C1142.81 26.1583 1143.04 26.25 1143.32 26.25ZM1132.9 40.125L1133.15 38.075C1133.69 38.075 1134.12 38.0417 1134.45 37.975C1134.79 37.8917 1135.06 37.7 1135.28 37.4C1135.51 37.0833 1135.73 36.5917 1135.93 35.925C1136.13 35.2583 1136.36 34.325 1136.63 33.125L1138.5 33.65C1138.4 34.0667 1138.29 34.5667 1138.15 35.15C1138.02 35.7333 1137.95 36.2667 1137.95 36.75C1137.95 37.0167 1138.02 37.25 1138.15 37.45C1138.29 37.65 1138.51 37.8083 1138.83 37.925C1139.16 38.025 1139.6 38.075 1140.15 38.075C1140.65 38.075 1141.06 38.0333 1141.38 37.95C1141.7 37.8667 1141.95 37.6667 1142.15 37.35C1142.37 37.0333 1142.56 36.525 1142.73 35.825C1142.9 35.125 1143.07 34.1667 1143.25 32.95L1145.15 33.3C1145.1 33.6 1145.05 33.9667 1144.98 34.4C1144.91 34.8333 1144.85 35.2667 1144.78 35.7C1144.73 36.1167 1144.7 36.4667 1144.7 36.75C1144.7 36.9833 1144.75 37.2083 1144.85 37.425C1144.97 37.625 1145.19 37.7833 1145.5 37.9C1145.84 38.0167 1146.33 38.075 1146.98 38.075C1147.81 38.075 1148.41 37.9 1148.78 37.55C1149.16 37.2 1149.36 36.6667 1149.36 35.95C1149.36 35.5667 1149.35 35.1667 1149.33 34.75C1149.31 34.3167 1149.28 33.8417 1149.23 33.325C1149.2 32.7917 1149.14 32.1833 1149.05 31.5L1150.88 31.375C1150.98 32.725 1151.09 33.8333 1151.21 34.7C1151.34 35.5667 1151.52 36.25 1151.75 36.75C1152 37.2333 1152.34 37.575 1152.75 37.775C1153.17 37.975 1153.72 38.075 1154.4 38.075C1154.75 38.075 1155 38.175 1155.15 38.375C1155.32 38.5583 1155.4 38.7833 1155.4 39.05C1155.4 39.3167 1155.29 39.5667 1155.05 39.8C1154.82 40.0167 1154.52 40.125 1154.15 40.125C1153.59 40.125 1153.08 40.05 1152.63 39.9C1152.2 39.7333 1151.81 39.5167 1151.48 39.25C1151.16 38.9667 1150.9 38.65 1150.68 38.3C1150.48 37.9333 1150.34 37.55 1150.25 37.15L1150.7 37.3C1150.52 38.05 1150.23 38.6333 1149.83 39.05C1149.45 39.45 1148.99 39.7333 1148.45 39.9C1147.92 40.05 1147.35 40.125 1146.75 40.125C1146.02 40.125 1145.42 40.0333 1144.95 39.85C1144.49 39.6667 1144.12 39.3917 1143.85 39.025C1143.6 38.6417 1143.44 38.1583 1143.35 37.575H1144.2C1143.89 38.2917 1143.55 38.8333 1143.2 39.2C1142.85 39.5667 1142.42 39.8167 1141.9 39.95C1141.39 40.0667 1140.7 40.125 1139.85 40.125C1139.44 40.125 1138.99 40.0583 1138.5 39.925C1138.04 39.7917 1137.63 39.5333 1137.28 39.15C1136.93 38.75 1136.72 38.1583 1136.65 37.375L1137.4 37.225C1137.12 38.075 1136.77 38.7083 1136.35 39.125C1135.95 39.525 1135.47 39.7917 1134.9 39.925C1134.34 40.0583 1133.67 40.125 1132.9 40.125ZM1154.27 49.275V47.875L1159.87 46.225V47.65L1154.27 49.275ZM1154.15 40.125L1154.4 38.075C1155.21 38.075 1155.86 38.025 1156.35 37.925C1156.83 37.825 1157.18 37.625 1157.4 37.325C1157.61 37.0083 1157.72 36.5417 1157.72 35.925C1157.72 35.5083 1157.65 35.0167 1157.52 34.45C1157.39 33.8667 1157.21 33.25 1157 32.6C1156.78 31.95 1156.55 31.3083 1156.3 30.675L1158.32 29.925C1158.54 30.4583 1158.74 31.0667 1158.92 31.75C1159.12 32.4333 1159.29 33.1083 1159.42 33.775C1159.55 34.4417 1159.62 35.025 1159.62 35.525C1159.62 36.1917 1159.55 36.7833 1159.4 37.3C1159.26 37.8 1159.05 38.2333 1158.77 38.6C1158.49 38.95 1158.12 39.2417 1157.67 39.475C1157.24 39.6917 1156.73 39.8583 1156.15 39.975C1155.56 40.075 1154.9 40.125 1154.15 40.125ZM1156.82 44.775C1156.47 44.775 1156.17 44.65 1155.92 44.4C1155.69 44.1667 1155.57 43.8833 1155.57 43.55C1155.57 43.2167 1155.69 42.925 1155.92 42.675C1156.17 42.425 1156.47 42.3 1156.82 42.3C1157.15 42.3 1157.44 42.425 1157.67 42.675C1157.92 42.925 1158.05 43.2167 1158.05 43.55C1158.05 43.8833 1157.92 44.1667 1157.67 44.4C1157.44 44.65 1157.15 44.775 1156.82 44.775Z" fill="black" fill-opacity="0.75"/>
</svg>
