<svg width="1273" height="126" viewBox="0 0 1273 126" fill="none" xmlns="http://www.w3.org/2000/svg">
<rect width="1273" height="92" rx="10" fill="#1CCED9"/>
<path d="M133.35 36.45H126.075L124.825 40H121.85L128.075 22.6H131.375L137.6 40H134.6L133.35 36.45ZM132.55 34.125L129.725 26.05L126.875 34.125H132.55ZM143.157 21.5V40H140.307V21.5H143.157ZM157.473 29.75V32.15H147.198V29.75H157.473ZM171.747 22.625V24.95H164.372V30.075H170.122V32.4H164.372V40H161.522V22.625H171.747ZM173.439 33.05C173.439 31.6667 173.722 30.4417 174.289 29.375C174.872 28.3083 175.655 27.4833 176.639 26.9C177.639 26.3 178.739 26 179.939 26C181.022 26 181.964 26.2167 182.764 26.65C183.58 27.0667 184.23 27.5917 184.714 28.225V26.225H187.589V40H184.714V37.95C184.23 38.6 183.572 39.1417 182.739 39.575C181.905 40.0083 180.955 40.225 179.889 40.225C178.705 40.225 177.622 39.925 176.639 39.325C175.655 38.7083 174.872 37.8583 174.289 36.775C173.722 35.675 173.439 34.4333 173.439 33.05ZM184.714 33.1C184.714 32.15 184.514 31.325 184.114 30.625C183.73 29.925 183.222 29.3917 182.589 29.025C181.955 28.6583 181.272 28.475 180.539 28.475C179.805 28.475 179.122 28.6583 178.489 29.025C177.855 29.375 177.339 29.9 176.939 30.6C176.555 31.2833 176.364 32.1 176.364 33.05C176.364 34 176.555 34.8333 176.939 35.55C177.339 36.2667 177.855 36.8167 178.489 37.2C179.139 37.5667 179.822 37.75 180.539 37.75C181.272 37.75 181.955 37.5667 182.589 37.2C183.222 36.8333 183.73 36.3 184.114 35.6C184.514 34.8833 184.714 34.05 184.714 33.1ZM194.182 21.5V40H191.332V21.5H194.182ZM196.974 33.05C196.974 31.6667 197.257 30.4417 197.824 29.375C198.407 28.3083 199.19 27.4833 200.174 26.9C201.174 26.3 202.274 26 203.474 26C204.557 26 205.499 26.2167 206.299 26.65C207.115 27.0667 207.765 27.5917 208.249 28.225V26.225H211.124V40H208.249V37.95C207.765 38.6 207.107 39.1417 206.274 39.575C205.44 40.0083 204.49 40.225 203.424 40.225C202.24 40.225 201.157 39.925 200.174 39.325C199.19 38.7083 198.407 37.8583 197.824 36.775C197.257 35.675 196.974 34.4333 196.974 33.05ZM208.249 33.1C208.249 32.15 208.049 31.325 207.649 30.625C207.265 29.925 206.757 29.3917 206.124 29.025C205.49 28.6583 204.807 28.475 204.074 28.475C203.34 28.475 202.657 28.6583 202.024 29.025C201.39 29.375 200.874 29.9 200.474 30.6C200.09 31.2833 199.899 32.1 199.899 33.05C199.899 34 200.09 34.8333 200.474 35.55C200.874 36.2667 201.39 36.8167 202.024 37.2C202.674 37.5667 203.357 37.75 204.074 37.75C204.807 37.75 205.49 37.5667 206.124 37.2C206.757 36.8333 207.265 36.3 207.649 35.6C208.049 34.8833 208.249 34.05 208.249 33.1ZM213.917 33.05C213.917 31.6667 214.201 30.4417 214.767 29.375C215.351 28.3083 216.134 27.4833 217.117 26.9C218.117 26.3 219.226 26 220.442 26C221.509 26 222.451 26.2167 223.267 26.65C224.101 27.0833 224.742 27.6083 225.192 28.225V26.225H228.067V46.55H225.192V38C224.742 38.6167 224.092 39.1417 223.242 39.575C222.392 40.0083 221.426 40.225 220.342 40.225C219.159 40.225 218.076 39.925 217.092 39.325C216.126 38.7083 215.351 37.8583 214.767 36.775C214.201 35.675 213.917 34.4333 213.917 33.05ZM225.192 33.1C225.192 32.15 224.992 31.325 224.592 30.625C224.209 29.925 223.701 29.3917 223.067 29.025C222.434 28.6583 221.751 28.475 221.017 28.475C220.284 28.475 219.601 28.6583 218.967 29.025C218.334 29.375 217.817 29.9 217.417 30.6C217.034 31.2833 216.842 32.1 216.842 33.05C216.842 34 217.034 34.8333 217.417 35.55C217.817 36.2667 218.334 36.8167 218.967 37.2C219.617 37.5667 220.301 37.75 221.017 37.75C221.751 37.75 222.434 37.5667 223.067 37.2C223.701 36.8333 224.209 36.3 224.592 35.6C224.992 34.8833 225.192 34.05 225.192 33.1Z" fill="black" fill-opacity="0.75"/>
<path d="M140.06 61.679L136.02 75.619H133.98L130.74 64.399L127.38 75.619L125.36 75.639L121.46 61.679H123.4L126.44 73.499L129.8 61.679H131.84L135.04 73.459L138.1 61.679H140.06ZM141.372 70.099C141.372 68.979 141.598 67.999 142.052 67.159C142.505 66.3057 143.125 65.6457 143.912 65.179C144.712 64.7124 145.598 64.479 146.572 64.479C147.532 64.479 148.365 64.6857 149.072 65.099C149.778 65.5124 150.305 66.0324 150.652 66.659V64.659H152.492V75.619H150.652V73.579C150.292 74.219 149.752 74.7524 149.032 75.179C148.325 75.5924 147.498 75.799 146.552 75.799C145.578 75.799 144.698 75.559 143.912 75.079C143.125 74.599 142.505 73.9257 142.052 73.059C141.598 72.1924 141.372 71.2057 141.372 70.099ZM150.652 70.119C150.652 69.2924 150.485 68.5724 150.152 67.959C149.818 67.3457 149.365 66.879 148.792 66.559C148.232 66.2257 147.612 66.059 146.932 66.059C146.252 66.059 145.632 66.219 145.072 66.539C144.512 66.859 144.065 67.3257 143.732 67.939C143.398 68.5524 143.232 69.2724 143.232 70.099C143.232 70.939 143.398 71.6724 143.732 72.299C144.065 72.9124 144.512 73.3857 145.072 73.719C145.632 74.039 146.252 74.199 146.932 74.199C147.612 74.199 148.232 74.039 148.792 73.719C149.365 73.3857 149.818 72.9124 150.152 72.299C150.485 71.6724 150.652 70.9457 150.652 70.119ZM161.687 75.619L157.387 70.779V75.619H155.567V60.819H157.387V69.519L161.607 64.659H164.147L158.987 70.119L164.167 75.619H161.687ZM168.08 66.159V72.619C168.08 73.1524 168.194 73.5324 168.42 73.759C168.647 73.9724 169.04 74.079 169.6 74.079H170.94V75.619H169.3C168.287 75.619 167.527 75.3857 167.02 74.919C166.514 74.4524 166.26 73.6857 166.26 72.619V66.159H164.84V64.659H166.26V61.899H168.08V64.659H170.94V66.159H168.08ZM182.865 64.659V75.619H181.045V73.999C180.699 74.559 180.212 74.999 179.585 75.319C178.972 75.6257 178.292 75.779 177.545 75.779C176.692 75.779 175.925 75.6057 175.245 75.259C174.565 74.899 174.025 74.3657 173.625 73.659C173.239 72.9524 173.045 72.0924 173.045 71.079V64.659H174.845V70.839C174.845 71.919 175.119 72.7524 175.665 73.339C176.212 73.9124 176.959 74.199 177.905 74.199C178.879 74.199 179.645 73.899 180.205 73.299C180.765 72.699 181.045 71.8257 181.045 70.679V64.659H182.865ZM195.15 75.799C194.31 75.799 193.557 75.659 192.89 75.379C192.224 75.0857 191.697 74.6857 191.31 74.179C190.924 73.659 190.71 73.0657 190.67 72.399H192.55C192.604 72.9457 192.857 73.3924 193.31 73.739C193.777 74.0857 194.384 74.259 195.13 74.259C195.824 74.259 196.37 74.1057 196.77 73.799C197.17 73.4924 197.37 73.1057 197.37 72.639C197.37 72.159 197.157 71.8057 196.73 71.579C196.304 71.339 195.644 71.1057 194.75 70.879C193.937 70.6657 193.27 70.4524 192.75 70.239C192.244 70.0124 191.804 69.6857 191.43 69.259C191.07 68.819 190.89 68.2457 190.89 67.539C190.89 66.979 191.057 66.4657 191.39 65.999C191.724 65.5324 192.197 65.1657 192.81 64.899C193.424 64.619 194.124 64.479 194.91 64.479C196.124 64.479 197.104 64.7857 197.85 65.399C198.597 66.0124 198.997 66.8524 199.05 67.919H197.23C197.19 67.3457 196.957 66.8857 196.53 66.539C196.117 66.1924 195.557 66.019 194.85 66.019C194.197 66.019 193.677 66.159 193.29 66.439C192.904 66.719 192.71 67.0857 192.71 67.539C192.71 67.899 192.824 68.199 193.05 68.439C193.29 68.6657 193.584 68.8524 193.93 68.999C194.29 69.1324 194.784 69.2857 195.41 69.459C196.197 69.6724 196.837 69.8857 197.33 70.099C197.824 70.299 198.244 70.6057 198.59 71.019C198.95 71.4324 199.137 71.9724 199.15 72.639C199.15 73.239 198.984 73.779 198.65 74.259C198.317 74.739 197.844 75.119 197.23 75.399C196.63 75.6657 195.937 75.799 195.15 75.799ZM211.44 64.659V75.619H209.62V73.999C209.273 74.559 208.786 74.999 208.16 75.319C207.546 75.6257 206.866 75.779 206.12 75.779C205.266 75.779 204.5 75.6057 203.82 75.259C203.14 74.899 202.6 74.3657 202.2 73.659C201.813 72.9524 201.62 72.0924 201.62 71.079V64.659H203.42V70.839C203.42 71.919 203.693 72.7524 204.24 73.339C204.786 73.9124 205.533 74.199 206.48 74.199C207.453 74.199 208.22 73.899 208.78 73.299C209.34 72.699 209.62 71.8257 209.62 70.679V64.659H211.44ZM216.333 66.699C216.706 66.0457 217.253 65.5124 217.973 65.099C218.693 64.6857 219.513 64.479 220.433 64.479C221.419 64.479 222.306 64.7124 223.093 65.179C223.879 65.6457 224.499 66.3057 224.953 67.159C225.406 67.999 225.633 68.979 225.633 70.099C225.633 71.2057 225.406 72.1924 224.953 73.059C224.499 73.9257 223.873 74.599 223.073 75.079C222.286 75.559 221.406 75.799 220.433 75.799C219.486 75.799 218.653 75.5924 217.933 75.179C217.226 74.7657 216.693 74.239 216.333 73.599V75.619H214.513V60.819H216.333V66.699ZM223.773 70.099C223.773 69.2724 223.606 68.5524 223.273 67.939C222.939 67.3257 222.486 66.859 221.913 66.539C221.353 66.219 220.733 66.059 220.053 66.059C219.386 66.059 218.766 66.2257 218.193 66.559C217.633 66.879 217.179 67.3524 216.833 67.979C216.499 68.5924 216.333 69.3057 216.333 70.119C216.333 70.9457 216.499 71.6724 216.833 72.299C217.179 72.9124 217.633 73.3857 218.193 73.719C218.766 74.039 219.386 74.199 220.053 74.199C220.733 74.199 221.353 74.039 221.913 73.719C222.486 73.3857 222.939 72.9124 223.273 72.299C223.606 71.6724 223.773 70.939 223.773 70.099ZM237.748 64.659V75.619H235.928V73.999C235.582 74.559 235.095 74.999 234.468 75.319C233.855 75.6257 233.175 75.779 232.428 75.779C231.575 75.779 230.808 75.6057 230.128 75.259C229.448 74.899 228.908 74.3657 228.508 73.659C228.122 72.9524 227.928 72.0924 227.928 71.079V64.659H229.728V70.839C229.728 71.919 230.002 72.7524 230.548 73.339C231.095 73.9124 231.842 74.199 232.788 74.199C233.762 74.199 234.528 73.899 235.088 73.299C235.648 72.699 235.928 71.8257 235.928 70.679V64.659H237.748ZM246.261 64.459C247.088 64.459 247.835 64.639 248.501 64.999C249.168 65.3457 249.688 65.8724 250.061 66.579C250.448 67.2857 250.641 68.1457 250.641 69.159V75.619H248.841V69.419C248.841 68.3257 248.568 67.4924 248.021 66.919C247.475 66.3324 246.728 66.039 245.781 66.039C244.821 66.039 244.055 66.339 243.481 66.939C242.921 67.539 242.641 68.4124 242.641 69.559V75.619H240.821V60.819H242.641V66.219C243.001 65.659 243.495 65.2257 244.121 64.919C244.761 64.6124 245.475 64.459 246.261 64.459ZM263.626 79.339C262.346 78.0857 261.346 76.4924 260.626 74.559C259.92 72.6257 259.566 70.539 259.566 68.299C259.566 66.0057 259.94 63.8657 260.686 61.879C261.446 59.879 262.526 58.2324 263.926 56.939H265.826V57.119C264.333 58.519 263.206 60.2057 262.446 62.179C261.7 64.139 261.326 66.179 261.326 68.299C261.326 70.3657 261.68 72.339 262.386 74.219C263.106 76.099 264.153 77.7457 265.526 79.159V79.339H263.626ZM282.28 62.739H275.26V67.299C275.567 66.8724 276.02 66.5257 276.62 66.259C277.22 65.979 277.867 65.839 278.56 65.839C279.667 65.839 280.567 66.0724 281.26 66.539C281.954 66.9924 282.447 67.5857 282.74 68.319C283.047 69.039 283.2 69.8057 283.2 70.619C283.2 71.579 283.02 72.439 282.66 73.199C282.3 73.959 281.747 74.559 281 74.999C280.267 75.439 279.354 75.659 278.26 75.659C276.86 75.659 275.727 75.299 274.86 74.579C273.994 73.859 273.467 72.899 273.28 71.699H275.06C275.234 72.459 275.6 73.0524 276.16 73.479C276.72 73.9057 277.427 74.119 278.28 74.119C279.334 74.119 280.127 73.8057 280.66 73.179C281.194 72.539 281.46 71.699 281.46 70.659C281.46 69.619 281.194 68.819 280.66 68.259C280.127 67.6857 279.34 67.399 278.3 67.399C277.594 67.399 276.974 67.5724 276.44 67.919C275.92 68.2524 275.54 68.7124 275.3 69.299H273.58V61.139H282.28V62.739ZM290.671 79.339V79.159C292.044 77.7457 293.084 76.099 293.791 74.219C294.511 72.339 294.871 70.3657 294.871 68.299C294.871 66.179 294.491 64.139 293.731 62.179C292.984 60.2057 291.864 58.519 290.371 57.119V56.939H292.271C293.671 58.2324 294.744 59.879 295.491 61.879C296.251 63.8657 296.631 66.0057 296.631 68.299C296.631 70.539 296.271 72.6257 295.551 74.559C294.844 76.4924 293.851 78.0857 292.571 79.339H290.671Z" fill="black" fill-opacity="0.75"/>
<path d="M943.5 52.275V50.875L949.1 49.225V50.65L943.5 52.275ZM940.958 57.825C940.608 56.5417 940.308 55.2833 940.058 54.05C939.808 52.8333 939.616 51.7417 939.483 50.775C939.35 49.8083 939.283 49.0917 939.283 48.625C939.283 47.3917 939.483 46.2667 939.883 45.25C940.283 44.2333 940.8 43.3417 941.433 42.575C942.066 41.7917 942.75 41.1333 943.483 40.6C944.216 40.05 944.925 39.6417 945.608 39.375C946.308 39.0917 946.9 38.95 947.383 38.95C947.8 38.95 948.166 39.0417 948.483 39.225C948.8 39.4083 949.108 39.7667 949.408 40.3C949.708 40.8333 950.025 41.6167 950.358 42.65C950.675 43.6 950.975 44.325 951.258 44.825C951.541 45.3083 951.85 45.6417 952.183 45.825C952.516 45.9917 952.9 46.075 953.333 46.075C953.683 46.075 953.933 46.175 954.083 46.375C954.25 46.5583 954.333 46.7833 954.333 47.05C954.333 47.3167 954.216 47.5667 953.983 47.8C953.75 48.0167 953.45 48.125 953.083 48.125C952.433 48.125 951.875 48.0083 951.408 47.775C950.958 47.5417 950.566 47.225 950.233 46.825L950.808 46.35C950.608 46.8333 950.35 47.2333 950.033 47.55C949.733 47.85 949.391 48.075 949.008 48.225C948.641 48.375 948.25 48.45 947.833 48.45C947.35 48.45 946.85 48.3583 946.333 48.175C945.816 48.0083 945.308 47.7583 944.808 47.425C944.308 47.075 943.833 46.65 943.383 46.15C942.95 45.65 942.566 45.0833 942.233 44.45L942.483 44.5C942.016 45.15 941.708 45.8583 941.558 46.625C941.408 47.375 941.333 48.0417 941.333 48.625C941.333 49.0917 941.383 49.6833 941.483 50.4C941.583 51.1333 941.708 51.9083 941.858 52.725C942.025 53.5417 942.2 54.35 942.383 55.15C942.583 55.9667 942.766 56.7 942.933 57.35L940.958 57.825ZM948.033 46.4C948.333 46.4 948.575 46.3417 948.758 46.225C948.958 46.1083 949.091 45.9333 949.158 45.7C949.225 45.4667 949.2 45.175 949.083 44.825C948.883 44.225 948.7 43.7 948.533 43.25C948.366 42.7833 948.2 42.4 948.033 42.1C947.883 41.7833 947.725 41.55 947.558 41.4C947.391 41.25 947.216 41.175 947.033 41.175C946.85 41.175 946.616 41.2167 946.333 41.3C946.066 41.3833 945.775 41.5083 945.458 41.675C945.158 41.8417 944.85 42.05 944.533 42.3C944.216 42.55 943.916 42.8417 943.633 43.175L943.658 42.975C944.025 43.7417 944.466 44.3833 944.983 44.9C945.516 45.4167 946.05 45.8 946.583 46.05C947.133 46.2833 947.616 46.4 948.033 46.4ZM957.729 36.55C957.013 36.55 956.471 36.3333 956.104 35.9C955.754 35.4667 955.579 34.9583 955.579 34.375C955.579 33.8917 955.671 33.4583 955.854 33.075C956.054 32.675 956.329 32.3583 956.679 32.125C957.029 31.875 957.421 31.75 957.854 31.75C958.254 31.75 958.613 31.8667 958.929 32.1C959.246 32.3333 959.496 32.6417 959.679 33.025C959.863 33.4083 959.954 33.8167 959.954 34.25C959.954 34.9 959.746 35.45 959.329 35.9C958.913 36.3333 958.379 36.55 957.729 36.55ZM957.704 35.25C957.988 35.25 958.229 35.1583 958.429 34.975C958.646 34.7917 958.754 34.55 958.754 34.25C958.754 33.9333 958.646 33.675 958.429 33.475C958.213 33.2583 957.979 33.15 957.729 33.15C957.413 33.15 957.163 33.2583 956.979 33.475C956.813 33.6917 956.729 33.9417 956.729 34.225C956.729 34.525 956.821 34.775 957.004 34.975C957.188 35.1583 957.421 35.25 957.704 35.25ZM953.071 48.125L953.321 46.075C954.154 46.075 954.804 46.0167 955.271 45.9C955.738 45.7667 956.088 45.525 956.321 45.175C956.571 44.8083 956.771 44.2833 956.921 43.6C957.071 42.9167 957.254 42.025 957.471 40.925L959.421 41.3C959.354 41.6 959.279 41.9333 959.196 42.3C959.113 42.6667 959.038 43.0333 958.971 43.4C958.921 43.75 958.896 44.0583 958.896 44.325C958.896 44.575 958.913 44.8083 958.946 45.025C958.979 45.2417 959.104 45.425 959.321 45.575C959.538 45.725 959.904 45.85 960.421 45.95C960.938 46.0333 961.679 46.075 962.646 46.075C962.996 46.075 963.246 46.175 963.396 46.375C963.563 46.5583 963.646 46.7833 963.646 47.05C963.646 47.3167 963.529 47.5667 963.296 47.8C963.063 48.0167 962.763 48.125 962.396 48.125C961.379 48.125 960.571 48.075 959.971 47.975C959.371 47.8583 958.913 47.6917 958.596 47.475C958.296 47.2583 958.079 46.9917 957.946 46.675C957.829 46.3417 957.738 45.9583 957.671 45.525L958.421 45.575C958.154 46.1083 957.863 46.5417 957.546 46.875C957.246 47.2083 956.896 47.4667 956.496 47.65C956.096 47.8333 955.613 47.9583 955.046 48.025C954.496 48.0917 953.838 48.125 953.071 48.125ZM959.371 52.85C959.021 52.85 958.721 52.725 958.471 52.475C958.238 52.2417 958.121 51.9583 958.121 51.625C958.121 51.2917 958.238 51 958.471 50.75C958.721 50.5 959.021 50.375 959.371 50.375C959.704 50.375 959.988 50.5 960.221 50.75C960.471 51 960.596 51.2917 960.596 51.625C960.596 51.9583 960.471 52.2417 960.221 52.475C959.988 52.725 959.704 52.85 959.371 52.85ZM955.946 52.85C955.596 52.85 955.296 52.725 955.046 52.475C954.813 52.2417 954.696 51.9583 954.696 51.625C954.696 51.2917 954.813 51 955.046 50.75C955.296 50.5 955.596 50.375 955.946 50.375C956.279 50.375 956.563 50.5 956.796 50.75C957.046 51 957.171 51.2917 957.171 51.625C957.171 51.9583 957.046 52.2417 956.796 52.475C956.563 52.725 956.279 52.85 955.946 52.85ZM966.815 52.275V50.875L972.415 49.225V50.65L966.815 52.275ZM962.397 48.125L962.622 46.075C963.489 46.075 964.339 46.0083 965.172 45.875C966.006 45.7417 966.822 45.55 967.622 45.3C968.422 45.05 969.189 44.75 969.922 44.4C970.672 44.0333 971.381 43.6167 972.047 43.15C971.614 42.7667 971.114 42.4333 970.547 42.15C969.981 41.8667 969.356 41.65 968.672 41.5C968.006 41.3333 967.297 41.25 966.547 41.25C966.281 41.25 966.031 41.2583 965.797 41.275C965.564 41.2917 965.331 41.325 965.097 41.375C964.864 41.4083 964.597 41.4583 964.297 41.525L963.897 39.625C964.347 39.4917 964.797 39.3917 965.247 39.325C965.697 39.2417 966.131 39.2 966.547 39.2C967.414 39.2 968.197 39.3083 968.897 39.525C969.597 39.725 970.231 39.975 970.797 40.275C971.381 40.575 971.922 40.875 972.422 41.175C972.939 41.475 973.439 41.7333 973.922 41.95C974.406 42.15 974.906 42.25 975.422 42.25H975.947L976.122 44.05C975.406 44.05 974.747 44.15 974.147 44.35C973.547 44.55 972.956 44.8083 972.372 45.125C971.806 45.425 971.206 45.75 970.572 46.1C969.939 46.4333 969.239 46.7583 968.472 47.075C967.706 47.375 966.822 47.625 965.822 47.825C964.839 48.025 963.697 48.125 962.397 48.125ZM976.703 29.95V28.55L982.303 26.9V28.325L976.703 29.95ZM978.198 35.225C977.531 35.225 977.09 35.0083 976.873 34.575C976.656 34.125 976.548 33.65 976.548 33.15C976.548 32.9667 976.556 32.775 976.573 32.575C976.606 32.3583 976.648 32.1167 976.698 31.85L977.948 31.5C977.898 31.7833 977.856 32.05 977.823 32.3C977.806 32.5333 977.798 32.7417 977.798 32.925C977.798 33.2417 977.848 33.475 977.948 33.625C978.048 33.775 978.206 33.85 978.423 33.85C978.673 33.85 978.881 33.725 979.048 33.475C979.215 33.2083 979.306 32.6833 979.323 31.9V31.15L980.523 30.7V32.225C980.523 32.4583 980.565 32.6667 980.648 32.85C980.748 33.0167 980.948 33.1 981.248 33.1C981.548 33.1 981.748 33.0083 981.848 32.825C981.948 32.6417 981.998 32.4083 981.998 32.125C981.998 31.8417 981.965 31.5583 981.898 31.275C981.831 30.975 981.74 30.6833 981.623 30.4L982.748 30.05C982.915 30.3667 983.048 30.7333 983.148 31.15C983.265 31.55 983.323 31.9167 983.323 32.25C983.323 32.8 983.165 33.3 982.848 33.75C982.548 34.1833 982.073 34.4 981.423 34.4C980.906 34.4 980.481 34.2667 980.148 34C979.831 33.7167 979.673 33.3833 979.673 33L980.248 33.225C980.248 33.7917 980.048 34.2667 979.648 34.65C979.265 35.0333 978.781 35.225 978.198 35.225ZM976.218 53.8L975.493 51.9C976.71 51.5 977.718 51.0417 978.518 50.525C979.335 50.0083 979.976 49.4583 980.443 48.875C980.926 48.2917 981.268 47.7 981.468 47.1C981.668 46.4833 981.768 45.8917 981.768 45.325C981.768 44.5083 981.585 43.6833 981.218 42.85C980.868 42 980.476 41.2 980.043 40.45L981.868 39.525C982.185 40.1083 982.46 40.6833 982.693 41.25C982.943 41.8167 983.16 42.35 983.343 42.85C983.543 43.35 983.701 43.8083 983.818 44.225C984.051 44.9417 984.351 45.4333 984.718 45.7C985.101 45.95 985.618 46.075 986.268 46.075C986.618 46.075 986.868 46.175 987.018 46.375C987.185 46.5583 987.268 46.7833 987.268 47.05C987.268 47.3167 987.151 47.5667 986.918 47.8C986.685 48.0167 986.385 48.125 986.018 48.125C985.285 48.125 984.685 48 984.218 47.75C983.768 47.4833 983.426 47.1417 983.193 46.725C982.96 46.2917 982.801 45.8417 982.718 45.375L983.518 45.825C983.518 46.925 983.268 47.925 982.768 48.825C982.285 49.7417 981.66 50.5333 980.893 51.2C980.126 51.8833 979.326 52.4417 978.493 52.875C977.66 53.3083 976.901 53.6167 976.218 53.8ZM986.03 48.125L986.255 46.075C987.205 46.075 987.872 45.9833 988.255 45.8C988.638 45.6167 988.855 45.2917 988.905 44.825C988.972 44.3583 988.988 43.7083 988.955 42.875L988.48 30.15H990.505L991.005 42.65C991.038 43.5333 991.005 44.3167 990.905 45C990.822 45.6833 990.605 46.2583 990.255 46.725C989.922 47.1917 989.413 47.5417 988.73 47.775C988.063 48.0083 987.163 48.125 986.03 48.125ZM994.824 48L994.324 30.15H996.349L996.849 48H994.824ZM1010.25 58.275V56.875L1015.85 55.225V56.65L1010.25 58.275ZM1005.73 48.025C1005.73 47.425 1005.81 46.7583 1005.98 46.025C1006.14 45.2917 1006.41 44.4833 1006.78 43.6L1008.58 44.3C1008.31 45 1008.11 45.6417 1007.98 46.225C1007.84 46.8083 1007.78 47.35 1007.78 47.85C1007.78 48.7667 1008 49.5083 1008.45 50.075C1008.92 50.6583 1009.53 51.0833 1010.3 51.35C1011.08 51.6167 1011.94 51.75 1012.88 51.75C1014.01 51.75 1014.96 51.625 1015.73 51.375C1016.49 51.1417 1017.1 50.8167 1017.55 50.4C1018 49.9833 1018.32 49.5083 1018.5 48.975C1018.7 48.4583 1018.8 47.9167 1018.8 47.35C1018.8 46.6167 1018.74 45.925 1018.63 45.275C1018.53 44.625 1018.38 43.9917 1018.2 43.375C1018.03 42.7417 1017.85 42.1 1017.65 41.45L1019.68 40.9C1019.86 41.5333 1020 42.05 1020.1 42.45C1020.2 42.8333 1020.28 43.1417 1020.33 43.375C1020.39 43.6083 1020.45 43.8167 1020.5 44C1020.68 44.6167 1020.93 45.075 1021.23 45.375C1021.53 45.6583 1021.87 45.85 1022.25 45.95C1022.65 46.0333 1023.06 46.075 1023.48 46.075C1023.83 46.075 1024.08 46.175 1024.23 46.375C1024.39 46.5583 1024.48 46.7833 1024.48 47.05C1024.48 47.3167 1024.36 47.5667 1024.13 47.8C1023.89 48.0167 1023.59 48.125 1023.23 48.125C1022.53 48.125 1021.94 48.0083 1021.48 47.775C1021.01 47.525 1020.64 47.2167 1020.38 46.85C1020.13 46.4833 1019.96 46.1 1019.88 45.7L1020.9 46.975C1020.85 47.825 1020.68 48.65 1020.4 49.45C1020.13 50.2667 1019.7 51 1019.1 51.65C1018.5 52.3167 1017.68 52.8417 1016.65 53.225C1015.63 53.6083 1014.35 53.8 1012.8 53.8C1011.85 53.8 1010.95 53.6833 1010.1 53.45C1009.25 53.2167 1008.49 52.8583 1007.83 52.375C1007.18 51.9083 1006.66 51.3083 1006.28 50.575C1005.91 49.8583 1005.73 49.0083 1005.73 48.025ZM1013.28 38.05C1012.93 38.05 1012.63 37.9333 1012.38 37.7C1012.14 37.45 1012.03 37.1583 1012.03 36.825C1012.03 36.4917 1012.14 36.2 1012.38 35.95C1012.63 35.7 1012.93 35.575 1013.28 35.575C1013.61 35.575 1013.89 35.7 1014.13 35.95C1014.38 36.2 1014.5 36.4917 1014.5 36.825C1014.5 37.1583 1014.38 37.45 1014.13 37.7C1013.89 37.9333 1013.61 38.05 1013.28 38.05ZM1030.03 34.975L1029.88 30.65H1031.25L1031.4 34.975H1030.03ZM1023.24 48.125L1023.49 46.075C1023.95 46.075 1024.32 45.975 1024.59 45.775C1024.87 45.575 1025.14 45.2417 1025.39 44.775C1025.65 44.3083 1025.99 43.6833 1026.39 42.9C1026.79 42.1 1027.19 41.45 1027.59 40.95C1028 40.4333 1028.4 40.0333 1028.79 39.75C1029.19 39.45 1029.56 39.2417 1029.91 39.125C1030.26 39.0083 1030.59 38.95 1030.89 38.95C1031.44 38.95 1031.93 39.075 1032.36 39.325C1032.8 39.5583 1033.2 39.9667 1033.59 40.55C1033.97 41.1167 1034.36 41.9 1034.76 42.9C1035.15 43.8167 1035.49 44.5083 1035.79 44.975C1036.1 45.425 1036.43 45.725 1036.76 45.875C1037.11 46.0083 1037.5 46.075 1037.94 46.075C1038.29 46.075 1038.54 46.175 1038.69 46.375C1038.85 46.5583 1038.94 46.7833 1038.94 47.05C1038.94 47.3167 1038.82 47.5667 1038.59 47.8C1038.35 48.0167 1038.05 48.125 1037.69 48.125C1037.04 48.125 1036.44 48.0167 1035.89 47.8C1035.35 47.5833 1034.9 47.2417 1034.54 46.775L1034.89 46.25C1034.7 46.7667 1034.45 47.1917 1034.14 47.525C1033.84 47.8417 1033.5 48.075 1033.11 48.225C1032.73 48.3917 1032.32 48.475 1031.89 48.475C1031.34 48.475 1030.77 48.3583 1030.19 48.125C1029.62 47.8917 1029.07 47.5583 1028.54 47.125C1028 46.6917 1027.54 46.1833 1027.14 45.6C1026.7 46.3667 1026.29 46.9333 1025.89 47.3C1025.5 47.65 1025.1 47.875 1024.69 47.975C1024.27 48.075 1023.79 48.125 1023.24 48.125ZM1028.09 43.7C1028.37 44.1667 1028.67 44.575 1028.99 44.925C1029.32 45.275 1029.65 45.5667 1029.99 45.8C1030.32 46.0167 1030.65 46.1833 1030.96 46.3C1031.3 46.4 1031.6 46.45 1031.86 46.45C1032.45 46.45 1032.87 46.2417 1033.14 45.825C1033.42 45.4083 1033.41 44.825 1033.11 44.075C1032.96 43.6917 1032.8 43.3167 1032.64 42.95C1032.49 42.5833 1032.32 42.25 1032.14 41.95C1031.95 41.6333 1031.75 41.3917 1031.51 41.225C1031.28 41.0417 1031.02 40.95 1030.74 40.95C1030.49 40.95 1030.22 41.0333 1029.94 41.2C1029.67 41.3667 1029.38 41.65 1029.06 42.05C1028.76 42.45 1028.44 43 1028.09 43.7ZM1041.59 34.55C1040.88 34.55 1040.33 34.3333 1039.97 33.9C1039.62 33.4667 1039.44 32.9583 1039.44 32.375C1039.44 31.8917 1039.53 31.4583 1039.72 31.075C1039.92 30.675 1040.19 30.3583 1040.54 30.125C1040.89 29.875 1041.28 29.75 1041.72 29.75C1042.12 29.75 1042.48 29.8667 1042.79 30.1C1043.11 30.3333 1043.36 30.6417 1043.54 31.025C1043.73 31.4083 1043.82 31.8167 1043.82 32.25C1043.82 32.9 1043.61 33.45 1043.19 33.9C1042.78 34.3333 1042.24 34.55 1041.59 34.55ZM1041.57 33.25C1041.85 33.25 1042.09 33.1583 1042.29 32.975C1042.51 32.7917 1042.62 32.55 1042.62 32.25C1042.62 31.9333 1042.51 31.675 1042.29 31.475C1042.08 31.2583 1041.84 31.15 1041.59 31.15C1041.28 31.15 1041.03 31.2583 1040.84 31.475C1040.68 31.6917 1040.59 31.9417 1040.59 32.225C1040.59 32.525 1040.68 32.775 1040.87 32.975C1041.05 33.1583 1041.28 33.25 1041.57 33.25ZM1037.69 48.125L1037.92 46.075C1038.78 46.075 1039.63 46.0083 1040.47 45.875C1041.3 45.7417 1042.12 45.55 1042.92 45.3C1043.72 45.05 1044.48 44.75 1045.22 44.4C1045.97 44.0333 1046.67 43.6167 1047.34 43.15C1046.91 42.7667 1046.41 42.4333 1045.84 42.15C1045.27 41.8667 1044.65 41.65 1043.97 41.5C1043.3 41.3333 1042.59 41.25 1041.84 41.25C1041.57 41.25 1041.32 41.2583 1041.09 41.275C1040.86 41.2917 1040.62 41.325 1040.39 41.375C1040.16 41.4083 1039.89 41.4583 1039.59 41.525L1039.19 39.625C1039.64 39.4917 1040.09 39.3917 1040.54 39.325C1040.99 39.2417 1041.42 39.2 1041.84 39.2C1042.71 39.2 1043.49 39.3083 1044.19 39.525C1044.89 39.725 1045.52 39.975 1046.09 40.275C1046.67 40.575 1047.22 40.875 1047.72 41.175C1048.23 41.475 1048.73 41.7333 1049.22 41.95C1049.7 42.15 1050.2 42.25 1050.72 42.25H1051.24L1051.42 44.05C1050.7 44.05 1050.04 44.15 1049.44 44.35C1048.84 44.55 1048.25 44.8083 1047.67 45.125C1047.1 45.425 1046.5 45.75 1045.87 46.1C1045.23 46.4333 1044.53 46.7583 1043.77 47.075C1043 47.375 1042.12 47.625 1041.12 47.825C1040.13 48.025 1038.99 48.125 1037.69 48.125ZM1052 29.95V28.55L1057.6 26.9V28.325L1052 29.95ZM1053.49 35.225C1052.82 35.225 1052.38 35.0083 1052.17 34.575C1051.95 34.125 1051.84 33.65 1051.84 33.15C1051.84 32.9667 1051.85 32.775 1051.87 32.575C1051.9 32.3583 1051.94 32.1167 1051.99 31.85L1053.24 31.5C1053.19 31.7833 1053.15 32.05 1053.12 32.3C1053.1 32.5333 1053.09 32.7417 1053.09 32.925C1053.09 33.2417 1053.14 33.475 1053.24 33.625C1053.34 33.775 1053.5 33.85 1053.72 33.85C1053.97 33.85 1054.17 33.725 1054.34 33.475C1054.51 33.2083 1054.6 32.6833 1054.62 31.9V31.15L1055.82 30.7V32.225C1055.82 32.4583 1055.86 32.6667 1055.94 32.85C1056.04 33.0167 1056.24 33.1 1056.54 33.1C1056.84 33.1 1057.04 33.0083 1057.14 32.825C1057.24 32.6417 1057.29 32.4083 1057.29 32.125C1057.29 31.8417 1057.26 31.5583 1057.19 31.275C1057.12 30.975 1057.03 30.6833 1056.92 30.4L1058.04 30.05C1058.21 30.3667 1058.34 30.7333 1058.44 31.15C1058.56 31.55 1058.62 31.9167 1058.62 32.25C1058.62 32.8 1058.46 33.3 1058.14 33.75C1057.84 34.1833 1057.37 34.4 1056.72 34.4C1056.2 34.4 1055.77 34.2667 1055.44 34C1055.12 33.7167 1054.97 33.3833 1054.97 33L1055.54 33.225C1055.54 33.7917 1055.34 34.2667 1054.94 34.65C1054.56 35.0333 1054.07 35.225 1053.49 35.225ZM1051.51 53.8L1050.79 51.9C1052 51.5 1053.01 51.0417 1053.81 50.525C1054.63 50.0083 1055.27 49.4583 1055.74 48.875C1056.22 48.2917 1056.56 47.7 1056.76 47.1C1056.96 46.4833 1057.06 45.8917 1057.06 45.325C1057.06 44.5083 1056.88 43.6833 1056.51 42.85C1056.16 42 1055.77 41.2 1055.34 40.45L1057.16 39.525C1057.48 40.1083 1057.75 40.6833 1057.99 41.25C1058.24 41.8167 1058.45 42.35 1058.64 42.85C1058.84 43.35 1058.99 43.8083 1059.11 44.225C1059.34 44.9417 1059.64 45.4333 1060.01 45.7C1060.39 45.95 1060.91 46.075 1061.56 46.075C1061.91 46.075 1062.16 46.175 1062.31 46.375C1062.48 46.5583 1062.56 46.7833 1062.56 47.05C1062.56 47.3167 1062.44 47.5667 1062.21 47.8C1061.98 48.0167 1061.68 48.125 1061.31 48.125C1060.58 48.125 1059.98 48 1059.51 47.75C1059.06 47.4833 1058.72 47.1417 1058.49 46.725C1058.25 46.2917 1058.09 45.8417 1058.01 45.375L1058.81 45.825C1058.81 46.925 1058.56 47.925 1058.06 48.825C1057.58 49.7417 1056.95 50.5333 1056.19 51.2C1055.42 51.8833 1054.62 52.4417 1053.79 52.875C1052.95 53.3083 1052.19 53.6167 1051.51 53.8ZM1061.32 48.125L1061.55 46.075C1062.5 46.075 1063.16 45.9833 1063.55 45.8C1063.93 45.6167 1064.15 45.2917 1064.2 44.825C1064.26 44.3583 1064.28 43.7083 1064.25 42.875L1063.77 30.15H1065.8L1066.3 42.65C1066.33 43.5333 1066.3 44.3167 1066.2 45C1066.11 45.6833 1065.9 46.2583 1065.55 46.725C1065.21 47.1917 1064.71 47.5417 1064.02 47.775C1063.36 48.0083 1062.46 48.125 1061.32 48.125ZM1070.12 48L1069.62 30.15H1071.64L1072.14 48H1070.12ZM1084.05 52.275V50.875L1089.65 49.225V50.65L1084.05 52.275ZM1092.42 48.125C1091.52 48.125 1090.72 48 1090.02 47.75C1089.33 47.4833 1088.78 47.0417 1088.37 46.425C1087.97 45.7917 1087.74 44.9167 1087.69 43.8L1087.29 35.1H1089.32L1089.72 43.35C1089.77 44.1333 1089.91 44.725 1090.14 45.125C1090.38 45.5083 1090.7 45.7667 1091.12 45.9C1091.55 46.0167 1092.07 46.075 1092.67 46.075C1093.02 46.075 1093.27 46.175 1093.42 46.375C1093.58 46.5583 1093.67 46.7833 1093.67 47.05C1093.67 47.3167 1093.55 47.5667 1093.32 47.8C1093.08 48.0167 1092.78 48.125 1092.42 48.125ZM1088.64 45.375C1087.69 45.675 1086.77 45.825 1085.87 45.825C1084.97 45.825 1084.15 45.6917 1083.42 45.425C1082.68 45.1583 1082.1 44.775 1081.67 44.275C1081.23 43.7583 1081.02 43.1417 1081.02 42.425C1081.02 41.725 1081.19 41.0667 1081.54 40.45C1081.91 39.8333 1082.4 39.2833 1083.02 38.8C1083.65 38.3167 1084.38 37.9167 1085.19 37.6C1086.03 37.2667 1086.91 37.0417 1087.84 36.925L1088.19 39.025C1087.36 39.0583 1086.62 39.175 1085.97 39.375C1085.33 39.5583 1084.79 39.8 1084.34 40.1C1083.91 40.4 1083.58 40.725 1083.34 41.075C1083.11 41.425 1082.99 41.7667 1082.99 42.1C1082.99 42.4667 1083.13 42.7667 1083.39 43C1083.66 43.2333 1084 43.4167 1084.42 43.55C1084.83 43.6667 1085.29 43.7417 1085.79 43.775C1086.29 43.7917 1086.78 43.775 1087.24 43.725C1087.71 43.6583 1088.11 43.5667 1088.44 43.45L1088.64 45.375ZM1094.92 20.975L1094.77 16.65H1096.15L1096.3 20.975H1094.92ZM1094.04 26.225C1093.38 26.225 1092.93 26.0083 1092.72 25.575C1092.5 25.125 1092.39 24.65 1092.39 24.15C1092.39 23.9667 1092.4 23.775 1092.42 23.575C1092.45 23.3583 1092.49 23.1167 1092.54 22.85L1093.79 22.5C1093.74 22.7833 1093.7 23.05 1093.67 23.3C1093.65 23.5333 1093.64 23.7417 1093.64 23.925C1093.64 24.2417 1093.69 24.475 1093.79 24.625C1093.89 24.775 1094.05 24.85 1094.27 24.85C1094.52 24.85 1094.73 24.725 1094.89 24.475C1095.06 24.2083 1095.15 23.6833 1095.17 22.9V22.15L1096.37 21.7V23.225C1096.37 23.4583 1096.41 23.6667 1096.49 23.85C1096.59 24.0167 1096.79 24.1 1097.09 24.1C1097.39 24.1 1097.59 24.0083 1097.69 23.825C1097.79 23.6417 1097.84 23.4083 1097.84 23.125C1097.84 22.8417 1097.81 22.5583 1097.74 22.275C1097.68 21.975 1097.58 21.6833 1097.47 21.4L1098.59 21.05C1098.76 21.3667 1098.89 21.7333 1098.99 22.15C1099.11 22.55 1099.17 22.9167 1099.17 23.25C1099.17 23.8 1099.01 24.3 1098.69 24.75C1098.39 25.1833 1097.92 25.4 1097.27 25.4C1096.75 25.4 1096.33 25.2667 1095.99 25C1095.68 24.7167 1095.52 24.3833 1095.52 24L1096.09 24.225C1096.09 24.7917 1095.89 25.2667 1095.49 25.65C1095.11 26.0333 1094.63 26.225 1094.04 26.225ZM1092.43 48.125L1092.65 46.075C1093.6 46.075 1094.27 45.9833 1094.65 45.8C1095.03 45.6167 1095.25 45.2917 1095.3 44.825C1095.37 44.3583 1095.38 43.7083 1095.35 42.875L1094.93 30.15H1097L1097.4 42.825C1097.43 43.675 1097.57 44.3417 1097.8 44.825C1098.05 45.2917 1098.38 45.6167 1098.8 45.8C1099.22 45.9833 1099.68 46.075 1100.18 46.075C1100.53 46.075 1100.78 46.175 1100.93 46.375C1101.09 46.5583 1101.18 46.7833 1101.18 47.05C1101.18 47.3167 1101.06 47.5667 1100.83 47.8C1100.59 48.0167 1100.29 48.125 1099.93 48.125C1099.23 48.125 1098.64 48.0167 1098.18 47.8C1097.73 47.5667 1097.37 47.275 1097.1 46.925C1096.85 46.5583 1096.68 46.175 1096.6 45.775L1097.13 45.825C1096.96 46.325 1096.68 46.75 1096.3 47.1C1095.93 47.4333 1095.43 47.6917 1094.8 47.875C1094.17 48.0417 1093.38 48.125 1092.43 48.125ZM1099.92 48.125L1100.15 46.075C1101.1 46.075 1101.76 45.9833 1102.15 45.8C1102.53 45.6167 1102.75 45.2917 1102.8 44.825C1102.86 44.3583 1102.88 43.7083 1102.85 42.875L1102.37 30.15H1104.4L1104.9 42.65C1104.93 43.5333 1104.9 44.3167 1104.8 45C1104.71 45.6833 1104.5 46.2583 1104.15 46.725C1103.81 47.1917 1103.3 47.5417 1102.62 47.775C1101.95 48.0083 1101.05 48.125 1099.92 48.125ZM1108.72 48L1108.22 30.15H1110.24L1110.74 48H1108.72ZM1123.33 52.275V50.875L1128.93 49.225V50.65L1123.33 52.275ZM1120.79 57.825C1120.44 56.5417 1120.14 55.2833 1119.89 54.05C1119.64 52.8333 1119.45 51.7417 1119.32 50.775C1119.18 49.8083 1119.12 49.0917 1119.12 48.625C1119.12 47.3917 1119.32 46.2667 1119.72 45.25C1120.12 44.2333 1120.63 43.3417 1121.27 42.575C1121.9 41.7917 1122.58 41.1333 1123.32 40.6C1124.05 40.05 1124.76 39.6417 1125.44 39.375C1126.14 39.0917 1126.73 38.95 1127.22 38.95C1127.63 38.95 1128 39.0417 1128.32 39.225C1128.63 39.4083 1128.94 39.7667 1129.24 40.3C1129.54 40.8333 1129.86 41.6167 1130.19 42.65C1130.51 43.6 1130.81 44.325 1131.09 44.825C1131.38 45.3083 1131.68 45.6417 1132.02 45.825C1132.35 45.9917 1132.73 46.075 1133.17 46.075C1133.52 46.075 1133.77 46.175 1133.92 46.375C1134.08 46.5583 1134.17 46.7833 1134.17 47.05C1134.17 47.3167 1134.05 47.5667 1133.82 47.8C1133.58 48.0167 1133.28 48.125 1132.92 48.125C1132.27 48.125 1131.71 48.0083 1131.24 47.775C1130.79 47.5417 1130.4 47.225 1130.07 46.825L1130.64 46.35C1130.44 46.8333 1130.18 47.2333 1129.87 47.55C1129.57 47.85 1129.23 48.075 1128.84 48.225C1128.48 48.375 1128.08 48.45 1127.67 48.45C1127.18 48.45 1126.68 48.3583 1126.17 48.175C1125.65 48.0083 1125.14 47.7583 1124.64 47.425C1124.14 47.075 1123.67 46.65 1123.22 46.15C1122.78 45.65 1122.4 45.0833 1122.07 44.45L1122.32 44.5C1121.85 45.15 1121.54 45.8583 1121.39 46.625C1121.24 47.375 1121.17 48.0417 1121.17 48.625C1121.17 49.0917 1121.22 49.6833 1121.32 50.4C1121.42 51.1333 1121.54 51.9083 1121.69 52.725C1121.86 53.5417 1122.03 54.35 1122.22 55.15C1122.42 55.9667 1122.6 56.7 1122.77 57.35L1120.79 57.825ZM1127.87 46.4C1128.17 46.4 1128.41 46.3417 1128.59 46.225C1128.79 46.1083 1128.93 45.9333 1128.99 45.7C1129.06 45.4667 1129.03 45.175 1128.92 44.825C1128.72 44.225 1128.53 43.7 1128.37 43.25C1128.2 42.7833 1128.03 42.4 1127.87 42.1C1127.72 41.7833 1127.56 41.55 1127.39 41.4C1127.23 41.25 1127.05 41.175 1126.87 41.175C1126.68 41.175 1126.45 41.2167 1126.17 41.3C1125.9 41.3833 1125.61 41.5083 1125.29 41.675C1124.99 41.8417 1124.68 42.05 1124.37 42.3C1124.05 42.55 1123.75 42.8417 1123.47 43.175L1123.49 42.975C1123.86 43.7417 1124.3 44.3833 1124.82 44.9C1125.35 45.4167 1125.88 45.8 1126.42 46.05C1126.97 46.2833 1127.45 46.4 1127.87 46.4ZM1143.35 35.55C1142.63 35.55 1142.09 35.3333 1141.72 34.9C1141.37 34.4667 1141.2 33.9583 1141.2 33.375C1141.2 32.8917 1141.29 32.4583 1141.47 32.075C1141.67 31.675 1141.95 31.3583 1142.3 31.125C1142.65 30.875 1143.04 30.75 1143.47 30.75C1143.87 30.75 1144.23 30.8667 1144.55 31.1C1144.87 31.3333 1145.12 31.6417 1145.3 32.025C1145.48 32.4083 1145.57 32.8167 1145.57 33.25C1145.57 33.9 1145.37 34.45 1144.95 34.9C1144.53 35.3333 1144 35.55 1143.35 35.55ZM1143.32 34.25C1143.61 34.25 1143.85 34.1583 1144.05 33.975C1144.27 33.7917 1144.37 33.55 1144.37 33.25C1144.37 32.9333 1144.27 32.675 1144.05 32.475C1143.83 32.2583 1143.6 32.15 1143.35 32.15C1143.03 32.15 1142.78 32.2583 1142.6 32.475C1142.43 32.6917 1142.35 32.9417 1142.35 33.225C1142.35 33.525 1142.44 33.775 1142.62 33.975C1142.81 34.1583 1143.04 34.25 1143.32 34.25ZM1132.9 48.125L1133.15 46.075C1133.69 46.075 1134.12 46.0417 1134.45 45.975C1134.79 45.8917 1135.06 45.7 1135.28 45.4C1135.51 45.0833 1135.73 44.5917 1135.93 43.925C1136.13 43.2583 1136.36 42.325 1136.63 41.125L1138.5 41.65C1138.4 42.0667 1138.29 42.5667 1138.15 43.15C1138.02 43.7333 1137.95 44.2667 1137.95 44.75C1137.95 45.0167 1138.02 45.25 1138.15 45.45C1138.29 45.65 1138.51 45.8083 1138.83 45.925C1139.16 46.025 1139.6 46.075 1140.15 46.075C1140.65 46.075 1141.06 46.0333 1141.38 45.95C1141.7 45.8667 1141.95 45.6667 1142.15 45.35C1142.37 45.0333 1142.56 44.525 1142.73 43.825C1142.9 43.125 1143.07 42.1667 1143.25 40.95L1145.15 41.3C1145.1 41.6 1145.05 41.9667 1144.98 42.4C1144.91 42.8333 1144.85 43.2667 1144.78 43.7C1144.73 44.1167 1144.7 44.4667 1144.7 44.75C1144.7 44.9833 1144.75 45.2083 1144.85 45.425C1144.97 45.625 1145.19 45.7833 1145.5 45.9C1145.84 46.0167 1146.33 46.075 1146.98 46.075C1147.81 46.075 1148.41 45.9 1148.78 45.55C1149.16 45.2 1149.36 44.6667 1149.36 43.95C1149.36 43.5667 1149.35 43.1667 1149.33 42.75C1149.31 42.3167 1149.28 41.8417 1149.23 41.325C1149.2 40.7917 1149.14 40.1833 1149.05 39.5L1150.88 39.375C1150.98 40.725 1151.09 41.8333 1151.21 42.7C1151.34 43.5667 1151.52 44.25 1151.75 44.75C1152 45.2333 1152.34 45.575 1152.75 45.775C1153.17 45.975 1153.72 46.075 1154.4 46.075C1154.75 46.075 1155 46.175 1155.15 46.375C1155.32 46.5583 1155.4 46.7833 1155.4 47.05C1155.4 47.3167 1155.29 47.5667 1155.05 47.8C1154.82 48.0167 1154.52 48.125 1154.15 48.125C1153.59 48.125 1153.08 48.05 1152.63 47.9C1152.2 47.7333 1151.81 47.5167 1151.48 47.25C1151.16 46.9667 1150.9 46.65 1150.68 46.3C1150.48 45.9333 1150.34 45.55 1150.25 45.15L1150.7 45.3C1150.52 46.05 1150.23 46.6333 1149.83 47.05C1149.45 47.45 1148.99 47.7333 1148.45 47.9C1147.92 48.05 1147.35 48.125 1146.75 48.125C1146.02 48.125 1145.42 48.0333 1144.95 47.85C1144.49 47.6667 1144.12 47.3917 1143.85 47.025C1143.6 46.6417 1143.44 46.1583 1143.35 45.575H1144.2C1143.89 46.2917 1143.55 46.8333 1143.2 47.2C1142.85 47.5667 1142.42 47.8167 1141.9 47.95C1141.39 48.0667 1140.7 48.125 1139.85 48.125C1139.44 48.125 1138.99 48.0583 1138.5 47.925C1138.04 47.7917 1137.63 47.5333 1137.28 47.15C1136.93 46.75 1136.72 46.1583 1136.65 45.375L1137.4 45.225C1137.12 46.075 1136.77 46.7083 1136.35 47.125C1135.95 47.525 1135.47 47.7917 1134.9 47.925C1134.34 48.0583 1133.67 48.125 1132.9 48.125ZM1154.27 57.275V55.875L1159.87 54.225V55.65L1154.27 57.275ZM1154.15 48.125L1154.4 46.075C1155.21 46.075 1155.86 46.025 1156.35 45.925C1156.83 45.825 1157.18 45.625 1157.4 45.325C1157.61 45.0083 1157.72 44.5417 1157.72 43.925C1157.72 43.5083 1157.65 43.0167 1157.52 42.45C1157.39 41.8667 1157.21 41.25 1157 40.6C1156.78 39.95 1156.55 39.3083 1156.3 38.675L1158.32 37.925C1158.54 38.4583 1158.74 39.0667 1158.92 39.75C1159.12 40.4333 1159.29 41.1083 1159.42 41.775C1159.55 42.4417 1159.62 43.025 1159.62 43.525C1159.62 44.1917 1159.55 44.7833 1159.4 45.3C1159.26 45.8 1159.05 46.2333 1158.77 46.6C1158.49 46.95 1158.12 47.2417 1157.67 47.475C1157.24 47.6917 1156.73 47.8583 1156.15 47.975C1155.56 48.075 1154.9 48.125 1154.15 48.125ZM1156.82 52.775C1156.47 52.775 1156.17 52.65 1155.92 52.4C1155.69 52.1667 1155.57 51.8833 1155.57 51.55C1155.57 51.2167 1155.69 50.925 1155.92 50.675C1156.17 50.425 1156.47 50.3 1156.82 50.3C1157.15 50.3 1157.44 50.425 1157.67 50.675C1157.92 50.925 1158.05 51.2167 1158.05 51.55C1158.05 51.8833 1157.92 52.1667 1157.67 52.4C1157.44 52.65 1157.15 52.775 1156.82 52.775Z" fill="black" fill-opacity="0.75"/>
<path d="M943.5 52.275V50.875L949.1 49.225V50.65L943.5 52.275ZM940.958 57.825C940.608 56.5417 940.308 55.2833 940.058 54.05C939.808 52.8333 939.616 51.7417 939.483 50.775C939.35 49.8083 939.283 49.0917 939.283 48.625C939.283 47.3917 939.483 46.2667 939.883 45.25C940.283 44.2333 940.8 43.3417 941.433 42.575C942.066 41.7917 942.75 41.1333 943.483 40.6C944.216 40.05 944.925 39.6417 945.608 39.375C946.308 39.0917 946.9 38.95 947.383 38.95C947.8 38.95 948.166 39.0417 948.483 39.225C948.8 39.4083 949.108 39.7667 949.408 40.3C949.708 40.8333 950.025 41.6167 950.358 42.65C950.675 43.6 950.975 44.325 951.258 44.825C951.541 45.3083 951.85 45.6417 952.183 45.825C952.516 45.9917 952.9 46.075 953.333 46.075C953.683 46.075 953.933 46.175 954.083 46.375C954.25 46.5583 954.333 46.7833 954.333 47.05C954.333 47.3167 954.216 47.5667 953.983 47.8C953.75 48.0167 953.45 48.125 953.083 48.125C952.433 48.125 951.875 48.0083 951.408 47.775C950.958 47.5417 950.566 47.225 950.233 46.825L950.808 46.35C950.608 46.8333 950.35 47.2333 950.033 47.55C949.733 47.85 949.391 48.075 949.008 48.225C948.641 48.375 948.25 48.45 947.833 48.45C947.35 48.45 946.85 48.3583 946.333 48.175C945.816 48.0083 945.308 47.7583 944.808 47.425C944.308 47.075 943.833 46.65 943.383 46.15C942.95 45.65 942.566 45.0833 942.233 44.45L942.483 44.5C942.016 45.15 941.708 45.8583 941.558 46.625C941.408 47.375 941.333 48.0417 941.333 48.625C941.333 49.0917 941.383 49.6833 941.483 50.4C941.583 51.1333 941.708 51.9083 941.858 52.725C942.025 53.5417 942.2 54.35 942.383 55.15C942.583 55.9667 942.766 56.7 942.933 57.35L940.958 57.825ZM948.033 46.4C948.333 46.4 948.575 46.3417 948.758 46.225C948.958 46.1083 949.091 45.9333 949.158 45.7C949.225 45.4667 949.2 45.175 949.083 44.825C948.883 44.225 948.7 43.7 948.533 43.25C948.366 42.7833 948.2 42.4 948.033 42.1C947.883 41.7833 947.725 41.55 947.558 41.4C947.391 41.25 947.216 41.175 947.033 41.175C946.85 41.175 946.616 41.2167 946.333 41.3C946.066 41.3833 945.775 41.5083 945.458 41.675C945.158 41.8417 944.85 42.05 944.533 42.3C944.216 42.55 943.916 42.8417 943.633 43.175L943.658 42.975C944.025 43.7417 944.466 44.3833 944.983 44.9C945.516 45.4167 946.05 45.8 946.583 46.05C947.133 46.2833 947.616 46.4 948.033 46.4ZM957.729 36.55C957.013 36.55 956.471 36.3333 956.104 35.9C955.754 35.4667 955.579 34.9583 955.579 34.375C955.579 33.8917 955.671 33.4583 955.854 33.075C956.054 32.675 956.329 32.3583 956.679 32.125C957.029 31.875 957.421 31.75 957.854 31.75C958.254 31.75 958.613 31.8667 958.929 32.1C959.246 32.3333 959.496 32.6417 959.679 33.025C959.863 33.4083 959.954 33.8167 959.954 34.25C959.954 34.9 959.746 35.45 959.329 35.9C958.913 36.3333 958.379 36.55 957.729 36.55ZM957.704 35.25C957.988 35.25 958.229 35.1583 958.429 34.975C958.646 34.7917 958.754 34.55 958.754 34.25C958.754 33.9333 958.646 33.675 958.429 33.475C958.213 33.2583 957.979 33.15 957.729 33.15C957.413 33.15 957.163 33.2583 956.979 33.475C956.813 33.6917 956.729 33.9417 956.729 34.225C956.729 34.525 956.821 34.775 957.004 34.975C957.188 35.1583 957.421 35.25 957.704 35.25ZM953.071 48.125L953.321 46.075C954.154 46.075 954.804 46.0167 955.271 45.9C955.738 45.7667 956.088 45.525 956.321 45.175C956.571 44.8083 956.771 44.2833 956.921 43.6C957.071 42.9167 957.254 42.025 957.471 40.925L959.421 41.3C959.354 41.6 959.279 41.9333 959.196 42.3C959.113 42.6667 959.038 43.0333 958.971 43.4C958.921 43.75 958.896 44.0583 958.896 44.325C958.896 44.575 958.913 44.8083 958.946 45.025C958.979 45.2417 959.104 45.425 959.321 45.575C959.538 45.725 959.904 45.85 960.421 45.95C960.938 46.0333 961.679 46.075 962.646 46.075C962.996 46.075 963.246 46.175 963.396 46.375C963.563 46.5583 963.646 46.7833 963.646 47.05C963.646 47.3167 963.529 47.5667 963.296 47.8C963.063 48.0167 962.763 48.125 962.396 48.125C961.379 48.125 960.571 48.075 959.971 47.975C959.371 47.8583 958.913 47.6917 958.596 47.475C958.296 47.2583 958.079 46.9917 957.946 46.675C957.829 46.3417 957.738 45.9583 957.671 45.525L958.421 45.575C958.154 46.1083 957.863 46.5417 957.546 46.875C957.246 47.2083 956.896 47.4667 956.496 47.65C956.096 47.8333 955.613 47.9583 955.046 48.025C954.496 48.0917 953.838 48.125 953.071 48.125ZM959.371 52.85C959.021 52.85 958.721 52.725 958.471 52.475C958.238 52.2417 958.121 51.9583 958.121 51.625C958.121 51.2917 958.238 51 958.471 50.75C958.721 50.5 959.021 50.375 959.371 50.375C959.704 50.375 959.988 50.5 960.221 50.75C960.471 51 960.596 51.2917 960.596 51.625C960.596 51.9583 960.471 52.2417 960.221 52.475C959.988 52.725 959.704 52.85 959.371 52.85ZM955.946 52.85C955.596 52.85 955.296 52.725 955.046 52.475C954.813 52.2417 954.696 51.9583 954.696 51.625C954.696 51.2917 954.813 51 955.046 50.75C955.296 50.5 955.596 50.375 955.946 50.375C956.279 50.375 956.563 50.5 956.796 50.75C957.046 51 957.171 51.2917 957.171 51.625C957.171 51.9583 957.046 52.2417 956.796 52.475C956.563 52.725 956.279 52.85 955.946 52.85ZM966.815 52.275V50.875L972.415 49.225V50.65L966.815 52.275ZM962.397 48.125L962.622 46.075C963.489 46.075 964.339 46.0083 965.172 45.875C966.006 45.7417 966.822 45.55 967.622 45.3C968.422 45.05 969.189 44.75 969.922 44.4C970.672 44.0333 971.381 43.6167 972.047 43.15C971.614 42.7667 971.114 42.4333 970.547 42.15C969.981 41.8667 969.356 41.65 968.672 41.5C968.006 41.3333 967.297 41.25 966.547 41.25C966.281 41.25 966.031 41.2583 965.797 41.275C965.564 41.2917 965.331 41.325 965.097 41.375C964.864 41.4083 964.597 41.4583 964.297 41.525L963.897 39.625C964.347 39.4917 964.797 39.3917 965.247 39.325C965.697 39.2417 966.131 39.2 966.547 39.2C967.414 39.2 968.197 39.3083 968.897 39.525C969.597 39.725 970.231 39.975 970.797 40.275C971.381 40.575 971.922 40.875 972.422 41.175C972.939 41.475 973.439 41.7333 973.922 41.95C974.406 42.15 974.906 42.25 975.422 42.25H975.947L976.122 44.05C975.406 44.05 974.747 44.15 974.147 44.35C973.547 44.55 972.956 44.8083 972.372 45.125C971.806 45.425 971.206 45.75 970.572 46.1C969.939 46.4333 969.239 46.7583 968.472 47.075C967.706 47.375 966.822 47.625 965.822 47.825C964.839 48.025 963.697 48.125 962.397 48.125ZM976.703 29.95V28.55L982.303 26.9V28.325L976.703 29.95ZM978.198 35.225C977.531 35.225 977.09 35.0083 976.873 34.575C976.656 34.125 976.548 33.65 976.548 33.15C976.548 32.9667 976.556 32.775 976.573 32.575C976.606 32.3583 976.648 32.1167 976.698 31.85L977.948 31.5C977.898 31.7833 977.856 32.05 977.823 32.3C977.806 32.5333 977.798 32.7417 977.798 32.925C977.798 33.2417 977.848 33.475 977.948 33.625C978.048 33.775 978.206 33.85 978.423 33.85C978.673 33.85 978.881 33.725 979.048 33.475C979.215 33.2083 979.306 32.6833 979.323 31.9V31.15L980.523 30.7V32.225C980.523 32.4583 980.565 32.6667 980.648 32.85C980.748 33.0167 980.948 33.1 981.248 33.1C981.548 33.1 981.748 33.0083 981.848 32.825C981.948 32.6417 981.998 32.4083 981.998 32.125C981.998 31.8417 981.965 31.5583 981.898 31.275C981.831 30.975 981.74 30.6833 981.623 30.4L982.748 30.05C982.915 30.3667 983.048 30.7333 983.148 31.15C983.265 31.55 983.323 31.9167 983.323 32.25C983.323 32.8 983.165 33.3 982.848 33.75C982.548 34.1833 982.073 34.4 981.423 34.4C980.906 34.4 980.481 34.2667 980.148 34C979.831 33.7167 979.673 33.3833 979.673 33L980.248 33.225C980.248 33.7917 980.048 34.2667 979.648 34.65C979.265 35.0333 978.781 35.225 978.198 35.225ZM976.218 53.8L975.493 51.9C976.71 51.5 977.718 51.0417 978.518 50.525C979.335 50.0083 979.976 49.4583 980.443 48.875C980.926 48.2917 981.268 47.7 981.468 47.1C981.668 46.4833 981.768 45.8917 981.768 45.325C981.768 44.5083 981.585 43.6833 981.218 42.85C980.868 42 980.476 41.2 980.043 40.45L981.868 39.525C982.185 40.1083 982.46 40.6833 982.693 41.25C982.943 41.8167 983.16 42.35 983.343 42.85C983.543 43.35 983.701 43.8083 983.818 44.225C984.051 44.9417 984.351 45.4333 984.718 45.7C985.101 45.95 985.618 46.075 986.268 46.075C986.618 46.075 986.868 46.175 987.018 46.375C987.185 46.5583 987.268 46.7833 987.268 47.05C987.268 47.3167 987.151 47.5667 986.918 47.8C986.685 48.0167 986.385 48.125 986.018 48.125C985.285 48.125 984.685 48 984.218 47.75C983.768 47.4833 983.426 47.1417 983.193 46.725C982.96 46.2917 982.801 45.8417 982.718 45.375L983.518 45.825C983.518 46.925 983.268 47.925 982.768 48.825C982.285 49.7417 981.66 50.5333 980.893 51.2C980.126 51.8833 979.326 52.4417 978.493 52.875C977.66 53.3083 976.901 53.6167 976.218 53.8ZM986.03 48.125L986.255 46.075C987.205 46.075 987.872 45.9833 988.255 45.8C988.638 45.6167 988.855 45.2917 988.905 44.825C988.972 44.3583 988.988 43.7083 988.955 42.875L988.48 30.15H990.505L991.005 42.65C991.038 43.5333 991.005 44.3167 990.905 45C990.822 45.6833 990.605 46.2583 990.255 46.725C989.922 47.1917 989.413 47.5417 988.73 47.775C988.063 48.0083 987.163 48.125 986.03 48.125ZM994.824 48L994.324 30.15H996.349L996.849 48H994.824ZM1010.25 58.275V56.875L1015.85 55.225V56.65L1010.25 58.275ZM1005.73 48.025C1005.73 47.425 1005.81 46.7583 1005.98 46.025C1006.14 45.2917 1006.41 44.4833 1006.78 43.6L1008.58 44.3C1008.31 45 1008.11 45.6417 1007.98 46.225C1007.84 46.8083 1007.78 47.35 1007.78 47.85C1007.78 48.7667 1008 49.5083 1008.45 50.075C1008.92 50.6583 1009.53 51.0833 1010.3 51.35C1011.08 51.6167 1011.94 51.75 1012.88 51.75C1014.01 51.75 1014.96 51.625 1015.73 51.375C1016.49 51.1417 1017.1 50.8167 1017.55 50.4C1018 49.9833 1018.32 49.5083 1018.5 48.975C1018.7 48.4583 1018.8 47.9167 1018.8 47.35C1018.8 46.6167 1018.74 45.925 1018.63 45.275C1018.53 44.625 1018.38 43.9917 1018.2 43.375C1018.03 42.7417 1017.85 42.1 1017.65 41.45L1019.68 40.9C1019.86 41.5333 1020 42.05 1020.1 42.45C1020.2 42.8333 1020.28 43.1417 1020.33 43.375C1020.39 43.6083 1020.45 43.8167 1020.5 44C1020.68 44.6167 1020.93 45.075 1021.23 45.375C1021.53 45.6583 1021.87 45.85 1022.25 45.95C1022.65 46.0333 1023.06 46.075 1023.48 46.075C1023.83 46.075 1024.08 46.175 1024.23 46.375C1024.39 46.5583 1024.48 46.7833 1024.48 47.05C1024.48 47.3167 1024.36 47.5667 1024.13 47.8C1023.89 48.0167 1023.59 48.125 1023.23 48.125C1022.53 48.125 1021.94 48.0083 1021.48 47.775C1021.01 47.525 1020.64 47.2167 1020.38 46.85C1020.13 46.4833 1019.96 46.1 1019.88 45.7L1020.9 46.975C1020.85 47.825 1020.68 48.65 1020.4 49.45C1020.13 50.2667 1019.7 51 1019.1 51.65C1018.5 52.3167 1017.68 52.8417 1016.65 53.225C1015.63 53.6083 1014.35 53.8 1012.8 53.8C1011.85 53.8 1010.95 53.6833 1010.1 53.45C1009.25 53.2167 1008.49 52.8583 1007.83 52.375C1007.18 51.9083 1006.66 51.3083 1006.28 50.575C1005.91 49.8583 1005.73 49.0083 1005.73 48.025ZM1013.28 38.05C1012.93 38.05 1012.63 37.9333 1012.38 37.7C1012.14 37.45 1012.03 37.1583 1012.03 36.825C1012.03 36.4917 1012.14 36.2 1012.38 35.95C1012.63 35.7 1012.93 35.575 1013.28 35.575C1013.61 35.575 1013.89 35.7 1014.13 35.95C1014.38 36.2 1014.5 36.4917 1014.5 36.825C1014.5 37.1583 1014.38 37.45 1014.13 37.7C1013.89 37.9333 1013.61 38.05 1013.28 38.05ZM1030.03 34.975L1029.88 30.65H1031.25L1031.4 34.975H1030.03ZM1023.24 48.125L1023.49 46.075C1023.95 46.075 1024.32 45.975 1024.59 45.775C1024.87 45.575 1025.14 45.2417 1025.39 44.775C1025.65 44.3083 1025.99 43.6833 1026.39 42.9C1026.79 42.1 1027.19 41.45 1027.59 40.95C1028 40.4333 1028.4 40.0333 1028.79 39.75C1029.19 39.45 1029.56 39.2417 1029.91 39.125C1030.26 39.0083 1030.59 38.95 1030.89 38.95C1031.44 38.95 1031.93 39.075 1032.36 39.325C1032.8 39.5583 1033.2 39.9667 1033.59 40.55C1033.97 41.1167 1034.36 41.9 1034.76 42.9C1035.15 43.8167 1035.49 44.5083 1035.79 44.975C1036.1 45.425 1036.43 45.725 1036.76 45.875C1037.11 46.0083 1037.5 46.075 1037.94 46.075C1038.29 46.075 1038.54 46.175 1038.69 46.375C1038.85 46.5583 1038.94 46.7833 1038.94 47.05C1038.94 47.3167 1038.82 47.5667 1038.59 47.8C1038.35 48.0167 1038.05 48.125 1037.69 48.125C1037.04 48.125 1036.44 48.0167 1035.89 47.8C1035.35 47.5833 1034.9 47.2417 1034.54 46.775L1034.89 46.25C1034.7 46.7667 1034.45 47.1917 1034.14 47.525C1033.84 47.8417 1033.5 48.075 1033.11 48.225C1032.73 48.3917 1032.32 48.475 1031.89 48.475C1031.34 48.475 1030.77 48.3583 1030.19 48.125C1029.62 47.8917 1029.07 47.5583 1028.54 47.125C1028 46.6917 1027.54 46.1833 1027.14 45.6C1026.7 46.3667 1026.29 46.9333 1025.89 47.3C1025.5 47.65 1025.1 47.875 1024.69 47.975C1024.27 48.075 1023.79 48.125 1023.24 48.125ZM1028.09 43.7C1028.37 44.1667 1028.67 44.575 1028.99 44.925C1029.32 45.275 1029.65 45.5667 1029.99 45.8C1030.32 46.0167 1030.65 46.1833 1030.96 46.3C1031.3 46.4 1031.6 46.45 1031.86 46.45C1032.45 46.45 1032.87 46.2417 1033.14 45.825C1033.42 45.4083 1033.41 44.825 1033.11 44.075C1032.96 43.6917 1032.8 43.3167 1032.64 42.95C1032.49 42.5833 1032.32 42.25 1032.14 41.95C1031.95 41.6333 1031.75 41.3917 1031.51 41.225C1031.28 41.0417 1031.02 40.95 1030.74 40.95C1030.49 40.95 1030.22 41.0333 1029.94 41.2C1029.67 41.3667 1029.38 41.65 1029.06 42.05C1028.76 42.45 1028.44 43 1028.09 43.7ZM1041.59 34.55C1040.88 34.55 1040.33 34.3333 1039.97 33.9C1039.62 33.4667 1039.44 32.9583 1039.44 32.375C1039.44 31.8917 1039.53 31.4583 1039.72 31.075C1039.92 30.675 1040.19 30.3583 1040.54 30.125C1040.89 29.875 1041.28 29.75 1041.72 29.75C1042.12 29.75 1042.48 29.8667 1042.79 30.1C1043.11 30.3333 1043.36 30.6417 1043.54 31.025C1043.73 31.4083 1043.82 31.8167 1043.82 32.25C1043.82 32.9 1043.61 33.45 1043.19 33.9C1042.78 34.3333 1042.24 34.55 1041.59 34.55ZM1041.57 33.25C1041.85 33.25 1042.09 33.1583 1042.29 32.975C1042.51 32.7917 1042.62 32.55 1042.62 32.25C1042.62 31.9333 1042.51 31.675 1042.29 31.475C1042.08 31.2583 1041.84 31.15 1041.59 31.15C1041.28 31.15 1041.03 31.2583 1040.84 31.475C1040.68 31.6917 1040.59 31.9417 1040.59 32.225C1040.59 32.525 1040.68 32.775 1040.87 32.975C1041.05 33.1583 1041.28 33.25 1041.57 33.25ZM1037.69 48.125L1037.92 46.075C1038.78 46.075 1039.63 46.0083 1040.47 45.875C1041.3 45.7417 1042.12 45.55 1042.92 45.3C1043.72 45.05 1044.48 44.75 1045.22 44.4C1045.97 44.0333 1046.67 43.6167 1047.34 43.15C1046.91 42.7667 1046.41 42.4333 1045.84 42.15C1045.27 41.8667 1044.65 41.65 1043.97 41.5C1043.3 41.3333 1042.59 41.25 1041.84 41.25C1041.57 41.25 1041.32 41.2583 1041.09 41.275C1040.86 41.2917 1040.62 41.325 1040.39 41.375C1040.16 41.4083 1039.89 41.4583 1039.59 41.525L1039.19 39.625C1039.64 39.4917 1040.09 39.3917 1040.54 39.325C1040.99 39.2417 1041.42 39.2 1041.84 39.2C1042.71 39.2 1043.49 39.3083 1044.19 39.525C1044.89 39.725 1045.52 39.975 1046.09 40.275C1046.67 40.575 1047.22 40.875 1047.72 41.175C1048.23 41.475 1048.73 41.7333 1049.22 41.95C1049.7 42.15 1050.2 42.25 1050.72 42.25H1051.24L1051.42 44.05C1050.7 44.05 1050.04 44.15 1049.44 44.35C1048.84 44.55 1048.25 44.8083 1047.67 45.125C1047.1 45.425 1046.5 45.75 1045.87 46.1C1045.23 46.4333 1044.53 46.7583 1043.77 47.075C1043 47.375 1042.12 47.625 1041.12 47.825C1040.13 48.025 1038.99 48.125 1037.69 48.125ZM1052 29.95V28.55L1057.6 26.9V28.325L1052 29.95ZM1053.49 35.225C1052.82 35.225 1052.38 35.0083 1052.17 34.575C1051.95 34.125 1051.84 33.65 1051.84 33.15C1051.84 32.9667 1051.85 32.775 1051.87 32.575C1051.9 32.3583 1051.94 32.1167 1051.99 31.85L1053.24 31.5C1053.19 31.7833 1053.15 32.05 1053.12 32.3C1053.1 32.5333 1053.09 32.7417 1053.09 32.925C1053.09 33.2417 1053.14 33.475 1053.24 33.625C1053.34 33.775 1053.5 33.85 1053.72 33.85C1053.97 33.85 1054.17 33.725 1054.34 33.475C1054.51 33.2083 1054.6 32.6833 1054.62 31.9V31.15L1055.82 30.7V32.225C1055.82 32.4583 1055.86 32.6667 1055.94 32.85C1056.04 33.0167 1056.24 33.1 1056.54 33.1C1056.84 33.1 1057.04 33.0083 1057.14 32.825C1057.24 32.6417 1057.29 32.4083 1057.29 32.125C1057.29 31.8417 1057.26 31.5583 1057.19 31.275C1057.12 30.975 1057.03 30.6833 1056.92 30.4L1058.04 30.05C1058.21 30.3667 1058.34 30.7333 1058.44 31.15C1058.56 31.55 1058.62 31.9167 1058.62 32.25C1058.62 32.8 1058.46 33.3 1058.14 33.75C1057.84 34.1833 1057.37 34.4 1056.72 34.4C1056.2 34.4 1055.77 34.2667 1055.44 34C1055.12 33.7167 1054.97 33.3833 1054.97 33L1055.54 33.225C1055.54 33.7917 1055.34 34.2667 1054.94 34.65C1054.56 35.0333 1054.07 35.225 1053.49 35.225ZM1051.51 53.8L1050.79 51.9C1052 51.5 1053.01 51.0417 1053.81 50.525C1054.63 50.0083 1055.27 49.4583 1055.74 48.875C1056.22 48.2917 1056.56 47.7 1056.76 47.1C1056.96 46.4833 1057.06 45.8917 1057.06 45.325C1057.06 44.5083 1056.88 43.6833 1056.51 42.85C1056.16 42 1055.77 41.2 1055.34 40.45L1057.16 39.525C1057.48 40.1083 1057.75 40.6833 1057.99 41.25C1058.24 41.8167 1058.45 42.35 1058.64 42.85C1058.84 43.35 1058.99 43.8083 1059.11 44.225C1059.34 44.9417 1059.64 45.4333 1060.01 45.7C1060.39 45.95 1060.91 46.075 1061.56 46.075C1061.91 46.075 1062.16 46.175 1062.31 46.375C1062.48 46.5583 1062.56 46.7833 1062.56 47.05C1062.56 47.3167 1062.44 47.5667 1062.21 47.8C1061.98 48.0167 1061.68 48.125 1061.31 48.125C1060.58 48.125 1059.98 48 1059.51 47.75C1059.06 47.4833 1058.72 47.1417 1058.49 46.725C1058.25 46.2917 1058.09 45.8417 1058.01 45.375L1058.81 45.825C1058.81 46.925 1058.56 47.925 1058.06 48.825C1057.58 49.7417 1056.95 50.5333 1056.19 51.2C1055.42 51.8833 1054.62 52.4417 1053.79 52.875C1052.95 53.3083 1052.19 53.6167 1051.51 53.8ZM1061.32 48.125L1061.55 46.075C1062.5 46.075 1063.16 45.9833 1063.55 45.8C1063.93 45.6167 1064.15 45.2917 1064.2 44.825C1064.26 44.3583 1064.28 43.7083 1064.25 42.875L1063.77 30.15H1065.8L1066.3 42.65C1066.33 43.5333 1066.3 44.3167 1066.2 45C1066.11 45.6833 1065.9 46.2583 1065.55 46.725C1065.21 47.1917 1064.71 47.5417 1064.02 47.775C1063.36 48.0083 1062.46 48.125 1061.32 48.125ZM1070.12 48L1069.62 30.15H1071.64L1072.14 48H1070.12ZM1084.05 52.275V50.875L1089.65 49.225V50.65L1084.05 52.275ZM1092.42 48.125C1091.52 48.125 1090.72 48 1090.02 47.75C1089.33 47.4833 1088.78 47.0417 1088.37 46.425C1087.97 45.7917 1087.74 44.9167 1087.69 43.8L1087.29 35.1H1089.32L1089.72 43.35C1089.77 44.1333 1089.91 44.725 1090.14 45.125C1090.38 45.5083 1090.7 45.7667 1091.12 45.9C1091.55 46.0167 1092.07 46.075 1092.67 46.075C1093.02 46.075 1093.27 46.175 1093.42 46.375C1093.58 46.5583 1093.67 46.7833 1093.67 47.05C1093.67 47.3167 1093.55 47.5667 1093.32 47.8C1093.08 48.0167 1092.78 48.125 1092.42 48.125ZM1088.64 45.375C1087.69 45.675 1086.77 45.825 1085.87 45.825C1084.97 45.825 1084.15 45.6917 1083.42 45.425C1082.68 45.1583 1082.1 44.775 1081.67 44.275C1081.23 43.7583 1081.02 43.1417 1081.02 42.425C1081.02 41.725 1081.19 41.0667 1081.54 40.45C1081.91 39.8333 1082.4 39.2833 1083.02 38.8C1083.65 38.3167 1084.38 37.9167 1085.19 37.6C1086.03 37.2667 1086.91 37.0417 1087.84 36.925L1088.19 39.025C1087.36 39.0583 1086.62 39.175 1085.97 39.375C1085.33 39.5583 1084.79 39.8 1084.34 40.1C1083.91 40.4 1083.58 40.725 1083.34 41.075C1083.11 41.425 1082.99 41.7667 1082.99 42.1C1082.99 42.4667 1083.13 42.7667 1083.39 43C1083.66 43.2333 1084 43.4167 1084.42 43.55C1084.83 43.6667 1085.29 43.7417 1085.79 43.775C1086.29 43.7917 1086.78 43.775 1087.24 43.725C1087.71 43.6583 1088.11 43.5667 1088.44 43.45L1088.64 45.375ZM1094.92 20.975L1094.77 16.65H1096.15L1096.3 20.975H1094.92ZM1094.04 26.225C1093.38 26.225 1092.93 26.0083 1092.72 25.575C1092.5 25.125 1092.39 24.65 1092.39 24.15C1092.39 23.9667 1092.4 23.775 1092.42 23.575C1092.45 23.3583 1092.49 23.1167 1092.54 22.85L1093.79 22.5C1093.74 22.7833 1093.7 23.05 1093.67 23.3C1093.65 23.5333 1093.64 23.7417 1093.64 23.925C1093.64 24.2417 1093.69 24.475 1093.79 24.625C1093.89 24.775 1094.05 24.85 1094.27 24.85C1094.52 24.85 1094.73 24.725 1094.89 24.475C1095.06 24.2083 1095.15 23.6833 1095.17 22.9V22.15L1096.37 21.7V23.225C1096.37 23.4583 1096.41 23.6667 1096.49 23.85C1096.59 24.0167 1096.79 24.1 1097.09 24.1C1097.39 24.1 1097.59 24.0083 1097.69 23.825C1097.79 23.6417 1097.84 23.4083 1097.84 23.125C1097.84 22.8417 1097.81 22.5583 1097.74 22.275C1097.68 21.975 1097.58 21.6833 1097.47 21.4L1098.59 21.05C1098.76 21.3667 1098.89 21.7333 1098.99 22.15C1099.11 22.55 1099.17 22.9167 1099.17 23.25C1099.17 23.8 1099.01 24.3 1098.69 24.75C1098.39 25.1833 1097.92 25.4 1097.27 25.4C1096.75 25.4 1096.33 25.2667 1095.99 25C1095.68 24.7167 1095.52 24.3833 1095.52 24L1096.09 24.225C1096.09 24.7917 1095.89 25.2667 1095.49 25.65C1095.11 26.0333 1094.63 26.225 1094.04 26.225ZM1092.43 48.125L1092.65 46.075C1093.6 46.075 1094.27 45.9833 1094.65 45.8C1095.03 45.6167 1095.25 45.2917 1095.3 44.825C1095.37 44.3583 1095.38 43.7083 1095.35 42.875L1094.93 30.15H1097L1097.4 42.825C1097.43 43.675 1097.57 44.3417 1097.8 44.825C1098.05 45.2917 1098.38 45.6167 1098.8 45.8C1099.22 45.9833 1099.68 46.075 1100.18 46.075C1100.53 46.075 1100.78 46.175 1100.93 46.375C1101.09 46.5583 1101.18 46.7833 1101.18 47.05C1101.18 47.3167 1101.06 47.5667 1100.83 47.8C1100.59 48.0167 1100.29 48.125 1099.93 48.125C1099.23 48.125 1098.64 48.0167 1098.18 47.8C1097.73 47.5667 1097.37 47.275 1097.1 46.925C1096.85 46.5583 1096.68 46.175 1096.6 45.775L1097.13 45.825C1096.96 46.325 1096.68 46.75 1096.3 47.1C1095.93 47.4333 1095.43 47.6917 1094.8 47.875C1094.17 48.0417 1093.38 48.125 1092.43 48.125ZM1099.92 48.125L1100.15 46.075C1101.1 46.075 1101.76 45.9833 1102.15 45.8C1102.53 45.6167 1102.75 45.2917 1102.8 44.825C1102.86 44.3583 1102.88 43.7083 1102.85 42.875L1102.37 30.15H1104.4L1104.9 42.65C1104.93 43.5333 1104.9 44.3167 1104.8 45C1104.71 45.6833 1104.5 46.2583 1104.15 46.725C1103.81 47.1917 1103.3 47.5417 1102.62 47.775C1101.95 48.0083 1101.05 48.125 1099.92 48.125ZM1108.72 48L1108.22 30.15H1110.24L1110.74 48H1108.72ZM1123.33 52.275V50.875L1128.93 49.225V50.65L1123.33 52.275ZM1120.79 57.825C1120.44 56.5417 1120.14 55.2833 1119.89 54.05C1119.64 52.8333 1119.45 51.7417 1119.32 50.775C1119.18 49.8083 1119.12 49.0917 1119.12 48.625C1119.12 47.3917 1119.32 46.2667 1119.72 45.25C1120.12 44.2333 1120.63 43.3417 1121.27 42.575C1121.9 41.7917 1122.58 41.1333 1123.32 40.6C1124.05 40.05 1124.76 39.6417 1125.44 39.375C1126.14 39.0917 1126.73 38.95 1127.22 38.95C1127.63 38.95 1128 39.0417 1128.32 39.225C1128.63 39.4083 1128.94 39.7667 1129.24 40.3C1129.54 40.8333 1129.86 41.6167 1130.19 42.65C1130.51 43.6 1130.81 44.325 1131.09 44.825C1131.38 45.3083 1131.68 45.6417 1132.02 45.825C1132.35 45.9917 1132.73 46.075 1133.17 46.075C1133.52 46.075 1133.77 46.175 1133.92 46.375C1134.08 46.5583 1134.17 46.7833 1134.17 47.05C1134.17 47.3167 1134.05 47.5667 1133.82 47.8C1133.58 48.0167 1133.28 48.125 1132.92 48.125C1132.27 48.125 1131.71 48.0083 1131.24 47.775C1130.79 47.5417 1130.4 47.225 1130.07 46.825L1130.64 46.35C1130.44 46.8333 1130.18 47.2333 1129.87 47.55C1129.57 47.85 1129.23 48.075 1128.84 48.225C1128.48 48.375 1128.08 48.45 1127.67 48.45C1127.18 48.45 1126.68 48.3583 1126.17 48.175C1125.65 48.0083 1125.14 47.7583 1124.64 47.425C1124.14 47.075 1123.67 46.65 1123.22 46.15C1122.78 45.65 1122.4 45.0833 1122.07 44.45L1122.32 44.5C1121.85 45.15 1121.54 45.8583 1121.39 46.625C1121.24 47.375 1121.17 48.0417 1121.17 48.625C1121.17 49.0917 1121.22 49.6833 1121.32 50.4C1121.42 51.1333 1121.54 51.9083 1121.69 52.725C1121.86 53.5417 1122.03 54.35 1122.22 55.15C1122.42 55.9667 1122.6 56.7 1122.77 57.35L1120.79 57.825ZM1127.87 46.4C1128.17 46.4 1128.41 46.3417 1128.59 46.225C1128.79 46.1083 1128.93 45.9333 1128.99 45.7C1129.06 45.4667 1129.03 45.175 1128.92 44.825C1128.72 44.225 1128.53 43.7 1128.37 43.25C1128.2 42.7833 1128.03 42.4 1127.87 42.1C1127.72 41.7833 1127.56 41.55 1127.39 41.4C1127.23 41.25 1127.05 41.175 1126.87 41.175C1126.68 41.175 1126.45 41.2167 1126.17 41.3C1125.9 41.3833 1125.61 41.5083 1125.29 41.675C1124.99 41.8417 1124.68 42.05 1124.37 42.3C1124.05 42.55 1123.75 42.8417 1123.47 43.175L1123.49 42.975C1123.86 43.7417 1124.3 44.3833 1124.82 44.9C1125.35 45.4167 1125.88 45.8 1126.42 46.05C1126.97 46.2833 1127.45 46.4 1127.87 46.4ZM1143.35 35.55C1142.63 35.55 1142.09 35.3333 1141.72 34.9C1141.37 34.4667 1141.2 33.9583 1141.2 33.375C1141.2 32.8917 1141.29 32.4583 1141.47 32.075C1141.67 31.675 1141.95 31.3583 1142.3 31.125C1142.65 30.875 1143.04 30.75 1143.47 30.75C1143.87 30.75 1144.23 30.8667 1144.55 31.1C1144.87 31.3333 1145.12 31.6417 1145.3 32.025C1145.48 32.4083 1145.57 32.8167 1145.57 33.25C1145.57 33.9 1145.37 34.45 1144.95 34.9C1144.53 35.3333 1144 35.55 1143.35 35.55ZM1143.32 34.25C1143.61 34.25 1143.85 34.1583 1144.05 33.975C1144.27 33.7917 1144.37 33.55 1144.37 33.25C1144.37 32.9333 1144.27 32.675 1144.05 32.475C1143.83 32.2583 1143.6 32.15 1143.35 32.15C1143.03 32.15 1142.78 32.2583 1142.6 32.475C1142.43 32.6917 1142.35 32.9417 1142.35 33.225C1142.35 33.525 1142.44 33.775 1142.62 33.975C1142.81 34.1583 1143.04 34.25 1143.32 34.25ZM1132.9 48.125L1133.15 46.075C1133.69 46.075 1134.12 46.0417 1134.45 45.975C1134.79 45.8917 1135.06 45.7 1135.28 45.4C1135.51 45.0833 1135.73 44.5917 1135.93 43.925C1136.13 43.2583 1136.36 42.325 1136.63 41.125L1138.5 41.65C1138.4 42.0667 1138.29 42.5667 1138.15 43.15C1138.02 43.7333 1137.95 44.2667 1137.95 44.75C1137.95 45.0167 1138.02 45.25 1138.15 45.45C1138.29 45.65 1138.51 45.8083 1138.83 45.925C1139.16 46.025 1139.6 46.075 1140.15 46.075C1140.65 46.075 1141.06 46.0333 1141.38 45.95C1141.7 45.8667 1141.95 45.6667 1142.15 45.35C1142.37 45.0333 1142.56 44.525 1142.73 43.825C1142.9 43.125 1143.07 42.1667 1143.25 40.95L1145.15 41.3C1145.1 41.6 1145.05 41.9667 1144.98 42.4C1144.91 42.8333 1144.85 43.2667 1144.78 43.7C1144.73 44.1167 1144.7 44.4667 1144.7 44.75C1144.7 44.9833 1144.75 45.2083 1144.85 45.425C1144.97 45.625 1145.19 45.7833 1145.5 45.9C1145.84 46.0167 1146.33 46.075 1146.98 46.075C1147.81 46.075 1148.41 45.9 1148.78 45.55C1149.16 45.2 1149.36 44.6667 1149.36 43.95C1149.36 43.5667 1149.35 43.1667 1149.33 42.75C1149.31 42.3167 1149.28 41.8417 1149.23 41.325C1149.2 40.7917 1149.14 40.1833 1149.05 39.5L1150.88 39.375C1150.98 40.725 1151.09 41.8333 1151.21 42.7C1151.34 43.5667 1151.52 44.25 1151.75 44.75C1152 45.2333 1152.34 45.575 1152.75 45.775C1153.17 45.975 1153.72 46.075 1154.4 46.075C1154.75 46.075 1155 46.175 1155.15 46.375C1155.32 46.5583 1155.4 46.7833 1155.4 47.05C1155.4 47.3167 1155.29 47.5667 1155.05 47.8C1154.82 48.0167 1154.52 48.125 1154.15 48.125C1153.59 48.125 1153.08 48.05 1152.63 47.9C1152.2 47.7333 1151.81 47.5167 1151.48 47.25C1151.16 46.9667 1150.9 46.65 1150.68 46.3C1150.48 45.9333 1150.34 45.55 1150.25 45.15L1150.7 45.3C1150.52 46.05 1150.23 46.6333 1149.83 47.05C1149.45 47.45 1148.99 47.7333 1148.45 47.9C1147.92 48.05 1147.35 48.125 1146.75 48.125C1146.02 48.125 1145.42 48.0333 1144.95 47.85C1144.49 47.6667 1144.12 47.3917 1143.85 47.025C1143.6 46.6417 1143.44 46.1583 1143.35 45.575H1144.2C1143.89 46.2917 1143.55 46.8333 1143.2 47.2C1142.85 47.5667 1142.42 47.8167 1141.9 47.95C1141.39 48.0667 1140.7 48.125 1139.85 48.125C1139.44 48.125 1138.99 48.0583 1138.5 47.925C1138.04 47.7917 1137.63 47.5333 1137.28 47.15C1136.93 46.75 1136.72 46.1583 1136.65 45.375L1137.4 45.225C1137.12 46.075 1136.77 46.7083 1136.35 47.125C1135.95 47.525 1135.47 47.7917 1134.9 47.925C1134.34 48.0583 1133.67 48.125 1132.9 48.125ZM1154.27 57.275V55.875L1159.87 54.225V55.65L1154.27 57.275ZM1154.15 48.125L1154.4 46.075C1155.21 46.075 1155.86 46.025 1156.35 45.925C1156.83 45.825 1157.18 45.625 1157.4 45.325C1157.61 45.0083 1157.72 44.5417 1157.72 43.925C1157.72 43.5083 1157.65 43.0167 1157.52 42.45C1157.39 41.8667 1157.21 41.25 1157 40.6C1156.78 39.95 1156.55 39.3083 1156.3 38.675L1158.32 37.925C1158.54 38.4583 1158.74 39.0667 1158.92 39.75C1159.12 40.4333 1159.29 41.1083 1159.42 41.775C1159.55 42.4417 1159.62 43.025 1159.62 43.525C1159.62 44.1917 1159.55 44.7833 1159.4 45.3C1159.26 45.8 1159.05 46.2333 1158.77 46.6C1158.49 46.95 1158.12 47.2417 1157.67 47.475C1157.24 47.6917 1156.73 47.8583 1156.15 47.975C1155.56 48.075 1154.9 48.125 1154.15 48.125ZM1156.82 52.775C1156.47 52.775 1156.17 52.65 1155.92 52.4C1155.69 52.1667 1155.57 51.8833 1155.57 51.55C1155.57 51.2167 1155.69 50.925 1155.92 50.675C1156.17 50.425 1156.47 50.3 1156.82 50.3C1157.15 50.3 1157.44 50.425 1157.67 50.675C1157.92 50.925 1158.05 51.2167 1158.05 51.55C1158.05 51.8833 1157.92 52.1667 1157.67 52.4C1157.44 52.65 1157.15 52.775 1156.82 52.775Z" fill="black" fill-opacity="0.75"/>
<g clip-path="url(#clip0_165_55)">
<path d="M70.347 38.6016L70.2494 29.3726C70.2409 28.5636 69.5781 27.9147 68.7692 27.9233L59.5401 28.0209L53.0367 21.6802C52.459 21.1171 51.535 21.1269 50.9695 21.702L44.6017 28.1788L35.3726 28.2764C34.5636 28.2849 33.9148 28.9477 33.9233 29.7566L34.0209 38.9857L27.6802 45.4891C27.1171 46.0667 27.1269 46.9908 27.7021 47.5563L34.1788 53.9241L34.2764 63.1532C34.2849 63.9621 34.9477 64.611 35.7566 64.6025L44.9857 64.5049L51.489 70.8456C51.7779 71.1271 52.1533 71.2654 52.5272 71.2615C52.9011 71.2575 53.2735 71.1113 53.5562 70.8237L59.9241 64.347L69.1532 64.2494C69.9621 64.2408 70.611 63.5781 70.6025 62.7691L70.5049 53.5401L76.8456 47.0367C77.4087 46.4592 77.3989 45.5351 76.8237 44.9696L70.347 38.6016ZM67.9849 51.9279C67.7145 52.2054 67.5649 52.5786 67.569 52.966L67.6575 61.3353L59.2882 61.4238C58.9008 61.4279 58.5308 61.5854 58.2592 61.8616L52.4899 67.7295L46.5978 61.9849C46.3204 61.7144 45.9472 61.5649 45.5598 61.569L37.1904 61.6574L37.1019 53.2882C37.0979 52.9008 36.9404 52.5308 36.6642 52.2592L30.7962 46.4898L36.5409 40.5978C36.8113 40.3203 36.9609 39.9471 36.9568 39.5598L36.8683 31.1904L45.2376 31.1019C45.625 31.0978 45.995 30.9404 46.2666 30.6642L52.0359 24.7962L57.9281 30.5409C58.2055 30.8113 58.5787 30.9609 58.9661 30.9568L67.3354 30.8683L67.4238 39.2376C67.4279 39.6249 67.5854 39.995 67.8616 40.2666L73.7296 46.0359L67.9849 51.9279Z" fill="black"/>
</g>
<g clip-path="url(#clip1_165_55)">
<path d="M70.347 38.6016L70.2494 29.3726C70.2409 28.5636 69.5781 27.9147 68.7692 27.9233L59.5401 28.0209L53.0367 21.6802C52.459 21.1171 51.535 21.1269 50.9695 21.702L44.6017 28.1788L35.3726 28.2764C34.5636 28.2849 33.9148 28.9477 33.9233 29.7566L34.0209 38.9857L27.6802 45.4891C27.1171 46.0667 27.1269 46.9908 27.7021 47.5563L34.1788 53.9241L34.2764 63.1532C34.2849 63.9621 34.9477 64.611 35.7566 64.6025L44.9857 64.5049L51.489 70.8456C51.7779 71.1271 52.1533 71.2654 52.5272 71.2615C52.9011 71.2575 53.2735 71.1113 53.5562 70.8237L59.9241 64.347L69.1532 64.2494C69.9621 64.2408 70.611 63.5781 70.6025 62.7691L70.5049 53.5401L76.8456 47.0367C77.4087 46.4592 77.3989 45.5351 76.8237 44.9696L70.347 38.6016ZM67.9849 51.9279C67.7145 52.2054 67.5649 52.5786 67.569 52.966L67.6575 61.3353L59.2882 61.4238C58.9008 61.4279 58.5308 61.5854 58.2592 61.8616L52.4899 67.7295L46.5978 61.9849C46.3204 61.7144 45.9472 61.5649 45.5598 61.569L37.1904 61.6574L37.1019 53.2882C37.0979 52.9008 36.9404 52.5308 36.6642 52.2592L30.7962 46.4898L36.5409 40.5978C36.8113 40.3203 36.9609 39.9471 36.9568 39.5598L36.8683 31.1904L45.2376 31.1019C45.625 31.0978 45.995 30.9404 46.2666 30.6642L52.0359 24.7962L57.9281 30.5409C58.2055 30.8113 58.5787 30.9609 58.9661 30.9568L67.3354 30.8683L67.4238 39.2376C67.4279 39.6249 67.5854 39.995 67.8616 40.2666L73.7296 46.0359L67.9849 51.9279Z" fill="black"/>
</g>
<g clip-path="url(#clip2_165_55)">
<path d="M70.347 38.6017L70.2494 29.3726C70.2409 28.5637 69.5781 27.9148 68.7692 27.9233L59.5401 28.0209L53.0367 21.6802C52.459 21.1171 51.535 21.1269 50.9695 21.7021L44.6017 28.1788L35.3726 28.2764C34.5636 28.2849 33.9148 28.9477 33.9233 29.7566L34.0209 38.9857L27.6802 45.4891C27.1171 46.0667 27.1269 46.9908 27.7021 47.5563L34.1788 53.9241L34.2764 63.1532C34.2849 63.9622 34.9477 64.611 35.7566 64.6025L44.9857 64.5049L51.489 70.8456C51.7779 71.1271 52.1533 71.2655 52.5272 71.2615C52.9011 71.2576 53.2735 71.1113 53.5562 70.8237L59.9241 64.347L69.1532 64.2494C69.9621 64.2409 70.611 63.5781 70.6025 62.7692L70.5049 53.5401L76.8456 47.0368C77.4087 46.4592 77.3989 45.5351 76.8237 44.9696L70.347 38.6017ZM67.9849 51.928C67.7145 52.2055 67.5649 52.5786 67.569 52.966L67.6575 61.3354L59.2882 61.4239C58.9008 61.4279 58.5308 61.5854 58.2592 61.8616L52.4899 67.7296L46.5978 61.9849C46.3204 61.7145 45.9472 61.5649 45.5598 61.569L37.1904 61.6575L37.1019 53.2882C37.0979 52.9008 36.9404 52.5308 36.6642 52.2592L30.7962 46.4899L36.5409 40.5978C36.8113 40.3204 36.9609 39.9472 36.9568 39.5598L36.8683 31.1904L45.2376 31.102C45.625 31.0979 45.995 30.9404 46.2666 30.6642L52.0359 24.7962L57.9281 30.5409C58.2055 30.8113 58.5787 30.9609 58.9661 30.9568L67.3354 30.8683L67.4238 39.2376C67.4279 39.625 67.5854 39.995 67.8616 40.2666L73.7296 46.0359L67.9849 51.928Z" fill="black"/>
</g>
<g clip-path="url(#clip3_165_55)">
<path d="M70.347 38.6017L70.2494 29.3726C70.2409 28.5637 69.5781 27.9148 68.7692 27.9233L59.5401 28.0209L53.0367 21.6802C52.459 21.1171 51.535 21.1269 50.9695 21.7021L44.6017 28.1788L35.3726 28.2764C34.5636 28.2849 33.9148 28.9477 33.9233 29.7566L34.0209 38.9857L27.6802 45.4891C27.1171 46.0667 27.1269 46.9908 27.7021 47.5563L34.1788 53.9241L34.2764 63.1532C34.2849 63.9622 34.9477 64.611 35.7566 64.6025L44.9857 64.5049L51.489 70.8456C51.7779 71.1271 52.1533 71.2655 52.5272 71.2615C52.9011 71.2576 53.2735 71.1113 53.5562 70.8237L59.9241 64.347L69.1532 64.2494C69.9621 64.2409 70.611 63.5781 70.6025 62.7692L70.5049 53.5401L76.8456 47.0368C77.4087 46.4592 77.3989 45.5351 76.8237 44.9696L70.347 38.6017ZM67.9849 51.928C67.7145 52.2055 67.5649 52.5786 67.569 52.966L67.6575 61.3354L59.2882 61.4239C58.9008 61.4279 58.5308 61.5854 58.2592 61.8616L52.4899 67.7296L46.5978 61.9849C46.3204 61.7145 45.9472 61.5649 45.5598 61.569L37.1904 61.6575L37.1019 53.2882C37.0979 52.9008 36.9404 52.5308 36.6642 52.2592L30.7962 46.4899L36.5409 40.5978C36.8113 40.3204 36.9609 39.9472 36.9568 39.5598L36.8683 31.1904L45.2376 31.102C45.625 31.0979 45.995 30.9404 46.2666 30.6642L52.0359 24.7962L57.9281 30.5409C58.2055 30.8113 58.5787 30.9609 58.9661 30.9568L67.3354 30.8683L67.4238 39.2376C67.4279 39.625 67.5854 39.995 67.8616 40.2666L73.7296 46.0359L67.9849 51.928Z" fill="black"/>
<path d="M47.2 42.18C47.2933 40.9533 47.7667 39.9933 48.62 39.3C49.4733 38.6067 50.58 38.26 51.94 38.26C52.8467 38.26 53.6267 38.4267 54.28 38.76C54.9467 39.08 55.4467 39.52 55.78 40.08C56.1267 40.64 56.3 41.2733 56.3 41.98C56.3 42.8067 56.06 43.52 55.58 44.12C55.1133 44.72 54.5 45.1067 53.74 45.28L53.74 45.38C54.6067 45.5933 55.2933 46.0133 55.8 46.64C56.3067 47.2667 56.56 48.0867 56.56 49.1C56.56 49.86 56.3867 50.5467 56.04 51.16C55.6933 51.76 55.1733 52.2333 54.48 52.58C53.7867 52.9267 52.9533 53.1 51.98 53.1C50.5667 53.1 49.4067 52.7333 48.5 52C47.5933 51.2533 47.0867 50.2 46.98 48.84L48.74 48.84C48.8333 49.64 49.16 50.2933 49.72 50.8C50.28 51.3067 51.0267 51.56 51.96 51.56C52.8933 51.56 53.6 51.32 54.08 50.84C54.5733 50.3467 54.82 49.7133 54.82 48.94C54.82 47.94 54.4867 47.22 53.82 46.78C53.1533 46.34 52.1467 46.12 50.8 46.12L50.34 46.12L50.34 44.6L50.82 44.6C52.0467 44.5867 52.9733 44.3867 53.6 44C54.2267 43.6 54.54 42.9867 54.54 42.16C54.54 41.4533 54.3067 40.8867 53.84 40.46C53.3867 40.0333 52.7333 39.82 51.88 39.82C51.0533 39.82 50.3867 40.0333 49.88 40.46C49.3733 40.8867 49.0733 41.46 48.98 42.18L47.2 42.18Z" fill="black"/>
</g>
<defs>
<clipPath id="clip0_165_55">
<rect width="50" height="50" fill="white" transform="translate(27 21.5286) rotate(-0.605732)"/>
</clipPath>
<clipPath id="clip1_165_55">
<rect width="50" height="50" fill="white" transform="translate(27 21.5286) rotate(-0.605732)"/>
</clipPath>
<clipPath id="clip2_165_55">
<rect width="50" height="50" fill="white" transform="translate(27 21.5286) rotate(-0.605732)"/>
</clipPath>
<clipPath id="clip3_165_55">
<rect width="50" height="50" fill="white" transform="translate(27 21.5286) rotate(-0.605732)"/>
</clipPath>
</defs>
</svg>
