<svg width="1273" height="122" viewBox="0 0 1273 122" fill="none" xmlns="http://www.w3.org/2000/svg">
<rect width="1273" height="92" rx="10" fill="#F5DE09"/>
<path d="M133.35 32.45H126.075L124.825 36H121.85L128.075 18.6H131.375L137.6 36H134.6L133.35 32.45ZM132.55 30.125L129.725 22.05L126.875 30.125H132.55ZM147.257 22C148.34 22 149.307 22.225 150.157 22.675C151.023 23.125 151.698 23.7917 152.182 24.675C152.665 25.5583 152.907 26.625 152.907 27.875V36H150.082V28.3C150.082 27.0667 149.773 26.125 149.157 25.475C148.54 24.8083 147.698 24.475 146.632 24.475C145.565 24.475 144.715 24.8083 144.082 25.475C143.465 26.125 143.157 27.0667 143.157 28.3V36H140.307V22.225H143.157V23.8C143.623 23.2333 144.215 22.7917 144.932 22.475C145.665 22.1583 146.44 22 147.257 22ZM167.117 25.75V28.15H156.842V25.75H167.117ZM185.441 36H182.591L174.016 23.025V36H171.166V18.6H174.016L182.591 31.55V18.6H185.441V36ZM188.234 29.05C188.234 27.6667 188.517 26.4417 189.084 25.375C189.667 24.3083 190.45 23.4833 191.434 22.9C192.434 22.3 193.534 22 194.734 22C195.817 22 196.759 22.2167 197.559 22.65C198.375 23.0667 199.025 23.5917 199.509 24.225V22.225H202.384V36H199.509V33.95C199.025 34.6 198.367 35.1417 197.534 35.575C196.7 36.0083 195.75 36.225 194.684 36.225C193.5 36.225 192.417 35.925 191.434 35.325C190.45 34.7083 189.667 33.8583 189.084 32.775C188.517 31.675 188.234 30.4333 188.234 29.05ZM199.509 29.1C199.509 28.15 199.309 27.325 198.909 26.625C198.525 25.925 198.017 25.3917 197.384 25.025C196.75 24.6583 196.067 24.475 195.334 24.475C194.6 24.475 193.917 24.6583 193.284 25.025C192.65 25.375 192.134 25.9 191.734 26.6C191.35 27.2833 191.159 28.1 191.159 29.05C191.159 30 191.35 30.8333 191.734 31.55C192.134 32.2667 192.65 32.8167 193.284 33.2C193.934 33.5667 194.617 33.75 195.334 33.75C196.067 33.75 196.75 33.5667 197.384 33.2C198.017 32.8333 198.525 32.3 198.909 31.6C199.309 30.8833 199.509 30.05 199.509 29.1ZM211.127 36.225C210.044 36.225 209.069 36.0333 208.202 35.65C207.352 35.25 206.677 34.7167 206.177 34.05C205.677 33.3667 205.41 32.6083 205.377 31.775H208.327C208.377 32.3583 208.652 32.85 209.152 33.25C209.669 33.6333 210.31 33.825 211.077 33.825C211.877 33.825 212.494 33.675 212.927 33.375C213.377 33.0583 213.602 32.6583 213.602 32.175C213.602 31.6583 213.352 31.275 212.852 31.025C212.369 30.775 211.594 30.5 210.527 30.2C209.494 29.9167 208.652 29.6417 208.002 29.375C207.352 29.1083 206.785 28.7 206.302 28.15C205.835 27.6 205.602 26.875 205.602 25.975C205.602 25.2417 205.819 24.575 206.252 23.975C206.685 23.3583 207.302 22.875 208.102 22.525C208.919 22.175 209.852 22 210.902 22C212.469 22 213.727 22.4 214.677 23.2C215.644 23.9833 216.16 25.0583 216.227 26.425H213.377C213.327 25.8083 213.077 25.3167 212.627 24.95C212.177 24.5833 211.569 24.4 210.802 24.4C210.052 24.4 209.477 24.5417 209.077 24.825C208.677 25.1083 208.477 25.4833 208.477 25.95C208.477 26.3167 208.61 26.625 208.877 26.875C209.144 27.125 209.469 27.325 209.852 27.475C210.235 27.6083 210.802 27.7833 211.552 28C212.552 28.2667 213.369 28.5417 214.002 28.825C214.652 29.0917 215.21 29.4917 215.677 30.025C216.144 30.5583 216.385 31.2667 216.402 32.15C216.402 32.9333 216.185 33.6333 215.752 34.25C215.319 34.8667 214.702 35.35 213.902 35.7C213.119 36.05 212.194 36.225 211.127 36.225Z" fill="black" fill-opacity="0.75"/>
<path d="M132.26 60.659V71.619H130.44V69.999C130.093 70.559 129.607 70.999 128.98 71.319C128.367 71.6257 127.687 71.779 126.94 71.779C126.087 71.779 125.32 71.6057 124.64 71.259C123.96 70.899 123.42 70.3657 123.02 69.659C122.633 68.9524 122.44 68.0924 122.44 67.079V60.659H124.24V66.839C124.24 67.919 124.513 68.7524 125.06 69.339C125.607 69.9124 126.353 70.199 127.3 70.199C128.273 70.199 129.04 69.899 129.6 69.299C130.16 68.699 130.44 67.8257 130.44 66.679V60.659H132.26ZM148.513 60.459C149.366 60.459 150.126 60.639 150.793 60.999C151.46 61.3457 151.986 61.8724 152.373 62.579C152.76 63.2857 152.953 64.1457 152.953 65.159V71.619H151.153V65.419C151.153 64.3257 150.88 63.4924 150.333 62.919C149.8 62.3324 149.073 62.039 148.153 62.039C147.206 62.039 146.453 62.3457 145.893 62.959C145.333 63.559 145.053 64.4324 145.053 65.579V71.619H143.253V65.419C143.253 64.3257 142.98 63.4924 142.433 62.919C141.9 62.3324 141.173 62.039 140.253 62.039C139.306 62.039 138.553 62.3457 137.993 62.959C137.433 63.559 137.153 64.4324 137.153 65.579V71.619H135.333V60.659H137.153V62.239C137.513 61.6657 137.993 61.2257 138.593 60.919C139.206 60.6124 139.88 60.459 140.613 60.459C141.533 60.459 142.346 60.6657 143.053 61.079C143.76 61.4924 144.286 62.099 144.633 62.899C144.94 62.1257 145.446 61.5257 146.153 61.099C146.86 60.6724 147.646 60.459 148.513 60.459ZM155.258 66.099C155.258 64.979 155.485 63.999 155.938 63.159C156.392 62.3057 157.012 61.6457 157.798 61.179C158.598 60.7124 159.485 60.479 160.458 60.479C161.418 60.479 162.252 60.6857 162.958 61.099C163.665 61.5124 164.192 62.0324 164.538 62.659V60.659H166.378V71.619H164.538V69.579C164.178 70.219 163.638 70.7524 162.918 71.179C162.212 71.5924 161.385 71.799 160.438 71.799C159.465 71.799 158.585 71.559 157.798 71.079C157.012 70.599 156.392 69.9257 155.938 69.059C155.485 68.1924 155.258 67.2057 155.258 66.099ZM164.538 66.119C164.538 65.2924 164.372 64.5724 164.038 63.959C163.705 63.3457 163.252 62.879 162.678 62.559C162.118 62.2257 161.498 62.059 160.818 62.059C160.138 62.059 159.518 62.219 158.958 62.539C158.398 62.859 157.952 63.3257 157.618 63.939C157.285 64.5524 157.118 65.2724 157.118 66.099C157.118 66.939 157.285 67.6724 157.618 68.299C157.952 68.9124 158.398 69.3857 158.958 69.719C159.518 70.039 160.138 70.199 160.818 70.199C161.498 70.199 162.118 70.039 162.678 69.719C163.252 69.3857 163.705 68.9124 164.038 68.299C164.372 67.6724 164.538 66.9457 164.538 66.119ZM171.674 62.159V68.619C171.674 69.1524 171.787 69.5324 172.014 69.759C172.241 69.9724 172.634 70.079 173.194 70.079H174.534V71.619H172.894C171.881 71.619 171.121 71.3857 170.614 70.919C170.107 70.4524 169.854 69.6857 169.854 68.619V62.159H168.434V60.659H169.854V57.899H171.674V60.659H174.534V62.159H171.674ZM195.251 60.459C196.105 60.459 196.865 60.639 197.531 60.999C198.198 61.3457 198.725 61.8724 199.111 62.579C199.498 63.2857 199.691 64.1457 199.691 65.159V71.619H197.891V65.419C197.891 64.3257 197.618 63.4924 197.071 62.919C196.538 62.3324 195.811 62.039 194.891 62.039C193.945 62.039 193.191 62.3457 192.631 62.959C192.071 63.559 191.791 64.4324 191.791 65.579V71.619H189.991V65.419C189.991 64.3257 189.718 63.4924 189.171 62.919C188.638 62.3324 187.911 62.039 186.991 62.039C186.045 62.039 185.291 62.3457 184.731 62.959C184.171 63.559 183.891 64.4324 183.891 65.579V71.619H182.071V60.659H183.891V62.239C184.251 61.6657 184.731 61.2257 185.331 60.919C185.945 60.6124 186.618 60.459 187.351 60.459C188.271 60.459 189.085 60.6657 189.791 61.079C190.498 61.4924 191.025 62.099 191.371 62.899C191.678 62.1257 192.185 61.5257 192.891 61.099C193.598 60.6724 194.385 60.459 195.251 60.459ZM201.997 66.099C201.997 64.979 202.223 63.999 202.677 63.159C203.13 62.3057 203.75 61.6457 204.537 61.179C205.337 60.7124 206.223 60.479 207.197 60.479C208.157 60.479 208.99 60.6857 209.697 61.099C210.403 61.5124 210.93 62.0324 211.277 62.659V60.659H213.117V71.619H211.277V69.579C210.917 70.219 210.377 70.7524 209.657 71.179C208.95 71.5924 208.123 71.799 207.177 71.799C206.203 71.799 205.323 71.559 204.537 71.079C203.75 70.599 203.13 69.9257 202.677 69.059C202.223 68.1924 201.997 67.2057 201.997 66.099ZM211.277 66.119C211.277 65.2924 211.11 64.5724 210.777 63.959C210.443 63.3457 209.99 62.879 209.417 62.559C208.857 62.2257 208.237 62.059 207.557 62.059C206.877 62.059 206.257 62.219 205.697 62.539C205.137 62.859 204.69 63.3257 204.357 63.939C204.023 64.5524 203.857 65.2724 203.857 66.099C203.857 66.939 204.023 67.6724 204.357 68.299C204.69 68.9124 205.137 69.3857 205.697 69.719C206.257 70.039 206.877 70.199 207.557 70.199C208.237 70.199 208.857 70.039 209.417 69.719C209.99 69.3857 210.443 68.9124 210.777 68.299C211.11 67.6724 211.277 66.9457 211.277 66.119ZM221.532 60.459C222.866 60.459 223.946 60.8657 224.772 61.679C225.599 62.479 226.012 63.639 226.012 65.159V71.619H224.212V65.419C224.212 64.3257 223.939 63.4924 223.392 62.919C222.846 62.3324 222.099 62.039 221.152 62.039C220.192 62.039 219.426 62.339 218.852 62.939C218.292 63.539 218.012 64.4124 218.012 65.559V71.619H216.192V60.659H218.012V62.219C218.372 61.659 218.859 61.2257 219.472 60.919C220.099 60.6124 220.786 60.459 221.532 60.459ZM238.705 60.659V71.619H236.885V69.999C236.539 70.559 236.052 70.999 235.425 71.319C234.812 71.6257 234.132 71.779 233.385 71.779C232.532 71.779 231.765 71.6057 231.085 71.259C230.405 70.899 229.865 70.3657 229.465 69.659C229.079 68.9524 228.885 68.0924 228.885 67.079V60.659H230.685V66.839C230.685 67.919 230.959 68.7524 231.505 69.339C232.052 69.9124 232.799 70.199 233.745 70.199C234.719 70.199 235.485 69.899 236.045 69.299C236.605 68.699 236.885 67.8257 236.885 66.679V60.659H238.705ZM245.658 71.799C244.818 71.799 244.065 71.659 243.398 71.379C242.732 71.0857 242.205 70.6857 241.818 70.179C241.432 69.659 241.218 69.0657 241.178 68.399H243.058C243.112 68.9457 243.365 69.3924 243.818 69.739C244.285 70.0857 244.892 70.259 245.638 70.259C246.332 70.259 246.878 70.1057 247.278 69.799C247.678 69.4924 247.878 69.1057 247.878 68.639C247.878 68.159 247.665 67.8057 247.238 67.579C246.812 67.339 246.152 67.1057 245.258 66.879C244.445 66.6657 243.778 66.4524 243.258 66.239C242.752 66.0124 242.312 65.6857 241.938 65.259C241.578 64.819 241.398 64.2457 241.398 63.539C241.398 62.979 241.565 62.4657 241.898 61.999C242.232 61.5324 242.705 61.1657 243.318 60.899C243.932 60.619 244.632 60.479 245.418 60.479C246.632 60.479 247.612 60.7857 248.358 61.399C249.105 62.0124 249.505 62.8524 249.558 63.919H247.738C247.698 63.3457 247.465 62.8857 247.038 62.539C246.625 62.1924 246.065 62.019 245.358 62.019C244.705 62.019 244.185 62.159 243.798 62.439C243.412 62.719 243.218 63.0857 243.218 63.539C243.218 63.899 243.332 64.199 243.558 64.439C243.798 64.6657 244.092 64.8524 244.438 64.999C244.798 65.1324 245.292 65.2857 245.918 65.459C246.705 65.6724 247.345 65.8857 247.838 66.099C248.332 66.299 248.752 66.6057 249.098 67.019C249.458 67.4324 249.645 67.9724 249.658 68.639C249.658 69.239 249.492 69.779 249.158 70.259C248.825 70.739 248.352 71.119 247.738 71.399C247.138 71.6657 246.445 71.799 245.658 71.799ZM253.168 58.879C252.821 58.879 252.528 58.759 252.288 58.519C252.048 58.279 251.928 57.9857 251.928 57.639C251.928 57.2924 252.048 56.999 252.288 56.759C252.528 56.519 252.821 56.399 253.168 56.399C253.501 56.399 253.781 56.519 254.008 56.759C254.248 56.999 254.368 57.2924 254.368 57.639C254.368 57.9857 254.248 58.279 254.008 58.519C253.781 58.759 253.501 58.879 253.168 58.879ZM254.048 60.659V71.619H252.228V60.659H254.048ZM256.469 66.099C256.469 64.979 256.696 63.999 257.149 63.159C257.603 62.3057 258.223 61.6457 259.009 61.179C259.809 60.7124 260.696 60.479 261.669 60.479C262.629 60.479 263.463 60.6857 264.169 61.099C264.876 61.5124 265.403 62.0324 265.749 62.659V60.659H267.589V71.619H265.749V69.579C265.389 70.219 264.849 70.7524 264.129 71.179C263.423 71.5924 262.596 71.799 261.649 71.799C260.676 71.799 259.796 71.559 259.009 71.079C258.223 70.599 257.603 69.9257 257.149 69.059C256.696 68.1924 256.469 67.2057 256.469 66.099ZM265.749 66.119C265.749 65.2924 265.583 64.5724 265.249 63.959C264.916 63.3457 264.463 62.879 263.889 62.559C263.329 62.2257 262.709 62.059 262.029 62.059C261.349 62.059 260.729 62.219 260.169 62.539C259.609 62.859 259.163 63.3257 258.829 63.939C258.496 64.5524 258.329 65.2724 258.329 66.099C258.329 66.939 258.496 67.6724 258.829 68.299C259.163 68.9124 259.609 69.3857 260.169 69.719C260.729 70.039 261.349 70.199 262.029 70.199C262.709 70.199 263.329 70.039 263.889 69.719C264.463 69.3857 264.916 68.9124 265.249 68.299C265.583 67.6724 265.749 66.9457 265.749 66.119ZM280.677 75.339C279.397 74.0857 278.397 72.4924 277.677 70.559C276.97 68.6257 276.617 66.539 276.617 64.299C276.617 62.0057 276.99 59.8657 277.737 57.879C278.497 55.879 279.577 54.2324 280.977 52.939H282.877V53.119C281.384 54.519 280.257 56.2057 279.497 58.179C278.75 60.139 278.377 62.179 278.377 64.299C278.377 66.3657 278.73 68.339 279.437 70.219C280.157 72.099 281.204 73.7457 282.577 75.159V75.339H280.677ZM298.171 60.599C297.878 59.119 296.964 58.379 295.431 58.379C294.244 58.379 293.358 58.839 292.771 59.759C292.184 60.6657 291.898 62.1657 291.911 64.259C292.218 63.5657 292.724 63.0257 293.431 62.639C294.151 62.239 294.951 62.039 295.831 62.039C297.204 62.039 298.298 62.4657 299.111 63.319C299.938 64.1724 300.351 65.3524 300.351 66.859C300.351 67.7657 300.171 68.579 299.811 69.299C299.464 70.019 298.931 70.5924 298.211 71.019C297.504 71.4457 296.644 71.659 295.631 71.659C294.258 71.659 293.184 71.3524 292.411 70.739C291.638 70.1257 291.098 69.279 290.791 68.199C290.484 67.119 290.331 65.7857 290.331 64.199C290.331 59.3057 292.038 56.859 295.451 56.859C296.758 56.859 297.784 57.2124 298.531 57.919C299.278 58.6257 299.718 59.519 299.851 60.599H298.171ZM295.451 63.579C294.878 63.579 294.338 63.699 293.831 63.939C293.324 64.1657 292.911 64.519 292.591 64.999C292.284 65.4657 292.131 66.039 292.131 66.719C292.131 67.7324 292.424 68.559 293.011 69.199C293.598 69.8257 294.438 70.139 295.531 70.139C296.464 70.139 297.204 69.8524 297.751 69.279C298.311 68.6924 298.591 67.9057 298.591 66.919C298.591 65.879 298.324 65.0657 297.791 64.479C297.258 63.879 296.478 63.579 295.451 63.579ZM307.858 75.339V75.159C309.232 73.7457 310.272 72.099 310.978 70.219C311.698 68.339 312.058 66.3657 312.058 64.299C312.058 62.179 311.678 60.139 310.918 58.179C310.172 56.2057 309.052 54.519 307.558 53.119V52.939H309.458C310.858 54.2324 311.932 55.879 312.678 57.879C313.438 59.8657 313.818 62.0057 313.818 64.299C313.818 66.539 313.458 68.6257 312.738 70.559C312.032 72.4924 311.038 74.0857 309.758 75.339H307.858Z" fill="black" fill-opacity="0.75"/>
<path d="M943.5 48.275V46.875L949.1 45.225V46.65L943.5 48.275ZM940.958 53.825C940.608 52.5417 940.308 51.2833 940.058 50.05C939.808 48.8333 939.616 47.7417 939.483 46.775C939.35 45.8083 939.283 45.0917 939.283 44.625C939.283 43.3917 939.483 42.2667 939.883 41.25C940.283 40.2333 940.8 39.3417 941.433 38.575C942.066 37.7917 942.75 37.1333 943.483 36.6C944.216 36.05 944.925 35.6417 945.608 35.375C946.308 35.0917 946.9 34.95 947.383 34.95C947.8 34.95 948.166 35.0417 948.483 35.225C948.8 35.4083 949.108 35.7667 949.408 36.3C949.708 36.8333 950.025 37.6167 950.358 38.65C950.675 39.6 950.975 40.325 951.258 40.825C951.541 41.3083 951.85 41.6417 952.183 41.825C952.516 41.9917 952.9 42.075 953.333 42.075C953.683 42.075 953.933 42.175 954.083 42.375C954.25 42.5583 954.333 42.7833 954.333 43.05C954.333 43.3167 954.216 43.5667 953.983 43.8C953.75 44.0167 953.45 44.125 953.083 44.125C952.433 44.125 951.875 44.0083 951.408 43.775C950.958 43.5417 950.566 43.225 950.233 42.825L950.808 42.35C950.608 42.8333 950.35 43.2333 950.033 43.55C949.733 43.85 949.391 44.075 949.008 44.225C948.641 44.375 948.25 44.45 947.833 44.45C947.35 44.45 946.85 44.3583 946.333 44.175C945.816 44.0083 945.308 43.7583 944.808 43.425C944.308 43.075 943.833 42.65 943.383 42.15C942.95 41.65 942.566 41.0833 942.233 40.45L942.483 40.5C942.016 41.15 941.708 41.8583 941.558 42.625C941.408 43.375 941.333 44.0417 941.333 44.625C941.333 45.0917 941.383 45.6833 941.483 46.4C941.583 47.1333 941.708 47.9083 941.858 48.725C942.025 49.5417 942.2 50.35 942.383 51.15C942.583 51.9667 942.766 52.7 942.933 53.35L940.958 53.825ZM948.033 42.4C948.333 42.4 948.575 42.3417 948.758 42.225C948.958 42.1083 949.091 41.9333 949.158 41.7C949.225 41.4667 949.2 41.175 949.083 40.825C948.883 40.225 948.7 39.7 948.533 39.25C948.366 38.7833 948.2 38.4 948.033 38.1C947.883 37.7833 947.725 37.55 947.558 37.4C947.391 37.25 947.216 37.175 947.033 37.175C946.85 37.175 946.616 37.2167 946.333 37.3C946.066 37.3833 945.775 37.5083 945.458 37.675C945.158 37.8417 944.85 38.05 944.533 38.3C944.216 38.55 943.916 38.8417 943.633 39.175L943.658 38.975C944.025 39.7417 944.466 40.3833 944.983 40.9C945.516 41.4167 946.05 41.8 946.583 42.05C947.133 42.2833 947.616 42.4 948.033 42.4ZM957.729 32.55C957.013 32.55 956.471 32.3333 956.104 31.9C955.754 31.4667 955.579 30.9583 955.579 30.375C955.579 29.8917 955.671 29.4583 955.854 29.075C956.054 28.675 956.329 28.3583 956.679 28.125C957.029 27.875 957.421 27.75 957.854 27.75C958.254 27.75 958.613 27.8667 958.929 28.1C959.246 28.3333 959.496 28.6417 959.679 29.025C959.863 29.4083 959.954 29.8167 959.954 30.25C959.954 30.9 959.746 31.45 959.329 31.9C958.913 32.3333 958.379 32.55 957.729 32.55ZM957.704 31.25C957.988 31.25 958.229 31.1583 958.429 30.975C958.646 30.7917 958.754 30.55 958.754 30.25C958.754 29.9333 958.646 29.675 958.429 29.475C958.213 29.2583 957.979 29.15 957.729 29.15C957.413 29.15 957.163 29.2583 956.979 29.475C956.813 29.6917 956.729 29.9417 956.729 30.225C956.729 30.525 956.821 30.775 957.004 30.975C957.188 31.1583 957.421 31.25 957.704 31.25ZM953.071 44.125L953.321 42.075C954.154 42.075 954.804 42.0167 955.271 41.9C955.738 41.7667 956.088 41.525 956.321 41.175C956.571 40.8083 956.771 40.2833 956.921 39.6C957.071 38.9167 957.254 38.025 957.471 36.925L959.421 37.3C959.354 37.6 959.279 37.9333 959.196 38.3C959.113 38.6667 959.038 39.0333 958.971 39.4C958.921 39.75 958.896 40.0583 958.896 40.325C958.896 40.575 958.913 40.8083 958.946 41.025C958.979 41.2417 959.104 41.425 959.321 41.575C959.538 41.725 959.904 41.85 960.421 41.95C960.938 42.0333 961.679 42.075 962.646 42.075C962.996 42.075 963.246 42.175 963.396 42.375C963.563 42.5583 963.646 42.7833 963.646 43.05C963.646 43.3167 963.529 43.5667 963.296 43.8C963.063 44.0167 962.763 44.125 962.396 44.125C961.379 44.125 960.571 44.075 959.971 43.975C959.371 43.8583 958.913 43.6917 958.596 43.475C958.296 43.2583 958.079 42.9917 957.946 42.675C957.829 42.3417 957.738 41.9583 957.671 41.525L958.421 41.575C958.154 42.1083 957.863 42.5417 957.546 42.875C957.246 43.2083 956.896 43.4667 956.496 43.65C956.096 43.8333 955.613 43.9583 955.046 44.025C954.496 44.0917 953.838 44.125 953.071 44.125ZM959.371 48.85C959.021 48.85 958.721 48.725 958.471 48.475C958.238 48.2417 958.121 47.9583 958.121 47.625C958.121 47.2917 958.238 47 958.471 46.75C958.721 46.5 959.021 46.375 959.371 46.375C959.704 46.375 959.988 46.5 960.221 46.75C960.471 47 960.596 47.2917 960.596 47.625C960.596 47.9583 960.471 48.2417 960.221 48.475C959.988 48.725 959.704 48.85 959.371 48.85ZM955.946 48.85C955.596 48.85 955.296 48.725 955.046 48.475C954.813 48.2417 954.696 47.9583 954.696 47.625C954.696 47.2917 954.813 47 955.046 46.75C955.296 46.5 955.596 46.375 955.946 46.375C956.279 46.375 956.563 46.5 956.796 46.75C957.046 47 957.171 47.2917 957.171 47.625C957.171 47.9583 957.046 48.2417 956.796 48.475C956.563 48.725 956.279 48.85 955.946 48.85ZM966.815 48.275V46.875L972.415 45.225V46.65L966.815 48.275ZM962.397 44.125L962.622 42.075C963.489 42.075 964.339 42.0083 965.172 41.875C966.006 41.7417 966.822 41.55 967.622 41.3C968.422 41.05 969.189 40.75 969.922 40.4C970.672 40.0333 971.381 39.6167 972.047 39.15C971.614 38.7667 971.114 38.4333 970.547 38.15C969.981 37.8667 969.356 37.65 968.672 37.5C968.006 37.3333 967.297 37.25 966.547 37.25C966.281 37.25 966.031 37.2583 965.797 37.275C965.564 37.2917 965.331 37.325 965.097 37.375C964.864 37.4083 964.597 37.4583 964.297 37.525L963.897 35.625C964.347 35.4917 964.797 35.3917 965.247 35.325C965.697 35.2417 966.131 35.2 966.547 35.2C967.414 35.2 968.197 35.3083 968.897 35.525C969.597 35.725 970.231 35.975 970.797 36.275C971.381 36.575 971.922 36.875 972.422 37.175C972.939 37.475 973.439 37.7333 973.922 37.95C974.406 38.15 974.906 38.25 975.422 38.25H975.947L976.122 40.05C975.406 40.05 974.747 40.15 974.147 40.35C973.547 40.55 972.956 40.8083 972.372 41.125C971.806 41.425 971.206 41.75 970.572 42.1C969.939 42.4333 969.239 42.7583 968.472 43.075C967.706 43.375 966.822 43.625 965.822 43.825C964.839 44.025 963.697 44.125 962.397 44.125ZM976.703 25.95V24.55L982.303 22.9V24.325L976.703 25.95ZM978.198 31.225C977.531 31.225 977.09 31.0083 976.873 30.575C976.656 30.125 976.548 29.65 976.548 29.15C976.548 28.9667 976.556 28.775 976.573 28.575C976.606 28.3583 976.648 28.1167 976.698 27.85L977.948 27.5C977.898 27.7833 977.856 28.05 977.823 28.3C977.806 28.5333 977.798 28.7417 977.798 28.925C977.798 29.2417 977.848 29.475 977.948 29.625C978.048 29.775 978.206 29.85 978.423 29.85C978.673 29.85 978.881 29.725 979.048 29.475C979.215 29.2083 979.306 28.6833 979.323 27.9V27.15L980.523 26.7V28.225C980.523 28.4583 980.565 28.6667 980.648 28.85C980.748 29.0167 980.948 29.1 981.248 29.1C981.548 29.1 981.748 29.0083 981.848 28.825C981.948 28.6417 981.998 28.4083 981.998 28.125C981.998 27.8417 981.965 27.5583 981.898 27.275C981.831 26.975 981.74 26.6833 981.623 26.4L982.748 26.05C982.915 26.3667 983.048 26.7333 983.148 27.15C983.265 27.55 983.323 27.9167 983.323 28.25C983.323 28.8 983.165 29.3 982.848 29.75C982.548 30.1833 982.073 30.4 981.423 30.4C980.906 30.4 980.481 30.2667 980.148 30C979.831 29.7167 979.673 29.3833 979.673 29L980.248 29.225C980.248 29.7917 980.048 30.2667 979.648 30.65C979.265 31.0333 978.781 31.225 978.198 31.225ZM976.218 49.8L975.493 47.9C976.71 47.5 977.718 47.0417 978.518 46.525C979.335 46.0083 979.976 45.4583 980.443 44.875C980.926 44.2917 981.268 43.7 981.468 43.1C981.668 42.4833 981.768 41.8917 981.768 41.325C981.768 40.5083 981.585 39.6833 981.218 38.85C980.868 38 980.476 37.2 980.043 36.45L981.868 35.525C982.185 36.1083 982.46 36.6833 982.693 37.25C982.943 37.8167 983.16 38.35 983.343 38.85C983.543 39.35 983.701 39.8083 983.818 40.225C984.051 40.9417 984.351 41.4333 984.718 41.7C985.101 41.95 985.618 42.075 986.268 42.075C986.618 42.075 986.868 42.175 987.018 42.375C987.185 42.5583 987.268 42.7833 987.268 43.05C987.268 43.3167 987.151 43.5667 986.918 43.8C986.685 44.0167 986.385 44.125 986.018 44.125C985.285 44.125 984.685 44 984.218 43.75C983.768 43.4833 983.426 43.1417 983.193 42.725C982.96 42.2917 982.801 41.8417 982.718 41.375L983.518 41.825C983.518 42.925 983.268 43.925 982.768 44.825C982.285 45.7417 981.66 46.5333 980.893 47.2C980.126 47.8833 979.326 48.4417 978.493 48.875C977.66 49.3083 976.901 49.6167 976.218 49.8ZM986.03 44.125L986.255 42.075C987.205 42.075 987.872 41.9833 988.255 41.8C988.638 41.6167 988.855 41.2917 988.905 40.825C988.972 40.3583 988.988 39.7083 988.955 38.875L988.48 26.15H990.505L991.005 38.65C991.038 39.5333 991.005 40.3167 990.905 41C990.822 41.6833 990.605 42.2583 990.255 42.725C989.922 43.1917 989.413 43.5417 988.73 43.775C988.063 44.0083 987.163 44.125 986.03 44.125ZM994.824 44L994.324 26.15H996.349L996.849 44H994.824ZM1010.25 54.275V52.875L1015.85 51.225V52.65L1010.25 54.275ZM1005.73 44.025C1005.73 43.425 1005.81 42.7583 1005.98 42.025C1006.14 41.2917 1006.41 40.4833 1006.78 39.6L1008.58 40.3C1008.31 41 1008.11 41.6417 1007.98 42.225C1007.84 42.8083 1007.78 43.35 1007.78 43.85C1007.78 44.7667 1008 45.5083 1008.45 46.075C1008.92 46.6583 1009.53 47.0833 1010.3 47.35C1011.08 47.6167 1011.94 47.75 1012.88 47.75C1014.01 47.75 1014.96 47.625 1015.73 47.375C1016.49 47.1417 1017.1 46.8167 1017.55 46.4C1018 45.9833 1018.32 45.5083 1018.5 44.975C1018.7 44.4583 1018.8 43.9167 1018.8 43.35C1018.8 42.6167 1018.74 41.925 1018.63 41.275C1018.53 40.625 1018.38 39.9917 1018.2 39.375C1018.03 38.7417 1017.85 38.1 1017.65 37.45L1019.68 36.9C1019.86 37.5333 1020 38.05 1020.1 38.45C1020.2 38.8333 1020.28 39.1417 1020.33 39.375C1020.39 39.6083 1020.45 39.8167 1020.5 40C1020.68 40.6167 1020.93 41.075 1021.23 41.375C1021.53 41.6583 1021.87 41.85 1022.25 41.95C1022.65 42.0333 1023.06 42.075 1023.48 42.075C1023.83 42.075 1024.08 42.175 1024.23 42.375C1024.39 42.5583 1024.48 42.7833 1024.48 43.05C1024.48 43.3167 1024.36 43.5667 1024.13 43.8C1023.89 44.0167 1023.59 44.125 1023.23 44.125C1022.53 44.125 1021.94 44.0083 1021.48 43.775C1021.01 43.525 1020.64 43.2167 1020.38 42.85C1020.13 42.4833 1019.96 42.1 1019.88 41.7L1020.9 42.975C1020.85 43.825 1020.68 44.65 1020.4 45.45C1020.13 46.2667 1019.7 47 1019.1 47.65C1018.5 48.3167 1017.68 48.8417 1016.65 49.225C1015.63 49.6083 1014.35 49.8 1012.8 49.8C1011.85 49.8 1010.95 49.6833 1010.1 49.45C1009.25 49.2167 1008.49 48.8583 1007.83 48.375C1007.18 47.9083 1006.66 47.3083 1006.28 46.575C1005.91 45.8583 1005.73 45.0083 1005.73 44.025ZM1013.28 34.05C1012.93 34.05 1012.63 33.9333 1012.38 33.7C1012.14 33.45 1012.03 33.1583 1012.03 32.825C1012.03 32.4917 1012.14 32.2 1012.38 31.95C1012.63 31.7 1012.93 31.575 1013.28 31.575C1013.61 31.575 1013.89 31.7 1014.13 31.95C1014.38 32.2 1014.5 32.4917 1014.5 32.825C1014.5 33.1583 1014.38 33.45 1014.13 33.7C1013.89 33.9333 1013.61 34.05 1013.28 34.05ZM1030.03 30.975L1029.88 26.65H1031.25L1031.4 30.975H1030.03ZM1023.24 44.125L1023.49 42.075C1023.95 42.075 1024.32 41.975 1024.59 41.775C1024.87 41.575 1025.14 41.2417 1025.39 40.775C1025.65 40.3083 1025.99 39.6833 1026.39 38.9C1026.79 38.1 1027.19 37.45 1027.59 36.95C1028 36.4333 1028.4 36.0333 1028.79 35.75C1029.19 35.45 1029.56 35.2417 1029.91 35.125C1030.26 35.0083 1030.59 34.95 1030.89 34.95C1031.44 34.95 1031.93 35.075 1032.36 35.325C1032.8 35.5583 1033.2 35.9667 1033.59 36.55C1033.97 37.1167 1034.36 37.9 1034.76 38.9C1035.15 39.8167 1035.49 40.5083 1035.79 40.975C1036.1 41.425 1036.43 41.725 1036.76 41.875C1037.11 42.0083 1037.5 42.075 1037.94 42.075C1038.29 42.075 1038.54 42.175 1038.69 42.375C1038.85 42.5583 1038.94 42.7833 1038.94 43.05C1038.94 43.3167 1038.82 43.5667 1038.59 43.8C1038.35 44.0167 1038.05 44.125 1037.69 44.125C1037.04 44.125 1036.44 44.0167 1035.89 43.8C1035.35 43.5833 1034.9 43.2417 1034.54 42.775L1034.89 42.25C1034.7 42.7667 1034.45 43.1917 1034.14 43.525C1033.84 43.8417 1033.5 44.075 1033.11 44.225C1032.73 44.3917 1032.32 44.475 1031.89 44.475C1031.34 44.475 1030.77 44.3583 1030.19 44.125C1029.62 43.8917 1029.07 43.5583 1028.54 43.125C1028 42.6917 1027.54 42.1833 1027.14 41.6C1026.7 42.3667 1026.29 42.9333 1025.89 43.3C1025.5 43.65 1025.1 43.875 1024.69 43.975C1024.27 44.075 1023.79 44.125 1023.24 44.125ZM1028.09 39.7C1028.37 40.1667 1028.67 40.575 1028.99 40.925C1029.32 41.275 1029.65 41.5667 1029.99 41.8C1030.32 42.0167 1030.65 42.1833 1030.96 42.3C1031.3 42.4 1031.6 42.45 1031.86 42.45C1032.45 42.45 1032.87 42.2417 1033.14 41.825C1033.42 41.4083 1033.41 40.825 1033.11 40.075C1032.96 39.6917 1032.8 39.3167 1032.64 38.95C1032.49 38.5833 1032.32 38.25 1032.14 37.95C1031.95 37.6333 1031.75 37.3917 1031.51 37.225C1031.28 37.0417 1031.02 36.95 1030.74 36.95C1030.49 36.95 1030.22 37.0333 1029.94 37.2C1029.67 37.3667 1029.38 37.65 1029.06 38.05C1028.76 38.45 1028.44 39 1028.09 39.7ZM1041.59 30.55C1040.88 30.55 1040.33 30.3333 1039.97 29.9C1039.62 29.4667 1039.44 28.9583 1039.44 28.375C1039.44 27.8917 1039.53 27.4583 1039.72 27.075C1039.92 26.675 1040.19 26.3583 1040.54 26.125C1040.89 25.875 1041.28 25.75 1041.72 25.75C1042.12 25.75 1042.48 25.8667 1042.79 26.1C1043.11 26.3333 1043.36 26.6417 1043.54 27.025C1043.73 27.4083 1043.82 27.8167 1043.82 28.25C1043.82 28.9 1043.61 29.45 1043.19 29.9C1042.78 30.3333 1042.24 30.55 1041.59 30.55ZM1041.57 29.25C1041.85 29.25 1042.09 29.1583 1042.29 28.975C1042.51 28.7917 1042.62 28.55 1042.62 28.25C1042.62 27.9333 1042.51 27.675 1042.29 27.475C1042.08 27.2583 1041.84 27.15 1041.59 27.15C1041.28 27.15 1041.03 27.2583 1040.84 27.475C1040.68 27.6917 1040.59 27.9417 1040.59 28.225C1040.59 28.525 1040.68 28.775 1040.87 28.975C1041.05 29.1583 1041.28 29.25 1041.57 29.25ZM1037.69 44.125L1037.92 42.075C1038.78 42.075 1039.63 42.0083 1040.47 41.875C1041.3 41.7417 1042.12 41.55 1042.92 41.3C1043.72 41.05 1044.48 40.75 1045.22 40.4C1045.97 40.0333 1046.67 39.6167 1047.34 39.15C1046.91 38.7667 1046.41 38.4333 1045.84 38.15C1045.27 37.8667 1044.65 37.65 1043.97 37.5C1043.3 37.3333 1042.59 37.25 1041.84 37.25C1041.57 37.25 1041.32 37.2583 1041.09 37.275C1040.86 37.2917 1040.62 37.325 1040.39 37.375C1040.16 37.4083 1039.89 37.4583 1039.59 37.525L1039.19 35.625C1039.64 35.4917 1040.09 35.3917 1040.54 35.325C1040.99 35.2417 1041.42 35.2 1041.84 35.2C1042.71 35.2 1043.49 35.3083 1044.19 35.525C1044.89 35.725 1045.52 35.975 1046.09 36.275C1046.67 36.575 1047.22 36.875 1047.72 37.175C1048.23 37.475 1048.73 37.7333 1049.22 37.95C1049.7 38.15 1050.2 38.25 1050.72 38.25H1051.24L1051.42 40.05C1050.7 40.05 1050.04 40.15 1049.44 40.35C1048.84 40.55 1048.25 40.8083 1047.67 41.125C1047.1 41.425 1046.5 41.75 1045.87 42.1C1045.23 42.4333 1044.53 42.7583 1043.77 43.075C1043 43.375 1042.12 43.625 1041.12 43.825C1040.13 44.025 1038.99 44.125 1037.69 44.125ZM1052 25.95V24.55L1057.6 22.9V24.325L1052 25.95ZM1053.49 31.225C1052.82 31.225 1052.38 31.0083 1052.17 30.575C1051.95 30.125 1051.84 29.65 1051.84 29.15C1051.84 28.9667 1051.85 28.775 1051.87 28.575C1051.9 28.3583 1051.94 28.1167 1051.99 27.85L1053.24 27.5C1053.19 27.7833 1053.15 28.05 1053.12 28.3C1053.1 28.5333 1053.09 28.7417 1053.09 28.925C1053.09 29.2417 1053.14 29.475 1053.24 29.625C1053.34 29.775 1053.5 29.85 1053.72 29.85C1053.97 29.85 1054.17 29.725 1054.34 29.475C1054.51 29.2083 1054.6 28.6833 1054.62 27.9V27.15L1055.82 26.7V28.225C1055.82 28.4583 1055.86 28.6667 1055.94 28.85C1056.04 29.0167 1056.24 29.1 1056.54 29.1C1056.84 29.1 1057.04 29.0083 1057.14 28.825C1057.24 28.6417 1057.29 28.4083 1057.29 28.125C1057.29 27.8417 1057.26 27.5583 1057.19 27.275C1057.12 26.975 1057.03 26.6833 1056.92 26.4L1058.04 26.05C1058.21 26.3667 1058.34 26.7333 1058.44 27.15C1058.56 27.55 1058.62 27.9167 1058.62 28.25C1058.62 28.8 1058.46 29.3 1058.14 29.75C1057.84 30.1833 1057.37 30.4 1056.72 30.4C1056.2 30.4 1055.77 30.2667 1055.44 30C1055.12 29.7167 1054.97 29.3833 1054.97 29L1055.54 29.225C1055.54 29.7917 1055.34 30.2667 1054.94 30.65C1054.56 31.0333 1054.07 31.225 1053.49 31.225ZM1051.51 49.8L1050.79 47.9C1052 47.5 1053.01 47.0417 1053.81 46.525C1054.63 46.0083 1055.27 45.4583 1055.74 44.875C1056.22 44.2917 1056.56 43.7 1056.76 43.1C1056.96 42.4833 1057.06 41.8917 1057.06 41.325C1057.06 40.5083 1056.88 39.6833 1056.51 38.85C1056.16 38 1055.77 37.2 1055.34 36.45L1057.16 35.525C1057.48 36.1083 1057.75 36.6833 1057.99 37.25C1058.24 37.8167 1058.45 38.35 1058.64 38.85C1058.84 39.35 1058.99 39.8083 1059.11 40.225C1059.34 40.9417 1059.64 41.4333 1060.01 41.7C1060.39 41.95 1060.91 42.075 1061.56 42.075C1061.91 42.075 1062.16 42.175 1062.31 42.375C1062.48 42.5583 1062.56 42.7833 1062.56 43.05C1062.56 43.3167 1062.44 43.5667 1062.21 43.8C1061.98 44.0167 1061.68 44.125 1061.31 44.125C1060.58 44.125 1059.98 44 1059.51 43.75C1059.06 43.4833 1058.72 43.1417 1058.49 42.725C1058.25 42.2917 1058.09 41.8417 1058.01 41.375L1058.81 41.825C1058.81 42.925 1058.56 43.925 1058.06 44.825C1057.58 45.7417 1056.95 46.5333 1056.19 47.2C1055.42 47.8833 1054.62 48.4417 1053.79 48.875C1052.95 49.3083 1052.19 49.6167 1051.51 49.8ZM1061.32 44.125L1061.55 42.075C1062.5 42.075 1063.16 41.9833 1063.55 41.8C1063.93 41.6167 1064.15 41.2917 1064.2 40.825C1064.26 40.3583 1064.28 39.7083 1064.25 38.875L1063.77 26.15H1065.8L1066.3 38.65C1066.33 39.5333 1066.3 40.3167 1066.2 41C1066.11 41.6833 1065.9 42.2583 1065.55 42.725C1065.21 43.1917 1064.71 43.5417 1064.02 43.775C1063.36 44.0083 1062.46 44.125 1061.32 44.125ZM1070.12 44L1069.62 26.15H1071.64L1072.14 44H1070.12ZM1084.05 48.275V46.875L1089.65 45.225V46.65L1084.05 48.275ZM1092.42 44.125C1091.52 44.125 1090.72 44 1090.02 43.75C1089.33 43.4833 1088.78 43.0417 1088.37 42.425C1087.97 41.7917 1087.74 40.9167 1087.69 39.8L1087.29 31.1H1089.32L1089.72 39.35C1089.77 40.1333 1089.91 40.725 1090.14 41.125C1090.38 41.5083 1090.7 41.7667 1091.12 41.9C1091.55 42.0167 1092.07 42.075 1092.67 42.075C1093.02 42.075 1093.27 42.175 1093.42 42.375C1093.58 42.5583 1093.67 42.7833 1093.67 43.05C1093.67 43.3167 1093.55 43.5667 1093.32 43.8C1093.08 44.0167 1092.78 44.125 1092.42 44.125ZM1088.64 41.375C1087.69 41.675 1086.77 41.825 1085.87 41.825C1084.97 41.825 1084.15 41.6917 1083.42 41.425C1082.68 41.1583 1082.1 40.775 1081.67 40.275C1081.23 39.7583 1081.02 39.1417 1081.02 38.425C1081.02 37.725 1081.19 37.0667 1081.54 36.45C1081.91 35.8333 1082.4 35.2833 1083.02 34.8C1083.65 34.3167 1084.38 33.9167 1085.19 33.6C1086.03 33.2667 1086.91 33.0417 1087.84 32.925L1088.19 35.025C1087.36 35.0583 1086.62 35.175 1085.97 35.375C1085.33 35.5583 1084.79 35.8 1084.34 36.1C1083.91 36.4 1083.58 36.725 1083.34 37.075C1083.11 37.425 1082.99 37.7667 1082.99 38.1C1082.99 38.4667 1083.13 38.7667 1083.39 39C1083.66 39.2333 1084 39.4167 1084.42 39.55C1084.83 39.6667 1085.29 39.7417 1085.79 39.775C1086.29 39.7917 1086.78 39.775 1087.24 39.725C1087.71 39.6583 1088.11 39.5667 1088.44 39.45L1088.64 41.375ZM1094.92 16.975L1094.77 12.65H1096.15L1096.3 16.975H1094.92ZM1094.04 22.225C1093.38 22.225 1092.93 22.0083 1092.72 21.575C1092.5 21.125 1092.39 20.65 1092.39 20.15C1092.39 19.9667 1092.4 19.775 1092.42 19.575C1092.45 19.3583 1092.49 19.1167 1092.54 18.85L1093.79 18.5C1093.74 18.7833 1093.7 19.05 1093.67 19.3C1093.65 19.5333 1093.64 19.7417 1093.64 19.925C1093.64 20.2417 1093.69 20.475 1093.79 20.625C1093.89 20.775 1094.05 20.85 1094.27 20.85C1094.52 20.85 1094.73 20.725 1094.89 20.475C1095.06 20.2083 1095.15 19.6833 1095.17 18.9V18.15L1096.37 17.7V19.225C1096.37 19.4583 1096.41 19.6667 1096.49 19.85C1096.59 20.0167 1096.79 20.1 1097.09 20.1C1097.39 20.1 1097.59 20.0083 1097.69 19.825C1097.79 19.6417 1097.84 19.4083 1097.84 19.125C1097.84 18.8417 1097.81 18.5583 1097.74 18.275C1097.68 17.975 1097.58 17.6833 1097.47 17.4L1098.59 17.05C1098.76 17.3667 1098.89 17.7333 1098.99 18.15C1099.11 18.55 1099.17 18.9167 1099.17 19.25C1099.17 19.8 1099.01 20.3 1098.69 20.75C1098.39 21.1833 1097.92 21.4 1097.27 21.4C1096.75 21.4 1096.33 21.2667 1095.99 21C1095.68 20.7167 1095.52 20.3833 1095.52 20L1096.09 20.225C1096.09 20.7917 1095.89 21.2667 1095.49 21.65C1095.11 22.0333 1094.63 22.225 1094.04 22.225ZM1092.43 44.125L1092.65 42.075C1093.6 42.075 1094.27 41.9833 1094.65 41.8C1095.03 41.6167 1095.25 41.2917 1095.3 40.825C1095.37 40.3583 1095.38 39.7083 1095.35 38.875L1094.93 26.15H1097L1097.4 38.825C1097.43 39.675 1097.57 40.3417 1097.8 40.825C1098.05 41.2917 1098.38 41.6167 1098.8 41.8C1099.22 41.9833 1099.68 42.075 1100.18 42.075C1100.53 42.075 1100.78 42.175 1100.93 42.375C1101.09 42.5583 1101.18 42.7833 1101.18 43.05C1101.18 43.3167 1101.06 43.5667 1100.83 43.8C1100.59 44.0167 1100.29 44.125 1099.93 44.125C1099.23 44.125 1098.64 44.0167 1098.18 43.8C1097.73 43.5667 1097.37 43.275 1097.1 42.925C1096.85 42.5583 1096.68 42.175 1096.6 41.775L1097.13 41.825C1096.96 42.325 1096.68 42.75 1096.3 43.1C1095.93 43.4333 1095.43 43.6917 1094.8 43.875C1094.17 44.0417 1093.38 44.125 1092.43 44.125ZM1099.92 44.125L1100.15 42.075C1101.1 42.075 1101.76 41.9833 1102.15 41.8C1102.53 41.6167 1102.75 41.2917 1102.8 40.825C1102.86 40.3583 1102.88 39.7083 1102.85 38.875L1102.37 26.15H1104.4L1104.9 38.65C1104.93 39.5333 1104.9 40.3167 1104.8 41C1104.71 41.6833 1104.5 42.2583 1104.15 42.725C1103.81 43.1917 1103.3 43.5417 1102.62 43.775C1101.95 44.0083 1101.05 44.125 1099.92 44.125ZM1108.72 44L1108.22 26.15H1110.24L1110.74 44H1108.72ZM1123.33 48.275V46.875L1128.93 45.225V46.65L1123.33 48.275ZM1120.79 53.825C1120.44 52.5417 1120.14 51.2833 1119.89 50.05C1119.64 48.8333 1119.45 47.7417 1119.32 46.775C1119.18 45.8083 1119.12 45.0917 1119.12 44.625C1119.12 43.3917 1119.32 42.2667 1119.72 41.25C1120.12 40.2333 1120.63 39.3417 1121.27 38.575C1121.9 37.7917 1122.58 37.1333 1123.32 36.6C1124.05 36.05 1124.76 35.6417 1125.44 35.375C1126.14 35.0917 1126.73 34.95 1127.22 34.95C1127.63 34.95 1128 35.0417 1128.32 35.225C1128.63 35.4083 1128.94 35.7667 1129.24 36.3C1129.54 36.8333 1129.86 37.6167 1130.19 38.65C1130.51 39.6 1130.81 40.325 1131.09 40.825C1131.38 41.3083 1131.68 41.6417 1132.02 41.825C1132.35 41.9917 1132.73 42.075 1133.17 42.075C1133.52 42.075 1133.77 42.175 1133.92 42.375C1134.08 42.5583 1134.17 42.7833 1134.17 43.05C1134.17 43.3167 1134.05 43.5667 1133.82 43.8C1133.58 44.0167 1133.28 44.125 1132.92 44.125C1132.27 44.125 1131.71 44.0083 1131.24 43.775C1130.79 43.5417 1130.4 43.225 1130.07 42.825L1130.64 42.35C1130.44 42.8333 1130.18 43.2333 1129.87 43.55C1129.57 43.85 1129.23 44.075 1128.84 44.225C1128.48 44.375 1128.08 44.45 1127.67 44.45C1127.18 44.45 1126.68 44.3583 1126.17 44.175C1125.65 44.0083 1125.14 43.7583 1124.64 43.425C1124.14 43.075 1123.67 42.65 1123.22 42.15C1122.78 41.65 1122.4 41.0833 1122.07 40.45L1122.32 40.5C1121.85 41.15 1121.54 41.8583 1121.39 42.625C1121.24 43.375 1121.17 44.0417 1121.17 44.625C1121.17 45.0917 1121.22 45.6833 1121.32 46.4C1121.42 47.1333 1121.54 47.9083 1121.69 48.725C1121.86 49.5417 1122.03 50.35 1122.22 51.15C1122.42 51.9667 1122.6 52.7 1122.77 53.35L1120.79 53.825ZM1127.87 42.4C1128.17 42.4 1128.41 42.3417 1128.59 42.225C1128.79 42.1083 1128.93 41.9333 1128.99 41.7C1129.06 41.4667 1129.03 41.175 1128.92 40.825C1128.72 40.225 1128.53 39.7 1128.37 39.25C1128.2 38.7833 1128.03 38.4 1127.87 38.1C1127.72 37.7833 1127.56 37.55 1127.39 37.4C1127.23 37.25 1127.05 37.175 1126.87 37.175C1126.68 37.175 1126.45 37.2167 1126.17 37.3C1125.9 37.3833 1125.61 37.5083 1125.29 37.675C1124.99 37.8417 1124.68 38.05 1124.37 38.3C1124.05 38.55 1123.75 38.8417 1123.47 39.175L1123.49 38.975C1123.86 39.7417 1124.3 40.3833 1124.82 40.9C1125.35 41.4167 1125.88 41.8 1126.42 42.05C1126.97 42.2833 1127.45 42.4 1127.87 42.4ZM1143.35 31.55C1142.63 31.55 1142.09 31.3333 1141.72 30.9C1141.37 30.4667 1141.2 29.9583 1141.2 29.375C1141.2 28.8917 1141.29 28.4583 1141.47 28.075C1141.67 27.675 1141.95 27.3583 1142.3 27.125C1142.65 26.875 1143.04 26.75 1143.47 26.75C1143.87 26.75 1144.23 26.8667 1144.55 27.1C1144.87 27.3333 1145.12 27.6417 1145.3 28.025C1145.48 28.4083 1145.57 28.8167 1145.57 29.25C1145.57 29.9 1145.37 30.45 1144.95 30.9C1144.53 31.3333 1144 31.55 1143.35 31.55ZM1143.32 30.25C1143.61 30.25 1143.85 30.1583 1144.05 29.975C1144.27 29.7917 1144.37 29.55 1144.37 29.25C1144.37 28.9333 1144.27 28.675 1144.05 28.475C1143.83 28.2583 1143.6 28.15 1143.35 28.15C1143.03 28.15 1142.78 28.2583 1142.6 28.475C1142.43 28.6917 1142.35 28.9417 1142.35 29.225C1142.35 29.525 1142.44 29.775 1142.62 29.975C1142.81 30.1583 1143.04 30.25 1143.32 30.25ZM1132.9 44.125L1133.15 42.075C1133.69 42.075 1134.12 42.0417 1134.45 41.975C1134.79 41.8917 1135.06 41.7 1135.28 41.4C1135.51 41.0833 1135.73 40.5917 1135.93 39.925C1136.13 39.2583 1136.36 38.325 1136.63 37.125L1138.5 37.65C1138.4 38.0667 1138.29 38.5667 1138.15 39.15C1138.02 39.7333 1137.95 40.2667 1137.95 40.75C1137.95 41.0167 1138.02 41.25 1138.15 41.45C1138.29 41.65 1138.51 41.8083 1138.83 41.925C1139.16 42.025 1139.6 42.075 1140.15 42.075C1140.65 42.075 1141.06 42.0333 1141.38 41.95C1141.7 41.8667 1141.95 41.6667 1142.15 41.35C1142.37 41.0333 1142.56 40.525 1142.73 39.825C1142.9 39.125 1143.07 38.1667 1143.25 36.95L1145.15 37.3C1145.1 37.6 1145.05 37.9667 1144.98 38.4C1144.91 38.8333 1144.85 39.2667 1144.78 39.7C1144.73 40.1167 1144.7 40.4667 1144.7 40.75C1144.7 40.9833 1144.75 41.2083 1144.85 41.425C1144.97 41.625 1145.19 41.7833 1145.5 41.9C1145.84 42.0167 1146.33 42.075 1146.98 42.075C1147.81 42.075 1148.41 41.9 1148.78 41.55C1149.16 41.2 1149.36 40.6667 1149.36 39.95C1149.36 39.5667 1149.35 39.1667 1149.33 38.75C1149.31 38.3167 1149.28 37.8417 1149.23 37.325C1149.2 36.7917 1149.14 36.1833 1149.05 35.5L1150.88 35.375C1150.98 36.725 1151.09 37.8333 1151.21 38.7C1151.34 39.5667 1151.52 40.25 1151.75 40.75C1152 41.2333 1152.34 41.575 1152.75 41.775C1153.17 41.975 1153.72 42.075 1154.4 42.075C1154.75 42.075 1155 42.175 1155.15 42.375C1155.32 42.5583 1155.4 42.7833 1155.4 43.05C1155.4 43.3167 1155.29 43.5667 1155.05 43.8C1154.82 44.0167 1154.52 44.125 1154.15 44.125C1153.59 44.125 1153.08 44.05 1152.63 43.9C1152.2 43.7333 1151.81 43.5167 1151.48 43.25C1151.16 42.9667 1150.9 42.65 1150.68 42.3C1150.48 41.9333 1150.34 41.55 1150.25 41.15L1150.7 41.3C1150.52 42.05 1150.23 42.6333 1149.83 43.05C1149.45 43.45 1148.99 43.7333 1148.45 43.9C1147.92 44.05 1147.35 44.125 1146.75 44.125C1146.02 44.125 1145.42 44.0333 1144.95 43.85C1144.49 43.6667 1144.12 43.3917 1143.85 43.025C1143.6 42.6417 1143.44 42.1583 1143.35 41.575H1144.2C1143.89 42.2917 1143.55 42.8333 1143.2 43.2C1142.85 43.5667 1142.42 43.8167 1141.9 43.95C1141.39 44.0667 1140.7 44.125 1139.85 44.125C1139.44 44.125 1138.99 44.0583 1138.5 43.925C1138.04 43.7917 1137.63 43.5333 1137.28 43.15C1136.93 42.75 1136.72 42.1583 1136.65 41.375L1137.4 41.225C1137.12 42.075 1136.77 42.7083 1136.35 43.125C1135.95 43.525 1135.47 43.7917 1134.9 43.925C1134.34 44.0583 1133.67 44.125 1132.9 44.125ZM1154.27 53.275V51.875L1159.87 50.225V51.65L1154.27 53.275ZM1154.15 44.125L1154.4 42.075C1155.21 42.075 1155.86 42.025 1156.35 41.925C1156.83 41.825 1157.18 41.625 1157.4 41.325C1157.61 41.0083 1157.72 40.5417 1157.72 39.925C1157.72 39.5083 1157.65 39.0167 1157.52 38.45C1157.39 37.8667 1157.21 37.25 1157 36.6C1156.78 35.95 1156.55 35.3083 1156.3 34.675L1158.32 33.925C1158.54 34.4583 1158.74 35.0667 1158.92 35.75C1159.12 36.4333 1159.29 37.1083 1159.42 37.775C1159.55 38.4417 1159.62 39.025 1159.62 39.525C1159.62 40.1917 1159.55 40.7833 1159.4 41.3C1159.26 41.8 1159.05 42.2333 1158.77 42.6C1158.49 42.95 1158.12 43.2417 1157.67 43.475C1157.24 43.6917 1156.73 43.8583 1156.15 43.975C1155.56 44.075 1154.9 44.125 1154.15 44.125ZM1156.82 48.775C1156.47 48.775 1156.17 48.65 1155.92 48.4C1155.69 48.1667 1155.57 47.8833 1155.57 47.55C1155.57 47.2167 1155.69 46.925 1155.92 46.675C1156.17 46.425 1156.47 46.3 1156.82 46.3C1157.15 46.3 1157.44 46.425 1157.67 46.675C1157.92 46.925 1158.05 47.2167 1158.05 47.55C1158.05 47.8833 1157.92 48.1667 1157.67 48.4C1157.44 48.65 1157.15 48.775 1156.82 48.775Z" fill="black" fill-opacity="0.75"/>
<path d="M943.5 48.275V46.875L949.1 45.225V46.65L943.5 48.275ZM940.958 53.825C940.608 52.5417 940.308 51.2833 940.058 50.05C939.808 48.8333 939.616 47.7417 939.483 46.775C939.35 45.8083 939.283 45.0917 939.283 44.625C939.283 43.3917 939.483 42.2667 939.883 41.25C940.283 40.2333 940.8 39.3417 941.433 38.575C942.066 37.7917 942.75 37.1333 943.483 36.6C944.216 36.05 944.925 35.6417 945.608 35.375C946.308 35.0917 946.9 34.95 947.383 34.95C947.8 34.95 948.166 35.0417 948.483 35.225C948.8 35.4083 949.108 35.7667 949.408 36.3C949.708 36.8333 950.025 37.6167 950.358 38.65C950.675 39.6 950.975 40.325 951.258 40.825C951.541 41.3083 951.85 41.6417 952.183 41.825C952.516 41.9917 952.9 42.075 953.333 42.075C953.683 42.075 953.933 42.175 954.083 42.375C954.25 42.5583 954.333 42.7833 954.333 43.05C954.333 43.3167 954.216 43.5667 953.983 43.8C953.75 44.0167 953.45 44.125 953.083 44.125C952.433 44.125 951.875 44.0083 951.408 43.775C950.958 43.5417 950.566 43.225 950.233 42.825L950.808 42.35C950.608 42.8333 950.35 43.2333 950.033 43.55C949.733 43.85 949.391 44.075 949.008 44.225C948.641 44.375 948.25 44.45 947.833 44.45C947.35 44.45 946.85 44.3583 946.333 44.175C945.816 44.0083 945.308 43.7583 944.808 43.425C944.308 43.075 943.833 42.65 943.383 42.15C942.95 41.65 942.566 41.0833 942.233 40.45L942.483 40.5C942.016 41.15 941.708 41.8583 941.558 42.625C941.408 43.375 941.333 44.0417 941.333 44.625C941.333 45.0917 941.383 45.6833 941.483 46.4C941.583 47.1333 941.708 47.9083 941.858 48.725C942.025 49.5417 942.2 50.35 942.383 51.15C942.583 51.9667 942.766 52.7 942.933 53.35L940.958 53.825ZM948.033 42.4C948.333 42.4 948.575 42.3417 948.758 42.225C948.958 42.1083 949.091 41.9333 949.158 41.7C949.225 41.4667 949.2 41.175 949.083 40.825C948.883 40.225 948.7 39.7 948.533 39.25C948.366 38.7833 948.2 38.4 948.033 38.1C947.883 37.7833 947.725 37.55 947.558 37.4C947.391 37.25 947.216 37.175 947.033 37.175C946.85 37.175 946.616 37.2167 946.333 37.3C946.066 37.3833 945.775 37.5083 945.458 37.675C945.158 37.8417 944.85 38.05 944.533 38.3C944.216 38.55 943.916 38.8417 943.633 39.175L943.658 38.975C944.025 39.7417 944.466 40.3833 944.983 40.9C945.516 41.4167 946.05 41.8 946.583 42.05C947.133 42.2833 947.616 42.4 948.033 42.4ZM957.729 32.55C957.013 32.55 956.471 32.3333 956.104 31.9C955.754 31.4667 955.579 30.9583 955.579 30.375C955.579 29.8917 955.671 29.4583 955.854 29.075C956.054 28.675 956.329 28.3583 956.679 28.125C957.029 27.875 957.421 27.75 957.854 27.75C958.254 27.75 958.613 27.8667 958.929 28.1C959.246 28.3333 959.496 28.6417 959.679 29.025C959.863 29.4083 959.954 29.8167 959.954 30.25C959.954 30.9 959.746 31.45 959.329 31.9C958.913 32.3333 958.379 32.55 957.729 32.55ZM957.704 31.25C957.988 31.25 958.229 31.1583 958.429 30.975C958.646 30.7917 958.754 30.55 958.754 30.25C958.754 29.9333 958.646 29.675 958.429 29.475C958.213 29.2583 957.979 29.15 957.729 29.15C957.413 29.15 957.163 29.2583 956.979 29.475C956.813 29.6917 956.729 29.9417 956.729 30.225C956.729 30.525 956.821 30.775 957.004 30.975C957.188 31.1583 957.421 31.25 957.704 31.25ZM953.071 44.125L953.321 42.075C954.154 42.075 954.804 42.0167 955.271 41.9C955.738 41.7667 956.088 41.525 956.321 41.175C956.571 40.8083 956.771 40.2833 956.921 39.6C957.071 38.9167 957.254 38.025 957.471 36.925L959.421 37.3C959.354 37.6 959.279 37.9333 959.196 38.3C959.113 38.6667 959.038 39.0333 958.971 39.4C958.921 39.75 958.896 40.0583 958.896 40.325C958.896 40.575 958.913 40.8083 958.946 41.025C958.979 41.2417 959.104 41.425 959.321 41.575C959.538 41.725 959.904 41.85 960.421 41.95C960.938 42.0333 961.679 42.075 962.646 42.075C962.996 42.075 963.246 42.175 963.396 42.375C963.563 42.5583 963.646 42.7833 963.646 43.05C963.646 43.3167 963.529 43.5667 963.296 43.8C963.063 44.0167 962.763 44.125 962.396 44.125C961.379 44.125 960.571 44.075 959.971 43.975C959.371 43.8583 958.913 43.6917 958.596 43.475C958.296 43.2583 958.079 42.9917 957.946 42.675C957.829 42.3417 957.738 41.9583 957.671 41.525L958.421 41.575C958.154 42.1083 957.863 42.5417 957.546 42.875C957.246 43.2083 956.896 43.4667 956.496 43.65C956.096 43.8333 955.613 43.9583 955.046 44.025C954.496 44.0917 953.838 44.125 953.071 44.125ZM959.371 48.85C959.021 48.85 958.721 48.725 958.471 48.475C958.238 48.2417 958.121 47.9583 958.121 47.625C958.121 47.2917 958.238 47 958.471 46.75C958.721 46.5 959.021 46.375 959.371 46.375C959.704 46.375 959.988 46.5 960.221 46.75C960.471 47 960.596 47.2917 960.596 47.625C960.596 47.9583 960.471 48.2417 960.221 48.475C959.988 48.725 959.704 48.85 959.371 48.85ZM955.946 48.85C955.596 48.85 955.296 48.725 955.046 48.475C954.813 48.2417 954.696 47.9583 954.696 47.625C954.696 47.2917 954.813 47 955.046 46.75C955.296 46.5 955.596 46.375 955.946 46.375C956.279 46.375 956.563 46.5 956.796 46.75C957.046 47 957.171 47.2917 957.171 47.625C957.171 47.9583 957.046 48.2417 956.796 48.475C956.563 48.725 956.279 48.85 955.946 48.85ZM966.815 48.275V46.875L972.415 45.225V46.65L966.815 48.275ZM962.397 44.125L962.622 42.075C963.489 42.075 964.339 42.0083 965.172 41.875C966.006 41.7417 966.822 41.55 967.622 41.3C968.422 41.05 969.189 40.75 969.922 40.4C970.672 40.0333 971.381 39.6167 972.047 39.15C971.614 38.7667 971.114 38.4333 970.547 38.15C969.981 37.8667 969.356 37.65 968.672 37.5C968.006 37.3333 967.297 37.25 966.547 37.25C966.281 37.25 966.031 37.2583 965.797 37.275C965.564 37.2917 965.331 37.325 965.097 37.375C964.864 37.4083 964.597 37.4583 964.297 37.525L963.897 35.625C964.347 35.4917 964.797 35.3917 965.247 35.325C965.697 35.2417 966.131 35.2 966.547 35.2C967.414 35.2 968.197 35.3083 968.897 35.525C969.597 35.725 970.231 35.975 970.797 36.275C971.381 36.575 971.922 36.875 972.422 37.175C972.939 37.475 973.439 37.7333 973.922 37.95C974.406 38.15 974.906 38.25 975.422 38.25H975.947L976.122 40.05C975.406 40.05 974.747 40.15 974.147 40.35C973.547 40.55 972.956 40.8083 972.372 41.125C971.806 41.425 971.206 41.75 970.572 42.1C969.939 42.4333 969.239 42.7583 968.472 43.075C967.706 43.375 966.822 43.625 965.822 43.825C964.839 44.025 963.697 44.125 962.397 44.125ZM976.703 25.95V24.55L982.303 22.9V24.325L976.703 25.95ZM978.198 31.225C977.531 31.225 977.09 31.0083 976.873 30.575C976.656 30.125 976.548 29.65 976.548 29.15C976.548 28.9667 976.556 28.775 976.573 28.575C976.606 28.3583 976.648 28.1167 976.698 27.85L977.948 27.5C977.898 27.7833 977.856 28.05 977.823 28.3C977.806 28.5333 977.798 28.7417 977.798 28.925C977.798 29.2417 977.848 29.475 977.948 29.625C978.048 29.775 978.206 29.85 978.423 29.85C978.673 29.85 978.881 29.725 979.048 29.475C979.215 29.2083 979.306 28.6833 979.323 27.9V27.15L980.523 26.7V28.225C980.523 28.4583 980.565 28.6667 980.648 28.85C980.748 29.0167 980.948 29.1 981.248 29.1C981.548 29.1 981.748 29.0083 981.848 28.825C981.948 28.6417 981.998 28.4083 981.998 28.125C981.998 27.8417 981.965 27.5583 981.898 27.275C981.831 26.975 981.74 26.6833 981.623 26.4L982.748 26.05C982.915 26.3667 983.048 26.7333 983.148 27.15C983.265 27.55 983.323 27.9167 983.323 28.25C983.323 28.8 983.165 29.3 982.848 29.75C982.548 30.1833 982.073 30.4 981.423 30.4C980.906 30.4 980.481 30.2667 980.148 30C979.831 29.7167 979.673 29.3833 979.673 29L980.248 29.225C980.248 29.7917 980.048 30.2667 979.648 30.65C979.265 31.0333 978.781 31.225 978.198 31.225ZM976.218 49.8L975.493 47.9C976.71 47.5 977.718 47.0417 978.518 46.525C979.335 46.0083 979.976 45.4583 980.443 44.875C980.926 44.2917 981.268 43.7 981.468 43.1C981.668 42.4833 981.768 41.8917 981.768 41.325C981.768 40.5083 981.585 39.6833 981.218 38.85C980.868 38 980.476 37.2 980.043 36.45L981.868 35.525C982.185 36.1083 982.46 36.6833 982.693 37.25C982.943 37.8167 983.16 38.35 983.343 38.85C983.543 39.35 983.701 39.8083 983.818 40.225C984.051 40.9417 984.351 41.4333 984.718 41.7C985.101 41.95 985.618 42.075 986.268 42.075C986.618 42.075 986.868 42.175 987.018 42.375C987.185 42.5583 987.268 42.7833 987.268 43.05C987.268 43.3167 987.151 43.5667 986.918 43.8C986.685 44.0167 986.385 44.125 986.018 44.125C985.285 44.125 984.685 44 984.218 43.75C983.768 43.4833 983.426 43.1417 983.193 42.725C982.96 42.2917 982.801 41.8417 982.718 41.375L983.518 41.825C983.518 42.925 983.268 43.925 982.768 44.825C982.285 45.7417 981.66 46.5333 980.893 47.2C980.126 47.8833 979.326 48.4417 978.493 48.875C977.66 49.3083 976.901 49.6167 976.218 49.8ZM986.03 44.125L986.255 42.075C987.205 42.075 987.872 41.9833 988.255 41.8C988.638 41.6167 988.855 41.2917 988.905 40.825C988.972 40.3583 988.988 39.7083 988.955 38.875L988.48 26.15H990.505L991.005 38.65C991.038 39.5333 991.005 40.3167 990.905 41C990.822 41.6833 990.605 42.2583 990.255 42.725C989.922 43.1917 989.413 43.5417 988.73 43.775C988.063 44.0083 987.163 44.125 986.03 44.125ZM994.824 44L994.324 26.15H996.349L996.849 44H994.824ZM1010.25 54.275V52.875L1015.85 51.225V52.65L1010.25 54.275ZM1005.73 44.025C1005.73 43.425 1005.81 42.7583 1005.98 42.025C1006.14 41.2917 1006.41 40.4833 1006.78 39.6L1008.58 40.3C1008.31 41 1008.11 41.6417 1007.98 42.225C1007.84 42.8083 1007.78 43.35 1007.78 43.85C1007.78 44.7667 1008 45.5083 1008.45 46.075C1008.92 46.6583 1009.53 47.0833 1010.3 47.35C1011.08 47.6167 1011.94 47.75 1012.88 47.75C1014.01 47.75 1014.96 47.625 1015.73 47.375C1016.49 47.1417 1017.1 46.8167 1017.55 46.4C1018 45.9833 1018.32 45.5083 1018.5 44.975C1018.7 44.4583 1018.8 43.9167 1018.8 43.35C1018.8 42.6167 1018.74 41.925 1018.63 41.275C1018.53 40.625 1018.38 39.9917 1018.2 39.375C1018.03 38.7417 1017.85 38.1 1017.65 37.45L1019.68 36.9C1019.86 37.5333 1020 38.05 1020.1 38.45C1020.2 38.8333 1020.28 39.1417 1020.33 39.375C1020.39 39.6083 1020.45 39.8167 1020.5 40C1020.68 40.6167 1020.93 41.075 1021.23 41.375C1021.53 41.6583 1021.87 41.85 1022.25 41.95C1022.65 42.0333 1023.06 42.075 1023.48 42.075C1023.83 42.075 1024.08 42.175 1024.23 42.375C1024.39 42.5583 1024.48 42.7833 1024.48 43.05C1024.48 43.3167 1024.36 43.5667 1024.13 43.8C1023.89 44.0167 1023.59 44.125 1023.23 44.125C1022.53 44.125 1021.94 44.0083 1021.48 43.775C1021.01 43.525 1020.64 43.2167 1020.38 42.85C1020.13 42.4833 1019.96 42.1 1019.88 41.7L1020.9 42.975C1020.85 43.825 1020.68 44.65 1020.4 45.45C1020.13 46.2667 1019.7 47 1019.1 47.65C1018.5 48.3167 1017.68 48.8417 1016.65 49.225C1015.63 49.6083 1014.35 49.8 1012.8 49.8C1011.85 49.8 1010.95 49.6833 1010.1 49.45C1009.25 49.2167 1008.49 48.8583 1007.83 48.375C1007.18 47.9083 1006.66 47.3083 1006.28 46.575C1005.91 45.8583 1005.73 45.0083 1005.73 44.025ZM1013.28 34.05C1012.93 34.05 1012.63 33.9333 1012.38 33.7C1012.14 33.45 1012.03 33.1583 1012.03 32.825C1012.03 32.4917 1012.14 32.2 1012.38 31.95C1012.63 31.7 1012.93 31.575 1013.28 31.575C1013.61 31.575 1013.89 31.7 1014.13 31.95C1014.38 32.2 1014.5 32.4917 1014.5 32.825C1014.5 33.1583 1014.38 33.45 1014.13 33.7C1013.89 33.9333 1013.61 34.05 1013.28 34.05ZM1030.03 30.975L1029.88 26.65H1031.25L1031.4 30.975H1030.03ZM1023.24 44.125L1023.49 42.075C1023.95 42.075 1024.32 41.975 1024.59 41.775C1024.87 41.575 1025.14 41.2417 1025.39 40.775C1025.65 40.3083 1025.99 39.6833 1026.39 38.9C1026.79 38.1 1027.19 37.45 1027.59 36.95C1028 36.4333 1028.4 36.0333 1028.79 35.75C1029.19 35.45 1029.56 35.2417 1029.91 35.125C1030.26 35.0083 1030.59 34.95 1030.89 34.95C1031.44 34.95 1031.93 35.075 1032.36 35.325C1032.8 35.5583 1033.2 35.9667 1033.59 36.55C1033.97 37.1167 1034.36 37.9 1034.76 38.9C1035.15 39.8167 1035.49 40.5083 1035.79 40.975C1036.1 41.425 1036.43 41.725 1036.76 41.875C1037.11 42.0083 1037.5 42.075 1037.94 42.075C1038.29 42.075 1038.54 42.175 1038.69 42.375C1038.85 42.5583 1038.94 42.7833 1038.94 43.05C1038.94 43.3167 1038.82 43.5667 1038.59 43.8C1038.35 44.0167 1038.05 44.125 1037.69 44.125C1037.04 44.125 1036.44 44.0167 1035.89 43.8C1035.35 43.5833 1034.9 43.2417 1034.54 42.775L1034.89 42.25C1034.7 42.7667 1034.45 43.1917 1034.14 43.525C1033.84 43.8417 1033.5 44.075 1033.11 44.225C1032.73 44.3917 1032.32 44.475 1031.89 44.475C1031.34 44.475 1030.77 44.3583 1030.19 44.125C1029.62 43.8917 1029.07 43.5583 1028.54 43.125C1028 42.6917 1027.54 42.1833 1027.14 41.6C1026.7 42.3667 1026.29 42.9333 1025.89 43.3C1025.5 43.65 1025.1 43.875 1024.69 43.975C1024.27 44.075 1023.79 44.125 1023.24 44.125ZM1028.09 39.7C1028.37 40.1667 1028.67 40.575 1028.99 40.925C1029.32 41.275 1029.65 41.5667 1029.99 41.8C1030.32 42.0167 1030.65 42.1833 1030.96 42.3C1031.3 42.4 1031.6 42.45 1031.86 42.45C1032.45 42.45 1032.87 42.2417 1033.14 41.825C1033.42 41.4083 1033.41 40.825 1033.11 40.075C1032.96 39.6917 1032.8 39.3167 1032.64 38.95C1032.49 38.5833 1032.32 38.25 1032.14 37.95C1031.95 37.6333 1031.75 37.3917 1031.51 37.225C1031.28 37.0417 1031.02 36.95 1030.74 36.95C1030.49 36.95 1030.22 37.0333 1029.94 37.2C1029.67 37.3667 1029.38 37.65 1029.06 38.05C1028.76 38.45 1028.44 39 1028.09 39.7ZM1041.59 30.55C1040.88 30.55 1040.33 30.3333 1039.97 29.9C1039.62 29.4667 1039.44 28.9583 1039.44 28.375C1039.44 27.8917 1039.53 27.4583 1039.72 27.075C1039.92 26.675 1040.19 26.3583 1040.54 26.125C1040.89 25.875 1041.28 25.75 1041.72 25.75C1042.12 25.75 1042.48 25.8667 1042.79 26.1C1043.11 26.3333 1043.36 26.6417 1043.54 27.025C1043.73 27.4083 1043.82 27.8167 1043.82 28.25C1043.82 28.9 1043.61 29.45 1043.19 29.9C1042.78 30.3333 1042.24 30.55 1041.59 30.55ZM1041.57 29.25C1041.85 29.25 1042.09 29.1583 1042.29 28.975C1042.51 28.7917 1042.62 28.55 1042.62 28.25C1042.62 27.9333 1042.51 27.675 1042.29 27.475C1042.08 27.2583 1041.84 27.15 1041.59 27.15C1041.28 27.15 1041.03 27.2583 1040.84 27.475C1040.68 27.6917 1040.59 27.9417 1040.59 28.225C1040.59 28.525 1040.68 28.775 1040.87 28.975C1041.05 29.1583 1041.28 29.25 1041.57 29.25ZM1037.69 44.125L1037.92 42.075C1038.78 42.075 1039.63 42.0083 1040.47 41.875C1041.3 41.7417 1042.12 41.55 1042.92 41.3C1043.72 41.05 1044.48 40.75 1045.22 40.4C1045.97 40.0333 1046.67 39.6167 1047.34 39.15C1046.91 38.7667 1046.41 38.4333 1045.84 38.15C1045.27 37.8667 1044.65 37.65 1043.97 37.5C1043.3 37.3333 1042.59 37.25 1041.84 37.25C1041.57 37.25 1041.32 37.2583 1041.09 37.275C1040.86 37.2917 1040.62 37.325 1040.39 37.375C1040.16 37.4083 1039.89 37.4583 1039.59 37.525L1039.19 35.625C1039.64 35.4917 1040.09 35.3917 1040.54 35.325C1040.99 35.2417 1041.42 35.2 1041.84 35.2C1042.71 35.2 1043.49 35.3083 1044.19 35.525C1044.89 35.725 1045.52 35.975 1046.09 36.275C1046.67 36.575 1047.22 36.875 1047.72 37.175C1048.23 37.475 1048.73 37.7333 1049.22 37.95C1049.7 38.15 1050.2 38.25 1050.72 38.25H1051.24L1051.42 40.05C1050.7 40.05 1050.04 40.15 1049.44 40.35C1048.84 40.55 1048.25 40.8083 1047.67 41.125C1047.1 41.425 1046.5 41.75 1045.87 42.1C1045.23 42.4333 1044.53 42.7583 1043.77 43.075C1043 43.375 1042.12 43.625 1041.12 43.825C1040.13 44.025 1038.99 44.125 1037.69 44.125ZM1052 25.95V24.55L1057.6 22.9V24.325L1052 25.95ZM1053.49 31.225C1052.82 31.225 1052.38 31.0083 1052.17 30.575C1051.95 30.125 1051.84 29.65 1051.84 29.15C1051.84 28.9667 1051.85 28.775 1051.87 28.575C1051.9 28.3583 1051.94 28.1167 1051.99 27.85L1053.24 27.5C1053.19 27.7833 1053.15 28.05 1053.12 28.3C1053.1 28.5333 1053.09 28.7417 1053.09 28.925C1053.09 29.2417 1053.14 29.475 1053.24 29.625C1053.34 29.775 1053.5 29.85 1053.72 29.85C1053.97 29.85 1054.17 29.725 1054.34 29.475C1054.51 29.2083 1054.6 28.6833 1054.62 27.9V27.15L1055.82 26.7V28.225C1055.82 28.4583 1055.86 28.6667 1055.94 28.85C1056.04 29.0167 1056.24 29.1 1056.54 29.1C1056.84 29.1 1057.04 29.0083 1057.14 28.825C1057.24 28.6417 1057.29 28.4083 1057.29 28.125C1057.29 27.8417 1057.26 27.5583 1057.19 27.275C1057.12 26.975 1057.03 26.6833 1056.92 26.4L1058.04 26.05C1058.21 26.3667 1058.34 26.7333 1058.44 27.15C1058.56 27.55 1058.62 27.9167 1058.62 28.25C1058.62 28.8 1058.46 29.3 1058.14 29.75C1057.84 30.1833 1057.37 30.4 1056.72 30.4C1056.2 30.4 1055.77 30.2667 1055.44 30C1055.12 29.7167 1054.97 29.3833 1054.97 29L1055.54 29.225C1055.54 29.7917 1055.34 30.2667 1054.94 30.65C1054.56 31.0333 1054.07 31.225 1053.49 31.225ZM1051.51 49.8L1050.79 47.9C1052 47.5 1053.01 47.0417 1053.81 46.525C1054.63 46.0083 1055.27 45.4583 1055.74 44.875C1056.22 44.2917 1056.56 43.7 1056.76 43.1C1056.96 42.4833 1057.06 41.8917 1057.06 41.325C1057.06 40.5083 1056.88 39.6833 1056.51 38.85C1056.16 38 1055.77 37.2 1055.34 36.45L1057.16 35.525C1057.48 36.1083 1057.75 36.6833 1057.99 37.25C1058.24 37.8167 1058.45 38.35 1058.64 38.85C1058.84 39.35 1058.99 39.8083 1059.11 40.225C1059.34 40.9417 1059.64 41.4333 1060.01 41.7C1060.39 41.95 1060.91 42.075 1061.56 42.075C1061.91 42.075 1062.16 42.175 1062.31 42.375C1062.48 42.5583 1062.56 42.7833 1062.56 43.05C1062.56 43.3167 1062.44 43.5667 1062.21 43.8C1061.98 44.0167 1061.68 44.125 1061.31 44.125C1060.58 44.125 1059.98 44 1059.51 43.75C1059.06 43.4833 1058.72 43.1417 1058.49 42.725C1058.25 42.2917 1058.09 41.8417 1058.01 41.375L1058.81 41.825C1058.81 42.925 1058.56 43.925 1058.06 44.825C1057.58 45.7417 1056.95 46.5333 1056.19 47.2C1055.42 47.8833 1054.62 48.4417 1053.79 48.875C1052.95 49.3083 1052.19 49.6167 1051.51 49.8ZM1061.32 44.125L1061.55 42.075C1062.5 42.075 1063.16 41.9833 1063.55 41.8C1063.93 41.6167 1064.15 41.2917 1064.2 40.825C1064.26 40.3583 1064.28 39.7083 1064.25 38.875L1063.77 26.15H1065.8L1066.3 38.65C1066.33 39.5333 1066.3 40.3167 1066.2 41C1066.11 41.6833 1065.9 42.2583 1065.55 42.725C1065.21 43.1917 1064.71 43.5417 1064.02 43.775C1063.36 44.0083 1062.46 44.125 1061.32 44.125ZM1070.12 44L1069.62 26.15H1071.64L1072.14 44H1070.12ZM1084.05 48.275V46.875L1089.65 45.225V46.65L1084.05 48.275ZM1092.42 44.125C1091.52 44.125 1090.72 44 1090.02 43.75C1089.33 43.4833 1088.78 43.0417 1088.37 42.425C1087.97 41.7917 1087.74 40.9167 1087.69 39.8L1087.29 31.1H1089.32L1089.72 39.35C1089.77 40.1333 1089.91 40.725 1090.14 41.125C1090.38 41.5083 1090.7 41.7667 1091.12 41.9C1091.55 42.0167 1092.07 42.075 1092.67 42.075C1093.02 42.075 1093.27 42.175 1093.42 42.375C1093.58 42.5583 1093.67 42.7833 1093.67 43.05C1093.67 43.3167 1093.55 43.5667 1093.32 43.8C1093.08 44.0167 1092.78 44.125 1092.42 44.125ZM1088.64 41.375C1087.69 41.675 1086.77 41.825 1085.87 41.825C1084.97 41.825 1084.15 41.6917 1083.42 41.425C1082.68 41.1583 1082.1 40.775 1081.67 40.275C1081.23 39.7583 1081.02 39.1417 1081.02 38.425C1081.02 37.725 1081.19 37.0667 1081.54 36.45C1081.91 35.8333 1082.4 35.2833 1083.02 34.8C1083.65 34.3167 1084.38 33.9167 1085.19 33.6C1086.03 33.2667 1086.91 33.0417 1087.84 32.925L1088.19 35.025C1087.36 35.0583 1086.62 35.175 1085.97 35.375C1085.33 35.5583 1084.79 35.8 1084.34 36.1C1083.91 36.4 1083.58 36.725 1083.34 37.075C1083.11 37.425 1082.99 37.7667 1082.99 38.1C1082.99 38.4667 1083.13 38.7667 1083.39 39C1083.66 39.2333 1084 39.4167 1084.42 39.55C1084.83 39.6667 1085.29 39.7417 1085.79 39.775C1086.29 39.7917 1086.78 39.775 1087.24 39.725C1087.71 39.6583 1088.11 39.5667 1088.44 39.45L1088.64 41.375ZM1094.92 16.975L1094.77 12.65H1096.15L1096.3 16.975H1094.92ZM1094.04 22.225C1093.38 22.225 1092.93 22.0083 1092.72 21.575C1092.5 21.125 1092.39 20.65 1092.39 20.15C1092.39 19.9667 1092.4 19.775 1092.42 19.575C1092.45 19.3583 1092.49 19.1167 1092.54 18.85L1093.79 18.5C1093.74 18.7833 1093.7 19.05 1093.67 19.3C1093.65 19.5333 1093.64 19.7417 1093.64 19.925C1093.64 20.2417 1093.69 20.475 1093.79 20.625C1093.89 20.775 1094.05 20.85 1094.27 20.85C1094.52 20.85 1094.73 20.725 1094.89 20.475C1095.06 20.2083 1095.15 19.6833 1095.17 18.9V18.15L1096.37 17.7V19.225C1096.37 19.4583 1096.41 19.6667 1096.49 19.85C1096.59 20.0167 1096.79 20.1 1097.09 20.1C1097.39 20.1 1097.59 20.0083 1097.69 19.825C1097.79 19.6417 1097.84 19.4083 1097.84 19.125C1097.84 18.8417 1097.81 18.5583 1097.74 18.275C1097.68 17.975 1097.58 17.6833 1097.47 17.4L1098.59 17.05C1098.76 17.3667 1098.89 17.7333 1098.99 18.15C1099.11 18.55 1099.17 18.9167 1099.17 19.25C1099.17 19.8 1099.01 20.3 1098.69 20.75C1098.39 21.1833 1097.92 21.4 1097.27 21.4C1096.75 21.4 1096.33 21.2667 1095.99 21C1095.68 20.7167 1095.52 20.3833 1095.52 20L1096.09 20.225C1096.09 20.7917 1095.89 21.2667 1095.49 21.65C1095.11 22.0333 1094.63 22.225 1094.04 22.225ZM1092.43 44.125L1092.65 42.075C1093.6 42.075 1094.27 41.9833 1094.65 41.8C1095.03 41.6167 1095.25 41.2917 1095.3 40.825C1095.37 40.3583 1095.38 39.7083 1095.35 38.875L1094.93 26.15H1097L1097.4 38.825C1097.43 39.675 1097.57 40.3417 1097.8 40.825C1098.05 41.2917 1098.38 41.6167 1098.8 41.8C1099.22 41.9833 1099.68 42.075 1100.18 42.075C1100.53 42.075 1100.78 42.175 1100.93 42.375C1101.09 42.5583 1101.18 42.7833 1101.18 43.05C1101.18 43.3167 1101.06 43.5667 1100.83 43.8C1100.59 44.0167 1100.29 44.125 1099.93 44.125C1099.23 44.125 1098.64 44.0167 1098.18 43.8C1097.73 43.5667 1097.37 43.275 1097.1 42.925C1096.85 42.5583 1096.68 42.175 1096.6 41.775L1097.13 41.825C1096.96 42.325 1096.68 42.75 1096.3 43.1C1095.93 43.4333 1095.43 43.6917 1094.8 43.875C1094.17 44.0417 1093.38 44.125 1092.43 44.125ZM1099.92 44.125L1100.15 42.075C1101.1 42.075 1101.76 41.9833 1102.15 41.8C1102.53 41.6167 1102.75 41.2917 1102.8 40.825C1102.86 40.3583 1102.88 39.7083 1102.85 38.875L1102.37 26.15H1104.4L1104.9 38.65C1104.93 39.5333 1104.9 40.3167 1104.8 41C1104.71 41.6833 1104.5 42.2583 1104.15 42.725C1103.81 43.1917 1103.3 43.5417 1102.62 43.775C1101.95 44.0083 1101.05 44.125 1099.92 44.125ZM1108.72 44L1108.22 26.15H1110.24L1110.74 44H1108.72ZM1123.33 48.275V46.875L1128.93 45.225V46.65L1123.33 48.275ZM1120.79 53.825C1120.44 52.5417 1120.14 51.2833 1119.89 50.05C1119.64 48.8333 1119.45 47.7417 1119.32 46.775C1119.18 45.8083 1119.12 45.0917 1119.12 44.625C1119.12 43.3917 1119.32 42.2667 1119.72 41.25C1120.12 40.2333 1120.63 39.3417 1121.27 38.575C1121.9 37.7917 1122.58 37.1333 1123.32 36.6C1124.05 36.05 1124.76 35.6417 1125.44 35.375C1126.14 35.0917 1126.73 34.95 1127.22 34.95C1127.63 34.95 1128 35.0417 1128.32 35.225C1128.63 35.4083 1128.94 35.7667 1129.24 36.3C1129.54 36.8333 1129.86 37.6167 1130.19 38.65C1130.51 39.6 1130.81 40.325 1131.09 40.825C1131.38 41.3083 1131.68 41.6417 1132.02 41.825C1132.35 41.9917 1132.73 42.075 1133.17 42.075C1133.52 42.075 1133.77 42.175 1133.92 42.375C1134.08 42.5583 1134.17 42.7833 1134.17 43.05C1134.17 43.3167 1134.05 43.5667 1133.82 43.8C1133.58 44.0167 1133.28 44.125 1132.92 44.125C1132.27 44.125 1131.71 44.0083 1131.24 43.775C1130.79 43.5417 1130.4 43.225 1130.07 42.825L1130.64 42.35C1130.44 42.8333 1130.18 43.2333 1129.87 43.55C1129.57 43.85 1129.23 44.075 1128.84 44.225C1128.48 44.375 1128.08 44.45 1127.67 44.45C1127.18 44.45 1126.68 44.3583 1126.17 44.175C1125.65 44.0083 1125.14 43.7583 1124.64 43.425C1124.14 43.075 1123.67 42.65 1123.22 42.15C1122.78 41.65 1122.4 41.0833 1122.07 40.45L1122.32 40.5C1121.85 41.15 1121.54 41.8583 1121.39 42.625C1121.24 43.375 1121.17 44.0417 1121.17 44.625C1121.17 45.0917 1121.22 45.6833 1121.32 46.4C1121.42 47.1333 1121.54 47.9083 1121.69 48.725C1121.86 49.5417 1122.03 50.35 1122.22 51.15C1122.42 51.9667 1122.6 52.7 1122.77 53.35L1120.79 53.825ZM1127.87 42.4C1128.17 42.4 1128.41 42.3417 1128.59 42.225C1128.79 42.1083 1128.93 41.9333 1128.99 41.7C1129.06 41.4667 1129.03 41.175 1128.92 40.825C1128.72 40.225 1128.53 39.7 1128.37 39.25C1128.2 38.7833 1128.03 38.4 1127.87 38.1C1127.72 37.7833 1127.56 37.55 1127.39 37.4C1127.23 37.25 1127.05 37.175 1126.87 37.175C1126.68 37.175 1126.45 37.2167 1126.17 37.3C1125.9 37.3833 1125.61 37.5083 1125.29 37.675C1124.99 37.8417 1124.68 38.05 1124.37 38.3C1124.05 38.55 1123.75 38.8417 1123.47 39.175L1123.49 38.975C1123.86 39.7417 1124.3 40.3833 1124.82 40.9C1125.35 41.4167 1125.88 41.8 1126.42 42.05C1126.97 42.2833 1127.45 42.4 1127.87 42.4ZM1143.35 31.55C1142.63 31.55 1142.09 31.3333 1141.72 30.9C1141.37 30.4667 1141.2 29.9583 1141.2 29.375C1141.2 28.8917 1141.29 28.4583 1141.47 28.075C1141.67 27.675 1141.95 27.3583 1142.3 27.125C1142.65 26.875 1143.04 26.75 1143.47 26.75C1143.87 26.75 1144.23 26.8667 1144.55 27.1C1144.87 27.3333 1145.12 27.6417 1145.3 28.025C1145.48 28.4083 1145.57 28.8167 1145.57 29.25C1145.57 29.9 1145.37 30.45 1144.95 30.9C1144.53 31.3333 1144 31.55 1143.35 31.55ZM1143.32 30.25C1143.61 30.25 1143.85 30.1583 1144.05 29.975C1144.27 29.7917 1144.37 29.55 1144.37 29.25C1144.37 28.9333 1144.27 28.675 1144.05 28.475C1143.83 28.2583 1143.6 28.15 1143.35 28.15C1143.03 28.15 1142.78 28.2583 1142.6 28.475C1142.43 28.6917 1142.35 28.9417 1142.35 29.225C1142.35 29.525 1142.44 29.775 1142.62 29.975C1142.81 30.1583 1143.04 30.25 1143.32 30.25ZM1132.9 44.125L1133.15 42.075C1133.69 42.075 1134.12 42.0417 1134.45 41.975C1134.79 41.8917 1135.06 41.7 1135.28 41.4C1135.51 41.0833 1135.73 40.5917 1135.93 39.925C1136.13 39.2583 1136.36 38.325 1136.63 37.125L1138.5 37.65C1138.4 38.0667 1138.29 38.5667 1138.15 39.15C1138.02 39.7333 1137.95 40.2667 1137.95 40.75C1137.95 41.0167 1138.02 41.25 1138.15 41.45C1138.29 41.65 1138.51 41.8083 1138.83 41.925C1139.16 42.025 1139.6 42.075 1140.15 42.075C1140.65 42.075 1141.06 42.0333 1141.38 41.95C1141.7 41.8667 1141.95 41.6667 1142.15 41.35C1142.37 41.0333 1142.56 40.525 1142.73 39.825C1142.9 39.125 1143.07 38.1667 1143.25 36.95L1145.15 37.3C1145.1 37.6 1145.05 37.9667 1144.98 38.4C1144.91 38.8333 1144.85 39.2667 1144.78 39.7C1144.73 40.1167 1144.7 40.4667 1144.7 40.75C1144.7 40.9833 1144.75 41.2083 1144.85 41.425C1144.97 41.625 1145.19 41.7833 1145.5 41.9C1145.84 42.0167 1146.33 42.075 1146.98 42.075C1147.81 42.075 1148.41 41.9 1148.78 41.55C1149.16 41.2 1149.36 40.6667 1149.36 39.95C1149.36 39.5667 1149.35 39.1667 1149.33 38.75C1149.31 38.3167 1149.28 37.8417 1149.23 37.325C1149.2 36.7917 1149.14 36.1833 1149.05 35.5L1150.88 35.375C1150.98 36.725 1151.09 37.8333 1151.21 38.7C1151.34 39.5667 1151.52 40.25 1151.75 40.75C1152 41.2333 1152.34 41.575 1152.75 41.775C1153.17 41.975 1153.72 42.075 1154.4 42.075C1154.75 42.075 1155 42.175 1155.15 42.375C1155.32 42.5583 1155.4 42.7833 1155.4 43.05C1155.4 43.3167 1155.29 43.5667 1155.05 43.8C1154.82 44.0167 1154.52 44.125 1154.15 44.125C1153.59 44.125 1153.08 44.05 1152.63 43.9C1152.2 43.7333 1151.81 43.5167 1151.48 43.25C1151.16 42.9667 1150.9 42.65 1150.68 42.3C1150.48 41.9333 1150.34 41.55 1150.25 41.15L1150.7 41.3C1150.52 42.05 1150.23 42.6333 1149.83 43.05C1149.45 43.45 1148.99 43.7333 1148.45 43.9C1147.92 44.05 1147.35 44.125 1146.75 44.125C1146.02 44.125 1145.42 44.0333 1144.95 43.85C1144.49 43.6667 1144.12 43.3917 1143.85 43.025C1143.6 42.6417 1143.44 42.1583 1143.35 41.575H1144.2C1143.89 42.2917 1143.55 42.8333 1143.2 43.2C1142.85 43.5667 1142.42 43.8167 1141.9 43.95C1141.39 44.0667 1140.7 44.125 1139.85 44.125C1139.44 44.125 1138.99 44.0583 1138.5 43.925C1138.04 43.7917 1137.63 43.5333 1137.28 43.15C1136.93 42.75 1136.72 42.1583 1136.65 41.375L1137.4 41.225C1137.12 42.075 1136.77 42.7083 1136.35 43.125C1135.95 43.525 1135.47 43.7917 1134.9 43.925C1134.34 44.0583 1133.67 44.125 1132.9 44.125ZM1154.27 53.275V51.875L1159.87 50.225V51.65L1154.27 53.275ZM1154.15 44.125L1154.4 42.075C1155.21 42.075 1155.86 42.025 1156.35 41.925C1156.83 41.825 1157.18 41.625 1157.4 41.325C1157.61 41.0083 1157.72 40.5417 1157.72 39.925C1157.72 39.5083 1157.65 39.0167 1157.52 38.45C1157.39 37.8667 1157.21 37.25 1157 36.6C1156.78 35.95 1156.55 35.3083 1156.3 34.675L1158.32 33.925C1158.54 34.4583 1158.74 35.0667 1158.92 35.75C1159.12 36.4333 1159.29 37.1083 1159.42 37.775C1159.55 38.4417 1159.62 39.025 1159.62 39.525C1159.62 40.1917 1159.55 40.7833 1159.4 41.3C1159.26 41.8 1159.05 42.2333 1158.77 42.6C1158.49 42.95 1158.12 43.2417 1157.67 43.475C1157.24 43.6917 1156.73 43.8583 1156.15 43.975C1155.56 44.075 1154.9 44.125 1154.15 44.125ZM1156.82 48.775C1156.47 48.775 1156.17 48.65 1155.92 48.4C1155.69 48.1667 1155.57 47.8833 1155.57 47.55C1155.57 47.2167 1155.69 46.925 1155.92 46.675C1156.17 46.425 1156.47 46.3 1156.82 46.3C1157.15 46.3 1157.44 46.425 1157.67 46.675C1157.92 46.925 1158.05 47.2167 1158.05 47.55C1158.05 47.8833 1157.92 48.1667 1157.67 48.4C1157.44 48.65 1157.15 48.775 1156.82 48.775Z" fill="black" fill-opacity="0.75"/>
<g clip-path="url(#clip0_165_44)">
<path d="M70.347 38.6016L70.2494 29.3726C70.2409 28.5636 69.5781 27.9147 68.7692 27.9233L59.5401 28.0209L53.0367 21.6802C52.459 21.1171 51.535 21.1269 50.9695 21.702L44.6017 28.1788L35.3726 28.2764C34.5636 28.2849 33.9148 28.9477 33.9233 29.7566L34.0209 38.9857L27.6802 45.4891C27.1171 46.0667 27.1269 46.9908 27.7021 47.5563L34.1788 53.9241L34.2764 63.1532C34.2849 63.9621 34.9477 64.611 35.7566 64.6025L44.9857 64.5049L51.489 70.8456C51.7779 71.1271 52.1533 71.2654 52.5272 71.2615C52.9011 71.2575 53.2735 71.1113 53.5562 70.8237L59.9241 64.347L69.1532 64.2494C69.9621 64.2408 70.611 63.5781 70.6025 62.7691L70.5049 53.5401L76.8456 47.0367C77.4087 46.4592 77.3989 45.5351 76.8237 44.9696L70.347 38.6016ZM67.9849 51.9279C67.7145 52.2054 67.5649 52.5786 67.569 52.966L67.6575 61.3353L59.2882 61.4238C58.9008 61.4279 58.5308 61.5854 58.2592 61.8616L52.4899 67.7295L46.5978 61.9849C46.3204 61.7144 45.9472 61.5649 45.5598 61.569L37.1904 61.6574L37.1019 53.2882C37.0979 52.9008 36.9404 52.5308 36.6642 52.2592L30.7962 46.4898L36.5409 40.5978C36.8113 40.3203 36.9609 39.9471 36.9568 39.5598L36.8683 31.1904L45.2376 31.1019C45.625 31.0978 45.995 30.9404 46.2666 30.6642L52.0359 24.7962L57.9281 30.5409C58.2055 30.8113 58.5787 30.9609 58.9661 30.9568L67.3354 30.8683L67.4238 39.2376C67.4279 39.6249 67.5854 39.995 67.8616 40.2666L73.7296 46.0359L67.9849 51.9279Z" fill="black"/>
</g>
<g clip-path="url(#clip1_165_44)">
<path d="M70.347 38.6016L70.2494 29.3726C70.2409 28.5636 69.5781 27.9147 68.7692 27.9233L59.5401 28.0209L53.0367 21.6802C52.459 21.1171 51.535 21.1269 50.9695 21.702L44.6017 28.1788L35.3726 28.2764C34.5636 28.2849 33.9148 28.9477 33.9233 29.7566L34.0209 38.9857L27.6802 45.4891C27.1171 46.0667 27.1269 46.9908 27.7021 47.5563L34.1788 53.9241L34.2764 63.1532C34.2849 63.9621 34.9477 64.611 35.7566 64.6025L44.9857 64.5049L51.489 70.8456C51.7779 71.1271 52.1533 71.2654 52.5272 71.2615C52.9011 71.2575 53.2735 71.1113 53.5562 70.8237L59.9241 64.347L69.1532 64.2494C69.9621 64.2408 70.611 63.5781 70.6025 62.7691L70.5049 53.5401L76.8456 47.0367C77.4087 46.4592 77.3989 45.5351 76.8237 44.9696L70.347 38.6016ZM67.9849 51.9279C67.7145 52.2054 67.5649 52.5786 67.569 52.966L67.6575 61.3353L59.2882 61.4238C58.9008 61.4279 58.5308 61.5854 58.2592 61.8616L52.4899 67.7295L46.5978 61.9849C46.3204 61.7144 45.9472 61.5649 45.5598 61.569L37.1904 61.6574L37.1019 53.2882C37.0979 52.9008 36.9404 52.5308 36.6642 52.2592L30.7962 46.4898L36.5409 40.5978C36.8113 40.3203 36.9609 39.9471 36.9568 39.5598L36.8683 31.1904L45.2376 31.1019C45.625 31.0978 45.995 30.9404 46.2666 30.6642L52.0359 24.7962L57.9281 30.5409C58.2055 30.8113 58.5787 30.9609 58.9661 30.9568L67.3354 30.8683L67.4238 39.2376C67.4279 39.6249 67.5854 39.995 67.8616 40.2666L73.7296 46.0359L67.9849 51.9279Z" fill="black"/>
<path d="M47.02 51.54C48.7133 50.18 50.04 49.0666 51 48.2C51.96 47.32 52.7667 46.4066 53.42 45.46C54.0867 44.5 54.42 43.56 54.42 42.64C54.42 41.7733 54.2067 41.0933 53.78 40.6C53.3667 40.0933 52.6933 39.84 51.76 39.84C50.8533 39.84 50.1467 40.1266 49.64 40.7C49.1467 41.26 48.88 42.0133 48.84 42.96L47.08 42.96C47.1333 41.4666 47.5867 40.3133 48.44 39.5C49.2933 38.6866 50.3933 38.28 51.74 38.28C53.1133 38.28 54.2 38.66 55 39.42C55.8133 40.18 56.22 41.2266 56.22 42.56C56.22 43.6666 55.8867 44.7466 55.22 45.8C54.5667 46.84 53.82 47.76 52.98 48.56C52.14 49.3466 51.0667 50.2666 49.76 51.32L56.64 51.32L56.64 52.84L47.02 52.84L47.02 51.54Z" fill="black"/>
</g>
<defs>
<clipPath id="clip0_165_44">
<rect width="50" height="50" fill="white" transform="translate(27 21.5286) rotate(-0.605732)"/>
</clipPath>
<clipPath id="clip1_165_44">
<rect width="50" height="50" fill="white" transform="translate(27 21.5286) rotate(-0.605732)"/>
</clipPath>
</defs>
</svg>
