<svg width="1273" height="124" viewBox="0 0 1273 124" fill="none" xmlns="http://www.w3.org/2000/svg">
<rect width="1273" height="92" rx="10" fill="#79CE7F"/>
<path d="M133.35 34.45H126.075L124.825 38H121.85L128.075 20.6H131.375L137.6 38H134.6L133.35 34.45ZM132.55 32.125L129.725 24.05L126.875 32.125H132.55ZM143.157 19.5V38H140.307V19.5H143.157ZM157.473 27.75V30.15H147.198V27.75H157.473ZM171.747 20.625V22.95H164.372V28.075H170.122V30.4H164.372V38H161.522V20.625H171.747ZM173.439 31.05C173.439 29.6667 173.722 28.4417 174.289 27.375C174.872 26.3083 175.655 25.4833 176.639 24.9C177.639 24.3 178.739 24 179.939 24C181.022 24 181.964 24.2167 182.764 24.65C183.58 25.0667 184.23 25.5917 184.714 26.225V24.225H187.589V38H184.714V35.95C184.23 36.6 183.572 37.1417 182.739 37.575C181.905 38.0083 180.955 38.225 179.889 38.225C178.705 38.225 177.622 37.925 176.639 37.325C175.655 36.7083 174.872 35.8583 174.289 34.775C173.722 33.675 173.439 32.4333 173.439 31.05ZM184.714 31.1C184.714 30.15 184.514 29.325 184.114 28.625C183.73 27.925 183.222 27.3917 182.589 27.025C181.955 26.6583 181.272 26.475 180.539 26.475C179.805 26.475 179.122 26.6583 178.489 27.025C177.855 27.375 177.339 27.9 176.939 28.6C176.555 29.2833 176.364 30.1 176.364 31.05C176.364 32 176.555 32.8333 176.939 33.55C177.339 34.2667 177.855 34.8167 178.489 35.2C179.139 35.5667 179.822 35.75 180.539 35.75C181.272 35.75 181.955 35.5667 182.589 35.2C183.222 34.8333 183.73 34.3 184.114 33.6C184.514 32.8833 184.714 32.05 184.714 31.1ZM194.657 26.55V34.175C194.657 34.6917 194.774 35.0667 195.007 35.3C195.257 35.5167 195.674 35.625 196.257 35.625H198.007V38H195.757C194.474 38 193.49 37.7 192.807 37.1C192.124 36.5 191.782 35.525 191.782 34.175V26.55H190.157V24.225H191.782V20.8H194.657V24.225H198.007V26.55H194.657ZM202.084 22.4C201.567 22.4 201.134 22.225 200.784 21.875C200.434 21.525 200.259 21.0917 200.259 20.575C200.259 20.0583 200.434 19.625 200.784 19.275C201.134 18.925 201.567 18.75 202.084 18.75C202.584 18.75 203.009 18.925 203.359 19.275C203.709 19.625 203.884 20.0583 203.884 20.575C203.884 21.0917 203.709 21.525 203.359 21.875C203.009 22.225 202.584 22.4 202.084 22.4ZM203.484 24.225V38H200.634V24.225H203.484ZM214.351 24C215.401 24 216.334 24.225 217.151 24.675C217.984 25.125 218.634 25.7917 219.101 26.675C219.584 27.5583 219.826 28.625 219.826 29.875V38H217.001V30.3C217.001 29.0667 216.692 28.125 216.076 27.475C215.459 26.8083 214.617 26.475 213.551 26.475C212.484 26.475 211.634 26.8083 211.001 27.475C210.384 28.125 210.076 29.0667 210.076 30.3V38H207.226V19.5H210.076V25.825C210.559 25.2417 211.167 24.7917 211.901 24.475C212.651 24.1583 213.467 24 214.351 24ZM222.511 31.05C222.511 29.6667 222.794 28.4417 223.361 27.375C223.944 26.3083 224.728 25.4833 225.711 24.9C226.711 24.3 227.811 24 229.011 24C230.094 24 231.036 24.2167 231.836 24.65C232.653 25.0667 233.303 25.5917 233.786 26.225V24.225H236.661V38H233.786V35.95C233.303 36.6 232.644 37.1417 231.811 37.575C230.978 38.0083 230.028 38.225 228.961 38.225C227.778 38.225 226.694 37.925 225.711 37.325C224.728 36.7083 223.944 35.8583 223.361 34.775C222.794 33.675 222.511 32.4333 222.511 31.05ZM233.786 31.1C233.786 30.15 233.586 29.325 233.186 28.625C232.803 27.925 232.294 27.3917 231.661 27.025C231.028 26.6583 230.344 26.475 229.611 26.475C228.878 26.475 228.194 26.6583 227.561 27.025C226.928 27.375 226.411 27.9 226.011 28.6C225.628 29.2833 225.436 30.1 225.436 31.05C225.436 32 225.628 32.8333 226.011 33.55C226.411 34.2667 226.928 34.8167 227.561 35.2C228.211 35.5667 228.894 35.75 229.611 35.75C230.344 35.75 231.028 35.5667 231.661 35.2C232.294 34.8333 232.803 34.3 233.186 33.6C233.586 32.8833 233.786 32.05 233.786 31.1ZM247.529 24C248.579 24 249.513 24.225 250.329 24.675C251.163 25.125 251.813 25.7917 252.279 26.675C252.763 27.5583 253.004 28.625 253.004 29.875V38H250.179V30.3C250.179 29.0667 249.871 28.125 249.254 27.475C248.638 26.8083 247.796 26.475 246.729 26.475C245.663 26.475 244.813 26.8083 244.179 27.475C243.563 28.125 243.254 29.0667 243.254 30.3V38H240.404V19.5H243.254V25.825C243.738 25.2417 244.346 24.7917 245.079 24.475C245.829 24.1583 246.646 24 247.529 24Z" fill="black" fill-opacity="0.75"/>
<path d="M131.86 63.759C131.86 64.919 131.46 65.8857 130.66 66.659C129.873 67.419 128.667 67.799 127.04 67.799H124.36V73.619H122.54V59.679H127.04C128.613 59.679 129.807 60.059 130.62 60.819C131.447 61.579 131.86 62.559 131.86 63.759ZM127.04 66.299C128.053 66.299 128.8 66.079 129.28 65.639C129.76 65.199 130 64.5724 130 63.759C130 62.039 129.013 61.179 127.04 61.179H124.36V66.299H127.04ZM144.122 67.719C144.122 68.0657 144.102 68.4324 144.062 68.819H135.302C135.369 69.899 135.735 70.7457 136.402 71.359C137.082 71.959 137.902 72.259 138.862 72.259C139.649 72.259 140.302 72.079 140.822 71.719C141.355 71.3457 141.729 70.8524 141.942 70.239H143.902C143.609 71.2924 143.022 72.1524 142.142 72.819C141.262 73.4724 140.169 73.799 138.862 73.799C137.822 73.799 136.889 73.5657 136.062 73.099C135.249 72.6324 134.609 71.9724 134.142 71.119C133.675 70.2524 133.442 69.2524 133.442 68.119C133.442 66.9857 133.669 65.9924 134.122 65.139C134.575 64.2857 135.209 63.6324 136.022 63.179C136.849 62.7124 137.795 62.479 138.862 62.479C139.902 62.479 140.822 62.7057 141.622 63.159C142.422 63.6124 143.035 64.239 143.462 65.039C143.902 65.8257 144.122 66.719 144.122 67.719ZM142.242 67.339C142.242 66.6457 142.089 66.0524 141.782 65.559C141.475 65.0524 141.055 64.6724 140.522 64.419C140.002 64.1524 139.422 64.019 138.782 64.019C137.862 64.019 137.075 64.3124 136.422 64.899C135.782 65.4857 135.415 66.299 135.322 67.339H142.242ZM159.704 62.459C160.558 62.459 161.318 62.639 161.984 62.999C162.651 63.3457 163.178 63.8724 163.564 64.579C163.951 65.2857 164.144 66.1457 164.144 67.159V73.619H162.344V67.419C162.344 66.3257 162.071 65.4924 161.524 64.919C160.991 64.3324 160.264 64.039 159.344 64.039C158.398 64.039 157.644 64.3457 157.084 64.959C156.524 65.559 156.244 66.4324 156.244 67.579V73.619H154.444V67.419C154.444 66.3257 154.171 65.4924 153.624 64.919C153.091 64.3324 152.364 64.039 151.444 64.039C150.498 64.039 149.744 64.3457 149.184 64.959C148.624 65.559 148.344 66.4324 148.344 67.579V73.619H146.524V62.659H148.344V64.239C148.704 63.6657 149.184 63.2257 149.784 62.919C150.398 62.6124 151.071 62.459 151.804 62.459C152.724 62.459 153.538 62.6657 154.244 63.079C154.951 63.4924 155.478 64.099 155.824 64.899C156.131 64.1257 156.638 63.5257 157.344 63.099C158.051 62.6724 158.838 62.459 159.704 62.459ZM168.95 64.699C169.323 64.0457 169.87 63.5124 170.59 63.099C171.31 62.6857 172.13 62.479 173.05 62.479C174.037 62.479 174.923 62.7124 175.71 63.179C176.497 63.6457 177.117 64.3057 177.57 65.159C178.023 65.999 178.25 66.979 178.25 68.099C178.25 69.2057 178.023 70.1924 177.57 71.059C177.117 71.9257 176.49 72.599 175.69 73.079C174.903 73.559 174.023 73.799 173.05 73.799C172.103 73.799 171.27 73.5924 170.55 73.179C169.843 72.7657 169.31 72.239 168.95 71.599V73.619H167.13V58.819H168.95V64.699ZM176.39 68.099C176.39 67.2724 176.223 66.5524 175.89 65.939C175.557 65.3257 175.103 64.859 174.53 64.539C173.97 64.219 173.35 64.059 172.67 64.059C172.003 64.059 171.383 64.2257 170.81 64.559C170.25 64.879 169.797 65.3524 169.45 65.979C169.117 66.5924 168.95 67.3057 168.95 68.119C168.95 68.9457 169.117 69.6724 169.45 70.299C169.797 70.9124 170.25 71.3857 170.81 71.719C171.383 72.039 172.003 72.199 172.67 72.199C173.35 72.199 173.97 72.039 174.53 71.719C175.103 71.3857 175.557 70.9124 175.89 70.299C176.223 69.6724 176.39 68.939 176.39 68.099ZM190.365 62.659V73.619H188.545V71.999C188.199 72.559 187.712 72.999 187.085 73.319C186.472 73.6257 185.792 73.779 185.045 73.779C184.192 73.779 183.425 73.6057 182.745 73.259C182.065 72.899 181.525 72.3657 181.125 71.659C180.739 70.9524 180.545 70.0924 180.545 69.079V62.659H182.345V68.839C182.345 69.919 182.619 70.7524 183.165 71.339C183.712 71.9124 184.459 72.199 185.405 72.199C186.379 72.199 187.145 71.899 187.705 71.299C188.265 70.699 188.545 69.8257 188.545 68.679V62.659H190.365ZM199.558 73.619L195.258 68.779V73.619H193.438V58.819H195.258V67.519L199.478 62.659H202.018L196.858 68.119L202.038 73.619H199.558ZM203.051 68.099C203.051 66.979 203.278 65.999 203.731 65.159C204.185 64.3057 204.805 63.6457 205.591 63.179C206.391 62.7124 207.278 62.479 208.251 62.479C209.211 62.479 210.045 62.6857 210.751 63.099C211.458 63.5124 211.985 64.0324 212.331 64.659V62.659H214.171V73.619H212.331V71.579C211.971 72.219 211.431 72.7524 210.711 73.179C210.005 73.5924 209.178 73.799 208.231 73.799C207.258 73.799 206.378 73.559 205.591 73.079C204.805 72.599 204.185 71.9257 203.731 71.059C203.278 70.1924 203.051 69.2057 203.051 68.099ZM212.331 68.119C212.331 67.2924 212.165 66.5724 211.831 65.959C211.498 65.3457 211.045 64.879 210.471 64.559C209.911 64.2257 209.291 64.059 208.611 64.059C207.931 64.059 207.311 64.219 206.751 64.539C206.191 64.859 205.745 65.3257 205.411 65.939C205.078 66.5524 204.911 67.2724 204.911 68.099C204.911 68.939 205.078 69.6724 205.411 70.299C205.745 70.9124 206.191 71.3857 206.751 71.719C207.311 72.039 207.931 72.199 208.611 72.199C209.291 72.199 209.911 72.039 210.471 71.719C211.045 71.3857 211.498 70.9124 211.831 70.299C212.165 69.6724 212.331 68.9457 212.331 68.119ZM216.567 68.099C216.567 66.979 216.794 65.999 217.247 65.159C217.7 64.3057 218.32 63.6457 219.107 63.179C219.907 62.7124 220.794 62.479 221.767 62.479C222.727 62.479 223.56 62.6857 224.267 63.099C224.974 63.5124 225.5 64.0324 225.847 64.659V62.659H227.687V73.619H225.847V71.579C225.487 72.219 224.947 72.7524 224.227 73.179C223.52 73.5924 222.694 73.799 221.747 73.799C220.774 73.799 219.894 73.559 219.107 73.079C218.32 72.599 217.7 71.9257 217.247 71.059C216.794 70.1924 216.567 69.2057 216.567 68.099ZM225.847 68.119C225.847 67.2924 225.68 66.5724 225.347 65.959C225.014 65.3457 224.56 64.879 223.987 64.559C223.427 64.2257 222.807 64.059 222.127 64.059C221.447 64.059 220.827 64.219 220.267 64.539C219.707 64.859 219.26 65.3257 218.927 65.939C218.594 66.5524 218.427 67.2724 218.427 68.099C218.427 68.939 218.594 69.6724 218.927 70.299C219.26 70.9124 219.707 71.3857 220.267 71.719C220.827 72.039 221.447 72.199 222.127 72.199C222.807 72.199 223.427 72.039 223.987 71.719C224.56 71.3857 225.014 70.9124 225.347 70.299C225.68 69.6724 225.847 68.9457 225.847 68.119ZM236.103 62.459C237.436 62.459 238.516 62.8657 239.343 63.679C240.169 64.479 240.583 65.639 240.583 67.159V73.619H238.783V67.419C238.783 66.3257 238.509 65.4924 237.963 64.919C237.416 64.3324 236.669 64.039 235.723 64.039C234.763 64.039 233.996 64.339 233.423 64.939C232.863 65.539 232.583 66.4124 232.583 67.559V73.619H230.763V62.659H232.583V64.219C232.943 63.659 233.429 63.2257 234.043 62.919C234.669 62.6124 235.356 62.459 236.103 62.459ZM253.568 77.339C252.288 76.0857 251.288 74.4924 250.568 72.559C249.861 70.6257 249.508 68.539 249.508 66.299C249.508 64.0057 249.881 61.8657 250.628 59.879C251.388 57.879 252.468 56.2324 253.868 54.939H255.768V55.119C254.274 56.519 253.148 58.2057 252.388 60.179C251.641 62.139 251.268 64.179 251.268 66.299C251.268 68.3657 251.621 70.339 252.328 72.219C253.048 74.099 254.094 75.7457 255.468 77.159V77.339H253.568ZM271.902 60.579L266.342 73.619H264.502L270.142 60.759H262.422V59.199H271.902V60.579ZM278.972 77.339V77.159C280.345 75.7457 281.385 74.099 282.092 72.219C282.812 70.339 283.172 68.3657 283.172 66.299C283.172 64.179 282.792 62.139 282.032 60.179C281.285 58.2057 280.165 56.519 278.672 55.119V54.939H280.572C281.972 56.2324 283.045 57.879 283.792 59.879C284.552 61.8657 284.932 64.0057 284.932 66.299C284.932 68.539 284.572 70.6257 283.852 72.559C283.145 74.4924 282.152 76.0857 280.872 77.339H278.972Z" fill="black" fill-opacity="0.75"/>
<path d="M943.5 50.275V48.875L949.1 47.225V48.65L943.5 50.275ZM940.958 55.825C940.608 54.5417 940.308 53.2833 940.058 52.05C939.808 50.8333 939.616 49.7417 939.483 48.775C939.35 47.8083 939.283 47.0917 939.283 46.625C939.283 45.3917 939.483 44.2667 939.883 43.25C940.283 42.2333 940.8 41.3417 941.433 40.575C942.066 39.7917 942.75 39.1333 943.483 38.6C944.216 38.05 944.925 37.6417 945.608 37.375C946.308 37.0917 946.9 36.95 947.383 36.95C947.8 36.95 948.166 37.0417 948.483 37.225C948.8 37.4083 949.108 37.7667 949.408 38.3C949.708 38.8333 950.025 39.6167 950.358 40.65C950.675 41.6 950.975 42.325 951.258 42.825C951.541 43.3083 951.85 43.6417 952.183 43.825C952.516 43.9917 952.9 44.075 953.333 44.075C953.683 44.075 953.933 44.175 954.083 44.375C954.25 44.5583 954.333 44.7833 954.333 45.05C954.333 45.3167 954.216 45.5667 953.983 45.8C953.75 46.0167 953.45 46.125 953.083 46.125C952.433 46.125 951.875 46.0083 951.408 45.775C950.958 45.5417 950.566 45.225 950.233 44.825L950.808 44.35C950.608 44.8333 950.35 45.2333 950.033 45.55C949.733 45.85 949.391 46.075 949.008 46.225C948.641 46.375 948.25 46.45 947.833 46.45C947.35 46.45 946.85 46.3583 946.333 46.175C945.816 46.0083 945.308 45.7583 944.808 45.425C944.308 45.075 943.833 44.65 943.383 44.15C942.95 43.65 942.566 43.0833 942.233 42.45L942.483 42.5C942.016 43.15 941.708 43.8583 941.558 44.625C941.408 45.375 941.333 46.0417 941.333 46.625C941.333 47.0917 941.383 47.6833 941.483 48.4C941.583 49.1333 941.708 49.9083 941.858 50.725C942.025 51.5417 942.2 52.35 942.383 53.15C942.583 53.9667 942.766 54.7 942.933 55.35L940.958 55.825ZM948.033 44.4C948.333 44.4 948.575 44.3417 948.758 44.225C948.958 44.1083 949.091 43.9333 949.158 43.7C949.225 43.4667 949.2 43.175 949.083 42.825C948.883 42.225 948.7 41.7 948.533 41.25C948.366 40.7833 948.2 40.4 948.033 40.1C947.883 39.7833 947.725 39.55 947.558 39.4C947.391 39.25 947.216 39.175 947.033 39.175C946.85 39.175 946.616 39.2167 946.333 39.3C946.066 39.3833 945.775 39.5083 945.458 39.675C945.158 39.8417 944.85 40.05 944.533 40.3C944.216 40.55 943.916 40.8417 943.633 41.175L943.658 40.975C944.025 41.7417 944.466 42.3833 944.983 42.9C945.516 43.4167 946.05 43.8 946.583 44.05C947.133 44.2833 947.616 44.4 948.033 44.4ZM957.729 34.55C957.013 34.55 956.471 34.3333 956.104 33.9C955.754 33.4667 955.579 32.9583 955.579 32.375C955.579 31.8917 955.671 31.4583 955.854 31.075C956.054 30.675 956.329 30.3583 956.679 30.125C957.029 29.875 957.421 29.75 957.854 29.75C958.254 29.75 958.613 29.8667 958.929 30.1C959.246 30.3333 959.496 30.6417 959.679 31.025C959.863 31.4083 959.954 31.8167 959.954 32.25C959.954 32.9 959.746 33.45 959.329 33.9C958.913 34.3333 958.379 34.55 957.729 34.55ZM957.704 33.25C957.988 33.25 958.229 33.1583 958.429 32.975C958.646 32.7917 958.754 32.55 958.754 32.25C958.754 31.9333 958.646 31.675 958.429 31.475C958.213 31.2583 957.979 31.15 957.729 31.15C957.413 31.15 957.163 31.2583 956.979 31.475C956.813 31.6917 956.729 31.9417 956.729 32.225C956.729 32.525 956.821 32.775 957.004 32.975C957.188 33.1583 957.421 33.25 957.704 33.25ZM953.071 46.125L953.321 44.075C954.154 44.075 954.804 44.0167 955.271 43.9C955.738 43.7667 956.088 43.525 956.321 43.175C956.571 42.8083 956.771 42.2833 956.921 41.6C957.071 40.9167 957.254 40.025 957.471 38.925L959.421 39.3C959.354 39.6 959.279 39.9333 959.196 40.3C959.113 40.6667 959.038 41.0333 958.971 41.4C958.921 41.75 958.896 42.0583 958.896 42.325C958.896 42.575 958.913 42.8083 958.946 43.025C958.979 43.2417 959.104 43.425 959.321 43.575C959.538 43.725 959.904 43.85 960.421 43.95C960.938 44.0333 961.679 44.075 962.646 44.075C962.996 44.075 963.246 44.175 963.396 44.375C963.563 44.5583 963.646 44.7833 963.646 45.05C963.646 45.3167 963.529 45.5667 963.296 45.8C963.063 46.0167 962.763 46.125 962.396 46.125C961.379 46.125 960.571 46.075 959.971 45.975C959.371 45.8583 958.913 45.6917 958.596 45.475C958.296 45.2583 958.079 44.9917 957.946 44.675C957.829 44.3417 957.738 43.9583 957.671 43.525L958.421 43.575C958.154 44.1083 957.863 44.5417 957.546 44.875C957.246 45.2083 956.896 45.4667 956.496 45.65C956.096 45.8333 955.613 45.9583 955.046 46.025C954.496 46.0917 953.838 46.125 953.071 46.125ZM959.371 50.85C959.021 50.85 958.721 50.725 958.471 50.475C958.238 50.2417 958.121 49.9583 958.121 49.625C958.121 49.2917 958.238 49 958.471 48.75C958.721 48.5 959.021 48.375 959.371 48.375C959.704 48.375 959.988 48.5 960.221 48.75C960.471 49 960.596 49.2917 960.596 49.625C960.596 49.9583 960.471 50.2417 960.221 50.475C959.988 50.725 959.704 50.85 959.371 50.85ZM955.946 50.85C955.596 50.85 955.296 50.725 955.046 50.475C954.813 50.2417 954.696 49.9583 954.696 49.625C954.696 49.2917 954.813 49 955.046 48.75C955.296 48.5 955.596 48.375 955.946 48.375C956.279 48.375 956.563 48.5 956.796 48.75C957.046 49 957.171 49.2917 957.171 49.625C957.171 49.9583 957.046 50.2417 956.796 50.475C956.563 50.725 956.279 50.85 955.946 50.85ZM966.815 50.275V48.875L972.415 47.225V48.65L966.815 50.275ZM962.397 46.125L962.622 44.075C963.489 44.075 964.339 44.0083 965.172 43.875C966.006 43.7417 966.822 43.55 967.622 43.3C968.422 43.05 969.189 42.75 969.922 42.4C970.672 42.0333 971.381 41.6167 972.047 41.15C971.614 40.7667 971.114 40.4333 970.547 40.15C969.981 39.8667 969.356 39.65 968.672 39.5C968.006 39.3333 967.297 39.25 966.547 39.25C966.281 39.25 966.031 39.2583 965.797 39.275C965.564 39.2917 965.331 39.325 965.097 39.375C964.864 39.4083 964.597 39.4583 964.297 39.525L963.897 37.625C964.347 37.4917 964.797 37.3917 965.247 37.325C965.697 37.2417 966.131 37.2 966.547 37.2C967.414 37.2 968.197 37.3083 968.897 37.525C969.597 37.725 970.231 37.975 970.797 38.275C971.381 38.575 971.922 38.875 972.422 39.175C972.939 39.475 973.439 39.7333 973.922 39.95C974.406 40.15 974.906 40.25 975.422 40.25H975.947L976.122 42.05C975.406 42.05 974.747 42.15 974.147 42.35C973.547 42.55 972.956 42.8083 972.372 43.125C971.806 43.425 971.206 43.75 970.572 44.1C969.939 44.4333 969.239 44.7583 968.472 45.075C967.706 45.375 966.822 45.625 965.822 45.825C964.839 46.025 963.697 46.125 962.397 46.125ZM976.703 27.95V26.55L982.303 24.9V26.325L976.703 27.95ZM978.198 33.225C977.531 33.225 977.09 33.0083 976.873 32.575C976.656 32.125 976.548 31.65 976.548 31.15C976.548 30.9667 976.556 30.775 976.573 30.575C976.606 30.3583 976.648 30.1167 976.698 29.85L977.948 29.5C977.898 29.7833 977.856 30.05 977.823 30.3C977.806 30.5333 977.798 30.7417 977.798 30.925C977.798 31.2417 977.848 31.475 977.948 31.625C978.048 31.775 978.206 31.85 978.423 31.85C978.673 31.85 978.881 31.725 979.048 31.475C979.215 31.2083 979.306 30.6833 979.323 29.9V29.15L980.523 28.7V30.225C980.523 30.4583 980.565 30.6667 980.648 30.85C980.748 31.0167 980.948 31.1 981.248 31.1C981.548 31.1 981.748 31.0083 981.848 30.825C981.948 30.6417 981.998 30.4083 981.998 30.125C981.998 29.8417 981.965 29.5583 981.898 29.275C981.831 28.975 981.74 28.6833 981.623 28.4L982.748 28.05C982.915 28.3667 983.048 28.7333 983.148 29.15C983.265 29.55 983.323 29.9167 983.323 30.25C983.323 30.8 983.165 31.3 982.848 31.75C982.548 32.1833 982.073 32.4 981.423 32.4C980.906 32.4 980.481 32.2667 980.148 32C979.831 31.7167 979.673 31.3833 979.673 31L980.248 31.225C980.248 31.7917 980.048 32.2667 979.648 32.65C979.265 33.0333 978.781 33.225 978.198 33.225ZM976.218 51.8L975.493 49.9C976.71 49.5 977.718 49.0417 978.518 48.525C979.335 48.0083 979.976 47.4583 980.443 46.875C980.926 46.2917 981.268 45.7 981.468 45.1C981.668 44.4833 981.768 43.8917 981.768 43.325C981.768 42.5083 981.585 41.6833 981.218 40.85C980.868 40 980.476 39.2 980.043 38.45L981.868 37.525C982.185 38.1083 982.46 38.6833 982.693 39.25C982.943 39.8167 983.16 40.35 983.343 40.85C983.543 41.35 983.701 41.8083 983.818 42.225C984.051 42.9417 984.351 43.4333 984.718 43.7C985.101 43.95 985.618 44.075 986.268 44.075C986.618 44.075 986.868 44.175 987.018 44.375C987.185 44.5583 987.268 44.7833 987.268 45.05C987.268 45.3167 987.151 45.5667 986.918 45.8C986.685 46.0167 986.385 46.125 986.018 46.125C985.285 46.125 984.685 46 984.218 45.75C983.768 45.4833 983.426 45.1417 983.193 44.725C982.96 44.2917 982.801 43.8417 982.718 43.375L983.518 43.825C983.518 44.925 983.268 45.925 982.768 46.825C982.285 47.7417 981.66 48.5333 980.893 49.2C980.126 49.8833 979.326 50.4417 978.493 50.875C977.66 51.3083 976.901 51.6167 976.218 51.8ZM986.03 46.125L986.255 44.075C987.205 44.075 987.872 43.9833 988.255 43.8C988.638 43.6167 988.855 43.2917 988.905 42.825C988.972 42.3583 988.988 41.7083 988.955 40.875L988.48 28.15H990.505L991.005 40.65C991.038 41.5333 991.005 42.3167 990.905 43C990.822 43.6833 990.605 44.2583 990.255 44.725C989.922 45.1917 989.413 45.5417 988.73 45.775C988.063 46.0083 987.163 46.125 986.03 46.125ZM994.824 46L994.324 28.15H996.349L996.849 46H994.824ZM1010.25 56.275V54.875L1015.85 53.225V54.65L1010.25 56.275ZM1005.73 46.025C1005.73 45.425 1005.81 44.7583 1005.98 44.025C1006.14 43.2917 1006.41 42.4833 1006.78 41.6L1008.58 42.3C1008.31 43 1008.11 43.6417 1007.98 44.225C1007.84 44.8083 1007.78 45.35 1007.78 45.85C1007.78 46.7667 1008 47.5083 1008.45 48.075C1008.92 48.6583 1009.53 49.0833 1010.3 49.35C1011.08 49.6167 1011.94 49.75 1012.88 49.75C1014.01 49.75 1014.96 49.625 1015.73 49.375C1016.49 49.1417 1017.1 48.8167 1017.55 48.4C1018 47.9833 1018.32 47.5083 1018.5 46.975C1018.7 46.4583 1018.8 45.9167 1018.8 45.35C1018.8 44.6167 1018.74 43.925 1018.63 43.275C1018.53 42.625 1018.38 41.9917 1018.2 41.375C1018.03 40.7417 1017.85 40.1 1017.65 39.45L1019.68 38.9C1019.86 39.5333 1020 40.05 1020.1 40.45C1020.2 40.8333 1020.28 41.1417 1020.33 41.375C1020.39 41.6083 1020.45 41.8167 1020.5 42C1020.68 42.6167 1020.93 43.075 1021.23 43.375C1021.53 43.6583 1021.87 43.85 1022.25 43.95C1022.65 44.0333 1023.06 44.075 1023.48 44.075C1023.83 44.075 1024.08 44.175 1024.23 44.375C1024.39 44.5583 1024.48 44.7833 1024.48 45.05C1024.48 45.3167 1024.36 45.5667 1024.13 45.8C1023.89 46.0167 1023.59 46.125 1023.23 46.125C1022.53 46.125 1021.94 46.0083 1021.48 45.775C1021.01 45.525 1020.64 45.2167 1020.38 44.85C1020.13 44.4833 1019.96 44.1 1019.88 43.7L1020.9 44.975C1020.85 45.825 1020.68 46.65 1020.4 47.45C1020.13 48.2667 1019.7 49 1019.1 49.65C1018.5 50.3167 1017.68 50.8417 1016.65 51.225C1015.63 51.6083 1014.35 51.8 1012.8 51.8C1011.85 51.8 1010.95 51.6833 1010.1 51.45C1009.25 51.2167 1008.49 50.8583 1007.83 50.375C1007.18 49.9083 1006.66 49.3083 1006.28 48.575C1005.91 47.8583 1005.73 47.0083 1005.73 46.025ZM1013.28 36.05C1012.93 36.05 1012.63 35.9333 1012.38 35.7C1012.14 35.45 1012.03 35.1583 1012.03 34.825C1012.03 34.4917 1012.14 34.2 1012.38 33.95C1012.63 33.7 1012.93 33.575 1013.28 33.575C1013.61 33.575 1013.89 33.7 1014.13 33.95C1014.38 34.2 1014.5 34.4917 1014.5 34.825C1014.5 35.1583 1014.38 35.45 1014.13 35.7C1013.89 35.9333 1013.61 36.05 1013.28 36.05ZM1030.03 32.975L1029.88 28.65H1031.25L1031.4 32.975H1030.03ZM1023.24 46.125L1023.49 44.075C1023.95 44.075 1024.32 43.975 1024.59 43.775C1024.87 43.575 1025.14 43.2417 1025.39 42.775C1025.65 42.3083 1025.99 41.6833 1026.39 40.9C1026.79 40.1 1027.19 39.45 1027.59 38.95C1028 38.4333 1028.4 38.0333 1028.79 37.75C1029.19 37.45 1029.56 37.2417 1029.91 37.125C1030.26 37.0083 1030.59 36.95 1030.89 36.95C1031.44 36.95 1031.93 37.075 1032.36 37.325C1032.8 37.5583 1033.2 37.9667 1033.59 38.55C1033.97 39.1167 1034.36 39.9 1034.76 40.9C1035.15 41.8167 1035.49 42.5083 1035.79 42.975C1036.1 43.425 1036.43 43.725 1036.76 43.875C1037.11 44.0083 1037.5 44.075 1037.94 44.075C1038.29 44.075 1038.54 44.175 1038.69 44.375C1038.85 44.5583 1038.94 44.7833 1038.94 45.05C1038.94 45.3167 1038.82 45.5667 1038.59 45.8C1038.35 46.0167 1038.05 46.125 1037.69 46.125C1037.04 46.125 1036.44 46.0167 1035.89 45.8C1035.35 45.5833 1034.9 45.2417 1034.54 44.775L1034.89 44.25C1034.7 44.7667 1034.45 45.1917 1034.14 45.525C1033.84 45.8417 1033.5 46.075 1033.11 46.225C1032.73 46.3917 1032.32 46.475 1031.89 46.475C1031.34 46.475 1030.77 46.3583 1030.19 46.125C1029.62 45.8917 1029.07 45.5583 1028.54 45.125C1028 44.6917 1027.54 44.1833 1027.14 43.6C1026.7 44.3667 1026.29 44.9333 1025.89 45.3C1025.5 45.65 1025.1 45.875 1024.69 45.975C1024.27 46.075 1023.79 46.125 1023.24 46.125ZM1028.09 41.7C1028.37 42.1667 1028.67 42.575 1028.99 42.925C1029.32 43.275 1029.65 43.5667 1029.99 43.8C1030.32 44.0167 1030.65 44.1833 1030.96 44.3C1031.3 44.4 1031.6 44.45 1031.86 44.45C1032.45 44.45 1032.87 44.2417 1033.14 43.825C1033.42 43.4083 1033.41 42.825 1033.11 42.075C1032.96 41.6917 1032.8 41.3167 1032.64 40.95C1032.49 40.5833 1032.32 40.25 1032.14 39.95C1031.95 39.6333 1031.75 39.3917 1031.51 39.225C1031.28 39.0417 1031.02 38.95 1030.74 38.95C1030.49 38.95 1030.22 39.0333 1029.94 39.2C1029.67 39.3667 1029.38 39.65 1029.06 40.05C1028.76 40.45 1028.44 41 1028.09 41.7ZM1041.59 32.55C1040.88 32.55 1040.33 32.3333 1039.97 31.9C1039.62 31.4667 1039.44 30.9583 1039.44 30.375C1039.44 29.8917 1039.53 29.4583 1039.72 29.075C1039.92 28.675 1040.19 28.3583 1040.54 28.125C1040.89 27.875 1041.28 27.75 1041.72 27.75C1042.12 27.75 1042.48 27.8667 1042.79 28.1C1043.11 28.3333 1043.36 28.6417 1043.54 29.025C1043.73 29.4083 1043.82 29.8167 1043.82 30.25C1043.82 30.9 1043.61 31.45 1043.19 31.9C1042.78 32.3333 1042.24 32.55 1041.59 32.55ZM1041.57 31.25C1041.85 31.25 1042.09 31.1583 1042.29 30.975C1042.51 30.7917 1042.62 30.55 1042.62 30.25C1042.62 29.9333 1042.51 29.675 1042.29 29.475C1042.08 29.2583 1041.84 29.15 1041.59 29.15C1041.28 29.15 1041.03 29.2583 1040.84 29.475C1040.68 29.6917 1040.59 29.9417 1040.59 30.225C1040.59 30.525 1040.68 30.775 1040.87 30.975C1041.05 31.1583 1041.28 31.25 1041.57 31.25ZM1037.69 46.125L1037.92 44.075C1038.78 44.075 1039.63 44.0083 1040.47 43.875C1041.3 43.7417 1042.12 43.55 1042.92 43.3C1043.72 43.05 1044.48 42.75 1045.22 42.4C1045.97 42.0333 1046.67 41.6167 1047.34 41.15C1046.91 40.7667 1046.41 40.4333 1045.84 40.15C1045.27 39.8667 1044.65 39.65 1043.97 39.5C1043.3 39.3333 1042.59 39.25 1041.84 39.25C1041.57 39.25 1041.32 39.2583 1041.09 39.275C1040.86 39.2917 1040.62 39.325 1040.39 39.375C1040.16 39.4083 1039.89 39.4583 1039.59 39.525L1039.19 37.625C1039.64 37.4917 1040.09 37.3917 1040.54 37.325C1040.99 37.2417 1041.42 37.2 1041.84 37.2C1042.71 37.2 1043.49 37.3083 1044.19 37.525C1044.89 37.725 1045.52 37.975 1046.09 38.275C1046.67 38.575 1047.22 38.875 1047.72 39.175C1048.23 39.475 1048.73 39.7333 1049.22 39.95C1049.7 40.15 1050.2 40.25 1050.72 40.25H1051.24L1051.42 42.05C1050.7 42.05 1050.04 42.15 1049.44 42.35C1048.84 42.55 1048.25 42.8083 1047.67 43.125C1047.1 43.425 1046.5 43.75 1045.87 44.1C1045.23 44.4333 1044.53 44.7583 1043.77 45.075C1043 45.375 1042.12 45.625 1041.12 45.825C1040.13 46.025 1038.99 46.125 1037.69 46.125ZM1052 27.95V26.55L1057.6 24.9V26.325L1052 27.95ZM1053.49 33.225C1052.82 33.225 1052.38 33.0083 1052.17 32.575C1051.95 32.125 1051.84 31.65 1051.84 31.15C1051.84 30.9667 1051.85 30.775 1051.87 30.575C1051.9 30.3583 1051.94 30.1167 1051.99 29.85L1053.24 29.5C1053.19 29.7833 1053.15 30.05 1053.12 30.3C1053.1 30.5333 1053.09 30.7417 1053.09 30.925C1053.09 31.2417 1053.14 31.475 1053.24 31.625C1053.34 31.775 1053.5 31.85 1053.72 31.85C1053.97 31.85 1054.17 31.725 1054.34 31.475C1054.51 31.2083 1054.6 30.6833 1054.62 29.9V29.15L1055.82 28.7V30.225C1055.82 30.4583 1055.86 30.6667 1055.94 30.85C1056.04 31.0167 1056.24 31.1 1056.54 31.1C1056.84 31.1 1057.04 31.0083 1057.14 30.825C1057.24 30.6417 1057.29 30.4083 1057.29 30.125C1057.29 29.8417 1057.26 29.5583 1057.19 29.275C1057.12 28.975 1057.03 28.6833 1056.92 28.4L1058.04 28.05C1058.21 28.3667 1058.34 28.7333 1058.44 29.15C1058.56 29.55 1058.62 29.9167 1058.62 30.25C1058.62 30.8 1058.46 31.3 1058.14 31.75C1057.84 32.1833 1057.37 32.4 1056.72 32.4C1056.2 32.4 1055.77 32.2667 1055.44 32C1055.12 31.7167 1054.97 31.3833 1054.97 31L1055.54 31.225C1055.54 31.7917 1055.34 32.2667 1054.94 32.65C1054.56 33.0333 1054.07 33.225 1053.49 33.225ZM1051.51 51.8L1050.79 49.9C1052 49.5 1053.01 49.0417 1053.81 48.525C1054.63 48.0083 1055.27 47.4583 1055.74 46.875C1056.22 46.2917 1056.56 45.7 1056.76 45.1C1056.96 44.4833 1057.06 43.8917 1057.06 43.325C1057.06 42.5083 1056.88 41.6833 1056.51 40.85C1056.16 40 1055.77 39.2 1055.34 38.45L1057.16 37.525C1057.48 38.1083 1057.75 38.6833 1057.99 39.25C1058.24 39.8167 1058.45 40.35 1058.64 40.85C1058.84 41.35 1058.99 41.8083 1059.11 42.225C1059.34 42.9417 1059.64 43.4333 1060.01 43.7C1060.39 43.95 1060.91 44.075 1061.56 44.075C1061.91 44.075 1062.16 44.175 1062.31 44.375C1062.48 44.5583 1062.56 44.7833 1062.56 45.05C1062.56 45.3167 1062.44 45.5667 1062.21 45.8C1061.98 46.0167 1061.68 46.125 1061.31 46.125C1060.58 46.125 1059.98 46 1059.51 45.75C1059.06 45.4833 1058.72 45.1417 1058.49 44.725C1058.25 44.2917 1058.09 43.8417 1058.01 43.375L1058.81 43.825C1058.81 44.925 1058.56 45.925 1058.06 46.825C1057.58 47.7417 1056.95 48.5333 1056.19 49.2C1055.42 49.8833 1054.62 50.4417 1053.79 50.875C1052.95 51.3083 1052.19 51.6167 1051.51 51.8ZM1061.32 46.125L1061.55 44.075C1062.5 44.075 1063.16 43.9833 1063.55 43.8C1063.93 43.6167 1064.15 43.2917 1064.2 42.825C1064.26 42.3583 1064.28 41.7083 1064.25 40.875L1063.77 28.15H1065.8L1066.3 40.65C1066.33 41.5333 1066.3 42.3167 1066.2 43C1066.11 43.6833 1065.9 44.2583 1065.55 44.725C1065.21 45.1917 1064.71 45.5417 1064.02 45.775C1063.36 46.0083 1062.46 46.125 1061.32 46.125ZM1070.12 46L1069.62 28.15H1071.64L1072.14 46H1070.12ZM1084.05 50.275V48.875L1089.65 47.225V48.65L1084.05 50.275ZM1092.42 46.125C1091.52 46.125 1090.72 46 1090.02 45.75C1089.33 45.4833 1088.78 45.0417 1088.37 44.425C1087.97 43.7917 1087.74 42.9167 1087.69 41.8L1087.29 33.1H1089.32L1089.72 41.35C1089.77 42.1333 1089.91 42.725 1090.14 43.125C1090.38 43.5083 1090.7 43.7667 1091.12 43.9C1091.55 44.0167 1092.07 44.075 1092.67 44.075C1093.02 44.075 1093.27 44.175 1093.42 44.375C1093.58 44.5583 1093.67 44.7833 1093.67 45.05C1093.67 45.3167 1093.55 45.5667 1093.32 45.8C1093.08 46.0167 1092.78 46.125 1092.42 46.125ZM1088.64 43.375C1087.69 43.675 1086.77 43.825 1085.87 43.825C1084.97 43.825 1084.15 43.6917 1083.42 43.425C1082.68 43.1583 1082.1 42.775 1081.67 42.275C1081.23 41.7583 1081.02 41.1417 1081.02 40.425C1081.02 39.725 1081.19 39.0667 1081.54 38.45C1081.91 37.8333 1082.4 37.2833 1083.02 36.8C1083.65 36.3167 1084.38 35.9167 1085.19 35.6C1086.03 35.2667 1086.91 35.0417 1087.84 34.925L1088.19 37.025C1087.36 37.0583 1086.62 37.175 1085.97 37.375C1085.33 37.5583 1084.79 37.8 1084.34 38.1C1083.91 38.4 1083.58 38.725 1083.34 39.075C1083.11 39.425 1082.99 39.7667 1082.99 40.1C1082.99 40.4667 1083.13 40.7667 1083.39 41C1083.66 41.2333 1084 41.4167 1084.42 41.55C1084.83 41.6667 1085.29 41.7417 1085.79 41.775C1086.29 41.7917 1086.78 41.775 1087.24 41.725C1087.71 41.6583 1088.11 41.5667 1088.44 41.45L1088.64 43.375ZM1094.92 18.975L1094.77 14.65H1096.15L1096.3 18.975H1094.92ZM1094.04 24.225C1093.38 24.225 1092.93 24.0083 1092.72 23.575C1092.5 23.125 1092.39 22.65 1092.39 22.15C1092.39 21.9667 1092.4 21.775 1092.42 21.575C1092.45 21.3583 1092.49 21.1167 1092.54 20.85L1093.79 20.5C1093.74 20.7833 1093.7 21.05 1093.67 21.3C1093.65 21.5333 1093.64 21.7417 1093.64 21.925C1093.64 22.2417 1093.69 22.475 1093.79 22.625C1093.89 22.775 1094.05 22.85 1094.27 22.85C1094.52 22.85 1094.73 22.725 1094.89 22.475C1095.06 22.2083 1095.15 21.6833 1095.17 20.9V20.15L1096.37 19.7V21.225C1096.37 21.4583 1096.41 21.6667 1096.49 21.85C1096.59 22.0167 1096.79 22.1 1097.09 22.1C1097.39 22.1 1097.59 22.0083 1097.69 21.825C1097.79 21.6417 1097.84 21.4083 1097.84 21.125C1097.84 20.8417 1097.81 20.5583 1097.74 20.275C1097.68 19.975 1097.58 19.6833 1097.47 19.4L1098.59 19.05C1098.76 19.3667 1098.89 19.7333 1098.99 20.15C1099.11 20.55 1099.17 20.9167 1099.17 21.25C1099.17 21.8 1099.01 22.3 1098.69 22.75C1098.39 23.1833 1097.92 23.4 1097.27 23.4C1096.75 23.4 1096.33 23.2667 1095.99 23C1095.68 22.7167 1095.52 22.3833 1095.52 22L1096.09 22.225C1096.09 22.7917 1095.89 23.2667 1095.49 23.65C1095.11 24.0333 1094.63 24.225 1094.04 24.225ZM1092.43 46.125L1092.65 44.075C1093.6 44.075 1094.27 43.9833 1094.65 43.8C1095.03 43.6167 1095.25 43.2917 1095.3 42.825C1095.37 42.3583 1095.38 41.7083 1095.35 40.875L1094.93 28.15H1097L1097.4 40.825C1097.43 41.675 1097.57 42.3417 1097.8 42.825C1098.05 43.2917 1098.38 43.6167 1098.8 43.8C1099.22 43.9833 1099.68 44.075 1100.18 44.075C1100.53 44.075 1100.78 44.175 1100.93 44.375C1101.09 44.5583 1101.18 44.7833 1101.18 45.05C1101.18 45.3167 1101.06 45.5667 1100.83 45.8C1100.59 46.0167 1100.29 46.125 1099.93 46.125C1099.23 46.125 1098.64 46.0167 1098.18 45.8C1097.73 45.5667 1097.37 45.275 1097.1 44.925C1096.85 44.5583 1096.68 44.175 1096.6 43.775L1097.13 43.825C1096.96 44.325 1096.68 44.75 1096.3 45.1C1095.93 45.4333 1095.43 45.6917 1094.8 45.875C1094.17 46.0417 1093.38 46.125 1092.43 46.125ZM1099.92 46.125L1100.15 44.075C1101.1 44.075 1101.76 43.9833 1102.15 43.8C1102.53 43.6167 1102.75 43.2917 1102.8 42.825C1102.86 42.3583 1102.88 41.7083 1102.85 40.875L1102.37 28.15H1104.4L1104.9 40.65C1104.93 41.5333 1104.9 42.3167 1104.8 43C1104.71 43.6833 1104.5 44.2583 1104.15 44.725C1103.81 45.1917 1103.3 45.5417 1102.62 45.775C1101.95 46.0083 1101.05 46.125 1099.92 46.125ZM1108.72 46L1108.22 28.15H1110.24L1110.74 46H1108.72ZM1123.33 50.275V48.875L1128.93 47.225V48.65L1123.33 50.275ZM1120.79 55.825C1120.44 54.5417 1120.14 53.2833 1119.89 52.05C1119.64 50.8333 1119.45 49.7417 1119.32 48.775C1119.18 47.8083 1119.12 47.0917 1119.12 46.625C1119.12 45.3917 1119.32 44.2667 1119.72 43.25C1120.12 42.2333 1120.63 41.3417 1121.27 40.575C1121.9 39.7917 1122.58 39.1333 1123.32 38.6C1124.05 38.05 1124.76 37.6417 1125.44 37.375C1126.14 37.0917 1126.73 36.95 1127.22 36.95C1127.63 36.95 1128 37.0417 1128.32 37.225C1128.63 37.4083 1128.94 37.7667 1129.24 38.3C1129.54 38.8333 1129.86 39.6167 1130.19 40.65C1130.51 41.6 1130.81 42.325 1131.09 42.825C1131.38 43.3083 1131.68 43.6417 1132.02 43.825C1132.35 43.9917 1132.73 44.075 1133.17 44.075C1133.52 44.075 1133.77 44.175 1133.92 44.375C1134.08 44.5583 1134.17 44.7833 1134.17 45.05C1134.17 45.3167 1134.05 45.5667 1133.82 45.8C1133.58 46.0167 1133.28 46.125 1132.92 46.125C1132.27 46.125 1131.71 46.0083 1131.24 45.775C1130.79 45.5417 1130.4 45.225 1130.07 44.825L1130.64 44.35C1130.44 44.8333 1130.18 45.2333 1129.87 45.55C1129.57 45.85 1129.23 46.075 1128.84 46.225C1128.48 46.375 1128.08 46.45 1127.67 46.45C1127.18 46.45 1126.68 46.3583 1126.17 46.175C1125.65 46.0083 1125.14 45.7583 1124.64 45.425C1124.14 45.075 1123.67 44.65 1123.22 44.15C1122.78 43.65 1122.4 43.0833 1122.07 42.45L1122.32 42.5C1121.85 43.15 1121.54 43.8583 1121.39 44.625C1121.24 45.375 1121.17 46.0417 1121.17 46.625C1121.17 47.0917 1121.22 47.6833 1121.32 48.4C1121.42 49.1333 1121.54 49.9083 1121.69 50.725C1121.86 51.5417 1122.03 52.35 1122.22 53.15C1122.42 53.9667 1122.6 54.7 1122.77 55.35L1120.79 55.825ZM1127.87 44.4C1128.17 44.4 1128.41 44.3417 1128.59 44.225C1128.79 44.1083 1128.93 43.9333 1128.99 43.7C1129.06 43.4667 1129.03 43.175 1128.92 42.825C1128.72 42.225 1128.53 41.7 1128.37 41.25C1128.2 40.7833 1128.03 40.4 1127.87 40.1C1127.72 39.7833 1127.56 39.55 1127.39 39.4C1127.23 39.25 1127.05 39.175 1126.87 39.175C1126.68 39.175 1126.45 39.2167 1126.17 39.3C1125.9 39.3833 1125.61 39.5083 1125.29 39.675C1124.99 39.8417 1124.68 40.05 1124.37 40.3C1124.05 40.55 1123.75 40.8417 1123.47 41.175L1123.49 40.975C1123.86 41.7417 1124.3 42.3833 1124.82 42.9C1125.35 43.4167 1125.88 43.8 1126.42 44.05C1126.97 44.2833 1127.45 44.4 1127.87 44.4ZM1143.35 33.55C1142.63 33.55 1142.09 33.3333 1141.72 32.9C1141.37 32.4667 1141.2 31.9583 1141.2 31.375C1141.2 30.8917 1141.29 30.4583 1141.47 30.075C1141.67 29.675 1141.95 29.3583 1142.3 29.125C1142.65 28.875 1143.04 28.75 1143.47 28.75C1143.87 28.75 1144.23 28.8667 1144.55 29.1C1144.87 29.3333 1145.12 29.6417 1145.3 30.025C1145.48 30.4083 1145.57 30.8167 1145.57 31.25C1145.57 31.9 1145.37 32.45 1144.95 32.9C1144.53 33.3333 1144 33.55 1143.35 33.55ZM1143.32 32.25C1143.61 32.25 1143.85 32.1583 1144.05 31.975C1144.27 31.7917 1144.37 31.55 1144.37 31.25C1144.37 30.9333 1144.27 30.675 1144.05 30.475C1143.83 30.2583 1143.6 30.15 1143.35 30.15C1143.03 30.15 1142.78 30.2583 1142.6 30.475C1142.43 30.6917 1142.35 30.9417 1142.35 31.225C1142.35 31.525 1142.44 31.775 1142.62 31.975C1142.81 32.1583 1143.04 32.25 1143.32 32.25ZM1132.9 46.125L1133.15 44.075C1133.69 44.075 1134.12 44.0417 1134.45 43.975C1134.79 43.8917 1135.06 43.7 1135.28 43.4C1135.51 43.0833 1135.73 42.5917 1135.93 41.925C1136.13 41.2583 1136.36 40.325 1136.63 39.125L1138.5 39.65C1138.4 40.0667 1138.29 40.5667 1138.15 41.15C1138.02 41.7333 1137.95 42.2667 1137.95 42.75C1137.95 43.0167 1138.02 43.25 1138.15 43.45C1138.29 43.65 1138.51 43.8083 1138.83 43.925C1139.16 44.025 1139.6 44.075 1140.15 44.075C1140.65 44.075 1141.06 44.0333 1141.38 43.95C1141.7 43.8667 1141.95 43.6667 1142.15 43.35C1142.37 43.0333 1142.56 42.525 1142.73 41.825C1142.9 41.125 1143.07 40.1667 1143.25 38.95L1145.15 39.3C1145.1 39.6 1145.05 39.9667 1144.98 40.4C1144.91 40.8333 1144.85 41.2667 1144.78 41.7C1144.73 42.1167 1144.7 42.4667 1144.7 42.75C1144.7 42.9833 1144.75 43.2083 1144.85 43.425C1144.97 43.625 1145.19 43.7833 1145.5 43.9C1145.84 44.0167 1146.33 44.075 1146.98 44.075C1147.81 44.075 1148.41 43.9 1148.78 43.55C1149.16 43.2 1149.36 42.6667 1149.36 41.95C1149.36 41.5667 1149.35 41.1667 1149.33 40.75C1149.31 40.3167 1149.28 39.8417 1149.23 39.325C1149.2 38.7917 1149.14 38.1833 1149.05 37.5L1150.88 37.375C1150.98 38.725 1151.09 39.8333 1151.21 40.7C1151.34 41.5667 1151.52 42.25 1151.75 42.75C1152 43.2333 1152.34 43.575 1152.75 43.775C1153.17 43.975 1153.72 44.075 1154.4 44.075C1154.75 44.075 1155 44.175 1155.15 44.375C1155.32 44.5583 1155.4 44.7833 1155.4 45.05C1155.4 45.3167 1155.29 45.5667 1155.05 45.8C1154.82 46.0167 1154.52 46.125 1154.15 46.125C1153.59 46.125 1153.08 46.05 1152.63 45.9C1152.2 45.7333 1151.81 45.5167 1151.48 45.25C1151.16 44.9667 1150.9 44.65 1150.68 44.3C1150.48 43.9333 1150.34 43.55 1150.25 43.15L1150.7 43.3C1150.52 44.05 1150.23 44.6333 1149.83 45.05C1149.45 45.45 1148.99 45.7333 1148.45 45.9C1147.92 46.05 1147.35 46.125 1146.75 46.125C1146.02 46.125 1145.42 46.0333 1144.95 45.85C1144.49 45.6667 1144.12 45.3917 1143.85 45.025C1143.6 44.6417 1143.44 44.1583 1143.35 43.575H1144.2C1143.89 44.2917 1143.55 44.8333 1143.2 45.2C1142.85 45.5667 1142.42 45.8167 1141.9 45.95C1141.39 46.0667 1140.7 46.125 1139.85 46.125C1139.44 46.125 1138.99 46.0583 1138.5 45.925C1138.04 45.7917 1137.63 45.5333 1137.28 45.15C1136.93 44.75 1136.72 44.1583 1136.65 43.375L1137.4 43.225C1137.12 44.075 1136.77 44.7083 1136.35 45.125C1135.95 45.525 1135.47 45.7917 1134.9 45.925C1134.34 46.0583 1133.67 46.125 1132.9 46.125ZM1154.27 55.275V53.875L1159.87 52.225V53.65L1154.27 55.275ZM1154.15 46.125L1154.4 44.075C1155.21 44.075 1155.86 44.025 1156.35 43.925C1156.83 43.825 1157.18 43.625 1157.4 43.325C1157.61 43.0083 1157.72 42.5417 1157.72 41.925C1157.72 41.5083 1157.65 41.0167 1157.52 40.45C1157.39 39.8667 1157.21 39.25 1157 38.6C1156.78 37.95 1156.55 37.3083 1156.3 36.675L1158.32 35.925C1158.54 36.4583 1158.74 37.0667 1158.92 37.75C1159.12 38.4333 1159.29 39.1083 1159.42 39.775C1159.55 40.4417 1159.62 41.025 1159.62 41.525C1159.62 42.1917 1159.55 42.7833 1159.4 43.3C1159.26 43.8 1159.05 44.2333 1158.77 44.6C1158.49 44.95 1158.12 45.2417 1157.67 45.475C1157.24 45.6917 1156.73 45.8583 1156.15 45.975C1155.56 46.075 1154.9 46.125 1154.15 46.125ZM1156.82 50.775C1156.47 50.775 1156.17 50.65 1155.92 50.4C1155.69 50.1667 1155.57 49.8833 1155.57 49.55C1155.57 49.2167 1155.69 48.925 1155.92 48.675C1156.17 48.425 1156.47 48.3 1156.82 48.3C1157.15 48.3 1157.44 48.425 1157.67 48.675C1157.92 48.925 1158.05 49.2167 1158.05 49.55C1158.05 49.8833 1157.92 50.1667 1157.67 50.4C1157.44 50.65 1157.15 50.775 1156.82 50.775Z" fill="black" fill-opacity="0.75"/>
<path d="M133.35 34.45H126.075L124.825 38H121.85L128.075 20.6H131.375L137.6 38H134.6L133.35 34.45ZM132.55 32.125L129.725 24.05L126.875 32.125H132.55ZM143.157 19.5V38H140.307V19.5H143.157ZM157.473 27.75V30.15H147.198V27.75H157.473ZM171.747 20.625V22.95H164.372V28.075H170.122V30.4H164.372V38H161.522V20.625H171.747ZM173.439 31.05C173.439 29.6667 173.722 28.4417 174.289 27.375C174.872 26.3083 175.655 25.4833 176.639 24.9C177.639 24.3 178.739 24 179.939 24C181.022 24 181.964 24.2167 182.764 24.65C183.58 25.0667 184.23 25.5917 184.714 26.225V24.225H187.589V38H184.714V35.95C184.23 36.6 183.572 37.1417 182.739 37.575C181.905 38.0083 180.955 38.225 179.889 38.225C178.705 38.225 177.622 37.925 176.639 37.325C175.655 36.7083 174.872 35.8583 174.289 34.775C173.722 33.675 173.439 32.4333 173.439 31.05ZM184.714 31.1C184.714 30.15 184.514 29.325 184.114 28.625C183.73 27.925 183.222 27.3917 182.589 27.025C181.955 26.6583 181.272 26.475 180.539 26.475C179.805 26.475 179.122 26.6583 178.489 27.025C177.855 27.375 177.339 27.9 176.939 28.6C176.555 29.2833 176.364 30.1 176.364 31.05C176.364 32 176.555 32.8333 176.939 33.55C177.339 34.2667 177.855 34.8167 178.489 35.2C179.139 35.5667 179.822 35.75 180.539 35.75C181.272 35.75 181.955 35.5667 182.589 35.2C183.222 34.8333 183.73 34.3 184.114 33.6C184.514 32.8833 184.714 32.05 184.714 31.1ZM194.657 26.55V34.175C194.657 34.6917 194.774 35.0667 195.007 35.3C195.257 35.5167 195.674 35.625 196.257 35.625H198.007V38H195.757C194.474 38 193.49 37.7 192.807 37.1C192.124 36.5 191.782 35.525 191.782 34.175V26.55H190.157V24.225H191.782V20.8H194.657V24.225H198.007V26.55H194.657ZM202.084 22.4C201.567 22.4 201.134 22.225 200.784 21.875C200.434 21.525 200.259 21.0917 200.259 20.575C200.259 20.0583 200.434 19.625 200.784 19.275C201.134 18.925 201.567 18.75 202.084 18.75C202.584 18.75 203.009 18.925 203.359 19.275C203.709 19.625 203.884 20.0583 203.884 20.575C203.884 21.0917 203.709 21.525 203.359 21.875C203.009 22.225 202.584 22.4 202.084 22.4ZM203.484 24.225V38H200.634V24.225H203.484ZM214.351 24C215.401 24 216.334 24.225 217.151 24.675C217.984 25.125 218.634 25.7917 219.101 26.675C219.584 27.5583 219.826 28.625 219.826 29.875V38H217.001V30.3C217.001 29.0667 216.692 28.125 216.076 27.475C215.459 26.8083 214.617 26.475 213.551 26.475C212.484 26.475 211.634 26.8083 211.001 27.475C210.384 28.125 210.076 29.0667 210.076 30.3V38H207.226V19.5H210.076V25.825C210.559 25.2417 211.167 24.7917 211.901 24.475C212.651 24.1583 213.467 24 214.351 24ZM222.511 31.05C222.511 29.6667 222.794 28.4417 223.361 27.375C223.944 26.3083 224.728 25.4833 225.711 24.9C226.711 24.3 227.811 24 229.011 24C230.094 24 231.036 24.2167 231.836 24.65C232.653 25.0667 233.303 25.5917 233.786 26.225V24.225H236.661V38H233.786V35.95C233.303 36.6 232.644 37.1417 231.811 37.575C230.978 38.0083 230.028 38.225 228.961 38.225C227.778 38.225 226.694 37.925 225.711 37.325C224.728 36.7083 223.944 35.8583 223.361 34.775C222.794 33.675 222.511 32.4333 222.511 31.05ZM233.786 31.1C233.786 30.15 233.586 29.325 233.186 28.625C232.803 27.925 232.294 27.3917 231.661 27.025C231.028 26.6583 230.344 26.475 229.611 26.475C228.878 26.475 228.194 26.6583 227.561 27.025C226.928 27.375 226.411 27.9 226.011 28.6C225.628 29.2833 225.436 30.1 225.436 31.05C225.436 32 225.628 32.8333 226.011 33.55C226.411 34.2667 226.928 34.8167 227.561 35.2C228.211 35.5667 228.894 35.75 229.611 35.75C230.344 35.75 231.028 35.5667 231.661 35.2C232.294 34.8333 232.803 34.3 233.186 33.6C233.586 32.8833 233.786 32.05 233.786 31.1ZM247.529 24C248.579 24 249.513 24.225 250.329 24.675C251.163 25.125 251.813 25.7917 252.279 26.675C252.763 27.5583 253.004 28.625 253.004 29.875V38H250.179V30.3C250.179 29.0667 249.871 28.125 249.254 27.475C248.638 26.8083 247.796 26.475 246.729 26.475C245.663 26.475 244.813 26.8083 244.179 27.475C243.563 28.125 243.254 29.0667 243.254 30.3V38H240.404V19.5H243.254V25.825C243.738 25.2417 244.346 24.7917 245.079 24.475C245.829 24.1583 246.646 24 247.529 24Z" fill="black" fill-opacity="0.75"/>
<path d="M131.86 63.759C131.86 64.919 131.46 65.8857 130.66 66.659C129.873 67.419 128.667 67.799 127.04 67.799H124.36V73.619H122.54V59.679H127.04C128.613 59.679 129.807 60.059 130.62 60.819C131.447 61.579 131.86 62.559 131.86 63.759ZM127.04 66.299C128.053 66.299 128.8 66.079 129.28 65.639C129.76 65.199 130 64.5724 130 63.759C130 62.039 129.013 61.179 127.04 61.179H124.36V66.299H127.04ZM144.122 67.719C144.122 68.0657 144.102 68.4324 144.062 68.819H135.302C135.369 69.899 135.735 70.7457 136.402 71.359C137.082 71.959 137.902 72.259 138.862 72.259C139.649 72.259 140.302 72.079 140.822 71.719C141.355 71.3457 141.729 70.8524 141.942 70.239H143.902C143.609 71.2924 143.022 72.1524 142.142 72.819C141.262 73.4724 140.169 73.799 138.862 73.799C137.822 73.799 136.889 73.5657 136.062 73.099C135.249 72.6324 134.609 71.9724 134.142 71.119C133.675 70.2524 133.442 69.2524 133.442 68.119C133.442 66.9857 133.669 65.9924 134.122 65.139C134.575 64.2857 135.209 63.6324 136.022 63.179C136.849 62.7124 137.795 62.479 138.862 62.479C139.902 62.479 140.822 62.7057 141.622 63.159C142.422 63.6124 143.035 64.239 143.462 65.039C143.902 65.8257 144.122 66.719 144.122 67.719ZM142.242 67.339C142.242 66.6457 142.089 66.0524 141.782 65.559C141.475 65.0524 141.055 64.6724 140.522 64.419C140.002 64.1524 139.422 64.019 138.782 64.019C137.862 64.019 137.075 64.3124 136.422 64.899C135.782 65.4857 135.415 66.299 135.322 67.339H142.242ZM159.704 62.459C160.558 62.459 161.318 62.639 161.984 62.999C162.651 63.3457 163.178 63.8724 163.564 64.579C163.951 65.2857 164.144 66.1457 164.144 67.159V73.619H162.344V67.419C162.344 66.3257 162.071 65.4924 161.524 64.919C160.991 64.3324 160.264 64.039 159.344 64.039C158.398 64.039 157.644 64.3457 157.084 64.959C156.524 65.559 156.244 66.4324 156.244 67.579V73.619H154.444V67.419C154.444 66.3257 154.171 65.4924 153.624 64.919C153.091 64.3324 152.364 64.039 151.444 64.039C150.498 64.039 149.744 64.3457 149.184 64.959C148.624 65.559 148.344 66.4324 148.344 67.579V73.619H146.524V62.659H148.344V64.239C148.704 63.6657 149.184 63.2257 149.784 62.919C150.398 62.6124 151.071 62.459 151.804 62.459C152.724 62.459 153.538 62.6657 154.244 63.079C154.951 63.4924 155.478 64.099 155.824 64.899C156.131 64.1257 156.638 63.5257 157.344 63.099C158.051 62.6724 158.838 62.459 159.704 62.459ZM168.95 64.699C169.323 64.0457 169.87 63.5124 170.59 63.099C171.31 62.6857 172.13 62.479 173.05 62.479C174.037 62.479 174.923 62.7124 175.71 63.179C176.497 63.6457 177.117 64.3057 177.57 65.159C178.023 65.999 178.25 66.979 178.25 68.099C178.25 69.2057 178.023 70.1924 177.57 71.059C177.117 71.9257 176.49 72.599 175.69 73.079C174.903 73.559 174.023 73.799 173.05 73.799C172.103 73.799 171.27 73.5924 170.55 73.179C169.843 72.7657 169.31 72.239 168.95 71.599V73.619H167.13V58.819H168.95V64.699ZM176.39 68.099C176.39 67.2724 176.223 66.5524 175.89 65.939C175.557 65.3257 175.103 64.859 174.53 64.539C173.97 64.219 173.35 64.059 172.67 64.059C172.003 64.059 171.383 64.2257 170.81 64.559C170.25 64.879 169.797 65.3524 169.45 65.979C169.117 66.5924 168.95 67.3057 168.95 68.119C168.95 68.9457 169.117 69.6724 169.45 70.299C169.797 70.9124 170.25 71.3857 170.81 71.719C171.383 72.039 172.003 72.199 172.67 72.199C173.35 72.199 173.97 72.039 174.53 71.719C175.103 71.3857 175.557 70.9124 175.89 70.299C176.223 69.6724 176.39 68.939 176.39 68.099ZM190.365 62.659V73.619H188.545V71.999C188.199 72.559 187.712 72.999 187.085 73.319C186.472 73.6257 185.792 73.779 185.045 73.779C184.192 73.779 183.425 73.6057 182.745 73.259C182.065 72.899 181.525 72.3657 181.125 71.659C180.739 70.9524 180.545 70.0924 180.545 69.079V62.659H182.345V68.839C182.345 69.919 182.619 70.7524 183.165 71.339C183.712 71.9124 184.459 72.199 185.405 72.199C186.379 72.199 187.145 71.899 187.705 71.299C188.265 70.699 188.545 69.8257 188.545 68.679V62.659H190.365ZM199.558 73.619L195.258 68.779V73.619H193.438V58.819H195.258V67.519L199.478 62.659H202.018L196.858 68.119L202.038 73.619H199.558ZM203.051 68.099C203.051 66.979 203.278 65.999 203.731 65.159C204.185 64.3057 204.805 63.6457 205.591 63.179C206.391 62.7124 207.278 62.479 208.251 62.479C209.211 62.479 210.045 62.6857 210.751 63.099C211.458 63.5124 211.985 64.0324 212.331 64.659V62.659H214.171V73.619H212.331V71.579C211.971 72.219 211.431 72.7524 210.711 73.179C210.005 73.5924 209.178 73.799 208.231 73.799C207.258 73.799 206.378 73.559 205.591 73.079C204.805 72.599 204.185 71.9257 203.731 71.059C203.278 70.1924 203.051 69.2057 203.051 68.099ZM212.331 68.119C212.331 67.2924 212.165 66.5724 211.831 65.959C211.498 65.3457 211.045 64.879 210.471 64.559C209.911 64.2257 209.291 64.059 208.611 64.059C207.931 64.059 207.311 64.219 206.751 64.539C206.191 64.859 205.745 65.3257 205.411 65.939C205.078 66.5524 204.911 67.2724 204.911 68.099C204.911 68.939 205.078 69.6724 205.411 70.299C205.745 70.9124 206.191 71.3857 206.751 71.719C207.311 72.039 207.931 72.199 208.611 72.199C209.291 72.199 209.911 72.039 210.471 71.719C211.045 71.3857 211.498 70.9124 211.831 70.299C212.165 69.6724 212.331 68.9457 212.331 68.119ZM216.567 68.099C216.567 66.979 216.794 65.999 217.247 65.159C217.7 64.3057 218.32 63.6457 219.107 63.179C219.907 62.7124 220.794 62.479 221.767 62.479C222.727 62.479 223.56 62.6857 224.267 63.099C224.974 63.5124 225.5 64.0324 225.847 64.659V62.659H227.687V73.619H225.847V71.579C225.487 72.219 224.947 72.7524 224.227 73.179C223.52 73.5924 222.694 73.799 221.747 73.799C220.774 73.799 219.894 73.559 219.107 73.079C218.32 72.599 217.7 71.9257 217.247 71.059C216.794 70.1924 216.567 69.2057 216.567 68.099ZM225.847 68.119C225.847 67.2924 225.68 66.5724 225.347 65.959C225.014 65.3457 224.56 64.879 223.987 64.559C223.427 64.2257 222.807 64.059 222.127 64.059C221.447 64.059 220.827 64.219 220.267 64.539C219.707 64.859 219.26 65.3257 218.927 65.939C218.594 66.5524 218.427 67.2724 218.427 68.099C218.427 68.939 218.594 69.6724 218.927 70.299C219.26 70.9124 219.707 71.3857 220.267 71.719C220.827 72.039 221.447 72.199 222.127 72.199C222.807 72.199 223.427 72.039 223.987 71.719C224.56 71.3857 225.014 70.9124 225.347 70.299C225.68 69.6724 225.847 68.9457 225.847 68.119ZM236.103 62.459C237.436 62.459 238.516 62.8657 239.343 63.679C240.169 64.479 240.583 65.639 240.583 67.159V73.619H238.783V67.419C238.783 66.3257 238.509 65.4924 237.963 64.919C237.416 64.3324 236.669 64.039 235.723 64.039C234.763 64.039 233.996 64.339 233.423 64.939C232.863 65.539 232.583 66.4124 232.583 67.559V73.619H230.763V62.659H232.583V64.219C232.943 63.659 233.429 63.2257 234.043 62.919C234.669 62.6124 235.356 62.459 236.103 62.459ZM253.568 77.339C252.288 76.0857 251.288 74.4924 250.568 72.559C249.861 70.6257 249.508 68.539 249.508 66.299C249.508 64.0057 249.881 61.8657 250.628 59.879C251.388 57.879 252.468 56.2324 253.868 54.939H255.768V55.119C254.274 56.519 253.148 58.2057 252.388 60.179C251.641 62.139 251.268 64.179 251.268 66.299C251.268 68.3657 251.621 70.339 252.328 72.219C253.048 74.099 254.094 75.7457 255.468 77.159V77.339H253.568ZM271.902 60.579L266.342 73.619H264.502L270.142 60.759H262.422V59.199H271.902V60.579ZM278.972 77.339V77.159C280.345 75.7457 281.385 74.099 282.092 72.219C282.812 70.339 283.172 68.3657 283.172 66.299C283.172 64.179 282.792 62.139 282.032 60.179C281.285 58.2057 280.165 56.519 278.672 55.119V54.939H280.572C281.972 56.2324 283.045 57.879 283.792 59.879C284.552 61.8657 284.932 64.0057 284.932 66.299C284.932 68.539 284.572 70.6257 283.852 72.559C283.145 74.4924 282.152 76.0857 280.872 77.339H278.972Z" fill="black" fill-opacity="0.75"/>
<path d="M943.5 50.275V48.875L949.1 47.225V48.65L943.5 50.275ZM940.958 55.825C940.608 54.5417 940.308 53.2833 940.058 52.05C939.808 50.8333 939.616 49.7417 939.483 48.775C939.35 47.8083 939.283 47.0917 939.283 46.625C939.283 45.3917 939.483 44.2667 939.883 43.25C940.283 42.2333 940.8 41.3417 941.433 40.575C942.066 39.7917 942.75 39.1333 943.483 38.6C944.216 38.05 944.925 37.6417 945.608 37.375C946.308 37.0917 946.9 36.95 947.383 36.95C947.8 36.95 948.166 37.0417 948.483 37.225C948.8 37.4083 949.108 37.7667 949.408 38.3C949.708 38.8333 950.025 39.6167 950.358 40.65C950.675 41.6 950.975 42.325 951.258 42.825C951.541 43.3083 951.85 43.6417 952.183 43.825C952.516 43.9917 952.9 44.075 953.333 44.075C953.683 44.075 953.933 44.175 954.083 44.375C954.25 44.5583 954.333 44.7833 954.333 45.05C954.333 45.3167 954.216 45.5667 953.983 45.8C953.75 46.0167 953.45 46.125 953.083 46.125C952.433 46.125 951.875 46.0083 951.408 45.775C950.958 45.5417 950.566 45.225 950.233 44.825L950.808 44.35C950.608 44.8333 950.35 45.2333 950.033 45.55C949.733 45.85 949.391 46.075 949.008 46.225C948.641 46.375 948.25 46.45 947.833 46.45C947.35 46.45 946.85 46.3583 946.333 46.175C945.816 46.0083 945.308 45.7583 944.808 45.425C944.308 45.075 943.833 44.65 943.383 44.15C942.95 43.65 942.566 43.0833 942.233 42.45L942.483 42.5C942.016 43.15 941.708 43.8583 941.558 44.625C941.408 45.375 941.333 46.0417 941.333 46.625C941.333 47.0917 941.383 47.6833 941.483 48.4C941.583 49.1333 941.708 49.9083 941.858 50.725C942.025 51.5417 942.2 52.35 942.383 53.15C942.583 53.9667 942.766 54.7 942.933 55.35L940.958 55.825ZM948.033 44.4C948.333 44.4 948.575 44.3417 948.758 44.225C948.958 44.1083 949.091 43.9333 949.158 43.7C949.225 43.4667 949.2 43.175 949.083 42.825C948.883 42.225 948.7 41.7 948.533 41.25C948.366 40.7833 948.2 40.4 948.033 40.1C947.883 39.7833 947.725 39.55 947.558 39.4C947.391 39.25 947.216 39.175 947.033 39.175C946.85 39.175 946.616 39.2167 946.333 39.3C946.066 39.3833 945.775 39.5083 945.458 39.675C945.158 39.8417 944.85 40.05 944.533 40.3C944.216 40.55 943.916 40.8417 943.633 41.175L943.658 40.975C944.025 41.7417 944.466 42.3833 944.983 42.9C945.516 43.4167 946.05 43.8 946.583 44.05C947.133 44.2833 947.616 44.4 948.033 44.4ZM957.729 34.55C957.013 34.55 956.471 34.3333 956.104 33.9C955.754 33.4667 955.579 32.9583 955.579 32.375C955.579 31.8917 955.671 31.4583 955.854 31.075C956.054 30.675 956.329 30.3583 956.679 30.125C957.029 29.875 957.421 29.75 957.854 29.75C958.254 29.75 958.613 29.8667 958.929 30.1C959.246 30.3333 959.496 30.6417 959.679 31.025C959.863 31.4083 959.954 31.8167 959.954 32.25C959.954 32.9 959.746 33.45 959.329 33.9C958.913 34.3333 958.379 34.55 957.729 34.55ZM957.704 33.25C957.988 33.25 958.229 33.1583 958.429 32.975C958.646 32.7917 958.754 32.55 958.754 32.25C958.754 31.9333 958.646 31.675 958.429 31.475C958.213 31.2583 957.979 31.15 957.729 31.15C957.413 31.15 957.163 31.2583 956.979 31.475C956.813 31.6917 956.729 31.9417 956.729 32.225C956.729 32.525 956.821 32.775 957.004 32.975C957.188 33.1583 957.421 33.25 957.704 33.25ZM953.071 46.125L953.321 44.075C954.154 44.075 954.804 44.0167 955.271 43.9C955.738 43.7667 956.088 43.525 956.321 43.175C956.571 42.8083 956.771 42.2833 956.921 41.6C957.071 40.9167 957.254 40.025 957.471 38.925L959.421 39.3C959.354 39.6 959.279 39.9333 959.196 40.3C959.113 40.6667 959.038 41.0333 958.971 41.4C958.921 41.75 958.896 42.0583 958.896 42.325C958.896 42.575 958.913 42.8083 958.946 43.025C958.979 43.2417 959.104 43.425 959.321 43.575C959.538 43.725 959.904 43.85 960.421 43.95C960.938 44.0333 961.679 44.075 962.646 44.075C962.996 44.075 963.246 44.175 963.396 44.375C963.563 44.5583 963.646 44.7833 963.646 45.05C963.646 45.3167 963.529 45.5667 963.296 45.8C963.063 46.0167 962.763 46.125 962.396 46.125C961.379 46.125 960.571 46.075 959.971 45.975C959.371 45.8583 958.913 45.6917 958.596 45.475C958.296 45.2583 958.079 44.9917 957.946 44.675C957.829 44.3417 957.738 43.9583 957.671 43.525L958.421 43.575C958.154 44.1083 957.863 44.5417 957.546 44.875C957.246 45.2083 956.896 45.4667 956.496 45.65C956.096 45.8333 955.613 45.9583 955.046 46.025C954.496 46.0917 953.838 46.125 953.071 46.125ZM959.371 50.85C959.021 50.85 958.721 50.725 958.471 50.475C958.238 50.2417 958.121 49.9583 958.121 49.625C958.121 49.2917 958.238 49 958.471 48.75C958.721 48.5 959.021 48.375 959.371 48.375C959.704 48.375 959.988 48.5 960.221 48.75C960.471 49 960.596 49.2917 960.596 49.625C960.596 49.9583 960.471 50.2417 960.221 50.475C959.988 50.725 959.704 50.85 959.371 50.85ZM955.946 50.85C955.596 50.85 955.296 50.725 955.046 50.475C954.813 50.2417 954.696 49.9583 954.696 49.625C954.696 49.2917 954.813 49 955.046 48.75C955.296 48.5 955.596 48.375 955.946 48.375C956.279 48.375 956.563 48.5 956.796 48.75C957.046 49 957.171 49.2917 957.171 49.625C957.171 49.9583 957.046 50.2417 956.796 50.475C956.563 50.725 956.279 50.85 955.946 50.85ZM966.815 50.275V48.875L972.415 47.225V48.65L966.815 50.275ZM962.397 46.125L962.622 44.075C963.489 44.075 964.339 44.0083 965.172 43.875C966.006 43.7417 966.822 43.55 967.622 43.3C968.422 43.05 969.189 42.75 969.922 42.4C970.672 42.0333 971.381 41.6167 972.047 41.15C971.614 40.7667 971.114 40.4333 970.547 40.15C969.981 39.8667 969.356 39.65 968.672 39.5C968.006 39.3333 967.297 39.25 966.547 39.25C966.281 39.25 966.031 39.2583 965.797 39.275C965.564 39.2917 965.331 39.325 965.097 39.375C964.864 39.4083 964.597 39.4583 964.297 39.525L963.897 37.625C964.347 37.4917 964.797 37.3917 965.247 37.325C965.697 37.2417 966.131 37.2 966.547 37.2C967.414 37.2 968.197 37.3083 968.897 37.525C969.597 37.725 970.231 37.975 970.797 38.275C971.381 38.575 971.922 38.875 972.422 39.175C972.939 39.475 973.439 39.7333 973.922 39.95C974.406 40.15 974.906 40.25 975.422 40.25H975.947L976.122 42.05C975.406 42.05 974.747 42.15 974.147 42.35C973.547 42.55 972.956 42.8083 972.372 43.125C971.806 43.425 971.206 43.75 970.572 44.1C969.939 44.4333 969.239 44.7583 968.472 45.075C967.706 45.375 966.822 45.625 965.822 45.825C964.839 46.025 963.697 46.125 962.397 46.125ZM976.703 27.95V26.55L982.303 24.9V26.325L976.703 27.95ZM978.198 33.225C977.531 33.225 977.09 33.0083 976.873 32.575C976.656 32.125 976.548 31.65 976.548 31.15C976.548 30.9667 976.556 30.775 976.573 30.575C976.606 30.3583 976.648 30.1167 976.698 29.85L977.948 29.5C977.898 29.7833 977.856 30.05 977.823 30.3C977.806 30.5333 977.798 30.7417 977.798 30.925C977.798 31.2417 977.848 31.475 977.948 31.625C978.048 31.775 978.206 31.85 978.423 31.85C978.673 31.85 978.881 31.725 979.048 31.475C979.215 31.2083 979.306 30.6833 979.323 29.9V29.15L980.523 28.7V30.225C980.523 30.4583 980.565 30.6667 980.648 30.85C980.748 31.0167 980.948 31.1 981.248 31.1C981.548 31.1 981.748 31.0083 981.848 30.825C981.948 30.6417 981.998 30.4083 981.998 30.125C981.998 29.8417 981.965 29.5583 981.898 29.275C981.831 28.975 981.74 28.6833 981.623 28.4L982.748 28.05C982.915 28.3667 983.048 28.7333 983.148 29.15C983.265 29.55 983.323 29.9167 983.323 30.25C983.323 30.8 983.165 31.3 982.848 31.75C982.548 32.1833 982.073 32.4 981.423 32.4C980.906 32.4 980.481 32.2667 980.148 32C979.831 31.7167 979.673 31.3833 979.673 31L980.248 31.225C980.248 31.7917 980.048 32.2667 979.648 32.65C979.265 33.0333 978.781 33.225 978.198 33.225ZM976.218 51.8L975.493 49.9C976.71 49.5 977.718 49.0417 978.518 48.525C979.335 48.0083 979.976 47.4583 980.443 46.875C980.926 46.2917 981.268 45.7 981.468 45.1C981.668 44.4833 981.768 43.8917 981.768 43.325C981.768 42.5083 981.585 41.6833 981.218 40.85C980.868 40 980.476 39.2 980.043 38.45L981.868 37.525C982.185 38.1083 982.46 38.6833 982.693 39.25C982.943 39.8167 983.16 40.35 983.343 40.85C983.543 41.35 983.701 41.8083 983.818 42.225C984.051 42.9417 984.351 43.4333 984.718 43.7C985.101 43.95 985.618 44.075 986.268 44.075C986.618 44.075 986.868 44.175 987.018 44.375C987.185 44.5583 987.268 44.7833 987.268 45.05C987.268 45.3167 987.151 45.5667 986.918 45.8C986.685 46.0167 986.385 46.125 986.018 46.125C985.285 46.125 984.685 46 984.218 45.75C983.768 45.4833 983.426 45.1417 983.193 44.725C982.96 44.2917 982.801 43.8417 982.718 43.375L983.518 43.825C983.518 44.925 983.268 45.925 982.768 46.825C982.285 47.7417 981.66 48.5333 980.893 49.2C980.126 49.8833 979.326 50.4417 978.493 50.875C977.66 51.3083 976.901 51.6167 976.218 51.8ZM986.03 46.125L986.255 44.075C987.205 44.075 987.872 43.9833 988.255 43.8C988.638 43.6167 988.855 43.2917 988.905 42.825C988.972 42.3583 988.988 41.7083 988.955 40.875L988.48 28.15H990.505L991.005 40.65C991.038 41.5333 991.005 42.3167 990.905 43C990.822 43.6833 990.605 44.2583 990.255 44.725C989.922 45.1917 989.413 45.5417 988.73 45.775C988.063 46.0083 987.163 46.125 986.03 46.125ZM994.824 46L994.324 28.15H996.349L996.849 46H994.824ZM1010.25 56.275V54.875L1015.85 53.225V54.65L1010.25 56.275ZM1005.73 46.025C1005.73 45.425 1005.81 44.7583 1005.98 44.025C1006.14 43.2917 1006.41 42.4833 1006.78 41.6L1008.58 42.3C1008.31 43 1008.11 43.6417 1007.98 44.225C1007.84 44.8083 1007.78 45.35 1007.78 45.85C1007.78 46.7667 1008 47.5083 1008.45 48.075C1008.92 48.6583 1009.53 49.0833 1010.3 49.35C1011.08 49.6167 1011.94 49.75 1012.88 49.75C1014.01 49.75 1014.96 49.625 1015.73 49.375C1016.49 49.1417 1017.1 48.8167 1017.55 48.4C1018 47.9833 1018.32 47.5083 1018.5 46.975C1018.7 46.4583 1018.8 45.9167 1018.8 45.35C1018.8 44.6167 1018.74 43.925 1018.63 43.275C1018.53 42.625 1018.38 41.9917 1018.2 41.375C1018.03 40.7417 1017.85 40.1 1017.65 39.45L1019.68 38.9C1019.86 39.5333 1020 40.05 1020.1 40.45C1020.2 40.8333 1020.28 41.1417 1020.33 41.375C1020.39 41.6083 1020.45 41.8167 1020.5 42C1020.68 42.6167 1020.93 43.075 1021.23 43.375C1021.53 43.6583 1021.87 43.85 1022.25 43.95C1022.65 44.0333 1023.06 44.075 1023.48 44.075C1023.83 44.075 1024.08 44.175 1024.23 44.375C1024.39 44.5583 1024.48 44.7833 1024.48 45.05C1024.48 45.3167 1024.36 45.5667 1024.13 45.8C1023.89 46.0167 1023.59 46.125 1023.23 46.125C1022.53 46.125 1021.94 46.0083 1021.48 45.775C1021.01 45.525 1020.64 45.2167 1020.38 44.85C1020.13 44.4833 1019.96 44.1 1019.88 43.7L1020.9 44.975C1020.85 45.825 1020.68 46.65 1020.4 47.45C1020.13 48.2667 1019.7 49 1019.1 49.65C1018.5 50.3167 1017.68 50.8417 1016.65 51.225C1015.63 51.6083 1014.35 51.8 1012.8 51.8C1011.85 51.8 1010.95 51.6833 1010.1 51.45C1009.25 51.2167 1008.49 50.8583 1007.83 50.375C1007.18 49.9083 1006.66 49.3083 1006.28 48.575C1005.91 47.8583 1005.73 47.0083 1005.73 46.025ZM1013.28 36.05C1012.93 36.05 1012.63 35.9333 1012.38 35.7C1012.14 35.45 1012.03 35.1583 1012.03 34.825C1012.03 34.4917 1012.14 34.2 1012.38 33.95C1012.63 33.7 1012.93 33.575 1013.28 33.575C1013.61 33.575 1013.89 33.7 1014.13 33.95C1014.38 34.2 1014.5 34.4917 1014.5 34.825C1014.5 35.1583 1014.38 35.45 1014.13 35.7C1013.89 35.9333 1013.61 36.05 1013.28 36.05ZM1030.03 32.975L1029.88 28.65H1031.25L1031.4 32.975H1030.03ZM1023.24 46.125L1023.49 44.075C1023.95 44.075 1024.32 43.975 1024.59 43.775C1024.87 43.575 1025.14 43.2417 1025.39 42.775C1025.65 42.3083 1025.99 41.6833 1026.39 40.9C1026.79 40.1 1027.19 39.45 1027.59 38.95C1028 38.4333 1028.4 38.0333 1028.79 37.75C1029.19 37.45 1029.56 37.2417 1029.91 37.125C1030.26 37.0083 1030.59 36.95 1030.89 36.95C1031.44 36.95 1031.93 37.075 1032.36 37.325C1032.8 37.5583 1033.2 37.9667 1033.59 38.55C1033.97 39.1167 1034.36 39.9 1034.76 40.9C1035.15 41.8167 1035.49 42.5083 1035.79 42.975C1036.1 43.425 1036.43 43.725 1036.76 43.875C1037.11 44.0083 1037.5 44.075 1037.94 44.075C1038.29 44.075 1038.54 44.175 1038.69 44.375C1038.85 44.5583 1038.94 44.7833 1038.94 45.05C1038.94 45.3167 1038.82 45.5667 1038.59 45.8C1038.35 46.0167 1038.05 46.125 1037.69 46.125C1037.04 46.125 1036.44 46.0167 1035.89 45.8C1035.35 45.5833 1034.9 45.2417 1034.54 44.775L1034.89 44.25C1034.7 44.7667 1034.45 45.1917 1034.14 45.525C1033.84 45.8417 1033.5 46.075 1033.11 46.225C1032.73 46.3917 1032.32 46.475 1031.89 46.475C1031.34 46.475 1030.77 46.3583 1030.19 46.125C1029.62 45.8917 1029.07 45.5583 1028.54 45.125C1028 44.6917 1027.54 44.1833 1027.14 43.6C1026.7 44.3667 1026.29 44.9333 1025.89 45.3C1025.5 45.65 1025.1 45.875 1024.69 45.975C1024.27 46.075 1023.79 46.125 1023.24 46.125ZM1028.09 41.7C1028.37 42.1667 1028.67 42.575 1028.99 42.925C1029.32 43.275 1029.65 43.5667 1029.99 43.8C1030.32 44.0167 1030.65 44.1833 1030.96 44.3C1031.3 44.4 1031.6 44.45 1031.86 44.45C1032.45 44.45 1032.87 44.2417 1033.14 43.825C1033.42 43.4083 1033.41 42.825 1033.11 42.075C1032.96 41.6917 1032.8 41.3167 1032.64 40.95C1032.49 40.5833 1032.32 40.25 1032.14 39.95C1031.95 39.6333 1031.75 39.3917 1031.51 39.225C1031.28 39.0417 1031.02 38.95 1030.74 38.95C1030.49 38.95 1030.22 39.0333 1029.94 39.2C1029.67 39.3667 1029.38 39.65 1029.06 40.05C1028.76 40.45 1028.44 41 1028.09 41.7ZM1041.59 32.55C1040.88 32.55 1040.33 32.3333 1039.97 31.9C1039.62 31.4667 1039.44 30.9583 1039.44 30.375C1039.44 29.8917 1039.53 29.4583 1039.72 29.075C1039.92 28.675 1040.19 28.3583 1040.54 28.125C1040.89 27.875 1041.28 27.75 1041.72 27.75C1042.12 27.75 1042.48 27.8667 1042.79 28.1C1043.11 28.3333 1043.36 28.6417 1043.54 29.025C1043.73 29.4083 1043.82 29.8167 1043.82 30.25C1043.82 30.9 1043.61 31.45 1043.19 31.9C1042.78 32.3333 1042.24 32.55 1041.59 32.55ZM1041.57 31.25C1041.85 31.25 1042.09 31.1583 1042.29 30.975C1042.51 30.7917 1042.62 30.55 1042.62 30.25C1042.62 29.9333 1042.51 29.675 1042.29 29.475C1042.08 29.2583 1041.84 29.15 1041.59 29.15C1041.28 29.15 1041.03 29.2583 1040.84 29.475C1040.68 29.6917 1040.59 29.9417 1040.59 30.225C1040.59 30.525 1040.68 30.775 1040.87 30.975C1041.05 31.1583 1041.28 31.25 1041.57 31.25ZM1037.69 46.125L1037.92 44.075C1038.78 44.075 1039.63 44.0083 1040.47 43.875C1041.3 43.7417 1042.12 43.55 1042.92 43.3C1043.72 43.05 1044.48 42.75 1045.22 42.4C1045.97 42.0333 1046.67 41.6167 1047.34 41.15C1046.91 40.7667 1046.41 40.4333 1045.84 40.15C1045.27 39.8667 1044.65 39.65 1043.97 39.5C1043.3 39.3333 1042.59 39.25 1041.84 39.25C1041.57 39.25 1041.32 39.2583 1041.09 39.275C1040.86 39.2917 1040.62 39.325 1040.39 39.375C1040.16 39.4083 1039.89 39.4583 1039.59 39.525L1039.19 37.625C1039.64 37.4917 1040.09 37.3917 1040.54 37.325C1040.99 37.2417 1041.42 37.2 1041.84 37.2C1042.71 37.2 1043.49 37.3083 1044.19 37.525C1044.89 37.725 1045.52 37.975 1046.09 38.275C1046.67 38.575 1047.22 38.875 1047.72 39.175C1048.23 39.475 1048.73 39.7333 1049.22 39.95C1049.7 40.15 1050.2 40.25 1050.72 40.25H1051.24L1051.42 42.05C1050.7 42.05 1050.04 42.15 1049.44 42.35C1048.84 42.55 1048.25 42.8083 1047.67 43.125C1047.1 43.425 1046.5 43.75 1045.87 44.1C1045.23 44.4333 1044.53 44.7583 1043.77 45.075C1043 45.375 1042.12 45.625 1041.12 45.825C1040.13 46.025 1038.99 46.125 1037.69 46.125ZM1052 27.95V26.55L1057.6 24.9V26.325L1052 27.95ZM1053.49 33.225C1052.82 33.225 1052.38 33.0083 1052.17 32.575C1051.95 32.125 1051.84 31.65 1051.84 31.15C1051.84 30.9667 1051.85 30.775 1051.87 30.575C1051.9 30.3583 1051.94 30.1167 1051.99 29.85L1053.24 29.5C1053.19 29.7833 1053.15 30.05 1053.12 30.3C1053.1 30.5333 1053.09 30.7417 1053.09 30.925C1053.09 31.2417 1053.14 31.475 1053.24 31.625C1053.34 31.775 1053.5 31.85 1053.72 31.85C1053.97 31.85 1054.17 31.725 1054.34 31.475C1054.51 31.2083 1054.6 30.6833 1054.62 29.9V29.15L1055.82 28.7V30.225C1055.82 30.4583 1055.86 30.6667 1055.94 30.85C1056.04 31.0167 1056.24 31.1 1056.54 31.1C1056.84 31.1 1057.04 31.0083 1057.14 30.825C1057.24 30.6417 1057.29 30.4083 1057.29 30.125C1057.29 29.8417 1057.26 29.5583 1057.19 29.275C1057.12 28.975 1057.03 28.6833 1056.92 28.4L1058.04 28.05C1058.21 28.3667 1058.34 28.7333 1058.44 29.15C1058.56 29.55 1058.62 29.9167 1058.62 30.25C1058.62 30.8 1058.46 31.3 1058.14 31.75C1057.84 32.1833 1057.37 32.4 1056.72 32.4C1056.2 32.4 1055.77 32.2667 1055.44 32C1055.12 31.7167 1054.97 31.3833 1054.97 31L1055.54 31.225C1055.54 31.7917 1055.34 32.2667 1054.94 32.65C1054.56 33.0333 1054.07 33.225 1053.49 33.225ZM1051.51 51.8L1050.79 49.9C1052 49.5 1053.01 49.0417 1053.81 48.525C1054.63 48.0083 1055.27 47.4583 1055.74 46.875C1056.22 46.2917 1056.56 45.7 1056.76 45.1C1056.96 44.4833 1057.06 43.8917 1057.06 43.325C1057.06 42.5083 1056.88 41.6833 1056.51 40.85C1056.16 40 1055.77 39.2 1055.34 38.45L1057.16 37.525C1057.48 38.1083 1057.75 38.6833 1057.99 39.25C1058.24 39.8167 1058.45 40.35 1058.64 40.85C1058.84 41.35 1058.99 41.8083 1059.11 42.225C1059.34 42.9417 1059.64 43.4333 1060.01 43.7C1060.39 43.95 1060.91 44.075 1061.56 44.075C1061.91 44.075 1062.16 44.175 1062.31 44.375C1062.48 44.5583 1062.56 44.7833 1062.56 45.05C1062.56 45.3167 1062.44 45.5667 1062.21 45.8C1061.98 46.0167 1061.68 46.125 1061.31 46.125C1060.58 46.125 1059.98 46 1059.51 45.75C1059.06 45.4833 1058.72 45.1417 1058.49 44.725C1058.25 44.2917 1058.09 43.8417 1058.01 43.375L1058.81 43.825C1058.81 44.925 1058.56 45.925 1058.06 46.825C1057.58 47.7417 1056.95 48.5333 1056.19 49.2C1055.42 49.8833 1054.62 50.4417 1053.79 50.875C1052.95 51.3083 1052.19 51.6167 1051.51 51.8ZM1061.32 46.125L1061.55 44.075C1062.5 44.075 1063.16 43.9833 1063.55 43.8C1063.93 43.6167 1064.15 43.2917 1064.2 42.825C1064.26 42.3583 1064.28 41.7083 1064.25 40.875L1063.77 28.15H1065.8L1066.3 40.65C1066.33 41.5333 1066.3 42.3167 1066.2 43C1066.11 43.6833 1065.9 44.2583 1065.55 44.725C1065.21 45.1917 1064.71 45.5417 1064.02 45.775C1063.36 46.0083 1062.46 46.125 1061.32 46.125ZM1070.12 46L1069.62 28.15H1071.64L1072.14 46H1070.12ZM1084.05 50.275V48.875L1089.65 47.225V48.65L1084.05 50.275ZM1092.42 46.125C1091.52 46.125 1090.72 46 1090.02 45.75C1089.33 45.4833 1088.78 45.0417 1088.37 44.425C1087.97 43.7917 1087.74 42.9167 1087.69 41.8L1087.29 33.1H1089.32L1089.72 41.35C1089.77 42.1333 1089.91 42.725 1090.14 43.125C1090.38 43.5083 1090.7 43.7667 1091.12 43.9C1091.55 44.0167 1092.07 44.075 1092.67 44.075C1093.02 44.075 1093.27 44.175 1093.42 44.375C1093.58 44.5583 1093.67 44.7833 1093.67 45.05C1093.67 45.3167 1093.55 45.5667 1093.32 45.8C1093.08 46.0167 1092.78 46.125 1092.42 46.125ZM1088.64 43.375C1087.69 43.675 1086.77 43.825 1085.87 43.825C1084.97 43.825 1084.15 43.6917 1083.42 43.425C1082.68 43.1583 1082.1 42.775 1081.67 42.275C1081.23 41.7583 1081.02 41.1417 1081.02 40.425C1081.02 39.725 1081.19 39.0667 1081.54 38.45C1081.91 37.8333 1082.4 37.2833 1083.02 36.8C1083.65 36.3167 1084.38 35.9167 1085.19 35.6C1086.03 35.2667 1086.91 35.0417 1087.84 34.925L1088.19 37.025C1087.36 37.0583 1086.62 37.175 1085.97 37.375C1085.33 37.5583 1084.79 37.8 1084.34 38.1C1083.91 38.4 1083.58 38.725 1083.34 39.075C1083.11 39.425 1082.99 39.7667 1082.99 40.1C1082.99 40.4667 1083.13 40.7667 1083.39 41C1083.66 41.2333 1084 41.4167 1084.42 41.55C1084.83 41.6667 1085.29 41.7417 1085.79 41.775C1086.29 41.7917 1086.78 41.775 1087.24 41.725C1087.71 41.6583 1088.11 41.5667 1088.44 41.45L1088.64 43.375ZM1094.92 18.975L1094.77 14.65H1096.15L1096.3 18.975H1094.92ZM1094.04 24.225C1093.38 24.225 1092.93 24.0083 1092.72 23.575C1092.5 23.125 1092.39 22.65 1092.39 22.15C1092.39 21.9667 1092.4 21.775 1092.42 21.575C1092.45 21.3583 1092.49 21.1167 1092.54 20.85L1093.79 20.5C1093.74 20.7833 1093.7 21.05 1093.67 21.3C1093.65 21.5333 1093.64 21.7417 1093.64 21.925C1093.64 22.2417 1093.69 22.475 1093.79 22.625C1093.89 22.775 1094.05 22.85 1094.27 22.85C1094.52 22.85 1094.73 22.725 1094.89 22.475C1095.06 22.2083 1095.15 21.6833 1095.17 20.9V20.15L1096.37 19.7V21.225C1096.37 21.4583 1096.41 21.6667 1096.49 21.85C1096.59 22.0167 1096.79 22.1 1097.09 22.1C1097.39 22.1 1097.59 22.0083 1097.69 21.825C1097.79 21.6417 1097.84 21.4083 1097.84 21.125C1097.84 20.8417 1097.81 20.5583 1097.74 20.275C1097.68 19.975 1097.58 19.6833 1097.47 19.4L1098.59 19.05C1098.76 19.3667 1098.89 19.7333 1098.99 20.15C1099.11 20.55 1099.17 20.9167 1099.17 21.25C1099.17 21.8 1099.01 22.3 1098.69 22.75C1098.39 23.1833 1097.92 23.4 1097.27 23.4C1096.75 23.4 1096.33 23.2667 1095.99 23C1095.68 22.7167 1095.52 22.3833 1095.52 22L1096.09 22.225C1096.09 22.7917 1095.89 23.2667 1095.49 23.65C1095.11 24.0333 1094.63 24.225 1094.04 24.225ZM1092.43 46.125L1092.65 44.075C1093.6 44.075 1094.27 43.9833 1094.65 43.8C1095.03 43.6167 1095.25 43.2917 1095.3 42.825C1095.37 42.3583 1095.38 41.7083 1095.35 40.875L1094.93 28.15H1097L1097.4 40.825C1097.43 41.675 1097.57 42.3417 1097.8 42.825C1098.05 43.2917 1098.38 43.6167 1098.8 43.8C1099.22 43.9833 1099.68 44.075 1100.18 44.075C1100.53 44.075 1100.78 44.175 1100.93 44.375C1101.09 44.5583 1101.18 44.7833 1101.18 45.05C1101.18 45.3167 1101.06 45.5667 1100.83 45.8C1100.59 46.0167 1100.29 46.125 1099.93 46.125C1099.23 46.125 1098.64 46.0167 1098.18 45.8C1097.73 45.5667 1097.37 45.275 1097.1 44.925C1096.85 44.5583 1096.68 44.175 1096.6 43.775L1097.13 43.825C1096.96 44.325 1096.68 44.75 1096.3 45.1C1095.93 45.4333 1095.43 45.6917 1094.8 45.875C1094.17 46.0417 1093.38 46.125 1092.43 46.125ZM1099.92 46.125L1100.15 44.075C1101.1 44.075 1101.76 43.9833 1102.15 43.8C1102.53 43.6167 1102.75 43.2917 1102.8 42.825C1102.86 42.3583 1102.88 41.7083 1102.85 40.875L1102.37 28.15H1104.4L1104.9 40.65C1104.93 41.5333 1104.9 42.3167 1104.8 43C1104.71 43.6833 1104.5 44.2583 1104.15 44.725C1103.81 45.1917 1103.3 45.5417 1102.62 45.775C1101.95 46.0083 1101.05 46.125 1099.92 46.125ZM1108.72 46L1108.22 28.15H1110.24L1110.74 46H1108.72ZM1123.33 50.275V48.875L1128.93 47.225V48.65L1123.33 50.275ZM1120.79 55.825C1120.44 54.5417 1120.14 53.2833 1119.89 52.05C1119.64 50.8333 1119.45 49.7417 1119.32 48.775C1119.18 47.8083 1119.12 47.0917 1119.12 46.625C1119.12 45.3917 1119.32 44.2667 1119.72 43.25C1120.12 42.2333 1120.63 41.3417 1121.27 40.575C1121.9 39.7917 1122.58 39.1333 1123.32 38.6C1124.05 38.05 1124.76 37.6417 1125.44 37.375C1126.14 37.0917 1126.73 36.95 1127.22 36.95C1127.63 36.95 1128 37.0417 1128.32 37.225C1128.63 37.4083 1128.94 37.7667 1129.24 38.3C1129.54 38.8333 1129.86 39.6167 1130.19 40.65C1130.51 41.6 1130.81 42.325 1131.09 42.825C1131.38 43.3083 1131.68 43.6417 1132.02 43.825C1132.35 43.9917 1132.73 44.075 1133.17 44.075C1133.52 44.075 1133.77 44.175 1133.92 44.375C1134.08 44.5583 1134.17 44.7833 1134.17 45.05C1134.17 45.3167 1134.05 45.5667 1133.82 45.8C1133.58 46.0167 1133.28 46.125 1132.92 46.125C1132.27 46.125 1131.71 46.0083 1131.24 45.775C1130.79 45.5417 1130.4 45.225 1130.07 44.825L1130.64 44.35C1130.44 44.8333 1130.18 45.2333 1129.87 45.55C1129.57 45.85 1129.23 46.075 1128.84 46.225C1128.48 46.375 1128.08 46.45 1127.67 46.45C1127.18 46.45 1126.68 46.3583 1126.17 46.175C1125.65 46.0083 1125.14 45.7583 1124.64 45.425C1124.14 45.075 1123.67 44.65 1123.22 44.15C1122.78 43.65 1122.4 43.0833 1122.07 42.45L1122.32 42.5C1121.85 43.15 1121.54 43.8583 1121.39 44.625C1121.24 45.375 1121.17 46.0417 1121.17 46.625C1121.17 47.0917 1121.22 47.6833 1121.32 48.4C1121.42 49.1333 1121.54 49.9083 1121.69 50.725C1121.86 51.5417 1122.03 52.35 1122.22 53.15C1122.42 53.9667 1122.6 54.7 1122.77 55.35L1120.79 55.825ZM1127.87 44.4C1128.17 44.4 1128.41 44.3417 1128.59 44.225C1128.79 44.1083 1128.93 43.9333 1128.99 43.7C1129.06 43.4667 1129.03 43.175 1128.92 42.825C1128.72 42.225 1128.53 41.7 1128.37 41.25C1128.2 40.7833 1128.03 40.4 1127.87 40.1C1127.72 39.7833 1127.56 39.55 1127.39 39.4C1127.23 39.25 1127.05 39.175 1126.87 39.175C1126.68 39.175 1126.45 39.2167 1126.17 39.3C1125.9 39.3833 1125.61 39.5083 1125.29 39.675C1124.99 39.8417 1124.68 40.05 1124.37 40.3C1124.05 40.55 1123.75 40.8417 1123.47 41.175L1123.49 40.975C1123.86 41.7417 1124.3 42.3833 1124.82 42.9C1125.35 43.4167 1125.88 43.8 1126.42 44.05C1126.97 44.2833 1127.45 44.4 1127.87 44.4ZM1143.35 33.55C1142.63 33.55 1142.09 33.3333 1141.72 32.9C1141.37 32.4667 1141.2 31.9583 1141.2 31.375C1141.2 30.8917 1141.29 30.4583 1141.47 30.075C1141.67 29.675 1141.95 29.3583 1142.3 29.125C1142.65 28.875 1143.04 28.75 1143.47 28.75C1143.87 28.75 1144.23 28.8667 1144.55 29.1C1144.87 29.3333 1145.12 29.6417 1145.3 30.025C1145.48 30.4083 1145.57 30.8167 1145.57 31.25C1145.57 31.9 1145.37 32.45 1144.95 32.9C1144.53 33.3333 1144 33.55 1143.35 33.55ZM1143.32 32.25C1143.61 32.25 1143.85 32.1583 1144.05 31.975C1144.27 31.7917 1144.37 31.55 1144.37 31.25C1144.37 30.9333 1144.27 30.675 1144.05 30.475C1143.83 30.2583 1143.6 30.15 1143.35 30.15C1143.03 30.15 1142.78 30.2583 1142.6 30.475C1142.43 30.6917 1142.35 30.9417 1142.35 31.225C1142.35 31.525 1142.44 31.775 1142.62 31.975C1142.81 32.1583 1143.04 32.25 1143.32 32.25ZM1132.9 46.125L1133.15 44.075C1133.69 44.075 1134.12 44.0417 1134.45 43.975C1134.79 43.8917 1135.06 43.7 1135.28 43.4C1135.51 43.0833 1135.73 42.5917 1135.93 41.925C1136.13 41.2583 1136.36 40.325 1136.63 39.125L1138.5 39.65C1138.4 40.0667 1138.29 40.5667 1138.15 41.15C1138.02 41.7333 1137.95 42.2667 1137.95 42.75C1137.95 43.0167 1138.02 43.25 1138.15 43.45C1138.29 43.65 1138.51 43.8083 1138.83 43.925C1139.16 44.025 1139.6 44.075 1140.15 44.075C1140.65 44.075 1141.06 44.0333 1141.38 43.95C1141.7 43.8667 1141.95 43.6667 1142.15 43.35C1142.37 43.0333 1142.56 42.525 1142.73 41.825C1142.9 41.125 1143.07 40.1667 1143.25 38.95L1145.15 39.3C1145.1 39.6 1145.05 39.9667 1144.98 40.4C1144.91 40.8333 1144.85 41.2667 1144.78 41.7C1144.73 42.1167 1144.7 42.4667 1144.7 42.75C1144.7 42.9833 1144.75 43.2083 1144.85 43.425C1144.97 43.625 1145.19 43.7833 1145.5 43.9C1145.84 44.0167 1146.33 44.075 1146.98 44.075C1147.81 44.075 1148.41 43.9 1148.78 43.55C1149.16 43.2 1149.36 42.6667 1149.36 41.95C1149.36 41.5667 1149.35 41.1667 1149.33 40.75C1149.31 40.3167 1149.28 39.8417 1149.23 39.325C1149.2 38.7917 1149.14 38.1833 1149.05 37.5L1150.88 37.375C1150.98 38.725 1151.09 39.8333 1151.21 40.7C1151.34 41.5667 1151.52 42.25 1151.75 42.75C1152 43.2333 1152.34 43.575 1152.75 43.775C1153.17 43.975 1153.72 44.075 1154.4 44.075C1154.75 44.075 1155 44.175 1155.15 44.375C1155.32 44.5583 1155.4 44.7833 1155.4 45.05C1155.4 45.3167 1155.29 45.5667 1155.05 45.8C1154.82 46.0167 1154.52 46.125 1154.15 46.125C1153.59 46.125 1153.08 46.05 1152.63 45.9C1152.2 45.7333 1151.81 45.5167 1151.48 45.25C1151.16 44.9667 1150.9 44.65 1150.68 44.3C1150.48 43.9333 1150.34 43.55 1150.25 43.15L1150.7 43.3C1150.52 44.05 1150.23 44.6333 1149.83 45.05C1149.45 45.45 1148.99 45.7333 1148.45 45.9C1147.92 46.05 1147.35 46.125 1146.75 46.125C1146.02 46.125 1145.42 46.0333 1144.95 45.85C1144.49 45.6667 1144.12 45.3917 1143.85 45.025C1143.6 44.6417 1143.44 44.1583 1143.35 43.575H1144.2C1143.89 44.2917 1143.55 44.8333 1143.2 45.2C1142.85 45.5667 1142.42 45.8167 1141.9 45.95C1141.39 46.0667 1140.7 46.125 1139.85 46.125C1139.44 46.125 1138.99 46.0583 1138.5 45.925C1138.04 45.7917 1137.63 45.5333 1137.28 45.15C1136.93 44.75 1136.72 44.1583 1136.65 43.375L1137.4 43.225C1137.12 44.075 1136.77 44.7083 1136.35 45.125C1135.95 45.525 1135.47 45.7917 1134.9 45.925C1134.34 46.0583 1133.67 46.125 1132.9 46.125ZM1154.27 55.275V53.875L1159.87 52.225V53.65L1154.27 55.275ZM1154.15 46.125L1154.4 44.075C1155.21 44.075 1155.86 44.025 1156.35 43.925C1156.83 43.825 1157.18 43.625 1157.4 43.325C1157.61 43.0083 1157.72 42.5417 1157.72 41.925C1157.72 41.5083 1157.65 41.0167 1157.52 40.45C1157.39 39.8667 1157.21 39.25 1157 38.6C1156.78 37.95 1156.55 37.3083 1156.3 36.675L1158.32 35.925C1158.54 36.4583 1158.74 37.0667 1158.92 37.75C1159.12 38.4333 1159.29 39.1083 1159.42 39.775C1159.55 40.4417 1159.62 41.025 1159.62 41.525C1159.62 42.1917 1159.55 42.7833 1159.4 43.3C1159.26 43.8 1159.05 44.2333 1158.77 44.6C1158.49 44.95 1158.12 45.2417 1157.67 45.475C1157.24 45.6917 1156.73 45.8583 1156.15 45.975C1155.56 46.075 1154.9 46.125 1154.15 46.125ZM1156.82 50.775C1156.47 50.775 1156.17 50.65 1155.92 50.4C1155.69 50.1667 1155.57 49.8833 1155.57 49.55C1155.57 49.2167 1155.69 48.925 1155.92 48.675C1156.17 48.425 1156.47 48.3 1156.82 48.3C1157.15 48.3 1157.44 48.425 1157.67 48.675C1157.92 48.925 1158.05 49.2167 1158.05 49.55C1158.05 49.8833 1157.92 50.1667 1157.67 50.4C1157.44 50.65 1157.15 50.775 1156.82 50.775Z" fill="black" fill-opacity="0.75"/>
<g clip-path="url(#clip0_165_42)">
<path d="M73.347 33.6017L73.2494 24.3726C73.2409 23.5637 72.5781 22.9148 71.7692 22.9233L62.5401 23.0209L56.0367 16.6802C55.459 16.1171 54.535 16.1269 53.9695 16.7021L47.6017 23.1788L38.3726 23.2764C37.5636 23.2849 36.9148 23.9477 36.9233 24.7566L37.0209 33.9857L30.6802 40.4891C30.1171 41.0667 30.1269 41.9908 30.7021 42.5563L37.1788 48.9241L37.2764 58.1532C37.2849 58.9622 37.9477 59.611 38.7566 59.6025L47.9857 59.5049L54.489 65.8456C54.7779 66.1271 55.1533 66.2655 55.5272 66.2615C55.9011 66.2576 56.2735 66.1113 56.5562 65.8237L62.9241 59.347L72.1532 59.2494C72.9621 59.2409 73.611 58.5781 73.6025 57.7692L73.5049 48.5401L79.8456 42.0368C80.4087 41.4592 80.3989 40.5351 79.8237 39.9696L73.347 33.6017ZM70.9849 46.928C70.7145 47.2055 70.5649 47.5786 70.569 47.966L70.6575 56.3354L62.2882 56.4239C61.9008 56.4279 61.5308 56.5854 61.2592 56.8616L55.4899 62.7296L49.5978 56.9849C49.3204 56.7145 48.9472 56.5649 48.5598 56.569L40.1904 56.6575L40.1019 48.2882C40.0979 47.9008 39.9404 47.5308 39.6642 47.2592L33.7962 41.4899L39.5409 35.5978C39.8113 35.3204 39.9609 34.9472 39.9568 34.5598L39.8683 26.1904L48.2376 26.102C48.625 26.0979 48.995 25.9404 49.2666 25.6642L55.0359 19.7962L60.9281 25.5409C61.2055 25.8113 61.5787 25.9609 61.9661 25.9568L70.3354 25.8683L70.4238 34.2376C70.4279 34.625 70.5854 34.995 70.8616 35.2666L76.7296 41.0359L70.9849 46.928Z" fill="black"/>
</g>
<path d="M52.6827 37.25L52.6827 35.794L55.5947 35.794L55.5947 46L53.9847 46L53.9847 37.25L52.6827 37.25Z" fill="black"/>
<defs>
<clipPath id="clip0_165_42">
<rect width="50" height="50" fill="white" transform="translate(30 16.5286) rotate(-0.605732)"/>
</clipPath>
</defs>
</svg>
