<svg width="1273" height="117" viewBox="0 0 1273 117" fill="none" xmlns="http://www.w3.org/2000/svg">
<rect width="1273" height="92" rx="10" fill="#FE5353"/>
<path d="M133.35 27.45H126.075L124.825 31H121.85L128.075 13.6H131.375L137.6 31H134.6L133.35 27.45ZM132.55 25.125L129.725 17.05L126.875 25.125H132.55ZM143.157 12.5V31H140.307V12.5H143.157ZM157.473 20.75V23.15H147.198V20.75H157.473ZM164.372 13.625V31H161.522V13.625H164.372ZM173.564 24.125L179.914 31H176.064L170.964 25.075V31H168.114V12.5H170.964V23.25L175.964 17.225H179.914L173.564 24.125ZM189.082 17C190.132 17 191.065 17.225 191.882 17.675C192.715 18.125 193.365 18.7917 193.832 19.675C194.315 20.5583 194.557 21.625 194.557 22.875V31H191.732V23.3C191.732 22.0667 191.424 21.125 190.807 20.475C190.19 19.8083 189.349 19.475 188.282 19.475C187.215 19.475 186.365 19.8083 185.732 20.475C185.115 21.125 184.807 22.0667 184.807 23.3V31H181.957V12.5H184.807V18.825C185.29 18.2417 185.899 17.7917 186.632 17.475C187.382 17.1583 188.199 17 189.082 17ZM201.042 12.5V31H198.192V12.5H201.042ZM203.834 24.05C203.834 22.6667 204.118 21.4417 204.684 20.375C205.268 19.3083 206.051 18.4833 207.034 17.9C208.034 17.3 209.134 17 210.334 17C211.418 17 212.359 17.2167 213.159 17.65C213.976 18.0667 214.626 18.5917 215.109 19.225V17.225H217.984V31H215.109V28.95C214.626 29.6 213.968 30.1417 213.134 30.575C212.301 31.0083 211.351 31.225 210.284 31.225C209.101 31.225 208.018 30.925 207.034 30.325C206.051 29.7083 205.268 28.8583 204.684 27.775C204.118 26.675 203.834 25.4333 203.834 24.05ZM215.109 24.1C215.109 23.15 214.909 22.325 214.509 21.625C214.126 20.925 213.618 20.3917 212.984 20.025C212.351 19.6583 211.668 19.475 210.934 19.475C210.201 19.475 209.518 19.6583 208.884 20.025C208.251 20.375 207.734 20.9 207.334 21.6C206.951 22.2833 206.759 23.1 206.759 24.05C206.759 25 206.951 25.8333 207.334 26.55C207.734 27.2667 208.251 27.8167 208.884 28.2C209.534 28.5667 210.218 28.75 210.934 28.75C211.668 28.75 212.351 28.5667 212.984 28.2C213.618 27.8333 214.126 27.3 214.509 26.6C214.909 25.8833 215.109 25.05 215.109 24.1ZM226.728 31.225C225.644 31.225 224.669 31.0333 223.803 30.65C222.953 30.25 222.278 29.7167 221.778 29.05C221.278 28.3667 221.011 27.6083 220.978 26.775H223.928C223.978 27.3583 224.253 27.85 224.753 28.25C225.269 28.6333 225.911 28.825 226.678 28.825C227.478 28.825 228.094 28.675 228.528 28.375C228.978 28.0583 229.203 27.6583 229.203 27.175C229.203 26.6583 228.953 26.275 228.453 26.025C227.969 25.775 227.194 25.5 226.128 25.2C225.094 24.9167 224.253 24.6417 223.603 24.375C222.953 24.1083 222.386 23.7 221.903 23.15C221.436 22.6 221.203 21.875 221.203 20.975C221.203 20.2417 221.419 19.575 221.853 18.975C222.286 18.3583 222.903 17.875 223.703 17.525C224.519 17.175 225.453 17 226.503 17C228.069 17 229.328 17.4 230.278 18.2C231.244 18.9833 231.761 20.0583 231.828 21.425H228.978C228.928 20.8083 228.678 20.3167 228.228 19.95C227.778 19.5833 227.169 19.4 226.403 19.4C225.653 19.4 225.078 19.5417 224.678 19.825C224.278 20.1083 224.078 20.4833 224.078 20.95C224.078 21.3167 224.211 21.625 224.478 21.875C224.744 22.125 225.069 22.325 225.453 22.475C225.836 22.6083 226.403 22.7833 227.153 23C228.153 23.2667 228.969 23.5417 229.603 23.825C230.253 24.0917 230.811 24.4917 231.278 25.025C231.744 25.5583 231.986 26.2667 232.003 27.15C232.003 27.9333 231.786 28.6333 231.353 29.25C230.919 29.8667 230.303 30.35 229.503 30.7C228.719 31.05 227.794 31.225 226.728 31.225Z" fill="black" fill-opacity="0.75"/>
<path d="M132.3 52.679L127.76 61.359V66.619H125.94V61.359L121.38 52.679H123.4L126.84 59.739L130.28 52.679H132.3ZM133.54 61.099C133.54 59.979 133.766 58.999 134.22 58.159C134.673 57.3057 135.293 56.6457 136.08 56.179C136.88 55.7124 137.766 55.479 138.74 55.479C139.7 55.479 140.533 55.6857 141.24 56.099C141.946 56.5124 142.473 57.0324 142.82 57.659V55.659H144.66V66.619H142.82V64.579C142.46 65.219 141.92 65.7524 141.2 66.179C140.493 66.5924 139.666 66.799 138.72 66.799C137.746 66.799 136.866 66.559 136.08 66.079C135.293 65.599 134.673 64.9257 134.22 64.059C133.766 63.1924 133.54 62.2057 133.54 61.099ZM142.82 61.119C142.82 60.2924 142.653 59.5724 142.32 58.959C141.986 58.3457 141.533 57.879 140.96 57.559C140.4 57.2257 139.78 57.059 139.1 57.059C138.42 57.059 137.8 57.219 137.24 57.539C136.68 57.859 136.233 58.3257 135.9 58.939C135.566 59.5524 135.4 60.2724 135.4 61.099C135.4 61.939 135.566 62.6724 135.9 63.299C136.233 63.9124 136.68 64.3857 137.24 64.719C137.8 65.039 138.42 65.199 139.1 65.199C139.78 65.199 140.4 65.039 140.96 64.719C141.533 64.3857 141.986 63.9124 142.32 63.299C142.653 62.6724 142.82 61.9457 142.82 61.119ZM153.075 55.459C154.409 55.459 155.489 55.8657 156.315 56.679C157.142 57.479 157.555 58.639 157.555 60.159V66.619H155.755V60.419C155.755 59.3257 155.482 58.4924 154.935 57.919C154.389 57.3324 153.642 57.039 152.695 57.039C151.735 57.039 150.969 57.339 150.395 57.939C149.835 58.539 149.555 59.4124 149.555 60.559V66.619H147.735V55.659H149.555V57.219C149.915 56.659 150.402 56.2257 151.015 55.919C151.642 55.6124 152.329 55.459 153.075 55.459ZM165.048 55.479C165.995 55.479 166.822 55.6857 167.528 56.099C168.248 56.5124 168.782 57.0324 169.128 57.659V55.659H170.968V66.859C170.968 67.859 170.755 68.7457 170.328 69.519C169.902 70.3057 169.288 70.919 168.488 71.359C167.702 71.799 166.782 72.019 165.728 72.019C164.288 72.019 163.088 71.679 162.128 70.999C161.168 70.319 160.602 69.3924 160.428 68.219H162.228C162.428 68.8857 162.842 69.419 163.468 69.819C164.095 70.2324 164.848 70.439 165.728 70.439C166.728 70.439 167.542 70.1257 168.168 69.499C168.808 68.8724 169.128 67.9924 169.128 66.859V64.559C168.768 65.199 168.235 65.7324 167.528 66.159C166.822 66.5857 165.995 66.799 165.048 66.799C164.075 66.799 163.188 66.559 162.388 66.079C161.602 65.599 160.982 64.9257 160.528 64.059C160.075 63.1924 159.848 62.2057 159.848 61.099C159.848 59.979 160.075 58.999 160.528 58.159C160.982 57.3057 161.602 56.6457 162.388 56.179C163.188 55.7124 164.075 55.479 165.048 55.479ZM169.128 61.119C169.128 60.2924 168.962 59.5724 168.628 58.959C168.295 58.3457 167.842 57.879 167.268 57.559C166.708 57.2257 166.088 57.059 165.408 57.059C164.728 57.059 164.108 57.219 163.548 57.539C162.988 57.859 162.542 58.3257 162.208 58.939C161.875 59.5524 161.708 60.2724 161.708 61.099C161.708 61.939 161.875 62.6724 162.208 63.299C162.542 63.9124 162.988 64.3857 163.548 64.719C164.108 65.039 164.728 65.199 165.408 65.199C166.088 65.199 166.708 65.039 167.268 64.719C167.842 64.3857 168.295 63.9124 168.628 63.299C168.962 62.6724 169.128 61.9457 169.128 61.119ZM193.516 52.779V66.619H191.696V56.299L187.096 66.619H185.816L181.196 56.279V66.619H179.376V52.779H181.336L186.456 64.219L191.576 52.779H193.516ZM195.923 61.099C195.923 59.979 196.149 58.999 196.603 58.159C197.056 57.3057 197.676 56.6457 198.463 56.179C199.263 55.7124 200.149 55.479 201.123 55.479C202.083 55.479 202.916 55.6857 203.623 56.099C204.329 56.5124 204.856 57.0324 205.203 57.659V55.659H207.043V66.619H205.203V64.579C204.843 65.219 204.303 65.7524 203.583 66.179C202.876 66.5924 202.049 66.799 201.103 66.799C200.129 66.799 199.249 66.559 198.463 66.079C197.676 65.599 197.056 64.9257 196.603 64.059C196.149 63.1924 195.923 62.2057 195.923 61.099ZM205.203 61.119C205.203 60.2924 205.036 59.5724 204.703 58.959C204.369 58.3457 203.916 57.879 203.343 57.559C202.783 57.2257 202.163 57.059 201.483 57.059C200.803 57.059 200.183 57.219 199.623 57.539C199.063 57.859 198.616 58.3257 198.283 58.939C197.949 59.5524 197.783 60.2724 197.783 61.099C197.783 61.939 197.949 62.6724 198.283 63.299C198.616 63.9124 199.063 64.3857 199.623 64.719C200.183 65.039 200.803 65.199 201.483 65.199C202.163 65.199 202.783 65.039 203.343 64.719C203.916 64.3857 204.369 63.9124 204.703 63.299C205.036 62.6724 205.203 61.9457 205.203 61.119ZM215.558 55.459C216.385 55.459 217.131 55.639 217.798 55.999C218.465 56.3457 218.985 56.8724 219.358 57.579C219.745 58.2857 219.938 59.1457 219.938 60.159V66.619H218.138V60.419C218.138 59.3257 217.865 58.4924 217.318 57.919C216.771 57.3324 216.025 57.039 215.078 57.039C214.118 57.039 213.351 57.339 212.778 57.939C212.218 58.539 211.938 59.4124 211.938 60.559V66.619H210.118V51.819H211.938V57.219C212.298 56.659 212.791 56.2257 213.418 55.919C214.058 55.6124 214.771 55.459 215.558 55.459ZM222.231 61.099C222.231 59.979 222.458 58.999 222.911 58.159C223.364 57.3057 223.984 56.6457 224.771 56.179C225.571 55.7124 226.458 55.479 227.431 55.479C228.391 55.479 229.224 55.6857 229.931 56.099C230.638 56.5124 231.164 57.0324 231.511 57.659V55.659H233.351V66.619H231.511V64.579C231.151 65.219 230.611 65.7524 229.891 66.179C229.184 66.5924 228.358 66.799 227.411 66.799C226.438 66.799 225.558 66.559 224.771 66.079C223.984 65.599 223.364 64.9257 222.911 64.059C222.458 63.1924 222.231 62.2057 222.231 61.099ZM231.511 61.119C231.511 60.2924 231.344 59.5724 231.011 58.959C230.678 58.3457 230.224 57.879 229.651 57.559C229.091 57.2257 228.471 57.059 227.791 57.059C227.111 57.059 226.491 57.219 225.931 57.539C225.371 57.859 224.924 58.3257 224.591 58.939C224.258 59.5524 224.091 60.2724 224.091 61.099C224.091 61.939 224.258 62.6724 224.591 63.299C224.924 63.9124 225.371 64.3857 225.931 64.719C226.491 65.039 227.111 65.199 227.791 65.199C228.471 65.199 229.091 65.039 229.651 64.719C230.224 64.3857 230.678 63.9124 231.011 63.299C231.344 62.6724 231.511 61.9457 231.511 61.119ZM250.339 52.679V54.159H246.539V66.619H244.719V54.159H240.899V52.679H250.339ZM253.519 53.879C253.172 53.879 252.879 53.759 252.639 53.519C252.399 53.279 252.279 52.9857 252.279 52.639C252.279 52.2924 252.399 51.999 252.639 51.759C252.879 51.519 253.172 51.399 253.519 51.399C253.852 51.399 254.132 51.519 254.359 51.759C254.599 51.999 254.719 52.2924 254.719 52.639C254.719 52.9857 254.599 53.279 254.359 53.519C254.132 53.759 253.852 53.879 253.519 53.879ZM254.399 55.659V66.619H252.579V55.659H254.399ZM262.841 55.459C264.174 55.459 265.254 55.8657 266.081 56.679C266.908 57.479 267.321 58.639 267.321 60.159V66.619H265.521V60.419C265.521 59.3257 265.248 58.4924 264.701 57.919C264.154 57.3324 263.408 57.039 262.461 57.039C261.501 57.039 260.734 57.339 260.161 57.939C259.601 58.539 259.321 59.4124 259.321 60.559V66.619H257.501V55.659H259.321V57.219C259.681 56.659 260.168 56.2257 260.781 55.919C261.408 55.6124 262.094 55.459 262.841 55.459ZM274.814 55.479C275.761 55.479 276.587 55.6857 277.294 56.099C278.014 56.5124 278.547 57.0324 278.894 57.659V55.659H280.734V66.859C280.734 67.859 280.521 68.7457 280.094 69.519C279.667 70.3057 279.054 70.919 278.254 71.359C277.467 71.799 276.547 72.019 275.494 72.019C274.054 72.019 272.854 71.679 271.894 70.999C270.934 70.319 270.367 69.3924 270.194 68.219H271.994C272.194 68.8857 272.607 69.419 273.234 69.819C273.861 70.2324 274.614 70.439 275.494 70.439C276.494 70.439 277.307 70.1257 277.934 69.499C278.574 68.8724 278.894 67.9924 278.894 66.859V64.559C278.534 65.199 278.001 65.7324 277.294 66.159C276.587 66.5857 275.761 66.799 274.814 66.799C273.841 66.799 272.954 66.559 272.154 66.079C271.367 65.599 270.747 64.9257 270.294 64.059C269.841 63.1924 269.614 62.2057 269.614 61.099C269.614 59.979 269.841 58.999 270.294 58.159C270.747 57.3057 271.367 56.6457 272.154 56.179C272.954 55.7124 273.841 55.479 274.814 55.479ZM278.894 61.119C278.894 60.2924 278.727 59.5724 278.394 58.959C278.061 58.3457 277.607 57.879 277.034 57.559C276.474 57.2257 275.854 57.059 275.174 57.059C274.494 57.059 273.874 57.219 273.314 57.539C272.754 57.859 272.307 58.3257 271.974 58.939C271.641 59.5524 271.474 60.2724 271.474 61.099C271.474 61.939 271.641 62.6724 271.974 63.299C272.307 63.9124 272.754 64.3857 273.314 64.719C273.874 65.039 274.494 65.199 275.174 65.199C275.854 65.199 276.474 65.039 277.034 64.719C277.607 64.3857 278.061 63.9124 278.394 63.299C278.727 62.6724 278.894 61.9457 278.894 61.119ZM288.33 55.479C289.276 55.479 290.103 55.6857 290.81 56.099C291.53 56.5124 292.063 57.0324 292.41 57.659V55.659H294.25V66.859C294.25 67.859 294.036 68.7457 293.61 69.519C293.183 70.3057 292.57 70.919 291.77 71.359C290.983 71.799 290.063 72.019 289.01 72.019C287.57 72.019 286.37 71.679 285.41 70.999C284.45 70.319 283.883 69.3924 283.71 68.219H285.51C285.71 68.8857 286.123 69.419 286.75 69.819C287.376 70.2324 288.13 70.439 289.01 70.439C290.01 70.439 290.823 70.1257 291.45 69.499C292.09 68.8724 292.41 67.9924 292.41 66.859V64.559C292.05 65.199 291.516 65.7324 290.81 66.159C290.103 66.5857 289.276 66.799 288.33 66.799C287.356 66.799 286.47 66.559 285.67 66.079C284.883 65.599 284.263 64.9257 283.81 64.059C283.356 63.1924 283.13 62.2057 283.13 61.099C283.13 59.979 283.356 58.999 283.81 58.159C284.263 57.3057 284.883 56.6457 285.67 56.179C286.47 55.7124 287.356 55.479 288.33 55.479ZM292.41 61.119C292.41 60.2924 292.243 59.5724 291.91 58.959C291.576 58.3457 291.123 57.879 290.55 57.559C289.99 57.2257 289.37 57.059 288.69 57.059C288.01 57.059 287.39 57.219 286.83 57.539C286.27 57.859 285.823 58.3257 285.49 58.939C285.156 59.5524 284.99 60.2724 284.99 61.099C284.99 61.939 285.156 62.6724 285.49 63.299C285.823 63.9124 286.27 64.3857 286.83 64.719C287.39 65.039 288.01 65.199 288.69 65.199C289.37 65.199 289.99 65.039 290.55 64.719C291.123 64.3857 291.576 63.9124 291.91 63.299C292.243 62.6724 292.41 61.9457 292.41 61.119ZM298.265 53.879C297.918 53.879 297.625 53.759 297.385 53.519C297.145 53.279 297.025 52.9857 297.025 52.639C297.025 52.2924 297.145 51.999 297.385 51.759C297.625 51.519 297.918 51.399 298.265 51.399C298.598 51.399 298.878 51.519 299.105 51.759C299.345 51.999 299.465 52.2924 299.465 52.639C299.465 52.9857 299.345 53.279 299.105 53.519C298.878 53.759 298.598 53.879 298.265 53.879ZM299.145 55.659V66.619H297.325V55.659H299.145ZM312.259 70.339C310.979 69.0857 309.979 67.4924 309.259 65.559C308.552 63.6257 308.199 61.539 308.199 59.299C308.199 57.0057 308.572 54.8657 309.319 52.879C310.079 50.879 311.159 49.2324 312.559 47.939H314.459V48.119C312.966 49.519 311.839 51.2057 311.079 53.179C310.332 55.139 309.959 57.179 309.959 59.299C309.959 61.3657 310.312 63.339 311.019 65.219C311.739 67.099 312.786 68.7457 314.159 70.159V70.339H312.259ZM321.253 63.399V62.019L328.273 52.299H330.453V61.819H332.453V63.399H330.453V66.619H328.653V63.399H321.253ZM328.733 54.199L323.353 61.819H328.733V54.199ZM339.323 70.339V70.159C340.697 68.7457 341.737 67.099 342.443 65.219C343.163 63.339 343.523 61.3657 343.523 59.299C343.523 57.179 343.143 55.139 342.383 53.179C341.637 51.2057 340.517 49.519 339.023 48.119V47.939H340.923C342.323 49.2324 343.397 50.879 344.143 52.879C344.903 54.8657 345.283 57.0057 345.283 59.299C345.283 61.539 344.923 63.6257 344.203 65.559C343.497 67.4924 342.503 69.0857 341.223 70.339H339.323Z" fill="black" fill-opacity="0.75"/>
<path d="M943.5 43.275V41.875L949.1 40.225V41.65L943.5 43.275ZM940.958 48.825C940.608 47.5417 940.308 46.2833 940.058 45.05C939.808 43.8333 939.616 42.7417 939.483 41.775C939.35 40.8083 939.283 40.0917 939.283 39.625C939.283 38.3917 939.483 37.2667 939.883 36.25C940.283 35.2333 940.8 34.3417 941.433 33.575C942.066 32.7917 942.75 32.1333 943.483 31.6C944.216 31.05 944.925 30.6417 945.608 30.375C946.308 30.0917 946.9 29.95 947.383 29.95C947.8 29.95 948.166 30.0417 948.483 30.225C948.8 30.4083 949.108 30.7667 949.408 31.3C949.708 31.8333 950.025 32.6167 950.358 33.65C950.675 34.6 950.975 35.325 951.258 35.825C951.541 36.3083 951.85 36.6417 952.183 36.825C952.516 36.9917 952.9 37.075 953.333 37.075C953.683 37.075 953.933 37.175 954.083 37.375C954.25 37.5583 954.333 37.7833 954.333 38.05C954.333 38.3167 954.216 38.5667 953.983 38.8C953.75 39.0167 953.45 39.125 953.083 39.125C952.433 39.125 951.875 39.0083 951.408 38.775C950.958 38.5417 950.566 38.225 950.233 37.825L950.808 37.35C950.608 37.8333 950.35 38.2333 950.033 38.55C949.733 38.85 949.391 39.075 949.008 39.225C948.641 39.375 948.25 39.45 947.833 39.45C947.35 39.45 946.85 39.3583 946.333 39.175C945.816 39.0083 945.308 38.7583 944.808 38.425C944.308 38.075 943.833 37.65 943.383 37.15C942.95 36.65 942.566 36.0833 942.233 35.45L942.483 35.5C942.016 36.15 941.708 36.8583 941.558 37.625C941.408 38.375 941.333 39.0417 941.333 39.625C941.333 40.0917 941.383 40.6833 941.483 41.4C941.583 42.1333 941.708 42.9083 941.858 43.725C942.025 44.5417 942.2 45.35 942.383 46.15C942.583 46.9667 942.766 47.7 942.933 48.35L940.958 48.825ZM948.033 37.4C948.333 37.4 948.575 37.3417 948.758 37.225C948.958 37.1083 949.091 36.9333 949.158 36.7C949.225 36.4667 949.2 36.175 949.083 35.825C948.883 35.225 948.7 34.7 948.533 34.25C948.366 33.7833 948.2 33.4 948.033 33.1C947.883 32.7833 947.725 32.55 947.558 32.4C947.391 32.25 947.216 32.175 947.033 32.175C946.85 32.175 946.616 32.2167 946.333 32.3C946.066 32.3833 945.775 32.5083 945.458 32.675C945.158 32.8417 944.85 33.05 944.533 33.3C944.216 33.55 943.916 33.8417 943.633 34.175L943.658 33.975C944.025 34.7417 944.466 35.3833 944.983 35.9C945.516 36.4167 946.05 36.8 946.583 37.05C947.133 37.2833 947.616 37.4 948.033 37.4ZM957.729 27.55C957.013 27.55 956.471 27.3333 956.104 26.9C955.754 26.4667 955.579 25.9583 955.579 25.375C955.579 24.8917 955.671 24.4583 955.854 24.075C956.054 23.675 956.329 23.3583 956.679 23.125C957.029 22.875 957.421 22.75 957.854 22.75C958.254 22.75 958.613 22.8667 958.929 23.1C959.246 23.3333 959.496 23.6417 959.679 24.025C959.863 24.4083 959.954 24.8167 959.954 25.25C959.954 25.9 959.746 26.45 959.329 26.9C958.913 27.3333 958.379 27.55 957.729 27.55ZM957.704 26.25C957.988 26.25 958.229 26.1583 958.429 25.975C958.646 25.7917 958.754 25.55 958.754 25.25C958.754 24.9333 958.646 24.675 958.429 24.475C958.213 24.2583 957.979 24.15 957.729 24.15C957.413 24.15 957.163 24.2583 956.979 24.475C956.813 24.6917 956.729 24.9417 956.729 25.225C956.729 25.525 956.821 25.775 957.004 25.975C957.188 26.1583 957.421 26.25 957.704 26.25ZM953.071 39.125L953.321 37.075C954.154 37.075 954.804 37.0167 955.271 36.9C955.738 36.7667 956.088 36.525 956.321 36.175C956.571 35.8083 956.771 35.2833 956.921 34.6C957.071 33.9167 957.254 33.025 957.471 31.925L959.421 32.3C959.354 32.6 959.279 32.9333 959.196 33.3C959.113 33.6667 959.038 34.0333 958.971 34.4C958.921 34.75 958.896 35.0583 958.896 35.325C958.896 35.575 958.913 35.8083 958.946 36.025C958.979 36.2417 959.104 36.425 959.321 36.575C959.538 36.725 959.904 36.85 960.421 36.95C960.938 37.0333 961.679 37.075 962.646 37.075C962.996 37.075 963.246 37.175 963.396 37.375C963.563 37.5583 963.646 37.7833 963.646 38.05C963.646 38.3167 963.529 38.5667 963.296 38.8C963.063 39.0167 962.763 39.125 962.396 39.125C961.379 39.125 960.571 39.075 959.971 38.975C959.371 38.8583 958.913 38.6917 958.596 38.475C958.296 38.2583 958.079 37.9917 957.946 37.675C957.829 37.3417 957.738 36.9583 957.671 36.525L958.421 36.575C958.154 37.1083 957.863 37.5417 957.546 37.875C957.246 38.2083 956.896 38.4667 956.496 38.65C956.096 38.8333 955.613 38.9583 955.046 39.025C954.496 39.0917 953.838 39.125 953.071 39.125ZM959.371 43.85C959.021 43.85 958.721 43.725 958.471 43.475C958.238 43.2417 958.121 42.9583 958.121 42.625C958.121 42.2917 958.238 42 958.471 41.75C958.721 41.5 959.021 41.375 959.371 41.375C959.704 41.375 959.988 41.5 960.221 41.75C960.471 42 960.596 42.2917 960.596 42.625C960.596 42.9583 960.471 43.2417 960.221 43.475C959.988 43.725 959.704 43.85 959.371 43.85ZM955.946 43.85C955.596 43.85 955.296 43.725 955.046 43.475C954.813 43.2417 954.696 42.9583 954.696 42.625C954.696 42.2917 954.813 42 955.046 41.75C955.296 41.5 955.596 41.375 955.946 41.375C956.279 41.375 956.563 41.5 956.796 41.75C957.046 42 957.171 42.2917 957.171 42.625C957.171 42.9583 957.046 43.2417 956.796 43.475C956.563 43.725 956.279 43.85 955.946 43.85ZM966.815 43.275V41.875L972.415 40.225V41.65L966.815 43.275ZM962.397 39.125L962.622 37.075C963.489 37.075 964.339 37.0083 965.172 36.875C966.006 36.7417 966.822 36.55 967.622 36.3C968.422 36.05 969.189 35.75 969.922 35.4C970.672 35.0333 971.381 34.6167 972.047 34.15C971.614 33.7667 971.114 33.4333 970.547 33.15C969.981 32.8667 969.356 32.65 968.672 32.5C968.006 32.3333 967.297 32.25 966.547 32.25C966.281 32.25 966.031 32.2583 965.797 32.275C965.564 32.2917 965.331 32.325 965.097 32.375C964.864 32.4083 964.597 32.4583 964.297 32.525L963.897 30.625C964.347 30.4917 964.797 30.3917 965.247 30.325C965.697 30.2417 966.131 30.2 966.547 30.2C967.414 30.2 968.197 30.3083 968.897 30.525C969.597 30.725 970.231 30.975 970.797 31.275C971.381 31.575 971.922 31.875 972.422 32.175C972.939 32.475 973.439 32.7333 973.922 32.95C974.406 33.15 974.906 33.25 975.422 33.25H975.947L976.122 35.05C975.406 35.05 974.747 35.15 974.147 35.35C973.547 35.55 972.956 35.8083 972.372 36.125C971.806 36.425 971.206 36.75 970.572 37.1C969.939 37.4333 969.239 37.7583 968.472 38.075C967.706 38.375 966.822 38.625 965.822 38.825C964.839 39.025 963.697 39.125 962.397 39.125ZM976.703 20.95V19.55L982.303 17.9V19.325L976.703 20.95ZM978.198 26.225C977.531 26.225 977.09 26.0083 976.873 25.575C976.656 25.125 976.548 24.65 976.548 24.15C976.548 23.9667 976.556 23.775 976.573 23.575C976.606 23.3583 976.648 23.1167 976.698 22.85L977.948 22.5C977.898 22.7833 977.856 23.05 977.823 23.3C977.806 23.5333 977.798 23.7417 977.798 23.925C977.798 24.2417 977.848 24.475 977.948 24.625C978.048 24.775 978.206 24.85 978.423 24.85C978.673 24.85 978.881 24.725 979.048 24.475C979.215 24.2083 979.306 23.6833 979.323 22.9V22.15L980.523 21.7V23.225C980.523 23.4583 980.565 23.6667 980.648 23.85C980.748 24.0167 980.948 24.1 981.248 24.1C981.548 24.1 981.748 24.0083 981.848 23.825C981.948 23.6417 981.998 23.4083 981.998 23.125C981.998 22.8417 981.965 22.5583 981.898 22.275C981.831 21.975 981.74 21.6833 981.623 21.4L982.748 21.05C982.915 21.3667 983.048 21.7333 983.148 22.15C983.265 22.55 983.323 22.9167 983.323 23.25C983.323 23.8 983.165 24.3 982.848 24.75C982.548 25.1833 982.073 25.4 981.423 25.4C980.906 25.4 980.481 25.2667 980.148 25C979.831 24.7167 979.673 24.3833 979.673 24L980.248 24.225C980.248 24.7917 980.048 25.2667 979.648 25.65C979.265 26.0333 978.781 26.225 978.198 26.225ZM976.218 44.8L975.493 42.9C976.71 42.5 977.718 42.0417 978.518 41.525C979.335 41.0083 979.976 40.4583 980.443 39.875C980.926 39.2917 981.268 38.7 981.468 38.1C981.668 37.4833 981.768 36.8917 981.768 36.325C981.768 35.5083 981.585 34.6833 981.218 33.85C980.868 33 980.476 32.2 980.043 31.45L981.868 30.525C982.185 31.1083 982.46 31.6833 982.693 32.25C982.943 32.8167 983.16 33.35 983.343 33.85C983.543 34.35 983.701 34.8083 983.818 35.225C984.051 35.9417 984.351 36.4333 984.718 36.7C985.101 36.95 985.618 37.075 986.268 37.075C986.618 37.075 986.868 37.175 987.018 37.375C987.185 37.5583 987.268 37.7833 987.268 38.05C987.268 38.3167 987.151 38.5667 986.918 38.8C986.685 39.0167 986.385 39.125 986.018 39.125C985.285 39.125 984.685 39 984.218 38.75C983.768 38.4833 983.426 38.1417 983.193 37.725C982.96 37.2917 982.801 36.8417 982.718 36.375L983.518 36.825C983.518 37.925 983.268 38.925 982.768 39.825C982.285 40.7417 981.66 41.5333 980.893 42.2C980.126 42.8833 979.326 43.4417 978.493 43.875C977.66 44.3083 976.901 44.6167 976.218 44.8ZM986.03 39.125L986.255 37.075C987.205 37.075 987.872 36.9833 988.255 36.8C988.638 36.6167 988.855 36.2917 988.905 35.825C988.972 35.3583 988.988 34.7083 988.955 33.875L988.48 21.15H990.505L991.005 33.65C991.038 34.5333 991.005 35.3167 990.905 36C990.822 36.6833 990.605 37.2583 990.255 37.725C989.922 38.1917 989.413 38.5417 988.73 38.775C988.063 39.0083 987.163 39.125 986.03 39.125ZM994.824 39L994.324 21.15H996.349L996.849 39H994.824ZM1010.25 49.275V47.875L1015.85 46.225V47.65L1010.25 49.275ZM1005.73 39.025C1005.73 38.425 1005.81 37.7583 1005.98 37.025C1006.14 36.2917 1006.41 35.4833 1006.78 34.6L1008.58 35.3C1008.31 36 1008.11 36.6417 1007.98 37.225C1007.84 37.8083 1007.78 38.35 1007.78 38.85C1007.78 39.7667 1008 40.5083 1008.45 41.075C1008.92 41.6583 1009.53 42.0833 1010.3 42.35C1011.08 42.6167 1011.94 42.75 1012.88 42.75C1014.01 42.75 1014.96 42.625 1015.73 42.375C1016.49 42.1417 1017.1 41.8167 1017.55 41.4C1018 40.9833 1018.32 40.5083 1018.5 39.975C1018.7 39.4583 1018.8 38.9167 1018.8 38.35C1018.8 37.6167 1018.74 36.925 1018.63 36.275C1018.53 35.625 1018.38 34.9917 1018.2 34.375C1018.03 33.7417 1017.85 33.1 1017.65 32.45L1019.68 31.9C1019.86 32.5333 1020 33.05 1020.1 33.45C1020.2 33.8333 1020.28 34.1417 1020.33 34.375C1020.39 34.6083 1020.45 34.8167 1020.5 35C1020.68 35.6167 1020.93 36.075 1021.23 36.375C1021.53 36.6583 1021.87 36.85 1022.25 36.95C1022.65 37.0333 1023.06 37.075 1023.48 37.075C1023.83 37.075 1024.08 37.175 1024.23 37.375C1024.39 37.5583 1024.48 37.7833 1024.48 38.05C1024.48 38.3167 1024.36 38.5667 1024.13 38.8C1023.89 39.0167 1023.59 39.125 1023.23 39.125C1022.53 39.125 1021.94 39.0083 1021.48 38.775C1021.01 38.525 1020.64 38.2167 1020.38 37.85C1020.13 37.4833 1019.96 37.1 1019.88 36.7L1020.9 37.975C1020.85 38.825 1020.68 39.65 1020.4 40.45C1020.13 41.2667 1019.7 42 1019.1 42.65C1018.5 43.3167 1017.68 43.8417 1016.65 44.225C1015.63 44.6083 1014.35 44.8 1012.8 44.8C1011.85 44.8 1010.95 44.6833 1010.1 44.45C1009.25 44.2167 1008.49 43.8583 1007.83 43.375C1007.18 42.9083 1006.66 42.3083 1006.28 41.575C1005.91 40.8583 1005.73 40.0083 1005.73 39.025ZM1013.28 29.05C1012.93 29.05 1012.63 28.9333 1012.38 28.7C1012.14 28.45 1012.03 28.1583 1012.03 27.825C1012.03 27.4917 1012.14 27.2 1012.38 26.95C1012.63 26.7 1012.93 26.575 1013.28 26.575C1013.61 26.575 1013.89 26.7 1014.13 26.95C1014.38 27.2 1014.5 27.4917 1014.5 27.825C1014.5 28.1583 1014.38 28.45 1014.13 28.7C1013.89 28.9333 1013.61 29.05 1013.28 29.05ZM1030.03 25.975L1029.88 21.65H1031.25L1031.4 25.975H1030.03ZM1023.24 39.125L1023.49 37.075C1023.95 37.075 1024.32 36.975 1024.59 36.775C1024.87 36.575 1025.14 36.2417 1025.39 35.775C1025.65 35.3083 1025.99 34.6833 1026.39 33.9C1026.79 33.1 1027.19 32.45 1027.59 31.95C1028 31.4333 1028.4 31.0333 1028.79 30.75C1029.19 30.45 1029.56 30.2417 1029.91 30.125C1030.26 30.0083 1030.59 29.95 1030.89 29.95C1031.44 29.95 1031.93 30.075 1032.36 30.325C1032.8 30.5583 1033.2 30.9667 1033.59 31.55C1033.97 32.1167 1034.36 32.9 1034.76 33.9C1035.15 34.8167 1035.49 35.5083 1035.79 35.975C1036.1 36.425 1036.43 36.725 1036.76 36.875C1037.11 37.0083 1037.5 37.075 1037.94 37.075C1038.29 37.075 1038.54 37.175 1038.69 37.375C1038.85 37.5583 1038.94 37.7833 1038.94 38.05C1038.94 38.3167 1038.82 38.5667 1038.59 38.8C1038.35 39.0167 1038.05 39.125 1037.69 39.125C1037.04 39.125 1036.44 39.0167 1035.89 38.8C1035.35 38.5833 1034.9 38.2417 1034.54 37.775L1034.89 37.25C1034.7 37.7667 1034.45 38.1917 1034.14 38.525C1033.84 38.8417 1033.5 39.075 1033.11 39.225C1032.73 39.3917 1032.32 39.475 1031.89 39.475C1031.34 39.475 1030.77 39.3583 1030.19 39.125C1029.62 38.8917 1029.07 38.5583 1028.54 38.125C1028 37.6917 1027.54 37.1833 1027.14 36.6C1026.7 37.3667 1026.29 37.9333 1025.89 38.3C1025.5 38.65 1025.1 38.875 1024.69 38.975C1024.27 39.075 1023.79 39.125 1023.24 39.125ZM1028.09 34.7C1028.37 35.1667 1028.67 35.575 1028.99 35.925C1029.32 36.275 1029.65 36.5667 1029.99 36.8C1030.32 37.0167 1030.65 37.1833 1030.96 37.3C1031.3 37.4 1031.6 37.45 1031.86 37.45C1032.45 37.45 1032.87 37.2417 1033.14 36.825C1033.42 36.4083 1033.41 35.825 1033.11 35.075C1032.96 34.6917 1032.8 34.3167 1032.64 33.95C1032.49 33.5833 1032.32 33.25 1032.14 32.95C1031.95 32.6333 1031.75 32.3917 1031.51 32.225C1031.28 32.0417 1031.02 31.95 1030.74 31.95C1030.49 31.95 1030.22 32.0333 1029.94 32.2C1029.67 32.3667 1029.38 32.65 1029.06 33.05C1028.76 33.45 1028.44 34 1028.09 34.7ZM1041.59 25.55C1040.88 25.55 1040.33 25.3333 1039.97 24.9C1039.62 24.4667 1039.44 23.9583 1039.44 23.375C1039.44 22.8917 1039.53 22.4583 1039.72 22.075C1039.92 21.675 1040.19 21.3583 1040.54 21.125C1040.89 20.875 1041.28 20.75 1041.72 20.75C1042.12 20.75 1042.48 20.8667 1042.79 21.1C1043.11 21.3333 1043.36 21.6417 1043.54 22.025C1043.73 22.4083 1043.82 22.8167 1043.82 23.25C1043.82 23.9 1043.61 24.45 1043.19 24.9C1042.78 25.3333 1042.24 25.55 1041.59 25.55ZM1041.57 24.25C1041.85 24.25 1042.09 24.1583 1042.29 23.975C1042.51 23.7917 1042.62 23.55 1042.62 23.25C1042.62 22.9333 1042.51 22.675 1042.29 22.475C1042.08 22.2583 1041.84 22.15 1041.59 22.15C1041.28 22.15 1041.03 22.2583 1040.84 22.475C1040.68 22.6917 1040.59 22.9417 1040.59 23.225C1040.59 23.525 1040.68 23.775 1040.87 23.975C1041.05 24.1583 1041.28 24.25 1041.57 24.25ZM1037.69 39.125L1037.92 37.075C1038.78 37.075 1039.63 37.0083 1040.47 36.875C1041.3 36.7417 1042.12 36.55 1042.92 36.3C1043.72 36.05 1044.48 35.75 1045.22 35.4C1045.97 35.0333 1046.67 34.6167 1047.34 34.15C1046.91 33.7667 1046.41 33.4333 1045.84 33.15C1045.27 32.8667 1044.65 32.65 1043.97 32.5C1043.3 32.3333 1042.59 32.25 1041.84 32.25C1041.57 32.25 1041.32 32.2583 1041.09 32.275C1040.86 32.2917 1040.62 32.325 1040.39 32.375C1040.16 32.4083 1039.89 32.4583 1039.59 32.525L1039.19 30.625C1039.64 30.4917 1040.09 30.3917 1040.54 30.325C1040.99 30.2417 1041.42 30.2 1041.84 30.2C1042.71 30.2 1043.49 30.3083 1044.19 30.525C1044.89 30.725 1045.52 30.975 1046.09 31.275C1046.67 31.575 1047.22 31.875 1047.72 32.175C1048.23 32.475 1048.73 32.7333 1049.22 32.95C1049.7 33.15 1050.2 33.25 1050.72 33.25H1051.24L1051.42 35.05C1050.7 35.05 1050.04 35.15 1049.44 35.35C1048.84 35.55 1048.25 35.8083 1047.67 36.125C1047.1 36.425 1046.5 36.75 1045.87 37.1C1045.23 37.4333 1044.53 37.7583 1043.77 38.075C1043 38.375 1042.12 38.625 1041.12 38.825C1040.13 39.025 1038.99 39.125 1037.69 39.125ZM1052 20.95V19.55L1057.6 17.9V19.325L1052 20.95ZM1053.49 26.225C1052.82 26.225 1052.38 26.0083 1052.17 25.575C1051.95 25.125 1051.84 24.65 1051.84 24.15C1051.84 23.9667 1051.85 23.775 1051.87 23.575C1051.9 23.3583 1051.94 23.1167 1051.99 22.85L1053.24 22.5C1053.19 22.7833 1053.15 23.05 1053.12 23.3C1053.1 23.5333 1053.09 23.7417 1053.09 23.925C1053.09 24.2417 1053.14 24.475 1053.24 24.625C1053.34 24.775 1053.5 24.85 1053.72 24.85C1053.97 24.85 1054.17 24.725 1054.34 24.475C1054.51 24.2083 1054.6 23.6833 1054.62 22.9V22.15L1055.82 21.7V23.225C1055.82 23.4583 1055.86 23.6667 1055.94 23.85C1056.04 24.0167 1056.24 24.1 1056.54 24.1C1056.84 24.1 1057.04 24.0083 1057.14 23.825C1057.24 23.6417 1057.29 23.4083 1057.29 23.125C1057.29 22.8417 1057.26 22.5583 1057.19 22.275C1057.12 21.975 1057.03 21.6833 1056.92 21.4L1058.04 21.05C1058.21 21.3667 1058.34 21.7333 1058.44 22.15C1058.56 22.55 1058.62 22.9167 1058.62 23.25C1058.62 23.8 1058.46 24.3 1058.14 24.75C1057.84 25.1833 1057.37 25.4 1056.72 25.4C1056.2 25.4 1055.77 25.2667 1055.44 25C1055.12 24.7167 1054.97 24.3833 1054.97 24L1055.54 24.225C1055.54 24.7917 1055.34 25.2667 1054.94 25.65C1054.56 26.0333 1054.07 26.225 1053.49 26.225ZM1051.51 44.8L1050.79 42.9C1052 42.5 1053.01 42.0417 1053.81 41.525C1054.63 41.0083 1055.27 40.4583 1055.74 39.875C1056.22 39.2917 1056.56 38.7 1056.76 38.1C1056.96 37.4833 1057.06 36.8917 1057.06 36.325C1057.06 35.5083 1056.88 34.6833 1056.51 33.85C1056.16 33 1055.77 32.2 1055.34 31.45L1057.16 30.525C1057.48 31.1083 1057.75 31.6833 1057.99 32.25C1058.24 32.8167 1058.45 33.35 1058.64 33.85C1058.84 34.35 1058.99 34.8083 1059.11 35.225C1059.34 35.9417 1059.64 36.4333 1060.01 36.7C1060.39 36.95 1060.91 37.075 1061.56 37.075C1061.91 37.075 1062.16 37.175 1062.31 37.375C1062.48 37.5583 1062.56 37.7833 1062.56 38.05C1062.56 38.3167 1062.44 38.5667 1062.21 38.8C1061.98 39.0167 1061.68 39.125 1061.31 39.125C1060.58 39.125 1059.98 39 1059.51 38.75C1059.06 38.4833 1058.72 38.1417 1058.49 37.725C1058.25 37.2917 1058.09 36.8417 1058.01 36.375L1058.81 36.825C1058.81 37.925 1058.56 38.925 1058.06 39.825C1057.58 40.7417 1056.95 41.5333 1056.19 42.2C1055.42 42.8833 1054.62 43.4417 1053.79 43.875C1052.95 44.3083 1052.19 44.6167 1051.51 44.8ZM1061.32 39.125L1061.55 37.075C1062.5 37.075 1063.16 36.9833 1063.55 36.8C1063.93 36.6167 1064.15 36.2917 1064.2 35.825C1064.26 35.3583 1064.28 34.7083 1064.25 33.875L1063.77 21.15H1065.8L1066.3 33.65C1066.33 34.5333 1066.3 35.3167 1066.2 36C1066.11 36.6833 1065.9 37.2583 1065.55 37.725C1065.21 38.1917 1064.71 38.5417 1064.02 38.775C1063.36 39.0083 1062.46 39.125 1061.32 39.125ZM1070.12 39L1069.62 21.15H1071.64L1072.14 39H1070.12ZM1084.05 43.275V41.875L1089.65 40.225V41.65L1084.05 43.275ZM1092.42 39.125C1091.52 39.125 1090.72 39 1090.02 38.75C1089.33 38.4833 1088.78 38.0417 1088.37 37.425C1087.97 36.7917 1087.74 35.9167 1087.69 34.8L1087.29 26.1H1089.32L1089.72 34.35C1089.77 35.1333 1089.91 35.725 1090.14 36.125C1090.38 36.5083 1090.7 36.7667 1091.12 36.9C1091.55 37.0167 1092.07 37.075 1092.67 37.075C1093.02 37.075 1093.27 37.175 1093.42 37.375C1093.58 37.5583 1093.67 37.7833 1093.67 38.05C1093.67 38.3167 1093.55 38.5667 1093.32 38.8C1093.08 39.0167 1092.78 39.125 1092.42 39.125ZM1088.64 36.375C1087.69 36.675 1086.77 36.825 1085.87 36.825C1084.97 36.825 1084.15 36.6917 1083.42 36.425C1082.68 36.1583 1082.1 35.775 1081.67 35.275C1081.23 34.7583 1081.02 34.1417 1081.02 33.425C1081.02 32.725 1081.19 32.0667 1081.54 31.45C1081.91 30.8333 1082.4 30.2833 1083.02 29.8C1083.65 29.3167 1084.38 28.9167 1085.19 28.6C1086.03 28.2667 1086.91 28.0417 1087.84 27.925L1088.19 30.025C1087.36 30.0583 1086.62 30.175 1085.97 30.375C1085.33 30.5583 1084.79 30.8 1084.34 31.1C1083.91 31.4 1083.58 31.725 1083.34 32.075C1083.11 32.425 1082.99 32.7667 1082.99 33.1C1082.99 33.4667 1083.13 33.7667 1083.39 34C1083.66 34.2333 1084 34.4167 1084.42 34.55C1084.83 34.6667 1085.29 34.7417 1085.79 34.775C1086.29 34.7917 1086.78 34.775 1087.24 34.725C1087.71 34.6583 1088.11 34.5667 1088.44 34.45L1088.64 36.375ZM1094.92 11.975L1094.77 7.65H1096.15L1096.3 11.975H1094.92ZM1094.04 17.225C1093.38 17.225 1092.93 17.0083 1092.72 16.575C1092.5 16.125 1092.39 15.65 1092.39 15.15C1092.39 14.9667 1092.4 14.775 1092.42 14.575C1092.45 14.3583 1092.49 14.1167 1092.54 13.85L1093.79 13.5C1093.74 13.7833 1093.7 14.05 1093.67 14.3C1093.65 14.5333 1093.64 14.7417 1093.64 14.925C1093.64 15.2417 1093.69 15.475 1093.79 15.625C1093.89 15.775 1094.05 15.85 1094.27 15.85C1094.52 15.85 1094.73 15.725 1094.89 15.475C1095.06 15.2083 1095.15 14.6833 1095.17 13.9V13.15L1096.37 12.7V14.225C1096.37 14.4583 1096.41 14.6667 1096.49 14.85C1096.59 15.0167 1096.79 15.1 1097.09 15.1C1097.39 15.1 1097.59 15.0083 1097.69 14.825C1097.79 14.6417 1097.84 14.4083 1097.84 14.125C1097.84 13.8417 1097.81 13.5583 1097.74 13.275C1097.68 12.975 1097.58 12.6833 1097.47 12.4L1098.59 12.05C1098.76 12.3667 1098.89 12.7333 1098.99 13.15C1099.11 13.55 1099.17 13.9167 1099.17 14.25C1099.17 14.8 1099.01 15.3 1098.69 15.75C1098.39 16.1833 1097.92 16.4 1097.27 16.4C1096.75 16.4 1096.33 16.2667 1095.99 16C1095.68 15.7167 1095.52 15.3833 1095.52 15L1096.09 15.225C1096.09 15.7917 1095.89 16.2667 1095.49 16.65C1095.11 17.0333 1094.63 17.225 1094.04 17.225ZM1092.43 39.125L1092.65 37.075C1093.6 37.075 1094.27 36.9833 1094.65 36.8C1095.03 36.6167 1095.25 36.2917 1095.3 35.825C1095.37 35.3583 1095.38 34.7083 1095.35 33.875L1094.93 21.15H1097L1097.4 33.825C1097.43 34.675 1097.57 35.3417 1097.8 35.825C1098.05 36.2917 1098.38 36.6167 1098.8 36.8C1099.22 36.9833 1099.68 37.075 1100.18 37.075C1100.53 37.075 1100.78 37.175 1100.93 37.375C1101.09 37.5583 1101.18 37.7833 1101.18 38.05C1101.18 38.3167 1101.06 38.5667 1100.83 38.8C1100.59 39.0167 1100.29 39.125 1099.93 39.125C1099.23 39.125 1098.64 39.0167 1098.18 38.8C1097.73 38.5667 1097.37 38.275 1097.1 37.925C1096.85 37.5583 1096.68 37.175 1096.6 36.775L1097.13 36.825C1096.96 37.325 1096.68 37.75 1096.3 38.1C1095.93 38.4333 1095.43 38.6917 1094.8 38.875C1094.17 39.0417 1093.38 39.125 1092.43 39.125ZM1099.92 39.125L1100.15 37.075C1101.1 37.075 1101.76 36.9833 1102.15 36.8C1102.53 36.6167 1102.75 36.2917 1102.8 35.825C1102.86 35.3583 1102.88 34.7083 1102.85 33.875L1102.37 21.15H1104.4L1104.9 33.65C1104.93 34.5333 1104.9 35.3167 1104.8 36C1104.71 36.6833 1104.5 37.2583 1104.15 37.725C1103.81 38.1917 1103.3 38.5417 1102.62 38.775C1101.95 39.0083 1101.05 39.125 1099.92 39.125ZM1108.72 39L1108.22 21.15H1110.24L1110.74 39H1108.72ZM1123.33 43.275V41.875L1128.93 40.225V41.65L1123.33 43.275ZM1120.79 48.825C1120.44 47.5417 1120.14 46.2833 1119.89 45.05C1119.64 43.8333 1119.45 42.7417 1119.32 41.775C1119.18 40.8083 1119.12 40.0917 1119.12 39.625C1119.12 38.3917 1119.32 37.2667 1119.72 36.25C1120.12 35.2333 1120.63 34.3417 1121.27 33.575C1121.9 32.7917 1122.58 32.1333 1123.32 31.6C1124.05 31.05 1124.76 30.6417 1125.44 30.375C1126.14 30.0917 1126.73 29.95 1127.22 29.95C1127.63 29.95 1128 30.0417 1128.32 30.225C1128.63 30.4083 1128.94 30.7667 1129.24 31.3C1129.54 31.8333 1129.86 32.6167 1130.19 33.65C1130.51 34.6 1130.81 35.325 1131.09 35.825C1131.38 36.3083 1131.68 36.6417 1132.02 36.825C1132.35 36.9917 1132.73 37.075 1133.17 37.075C1133.52 37.075 1133.77 37.175 1133.92 37.375C1134.08 37.5583 1134.17 37.7833 1134.17 38.05C1134.17 38.3167 1134.05 38.5667 1133.82 38.8C1133.58 39.0167 1133.28 39.125 1132.92 39.125C1132.27 39.125 1131.71 39.0083 1131.24 38.775C1130.79 38.5417 1130.4 38.225 1130.07 37.825L1130.64 37.35C1130.44 37.8333 1130.18 38.2333 1129.87 38.55C1129.57 38.85 1129.23 39.075 1128.84 39.225C1128.48 39.375 1128.08 39.45 1127.67 39.45C1127.18 39.45 1126.68 39.3583 1126.17 39.175C1125.65 39.0083 1125.14 38.7583 1124.64 38.425C1124.14 38.075 1123.67 37.65 1123.22 37.15C1122.78 36.65 1122.4 36.0833 1122.07 35.45L1122.32 35.5C1121.85 36.15 1121.54 36.8583 1121.39 37.625C1121.24 38.375 1121.17 39.0417 1121.17 39.625C1121.17 40.0917 1121.22 40.6833 1121.32 41.4C1121.42 42.1333 1121.54 42.9083 1121.69 43.725C1121.86 44.5417 1122.03 45.35 1122.22 46.15C1122.42 46.9667 1122.6 47.7 1122.77 48.35L1120.79 48.825ZM1127.87 37.4C1128.17 37.4 1128.41 37.3417 1128.59 37.225C1128.79 37.1083 1128.93 36.9333 1128.99 36.7C1129.06 36.4667 1129.03 36.175 1128.92 35.825C1128.72 35.225 1128.53 34.7 1128.37 34.25C1128.2 33.7833 1128.03 33.4 1127.87 33.1C1127.72 32.7833 1127.56 32.55 1127.39 32.4C1127.23 32.25 1127.05 32.175 1126.87 32.175C1126.68 32.175 1126.45 32.2167 1126.17 32.3C1125.9 32.3833 1125.61 32.5083 1125.29 32.675C1124.99 32.8417 1124.68 33.05 1124.37 33.3C1124.05 33.55 1123.75 33.8417 1123.47 34.175L1123.49 33.975C1123.86 34.7417 1124.3 35.3833 1124.82 35.9C1125.35 36.4167 1125.88 36.8 1126.42 37.05C1126.97 37.2833 1127.45 37.4 1127.87 37.4ZM1143.35 26.55C1142.63 26.55 1142.09 26.3333 1141.72 25.9C1141.37 25.4667 1141.2 24.9583 1141.2 24.375C1141.2 23.8917 1141.29 23.4583 1141.47 23.075C1141.67 22.675 1141.95 22.3583 1142.3 22.125C1142.65 21.875 1143.04 21.75 1143.47 21.75C1143.87 21.75 1144.23 21.8667 1144.55 22.1C1144.87 22.3333 1145.12 22.6417 1145.3 23.025C1145.48 23.4083 1145.57 23.8167 1145.57 24.25C1145.57 24.9 1145.37 25.45 1144.95 25.9C1144.53 26.3333 1144 26.55 1143.35 26.55ZM1143.32 25.25C1143.61 25.25 1143.85 25.1583 1144.05 24.975C1144.27 24.7917 1144.37 24.55 1144.37 24.25C1144.37 23.9333 1144.27 23.675 1144.05 23.475C1143.83 23.2583 1143.6 23.15 1143.35 23.15C1143.03 23.15 1142.78 23.2583 1142.6 23.475C1142.43 23.6917 1142.35 23.9417 1142.35 24.225C1142.35 24.525 1142.44 24.775 1142.62 24.975C1142.81 25.1583 1143.04 25.25 1143.32 25.25ZM1132.9 39.125L1133.15 37.075C1133.69 37.075 1134.12 37.0417 1134.45 36.975C1134.79 36.8917 1135.06 36.7 1135.28 36.4C1135.51 36.0833 1135.73 35.5917 1135.93 34.925C1136.13 34.2583 1136.36 33.325 1136.63 32.125L1138.5 32.65C1138.4 33.0667 1138.29 33.5667 1138.15 34.15C1138.02 34.7333 1137.95 35.2667 1137.95 35.75C1137.95 36.0167 1138.02 36.25 1138.15 36.45C1138.29 36.65 1138.51 36.8083 1138.83 36.925C1139.16 37.025 1139.6 37.075 1140.15 37.075C1140.65 37.075 1141.06 37.0333 1141.38 36.95C1141.7 36.8667 1141.95 36.6667 1142.15 36.35C1142.37 36.0333 1142.56 35.525 1142.73 34.825C1142.9 34.125 1143.07 33.1667 1143.25 31.95L1145.15 32.3C1145.1 32.6 1145.05 32.9667 1144.98 33.4C1144.91 33.8333 1144.85 34.2667 1144.78 34.7C1144.73 35.1167 1144.7 35.4667 1144.7 35.75C1144.7 35.9833 1144.75 36.2083 1144.85 36.425C1144.97 36.625 1145.19 36.7833 1145.5 36.9C1145.84 37.0167 1146.33 37.075 1146.98 37.075C1147.81 37.075 1148.41 36.9 1148.78 36.55C1149.16 36.2 1149.36 35.6667 1149.36 34.95C1149.36 34.5667 1149.35 34.1667 1149.33 33.75C1149.31 33.3167 1149.28 32.8417 1149.23 32.325C1149.2 31.7917 1149.14 31.1833 1149.05 30.5L1150.88 30.375C1150.98 31.725 1151.09 32.8333 1151.21 33.7C1151.34 34.5667 1151.52 35.25 1151.75 35.75C1152 36.2333 1152.34 36.575 1152.75 36.775C1153.17 36.975 1153.72 37.075 1154.4 37.075C1154.75 37.075 1155 37.175 1155.15 37.375C1155.32 37.5583 1155.4 37.7833 1155.4 38.05C1155.4 38.3167 1155.29 38.5667 1155.05 38.8C1154.82 39.0167 1154.52 39.125 1154.15 39.125C1153.59 39.125 1153.08 39.05 1152.63 38.9C1152.2 38.7333 1151.81 38.5167 1151.48 38.25C1151.16 37.9667 1150.9 37.65 1150.68 37.3C1150.48 36.9333 1150.34 36.55 1150.25 36.15L1150.7 36.3C1150.52 37.05 1150.23 37.6333 1149.83 38.05C1149.45 38.45 1148.99 38.7333 1148.45 38.9C1147.92 39.05 1147.35 39.125 1146.75 39.125C1146.02 39.125 1145.42 39.0333 1144.95 38.85C1144.49 38.6667 1144.12 38.3917 1143.85 38.025C1143.6 37.6417 1143.44 37.1583 1143.35 36.575H1144.2C1143.89 37.2917 1143.55 37.8333 1143.2 38.2C1142.85 38.5667 1142.42 38.8167 1141.9 38.95C1141.39 39.0667 1140.7 39.125 1139.85 39.125C1139.44 39.125 1138.99 39.0583 1138.5 38.925C1138.04 38.7917 1137.63 38.5333 1137.28 38.15C1136.93 37.75 1136.72 37.1583 1136.65 36.375L1137.4 36.225C1137.12 37.075 1136.77 37.7083 1136.35 38.125C1135.95 38.525 1135.47 38.7917 1134.9 38.925C1134.34 39.0583 1133.67 39.125 1132.9 39.125ZM1154.27 48.275V46.875L1159.87 45.225V46.65L1154.27 48.275ZM1154.15 39.125L1154.4 37.075C1155.21 37.075 1155.86 37.025 1156.35 36.925C1156.83 36.825 1157.18 36.625 1157.4 36.325C1157.61 36.0083 1157.72 35.5417 1157.72 34.925C1157.72 34.5083 1157.65 34.0167 1157.52 33.45C1157.39 32.8667 1157.21 32.25 1157 31.6C1156.78 30.95 1156.55 30.3083 1156.3 29.675L1158.32 28.925C1158.54 29.4583 1158.74 30.0667 1158.92 30.75C1159.12 31.4333 1159.29 32.1083 1159.42 32.775C1159.55 33.4417 1159.62 34.025 1159.62 34.525C1159.62 35.1917 1159.55 35.7833 1159.4 36.3C1159.26 36.8 1159.05 37.2333 1158.77 37.6C1158.49 37.95 1158.12 38.2417 1157.67 38.475C1157.24 38.6917 1156.73 38.8583 1156.15 38.975C1155.56 39.075 1154.9 39.125 1154.15 39.125ZM1156.82 43.775C1156.47 43.775 1156.17 43.65 1155.92 43.4C1155.69 43.1667 1155.57 42.8833 1155.57 42.55C1155.57 42.2167 1155.69 41.925 1155.92 41.675C1156.17 41.425 1156.47 41.3 1156.82 41.3C1157.15 41.3 1157.44 41.425 1157.67 41.675C1157.92 41.925 1158.05 42.2167 1158.05 42.55C1158.05 42.8833 1157.92 43.1667 1157.67 43.4C1157.44 43.65 1157.15 43.775 1156.82 43.775Z" fill="black" fill-opacity="0.75"/>
<path d="M943.5 43.275V41.875L949.1 40.225V41.65L943.5 43.275ZM940.958 48.825C940.608 47.5417 940.308 46.2833 940.058 45.05C939.808 43.8333 939.616 42.7417 939.483 41.775C939.35 40.8083 939.283 40.0917 939.283 39.625C939.283 38.3917 939.483 37.2667 939.883 36.25C940.283 35.2333 940.8 34.3417 941.433 33.575C942.066 32.7917 942.75 32.1333 943.483 31.6C944.216 31.05 944.925 30.6417 945.608 30.375C946.308 30.0917 946.9 29.95 947.383 29.95C947.8 29.95 948.166 30.0417 948.483 30.225C948.8 30.4083 949.108 30.7667 949.408 31.3C949.708 31.8333 950.025 32.6167 950.358 33.65C950.675 34.6 950.975 35.325 951.258 35.825C951.541 36.3083 951.85 36.6417 952.183 36.825C952.516 36.9917 952.9 37.075 953.333 37.075C953.683 37.075 953.933 37.175 954.083 37.375C954.25 37.5583 954.333 37.7833 954.333 38.05C954.333 38.3167 954.216 38.5667 953.983 38.8C953.75 39.0167 953.45 39.125 953.083 39.125C952.433 39.125 951.875 39.0083 951.408 38.775C950.958 38.5417 950.566 38.225 950.233 37.825L950.808 37.35C950.608 37.8333 950.35 38.2333 950.033 38.55C949.733 38.85 949.391 39.075 949.008 39.225C948.641 39.375 948.25 39.45 947.833 39.45C947.35 39.45 946.85 39.3583 946.333 39.175C945.816 39.0083 945.308 38.7583 944.808 38.425C944.308 38.075 943.833 37.65 943.383 37.15C942.95 36.65 942.566 36.0833 942.233 35.45L942.483 35.5C942.016 36.15 941.708 36.8583 941.558 37.625C941.408 38.375 941.333 39.0417 941.333 39.625C941.333 40.0917 941.383 40.6833 941.483 41.4C941.583 42.1333 941.708 42.9083 941.858 43.725C942.025 44.5417 942.2 45.35 942.383 46.15C942.583 46.9667 942.766 47.7 942.933 48.35L940.958 48.825ZM948.033 37.4C948.333 37.4 948.575 37.3417 948.758 37.225C948.958 37.1083 949.091 36.9333 949.158 36.7C949.225 36.4667 949.2 36.175 949.083 35.825C948.883 35.225 948.7 34.7 948.533 34.25C948.366 33.7833 948.2 33.4 948.033 33.1C947.883 32.7833 947.725 32.55 947.558 32.4C947.391 32.25 947.216 32.175 947.033 32.175C946.85 32.175 946.616 32.2167 946.333 32.3C946.066 32.3833 945.775 32.5083 945.458 32.675C945.158 32.8417 944.85 33.05 944.533 33.3C944.216 33.55 943.916 33.8417 943.633 34.175L943.658 33.975C944.025 34.7417 944.466 35.3833 944.983 35.9C945.516 36.4167 946.05 36.8 946.583 37.05C947.133 37.2833 947.616 37.4 948.033 37.4ZM957.729 27.55C957.013 27.55 956.471 27.3333 956.104 26.9C955.754 26.4667 955.579 25.9583 955.579 25.375C955.579 24.8917 955.671 24.4583 955.854 24.075C956.054 23.675 956.329 23.3583 956.679 23.125C957.029 22.875 957.421 22.75 957.854 22.75C958.254 22.75 958.613 22.8667 958.929 23.1C959.246 23.3333 959.496 23.6417 959.679 24.025C959.863 24.4083 959.954 24.8167 959.954 25.25C959.954 25.9 959.746 26.45 959.329 26.9C958.913 27.3333 958.379 27.55 957.729 27.55ZM957.704 26.25C957.988 26.25 958.229 26.1583 958.429 25.975C958.646 25.7917 958.754 25.55 958.754 25.25C958.754 24.9333 958.646 24.675 958.429 24.475C958.213 24.2583 957.979 24.15 957.729 24.15C957.413 24.15 957.163 24.2583 956.979 24.475C956.813 24.6917 956.729 24.9417 956.729 25.225C956.729 25.525 956.821 25.775 957.004 25.975C957.188 26.1583 957.421 26.25 957.704 26.25ZM953.071 39.125L953.321 37.075C954.154 37.075 954.804 37.0167 955.271 36.9C955.738 36.7667 956.088 36.525 956.321 36.175C956.571 35.8083 956.771 35.2833 956.921 34.6C957.071 33.9167 957.254 33.025 957.471 31.925L959.421 32.3C959.354 32.6 959.279 32.9333 959.196 33.3C959.113 33.6667 959.038 34.0333 958.971 34.4C958.921 34.75 958.896 35.0583 958.896 35.325C958.896 35.575 958.913 35.8083 958.946 36.025C958.979 36.2417 959.104 36.425 959.321 36.575C959.538 36.725 959.904 36.85 960.421 36.95C960.938 37.0333 961.679 37.075 962.646 37.075C962.996 37.075 963.246 37.175 963.396 37.375C963.563 37.5583 963.646 37.7833 963.646 38.05C963.646 38.3167 963.529 38.5667 963.296 38.8C963.063 39.0167 962.763 39.125 962.396 39.125C961.379 39.125 960.571 39.075 959.971 38.975C959.371 38.8583 958.913 38.6917 958.596 38.475C958.296 38.2583 958.079 37.9917 957.946 37.675C957.829 37.3417 957.738 36.9583 957.671 36.525L958.421 36.575C958.154 37.1083 957.863 37.5417 957.546 37.875C957.246 38.2083 956.896 38.4667 956.496 38.65C956.096 38.8333 955.613 38.9583 955.046 39.025C954.496 39.0917 953.838 39.125 953.071 39.125ZM959.371 43.85C959.021 43.85 958.721 43.725 958.471 43.475C958.238 43.2417 958.121 42.9583 958.121 42.625C958.121 42.2917 958.238 42 958.471 41.75C958.721 41.5 959.021 41.375 959.371 41.375C959.704 41.375 959.988 41.5 960.221 41.75C960.471 42 960.596 42.2917 960.596 42.625C960.596 42.9583 960.471 43.2417 960.221 43.475C959.988 43.725 959.704 43.85 959.371 43.85ZM955.946 43.85C955.596 43.85 955.296 43.725 955.046 43.475C954.813 43.2417 954.696 42.9583 954.696 42.625C954.696 42.2917 954.813 42 955.046 41.75C955.296 41.5 955.596 41.375 955.946 41.375C956.279 41.375 956.563 41.5 956.796 41.75C957.046 42 957.171 42.2917 957.171 42.625C957.171 42.9583 957.046 43.2417 956.796 43.475C956.563 43.725 956.279 43.85 955.946 43.85ZM966.815 43.275V41.875L972.415 40.225V41.65L966.815 43.275ZM962.397 39.125L962.622 37.075C963.489 37.075 964.339 37.0083 965.172 36.875C966.006 36.7417 966.822 36.55 967.622 36.3C968.422 36.05 969.189 35.75 969.922 35.4C970.672 35.0333 971.381 34.6167 972.047 34.15C971.614 33.7667 971.114 33.4333 970.547 33.15C969.981 32.8667 969.356 32.65 968.672 32.5C968.006 32.3333 967.297 32.25 966.547 32.25C966.281 32.25 966.031 32.2583 965.797 32.275C965.564 32.2917 965.331 32.325 965.097 32.375C964.864 32.4083 964.597 32.4583 964.297 32.525L963.897 30.625C964.347 30.4917 964.797 30.3917 965.247 30.325C965.697 30.2417 966.131 30.2 966.547 30.2C967.414 30.2 968.197 30.3083 968.897 30.525C969.597 30.725 970.231 30.975 970.797 31.275C971.381 31.575 971.922 31.875 972.422 32.175C972.939 32.475 973.439 32.7333 973.922 32.95C974.406 33.15 974.906 33.25 975.422 33.25H975.947L976.122 35.05C975.406 35.05 974.747 35.15 974.147 35.35C973.547 35.55 972.956 35.8083 972.372 36.125C971.806 36.425 971.206 36.75 970.572 37.1C969.939 37.4333 969.239 37.7583 968.472 38.075C967.706 38.375 966.822 38.625 965.822 38.825C964.839 39.025 963.697 39.125 962.397 39.125ZM976.703 20.95V19.55L982.303 17.9V19.325L976.703 20.95ZM978.198 26.225C977.531 26.225 977.09 26.0083 976.873 25.575C976.656 25.125 976.548 24.65 976.548 24.15C976.548 23.9667 976.556 23.775 976.573 23.575C976.606 23.3583 976.648 23.1167 976.698 22.85L977.948 22.5C977.898 22.7833 977.856 23.05 977.823 23.3C977.806 23.5333 977.798 23.7417 977.798 23.925C977.798 24.2417 977.848 24.475 977.948 24.625C978.048 24.775 978.206 24.85 978.423 24.85C978.673 24.85 978.881 24.725 979.048 24.475C979.215 24.2083 979.306 23.6833 979.323 22.9V22.15L980.523 21.7V23.225C980.523 23.4583 980.565 23.6667 980.648 23.85C980.748 24.0167 980.948 24.1 981.248 24.1C981.548 24.1 981.748 24.0083 981.848 23.825C981.948 23.6417 981.998 23.4083 981.998 23.125C981.998 22.8417 981.965 22.5583 981.898 22.275C981.831 21.975 981.74 21.6833 981.623 21.4L982.748 21.05C982.915 21.3667 983.048 21.7333 983.148 22.15C983.265 22.55 983.323 22.9167 983.323 23.25C983.323 23.8 983.165 24.3 982.848 24.75C982.548 25.1833 982.073 25.4 981.423 25.4C980.906 25.4 980.481 25.2667 980.148 25C979.831 24.7167 979.673 24.3833 979.673 24L980.248 24.225C980.248 24.7917 980.048 25.2667 979.648 25.65C979.265 26.0333 978.781 26.225 978.198 26.225ZM976.218 44.8L975.493 42.9C976.71 42.5 977.718 42.0417 978.518 41.525C979.335 41.0083 979.976 40.4583 980.443 39.875C980.926 39.2917 981.268 38.7 981.468 38.1C981.668 37.4833 981.768 36.8917 981.768 36.325C981.768 35.5083 981.585 34.6833 981.218 33.85C980.868 33 980.476 32.2 980.043 31.45L981.868 30.525C982.185 31.1083 982.46 31.6833 982.693 32.25C982.943 32.8167 983.16 33.35 983.343 33.85C983.543 34.35 983.701 34.8083 983.818 35.225C984.051 35.9417 984.351 36.4333 984.718 36.7C985.101 36.95 985.618 37.075 986.268 37.075C986.618 37.075 986.868 37.175 987.018 37.375C987.185 37.5583 987.268 37.7833 987.268 38.05C987.268 38.3167 987.151 38.5667 986.918 38.8C986.685 39.0167 986.385 39.125 986.018 39.125C985.285 39.125 984.685 39 984.218 38.75C983.768 38.4833 983.426 38.1417 983.193 37.725C982.96 37.2917 982.801 36.8417 982.718 36.375L983.518 36.825C983.518 37.925 983.268 38.925 982.768 39.825C982.285 40.7417 981.66 41.5333 980.893 42.2C980.126 42.8833 979.326 43.4417 978.493 43.875C977.66 44.3083 976.901 44.6167 976.218 44.8ZM986.03 39.125L986.255 37.075C987.205 37.075 987.872 36.9833 988.255 36.8C988.638 36.6167 988.855 36.2917 988.905 35.825C988.972 35.3583 988.988 34.7083 988.955 33.875L988.48 21.15H990.505L991.005 33.65C991.038 34.5333 991.005 35.3167 990.905 36C990.822 36.6833 990.605 37.2583 990.255 37.725C989.922 38.1917 989.413 38.5417 988.73 38.775C988.063 39.0083 987.163 39.125 986.03 39.125ZM994.824 39L994.324 21.15H996.349L996.849 39H994.824ZM1010.25 49.275V47.875L1015.85 46.225V47.65L1010.25 49.275ZM1005.73 39.025C1005.73 38.425 1005.81 37.7583 1005.98 37.025C1006.14 36.2917 1006.41 35.4833 1006.78 34.6L1008.58 35.3C1008.31 36 1008.11 36.6417 1007.98 37.225C1007.84 37.8083 1007.78 38.35 1007.78 38.85C1007.78 39.7667 1008 40.5083 1008.45 41.075C1008.92 41.6583 1009.53 42.0833 1010.3 42.35C1011.08 42.6167 1011.94 42.75 1012.88 42.75C1014.01 42.75 1014.96 42.625 1015.73 42.375C1016.49 42.1417 1017.1 41.8167 1017.55 41.4C1018 40.9833 1018.32 40.5083 1018.5 39.975C1018.7 39.4583 1018.8 38.9167 1018.8 38.35C1018.8 37.6167 1018.74 36.925 1018.63 36.275C1018.53 35.625 1018.38 34.9917 1018.2 34.375C1018.03 33.7417 1017.85 33.1 1017.65 32.45L1019.68 31.9C1019.86 32.5333 1020 33.05 1020.1 33.45C1020.2 33.8333 1020.28 34.1417 1020.33 34.375C1020.39 34.6083 1020.45 34.8167 1020.5 35C1020.68 35.6167 1020.93 36.075 1021.23 36.375C1021.53 36.6583 1021.87 36.85 1022.25 36.95C1022.65 37.0333 1023.06 37.075 1023.48 37.075C1023.83 37.075 1024.08 37.175 1024.23 37.375C1024.39 37.5583 1024.48 37.7833 1024.48 38.05C1024.48 38.3167 1024.36 38.5667 1024.13 38.8C1023.89 39.0167 1023.59 39.125 1023.23 39.125C1022.53 39.125 1021.94 39.0083 1021.48 38.775C1021.01 38.525 1020.64 38.2167 1020.38 37.85C1020.13 37.4833 1019.96 37.1 1019.88 36.7L1020.9 37.975C1020.85 38.825 1020.68 39.65 1020.4 40.45C1020.13 41.2667 1019.7 42 1019.1 42.65C1018.5 43.3167 1017.68 43.8417 1016.65 44.225C1015.63 44.6083 1014.35 44.8 1012.8 44.8C1011.85 44.8 1010.95 44.6833 1010.1 44.45C1009.25 44.2167 1008.49 43.8583 1007.83 43.375C1007.18 42.9083 1006.66 42.3083 1006.28 41.575C1005.91 40.8583 1005.73 40.0083 1005.73 39.025ZM1013.28 29.05C1012.93 29.05 1012.63 28.9333 1012.38 28.7C1012.14 28.45 1012.03 28.1583 1012.03 27.825C1012.03 27.4917 1012.14 27.2 1012.38 26.95C1012.63 26.7 1012.93 26.575 1013.28 26.575C1013.61 26.575 1013.89 26.7 1014.13 26.95C1014.38 27.2 1014.5 27.4917 1014.5 27.825C1014.5 28.1583 1014.38 28.45 1014.13 28.7C1013.89 28.9333 1013.61 29.05 1013.28 29.05ZM1030.03 25.975L1029.88 21.65H1031.25L1031.4 25.975H1030.03ZM1023.24 39.125L1023.49 37.075C1023.95 37.075 1024.32 36.975 1024.59 36.775C1024.87 36.575 1025.14 36.2417 1025.39 35.775C1025.65 35.3083 1025.99 34.6833 1026.39 33.9C1026.79 33.1 1027.19 32.45 1027.59 31.95C1028 31.4333 1028.4 31.0333 1028.79 30.75C1029.19 30.45 1029.56 30.2417 1029.91 30.125C1030.26 30.0083 1030.59 29.95 1030.89 29.95C1031.44 29.95 1031.93 30.075 1032.36 30.325C1032.8 30.5583 1033.2 30.9667 1033.59 31.55C1033.97 32.1167 1034.36 32.9 1034.76 33.9C1035.15 34.8167 1035.49 35.5083 1035.79 35.975C1036.1 36.425 1036.43 36.725 1036.76 36.875C1037.11 37.0083 1037.5 37.075 1037.94 37.075C1038.29 37.075 1038.54 37.175 1038.69 37.375C1038.85 37.5583 1038.94 37.7833 1038.94 38.05C1038.94 38.3167 1038.82 38.5667 1038.59 38.8C1038.35 39.0167 1038.05 39.125 1037.69 39.125C1037.04 39.125 1036.44 39.0167 1035.89 38.8C1035.35 38.5833 1034.9 38.2417 1034.54 37.775L1034.89 37.25C1034.7 37.7667 1034.45 38.1917 1034.14 38.525C1033.84 38.8417 1033.5 39.075 1033.11 39.225C1032.73 39.3917 1032.32 39.475 1031.89 39.475C1031.34 39.475 1030.77 39.3583 1030.19 39.125C1029.62 38.8917 1029.07 38.5583 1028.54 38.125C1028 37.6917 1027.54 37.1833 1027.14 36.6C1026.7 37.3667 1026.29 37.9333 1025.89 38.3C1025.5 38.65 1025.1 38.875 1024.69 38.975C1024.27 39.075 1023.79 39.125 1023.24 39.125ZM1028.09 34.7C1028.37 35.1667 1028.67 35.575 1028.99 35.925C1029.32 36.275 1029.65 36.5667 1029.99 36.8C1030.32 37.0167 1030.65 37.1833 1030.96 37.3C1031.3 37.4 1031.6 37.45 1031.86 37.45C1032.45 37.45 1032.87 37.2417 1033.14 36.825C1033.42 36.4083 1033.41 35.825 1033.11 35.075C1032.96 34.6917 1032.8 34.3167 1032.64 33.95C1032.49 33.5833 1032.32 33.25 1032.14 32.95C1031.95 32.6333 1031.75 32.3917 1031.51 32.225C1031.28 32.0417 1031.02 31.95 1030.74 31.95C1030.49 31.95 1030.22 32.0333 1029.94 32.2C1029.67 32.3667 1029.38 32.65 1029.06 33.05C1028.76 33.45 1028.44 34 1028.09 34.7ZM1041.59 25.55C1040.88 25.55 1040.33 25.3333 1039.97 24.9C1039.62 24.4667 1039.44 23.9583 1039.44 23.375C1039.44 22.8917 1039.53 22.4583 1039.72 22.075C1039.92 21.675 1040.19 21.3583 1040.54 21.125C1040.89 20.875 1041.28 20.75 1041.72 20.75C1042.12 20.75 1042.48 20.8667 1042.79 21.1C1043.11 21.3333 1043.36 21.6417 1043.54 22.025C1043.73 22.4083 1043.82 22.8167 1043.82 23.25C1043.82 23.9 1043.61 24.45 1043.19 24.9C1042.78 25.3333 1042.24 25.55 1041.59 25.55ZM1041.57 24.25C1041.85 24.25 1042.09 24.1583 1042.29 23.975C1042.51 23.7917 1042.62 23.55 1042.62 23.25C1042.62 22.9333 1042.51 22.675 1042.29 22.475C1042.08 22.2583 1041.84 22.15 1041.59 22.15C1041.28 22.15 1041.03 22.2583 1040.84 22.475C1040.68 22.6917 1040.59 22.9417 1040.59 23.225C1040.59 23.525 1040.68 23.775 1040.87 23.975C1041.05 24.1583 1041.28 24.25 1041.57 24.25ZM1037.69 39.125L1037.92 37.075C1038.78 37.075 1039.63 37.0083 1040.47 36.875C1041.3 36.7417 1042.12 36.55 1042.92 36.3C1043.72 36.05 1044.48 35.75 1045.22 35.4C1045.97 35.0333 1046.67 34.6167 1047.34 34.15C1046.91 33.7667 1046.41 33.4333 1045.84 33.15C1045.27 32.8667 1044.65 32.65 1043.97 32.5C1043.3 32.3333 1042.59 32.25 1041.84 32.25C1041.57 32.25 1041.32 32.2583 1041.09 32.275C1040.86 32.2917 1040.62 32.325 1040.39 32.375C1040.16 32.4083 1039.89 32.4583 1039.59 32.525L1039.19 30.625C1039.64 30.4917 1040.09 30.3917 1040.54 30.325C1040.99 30.2417 1041.42 30.2 1041.84 30.2C1042.71 30.2 1043.49 30.3083 1044.19 30.525C1044.89 30.725 1045.52 30.975 1046.09 31.275C1046.67 31.575 1047.22 31.875 1047.72 32.175C1048.23 32.475 1048.73 32.7333 1049.22 32.95C1049.7 33.15 1050.2 33.25 1050.72 33.25H1051.24L1051.42 35.05C1050.7 35.05 1050.04 35.15 1049.44 35.35C1048.84 35.55 1048.25 35.8083 1047.67 36.125C1047.1 36.425 1046.5 36.75 1045.87 37.1C1045.23 37.4333 1044.53 37.7583 1043.77 38.075C1043 38.375 1042.12 38.625 1041.12 38.825C1040.13 39.025 1038.99 39.125 1037.69 39.125ZM1052 20.95V19.55L1057.6 17.9V19.325L1052 20.95ZM1053.49 26.225C1052.82 26.225 1052.38 26.0083 1052.17 25.575C1051.95 25.125 1051.84 24.65 1051.84 24.15C1051.84 23.9667 1051.85 23.775 1051.87 23.575C1051.9 23.3583 1051.94 23.1167 1051.99 22.85L1053.24 22.5C1053.19 22.7833 1053.15 23.05 1053.12 23.3C1053.1 23.5333 1053.09 23.7417 1053.09 23.925C1053.09 24.2417 1053.14 24.475 1053.24 24.625C1053.34 24.775 1053.5 24.85 1053.72 24.85C1053.97 24.85 1054.17 24.725 1054.34 24.475C1054.51 24.2083 1054.6 23.6833 1054.62 22.9V22.15L1055.82 21.7V23.225C1055.82 23.4583 1055.86 23.6667 1055.94 23.85C1056.04 24.0167 1056.24 24.1 1056.54 24.1C1056.84 24.1 1057.04 24.0083 1057.14 23.825C1057.24 23.6417 1057.29 23.4083 1057.29 23.125C1057.29 22.8417 1057.26 22.5583 1057.19 22.275C1057.12 21.975 1057.03 21.6833 1056.92 21.4L1058.04 21.05C1058.21 21.3667 1058.34 21.7333 1058.44 22.15C1058.56 22.55 1058.62 22.9167 1058.62 23.25C1058.62 23.8 1058.46 24.3 1058.14 24.75C1057.84 25.1833 1057.37 25.4 1056.72 25.4C1056.2 25.4 1055.77 25.2667 1055.44 25C1055.12 24.7167 1054.97 24.3833 1054.97 24L1055.54 24.225C1055.54 24.7917 1055.34 25.2667 1054.94 25.65C1054.56 26.0333 1054.07 26.225 1053.49 26.225ZM1051.51 44.8L1050.79 42.9C1052 42.5 1053.01 42.0417 1053.81 41.525C1054.63 41.0083 1055.27 40.4583 1055.74 39.875C1056.22 39.2917 1056.56 38.7 1056.76 38.1C1056.96 37.4833 1057.06 36.8917 1057.06 36.325C1057.06 35.5083 1056.88 34.6833 1056.51 33.85C1056.16 33 1055.77 32.2 1055.34 31.45L1057.16 30.525C1057.48 31.1083 1057.75 31.6833 1057.99 32.25C1058.24 32.8167 1058.45 33.35 1058.64 33.85C1058.84 34.35 1058.99 34.8083 1059.11 35.225C1059.34 35.9417 1059.64 36.4333 1060.01 36.7C1060.39 36.95 1060.91 37.075 1061.56 37.075C1061.91 37.075 1062.16 37.175 1062.31 37.375C1062.48 37.5583 1062.56 37.7833 1062.56 38.05C1062.56 38.3167 1062.44 38.5667 1062.21 38.8C1061.98 39.0167 1061.68 39.125 1061.31 39.125C1060.58 39.125 1059.98 39 1059.51 38.75C1059.06 38.4833 1058.72 38.1417 1058.49 37.725C1058.25 37.2917 1058.09 36.8417 1058.01 36.375L1058.81 36.825C1058.81 37.925 1058.56 38.925 1058.06 39.825C1057.58 40.7417 1056.95 41.5333 1056.19 42.2C1055.42 42.8833 1054.62 43.4417 1053.79 43.875C1052.95 44.3083 1052.19 44.6167 1051.51 44.8ZM1061.32 39.125L1061.55 37.075C1062.5 37.075 1063.16 36.9833 1063.55 36.8C1063.93 36.6167 1064.15 36.2917 1064.2 35.825C1064.26 35.3583 1064.28 34.7083 1064.25 33.875L1063.77 21.15H1065.8L1066.3 33.65C1066.33 34.5333 1066.3 35.3167 1066.2 36C1066.11 36.6833 1065.9 37.2583 1065.55 37.725C1065.21 38.1917 1064.71 38.5417 1064.02 38.775C1063.36 39.0083 1062.46 39.125 1061.32 39.125ZM1070.12 39L1069.62 21.15H1071.64L1072.14 39H1070.12ZM1084.05 43.275V41.875L1089.65 40.225V41.65L1084.05 43.275ZM1092.42 39.125C1091.52 39.125 1090.72 39 1090.02 38.75C1089.33 38.4833 1088.78 38.0417 1088.37 37.425C1087.97 36.7917 1087.74 35.9167 1087.69 34.8L1087.29 26.1H1089.32L1089.72 34.35C1089.77 35.1333 1089.91 35.725 1090.14 36.125C1090.38 36.5083 1090.7 36.7667 1091.12 36.9C1091.55 37.0167 1092.07 37.075 1092.67 37.075C1093.02 37.075 1093.27 37.175 1093.42 37.375C1093.58 37.5583 1093.67 37.7833 1093.67 38.05C1093.67 38.3167 1093.55 38.5667 1093.32 38.8C1093.08 39.0167 1092.78 39.125 1092.42 39.125ZM1088.64 36.375C1087.69 36.675 1086.77 36.825 1085.87 36.825C1084.97 36.825 1084.15 36.6917 1083.42 36.425C1082.68 36.1583 1082.1 35.775 1081.67 35.275C1081.23 34.7583 1081.02 34.1417 1081.02 33.425C1081.02 32.725 1081.19 32.0667 1081.54 31.45C1081.91 30.8333 1082.4 30.2833 1083.02 29.8C1083.65 29.3167 1084.38 28.9167 1085.19 28.6C1086.03 28.2667 1086.91 28.0417 1087.84 27.925L1088.19 30.025C1087.36 30.0583 1086.62 30.175 1085.97 30.375C1085.33 30.5583 1084.79 30.8 1084.34 31.1C1083.91 31.4 1083.58 31.725 1083.34 32.075C1083.11 32.425 1082.99 32.7667 1082.99 33.1C1082.99 33.4667 1083.13 33.7667 1083.39 34C1083.66 34.2333 1084 34.4167 1084.42 34.55C1084.83 34.6667 1085.29 34.7417 1085.79 34.775C1086.29 34.7917 1086.78 34.775 1087.24 34.725C1087.71 34.6583 1088.11 34.5667 1088.44 34.45L1088.64 36.375ZM1094.92 11.975L1094.77 7.65H1096.15L1096.3 11.975H1094.92ZM1094.04 17.225C1093.38 17.225 1092.93 17.0083 1092.72 16.575C1092.5 16.125 1092.39 15.65 1092.39 15.15C1092.39 14.9667 1092.4 14.775 1092.42 14.575C1092.45 14.3583 1092.49 14.1167 1092.54 13.85L1093.79 13.5C1093.74 13.7833 1093.7 14.05 1093.67 14.3C1093.65 14.5333 1093.64 14.7417 1093.64 14.925C1093.64 15.2417 1093.69 15.475 1093.79 15.625C1093.89 15.775 1094.05 15.85 1094.27 15.85C1094.52 15.85 1094.73 15.725 1094.89 15.475C1095.06 15.2083 1095.15 14.6833 1095.17 13.9V13.15L1096.37 12.7V14.225C1096.37 14.4583 1096.41 14.6667 1096.49 14.85C1096.59 15.0167 1096.79 15.1 1097.09 15.1C1097.39 15.1 1097.59 15.0083 1097.69 14.825C1097.79 14.6417 1097.84 14.4083 1097.84 14.125C1097.84 13.8417 1097.81 13.5583 1097.74 13.275C1097.68 12.975 1097.58 12.6833 1097.47 12.4L1098.59 12.05C1098.76 12.3667 1098.89 12.7333 1098.99 13.15C1099.11 13.55 1099.17 13.9167 1099.17 14.25C1099.17 14.8 1099.01 15.3 1098.69 15.75C1098.39 16.1833 1097.92 16.4 1097.27 16.4C1096.75 16.4 1096.33 16.2667 1095.99 16C1095.68 15.7167 1095.52 15.3833 1095.52 15L1096.09 15.225C1096.09 15.7917 1095.89 16.2667 1095.49 16.65C1095.11 17.0333 1094.63 17.225 1094.04 17.225ZM1092.43 39.125L1092.65 37.075C1093.6 37.075 1094.27 36.9833 1094.65 36.8C1095.03 36.6167 1095.25 36.2917 1095.3 35.825C1095.37 35.3583 1095.38 34.7083 1095.35 33.875L1094.93 21.15H1097L1097.4 33.825C1097.43 34.675 1097.57 35.3417 1097.8 35.825C1098.05 36.2917 1098.38 36.6167 1098.8 36.8C1099.22 36.9833 1099.68 37.075 1100.18 37.075C1100.53 37.075 1100.78 37.175 1100.93 37.375C1101.09 37.5583 1101.18 37.7833 1101.18 38.05C1101.18 38.3167 1101.06 38.5667 1100.83 38.8C1100.59 39.0167 1100.29 39.125 1099.93 39.125C1099.23 39.125 1098.64 39.0167 1098.18 38.8C1097.73 38.5667 1097.37 38.275 1097.1 37.925C1096.85 37.5583 1096.68 37.175 1096.6 36.775L1097.13 36.825C1096.96 37.325 1096.68 37.75 1096.3 38.1C1095.93 38.4333 1095.43 38.6917 1094.8 38.875C1094.17 39.0417 1093.38 39.125 1092.43 39.125ZM1099.92 39.125L1100.15 37.075C1101.1 37.075 1101.76 36.9833 1102.15 36.8C1102.53 36.6167 1102.75 36.2917 1102.8 35.825C1102.86 35.3583 1102.88 34.7083 1102.85 33.875L1102.37 21.15H1104.4L1104.9 33.65C1104.93 34.5333 1104.9 35.3167 1104.8 36C1104.71 36.6833 1104.5 37.2583 1104.15 37.725C1103.81 38.1917 1103.3 38.5417 1102.62 38.775C1101.95 39.0083 1101.05 39.125 1099.92 39.125ZM1108.72 39L1108.22 21.15H1110.24L1110.74 39H1108.72ZM1123.33 43.275V41.875L1128.93 40.225V41.65L1123.33 43.275ZM1120.79 48.825C1120.44 47.5417 1120.14 46.2833 1119.89 45.05C1119.64 43.8333 1119.45 42.7417 1119.32 41.775C1119.18 40.8083 1119.12 40.0917 1119.12 39.625C1119.12 38.3917 1119.32 37.2667 1119.72 36.25C1120.12 35.2333 1120.63 34.3417 1121.27 33.575C1121.9 32.7917 1122.58 32.1333 1123.32 31.6C1124.05 31.05 1124.76 30.6417 1125.44 30.375C1126.14 30.0917 1126.73 29.95 1127.22 29.95C1127.63 29.95 1128 30.0417 1128.32 30.225C1128.63 30.4083 1128.94 30.7667 1129.24 31.3C1129.54 31.8333 1129.86 32.6167 1130.19 33.65C1130.51 34.6 1130.81 35.325 1131.09 35.825C1131.38 36.3083 1131.68 36.6417 1132.02 36.825C1132.35 36.9917 1132.73 37.075 1133.17 37.075C1133.52 37.075 1133.77 37.175 1133.92 37.375C1134.08 37.5583 1134.17 37.7833 1134.17 38.05C1134.17 38.3167 1134.05 38.5667 1133.82 38.8C1133.58 39.0167 1133.28 39.125 1132.92 39.125C1132.27 39.125 1131.71 39.0083 1131.24 38.775C1130.79 38.5417 1130.4 38.225 1130.07 37.825L1130.64 37.35C1130.44 37.8333 1130.18 38.2333 1129.87 38.55C1129.57 38.85 1129.23 39.075 1128.84 39.225C1128.48 39.375 1128.08 39.45 1127.67 39.45C1127.18 39.45 1126.68 39.3583 1126.17 39.175C1125.65 39.0083 1125.14 38.7583 1124.64 38.425C1124.14 38.075 1123.67 37.65 1123.22 37.15C1122.78 36.65 1122.4 36.0833 1122.07 35.45L1122.32 35.5C1121.85 36.15 1121.54 36.8583 1121.39 37.625C1121.24 38.375 1121.17 39.0417 1121.17 39.625C1121.17 40.0917 1121.22 40.6833 1121.32 41.4C1121.42 42.1333 1121.54 42.9083 1121.69 43.725C1121.86 44.5417 1122.03 45.35 1122.22 46.15C1122.42 46.9667 1122.6 47.7 1122.77 48.35L1120.79 48.825ZM1127.87 37.4C1128.17 37.4 1128.41 37.3417 1128.59 37.225C1128.79 37.1083 1128.93 36.9333 1128.99 36.7C1129.06 36.4667 1129.03 36.175 1128.92 35.825C1128.72 35.225 1128.53 34.7 1128.37 34.25C1128.2 33.7833 1128.03 33.4 1127.87 33.1C1127.72 32.7833 1127.56 32.55 1127.39 32.4C1127.23 32.25 1127.05 32.175 1126.87 32.175C1126.68 32.175 1126.45 32.2167 1126.17 32.3C1125.9 32.3833 1125.61 32.5083 1125.29 32.675C1124.99 32.8417 1124.68 33.05 1124.37 33.3C1124.05 33.55 1123.75 33.8417 1123.47 34.175L1123.49 33.975C1123.86 34.7417 1124.3 35.3833 1124.82 35.9C1125.35 36.4167 1125.88 36.8 1126.42 37.05C1126.97 37.2833 1127.45 37.4 1127.87 37.4ZM1143.35 26.55C1142.63 26.55 1142.09 26.3333 1141.72 25.9C1141.37 25.4667 1141.2 24.9583 1141.2 24.375C1141.2 23.8917 1141.29 23.4583 1141.47 23.075C1141.67 22.675 1141.95 22.3583 1142.3 22.125C1142.65 21.875 1143.04 21.75 1143.47 21.75C1143.87 21.75 1144.23 21.8667 1144.55 22.1C1144.87 22.3333 1145.12 22.6417 1145.3 23.025C1145.48 23.4083 1145.57 23.8167 1145.57 24.25C1145.57 24.9 1145.37 25.45 1144.95 25.9C1144.53 26.3333 1144 26.55 1143.35 26.55ZM1143.32 25.25C1143.61 25.25 1143.85 25.1583 1144.05 24.975C1144.27 24.7917 1144.37 24.55 1144.37 24.25C1144.37 23.9333 1144.27 23.675 1144.05 23.475C1143.83 23.2583 1143.6 23.15 1143.35 23.15C1143.03 23.15 1142.78 23.2583 1142.6 23.475C1142.43 23.6917 1142.35 23.9417 1142.35 24.225C1142.35 24.525 1142.44 24.775 1142.62 24.975C1142.81 25.1583 1143.04 25.25 1143.32 25.25ZM1132.9 39.125L1133.15 37.075C1133.69 37.075 1134.12 37.0417 1134.45 36.975C1134.79 36.8917 1135.06 36.7 1135.28 36.4C1135.51 36.0833 1135.73 35.5917 1135.93 34.925C1136.13 34.2583 1136.36 33.325 1136.63 32.125L1138.5 32.65C1138.4 33.0667 1138.29 33.5667 1138.15 34.15C1138.02 34.7333 1137.95 35.2667 1137.95 35.75C1137.95 36.0167 1138.02 36.25 1138.15 36.45C1138.29 36.65 1138.51 36.8083 1138.83 36.925C1139.16 37.025 1139.6 37.075 1140.15 37.075C1140.65 37.075 1141.06 37.0333 1141.38 36.95C1141.7 36.8667 1141.95 36.6667 1142.15 36.35C1142.37 36.0333 1142.56 35.525 1142.73 34.825C1142.9 34.125 1143.07 33.1667 1143.25 31.95L1145.15 32.3C1145.1 32.6 1145.05 32.9667 1144.98 33.4C1144.91 33.8333 1144.85 34.2667 1144.78 34.7C1144.73 35.1167 1144.7 35.4667 1144.7 35.75C1144.7 35.9833 1144.75 36.2083 1144.85 36.425C1144.97 36.625 1145.19 36.7833 1145.5 36.9C1145.84 37.0167 1146.33 37.075 1146.98 37.075C1147.81 37.075 1148.41 36.9 1148.78 36.55C1149.16 36.2 1149.36 35.6667 1149.36 34.95C1149.36 34.5667 1149.35 34.1667 1149.33 33.75C1149.31 33.3167 1149.28 32.8417 1149.23 32.325C1149.2 31.7917 1149.14 31.1833 1149.05 30.5L1150.88 30.375C1150.98 31.725 1151.09 32.8333 1151.21 33.7C1151.34 34.5667 1151.52 35.25 1151.75 35.75C1152 36.2333 1152.34 36.575 1152.75 36.775C1153.17 36.975 1153.72 37.075 1154.4 37.075C1154.75 37.075 1155 37.175 1155.15 37.375C1155.32 37.5583 1155.4 37.7833 1155.4 38.05C1155.4 38.3167 1155.29 38.5667 1155.05 38.8C1154.82 39.0167 1154.52 39.125 1154.15 39.125C1153.59 39.125 1153.08 39.05 1152.63 38.9C1152.2 38.7333 1151.81 38.5167 1151.48 38.25C1151.16 37.9667 1150.9 37.65 1150.68 37.3C1150.48 36.9333 1150.34 36.55 1150.25 36.15L1150.7 36.3C1150.52 37.05 1150.23 37.6333 1149.83 38.05C1149.45 38.45 1148.99 38.7333 1148.45 38.9C1147.92 39.05 1147.35 39.125 1146.75 39.125C1146.02 39.125 1145.42 39.0333 1144.95 38.85C1144.49 38.6667 1144.12 38.3917 1143.85 38.025C1143.6 37.6417 1143.44 37.1583 1143.35 36.575H1144.2C1143.89 37.2917 1143.55 37.8333 1143.2 38.2C1142.85 38.5667 1142.42 38.8167 1141.9 38.95C1141.39 39.0667 1140.7 39.125 1139.85 39.125C1139.44 39.125 1138.99 39.0583 1138.5 38.925C1138.04 38.7917 1137.63 38.5333 1137.28 38.15C1136.93 37.75 1136.72 37.1583 1136.65 36.375L1137.4 36.225C1137.12 37.075 1136.77 37.7083 1136.35 38.125C1135.95 38.525 1135.47 38.7917 1134.9 38.925C1134.34 39.0583 1133.67 39.125 1132.9 39.125ZM1154.27 48.275V46.875L1159.87 45.225V46.65L1154.27 48.275ZM1154.15 39.125L1154.4 37.075C1155.21 37.075 1155.86 37.025 1156.35 36.925C1156.83 36.825 1157.18 36.625 1157.4 36.325C1157.61 36.0083 1157.72 35.5417 1157.72 34.925C1157.72 34.5083 1157.65 34.0167 1157.52 33.45C1157.39 32.8667 1157.21 32.25 1157 31.6C1156.78 30.95 1156.55 30.3083 1156.3 29.675L1158.32 28.925C1158.54 29.4583 1158.74 30.0667 1158.92 30.75C1159.12 31.4333 1159.29 32.1083 1159.42 32.775C1159.55 33.4417 1159.62 34.025 1159.62 34.525C1159.62 35.1917 1159.55 35.7833 1159.4 36.3C1159.26 36.8 1159.05 37.2333 1158.77 37.6C1158.49 37.95 1158.12 38.2417 1157.67 38.475C1157.24 38.6917 1156.73 38.8583 1156.15 38.975C1155.56 39.075 1154.9 39.125 1154.15 39.125ZM1156.82 43.775C1156.47 43.775 1156.17 43.65 1155.92 43.4C1155.69 43.1667 1155.57 42.8833 1155.57 42.55C1155.57 42.2167 1155.69 41.925 1155.92 41.675C1156.17 41.425 1156.47 41.3 1156.82 41.3C1157.15 41.3 1157.44 41.425 1157.67 41.675C1157.92 41.925 1158.05 42.2167 1158.05 42.55C1158.05 42.8833 1157.92 43.1667 1157.67 43.4C1157.44 43.65 1157.15 43.775 1156.82 43.775Z" fill="black" fill-opacity="0.75"/>
<g clip-path="url(#clip0_165_54)">
<path d="M70.347 35.6016L70.2494 26.3726C70.2409 25.5636 69.5781 24.9147 68.7692 24.9233L59.5401 25.0209L53.0367 18.6802C52.459 18.1171 51.535 18.1269 50.9695 18.702L44.6017 25.1788L35.3726 25.2764C34.5636 25.2849 33.9148 25.9477 33.9233 26.7566L34.0209 35.9857L27.6802 42.4891C27.1171 43.0667 27.1269 43.9908 27.7021 44.5563L34.1788 50.9241L34.2764 60.1532C34.2849 60.9621 34.9477 61.611 35.7566 61.6025L44.9857 61.5049L51.489 67.8456C51.7779 68.1271 52.1533 68.2654 52.5272 68.2615C52.9011 68.2575 53.2735 68.1113 53.5562 67.8237L59.9241 61.347L69.1532 61.2494C69.9621 61.2408 70.611 60.5781 70.6025 59.7691L70.5049 50.5401L76.8456 44.0367C77.4087 43.4592 77.3989 42.5351 76.8237 41.9696L70.347 35.6016ZM67.9849 48.9279C67.7145 49.2054 67.5649 49.5786 67.569 49.966L67.6575 58.3353L59.2882 58.4238C58.9008 58.4279 58.5308 58.5854 58.2592 58.8616L52.4899 64.7295L46.5978 58.9849C46.3204 58.7144 45.9472 58.5649 45.5598 58.569L37.1904 58.6574L37.1019 50.2882C37.0979 49.9008 36.9404 49.5308 36.6642 49.2592L30.7962 43.4898L36.5409 37.5978C36.8113 37.3203 36.9609 36.9471 36.9568 36.5598L36.8683 28.1904L45.2376 28.1019C45.625 28.0978 45.995 27.9404 46.2666 27.6642L52.0359 21.7962L57.9281 27.5409C58.2055 27.8113 58.5787 27.9609 58.9661 27.9568L67.3354 27.8683L67.4238 36.2376C67.4279 36.6249 67.5854 36.995 67.8616 37.2666L73.7296 43.0359L67.9849 48.9279Z" fill="black"/>
</g>
<g clip-path="url(#clip1_165_54)">
<path d="M70.347 35.6016L70.2494 26.3726C70.2409 25.5636 69.5781 24.9147 68.7692 24.9233L59.5401 25.0209L53.0367 18.6802C52.459 18.1171 51.535 18.1269 50.9695 18.702L44.6017 25.1788L35.3726 25.2764C34.5636 25.2849 33.9148 25.9477 33.9233 26.7566L34.0209 35.9857L27.6802 42.4891C27.1171 43.0667 27.1269 43.9908 27.7021 44.5563L34.1788 50.9241L34.2764 60.1532C34.2849 60.9621 34.9477 61.611 35.7566 61.6025L44.9857 61.5049L51.489 67.8456C51.7779 68.1271 52.1533 68.2654 52.5272 68.2615C52.9011 68.2575 53.2735 68.1113 53.5562 67.8237L59.9241 61.347L69.1532 61.2494C69.9621 61.2408 70.611 60.5781 70.6025 59.7691L70.5049 50.5401L76.8456 44.0367C77.4087 43.4592 77.3989 42.5351 76.8237 41.9696L70.347 35.6016ZM67.9849 48.9279C67.7145 49.2054 67.5649 49.5786 67.569 49.966L67.6575 58.3353L59.2882 58.4238C58.9008 58.4279 58.5308 58.5854 58.2592 58.8616L52.4899 64.7295L46.5978 58.9849C46.3204 58.7144 45.9472 58.5649 45.5598 58.569L37.1904 58.6574L37.1019 50.2882C37.0979 49.9008 36.9404 49.5308 36.6642 49.2592L30.7962 43.4898L36.5409 37.5978C36.8113 37.3203 36.9609 36.9471 36.9568 36.5598L36.8683 28.1904L45.2376 28.1019C45.625 28.0978 45.995 27.9404 46.2666 27.6642L52.0359 21.7962L57.9281 27.5409C58.2055 27.8113 58.5787 27.9609 58.9661 27.9568L67.3354 27.8683L67.4238 36.2376C67.4279 36.6249 67.5854 36.995 67.8616 37.2666L73.7296 43.0359L67.9849 48.9279Z" fill="black"/>
<path d="M44.8 46.78L44.8 45.4L51.82 35.68L54 35.68L54 45.2L56 45.2L56 46.78L54 46.78L54 50L52.2 50L52.2 46.78L44.8 46.78ZM52.28 37.58L46.9 45.2L52.28 45.2L52.28 37.58Z" fill="black"/>
</g>
<defs>
<clipPath id="clip0_165_54">
<rect width="50" height="50" fill="white" transform="translate(27 18.5286) rotate(-0.605732)"/>
</clipPath>
<clipPath id="clip1_165_54">
<rect width="50" height="50" fill="white" transform="translate(27 18.5286) rotate(-0.605732)"/>
</clipPath>
</defs>
</svg>
